%TF.GenerationSoftware,KiCad,Pcbnew,9.0.7*%
%TF.CreationDate,2026-07-29T00:26:30-07:00*%
%TF.ProjectId,FN32ROV-XEBook-LED-KiCad,464e3332-524f-4562-9d58-45426f6f6b2d,rev?*%
%TF.SameCoordinates,Original*%
%TF.FileFunction,Copper,L2,Bot*%
%TF.FilePolarity,Positive*%
%FSLAX46Y46*%
G04 Gerber Fmt 4.6, Leading zero omitted, Abs format (unit mm)*
G04 Created by KiCad (PCBNEW 9.0.7) date 2026-07-29 00:26:30*
%MOMM*%
%LPD*%
G01*
G04 APERTURE LIST*
G04 Aperture macros list*
%AMRoundRect*
0 Rectangle with rounded corners*
0 $1 Rounding radius*
0 $2 $3 $4 $5 $6 $7 $8 $9 X,Y pos of 4 corners*
0 Add a 4 corners polygon primitive as box body*
4,1,4,$2,$3,$4,$5,$6,$7,$8,$9,$2,$3,0*
0 Add four circle primitives for the rounded corners*
1,1,$1+$1,$2,$3*
1,1,$1+$1,$4,$5*
1,1,$1+$1,$6,$7*
1,1,$1+$1,$8,$9*
0 Add four rect primitives between the rounded corners*
20,1,$1+$1,$2,$3,$4,$5,0*
20,1,$1+$1,$4,$5,$6,$7,0*
20,1,$1+$1,$6,$7,$8,$9,0*
20,1,$1+$1,$8,$9,$2,$3,0*%
G04 Aperture macros list end*
%TA.AperFunction,ComponentPad*%
%ADD10RoundRect,0.250000X0.350000X0.625000X-0.350000X0.625000X-0.350000X-0.625000X0.350000X-0.625000X0*%
%TD*%
%TA.AperFunction,ComponentPad*%
%ADD11O,1.200000X1.750000*%
%TD*%
%TA.AperFunction,ViaPad*%
%ADD12C,0.600000*%
%TD*%
%TA.AperFunction,Conductor*%
%ADD13C,0.200000*%
%TD*%
G04 APERTURE END LIST*
D10*
%TO.P,J1,1,Pin_1*%
%TO.N,/3V3*%
X123000000Y-109200000D03*
D11*
%TO.P,J1,2,Pin_2*%
%TO.N,/LED_WIFI*%
X121000000Y-109200000D03*
%TO.P,J1,3,Pin_3*%
%TO.N,/LED_BT*%
X119000000Y-109200000D03*
%TO.P,J1,4,Pin_4*%
%TO.N,/LED_SIO*%
X117000000Y-109200000D03*
%TD*%
D12*
%TO.N,/LED_BT*%
X119000000Y-103762300D03*
%TO.N,/LED_SIO*%
X117000000Y-101115100D03*
%TD*%
D13*
%TO.N,/LED_BT*%
X119000000Y-109200000D02*
X119000000Y-103762300D01*
%TO.N,/LED_SIO*%
X117000000Y-109200000D02*
X117000000Y-101115100D01*
%TD*%
%TA.AperFunction,NonConductor*%
G36*
X116282960Y-100520185D02*
G01*
X116328715Y-100572989D01*
X116338659Y-100642147D01*
X116319023Y-100693391D01*
X116290609Y-100735914D01*
X116290602Y-100735927D01*
X116230264Y-100881598D01*
X116230261Y-100881610D01*
X116199500Y-101036253D01*
X116199500Y-101193946D01*
X116230261Y-101348589D01*
X116230264Y-101348601D01*
X116290602Y-101494272D01*
X116290609Y-101494285D01*
X116378602Y-101625974D01*
X116399480Y-101692651D01*
X116399500Y-101694865D01*
X116399500Y-107937814D01*
X116379815Y-108004853D01*
X116348387Y-108038131D01*
X116283072Y-108085585D01*
X116160588Y-108208069D01*
X116160588Y-108208070D01*
X116160586Y-108208072D01*
X116160582Y-108208078D01*
X116058768Y-108348211D01*
X115980128Y-108502552D01*
X115926597Y-108667302D01*
X115899500Y-108838389D01*
X115899500Y-109561611D01*
X115926598Y-109732701D01*
X115980127Y-109897445D01*
X116058768Y-110051788D01*
X116160586Y-110191928D01*
X116283072Y-110314414D01*
X116423212Y-110416232D01*
X116577555Y-110494873D01*
X116742299Y-110548402D01*
X116913389Y-110575500D01*
X116913390Y-110575500D01*
X117086610Y-110575500D01*
X117086611Y-110575500D01*
X117257701Y-110548402D01*
X117422445Y-110494873D01*
X117576788Y-110416232D01*
X117716928Y-110314414D01*
X117839414Y-110191928D01*
X117899682Y-110108975D01*
X117955012Y-110066311D01*
X118024626Y-110060332D01*
X118086421Y-110092938D01*
X118100315Y-110108973D01*
X118160586Y-110191928D01*
X118283072Y-110314414D01*
X118423212Y-110416232D01*
X118577555Y-110494873D01*
X118742299Y-110548402D01*
X118913389Y-110575500D01*
X118913390Y-110575500D01*
X119086610Y-110575500D01*
X119086611Y-110575500D01*
X119257701Y-110548402D01*
X119422445Y-110494873D01*
X119576788Y-110416232D01*
X119716928Y-110314414D01*
X119839414Y-110191928D01*
X119899682Y-110108975D01*
X119955012Y-110066311D01*
X120024626Y-110060332D01*
X120086421Y-110092938D01*
X120100315Y-110108973D01*
X120160586Y-110191928D01*
X120283072Y-110314414D01*
X120423212Y-110416232D01*
X120577555Y-110494873D01*
X120742299Y-110548402D01*
X120913389Y-110575500D01*
X120913390Y-110575500D01*
X121086610Y-110575500D01*
X121086611Y-110575500D01*
X121257701Y-110548402D01*
X121422445Y-110494873D01*
X121576788Y-110416232D01*
X121716928Y-110314414D01*
X121824472Y-110206869D01*
X121885791Y-110173387D01*
X121955483Y-110178371D01*
X122011417Y-110220242D01*
X122017688Y-110229456D01*
X122057285Y-110293652D01*
X122057288Y-110293656D01*
X122181344Y-110417712D01*
X122330666Y-110509814D01*
X122497203Y-110564999D01*
X122599991Y-110575500D01*
X123400008Y-110575499D01*
X123400016Y-110575498D01*
X123400019Y-110575498D01*
X123456302Y-110569748D01*
X123502797Y-110564999D01*
X123669334Y-110509814D01*
X123818656Y-110417712D01*
X123942712Y-110293656D01*
X124034814Y-110144334D01*
X124089999Y-109977797D01*
X124100500Y-109875009D01*
X124100499Y-108524992D01*
X124089999Y-108422203D01*
X124034814Y-108255666D01*
X123942712Y-108106344D01*
X123818656Y-107982288D01*
X123693559Y-107905128D01*
X123669336Y-107890187D01*
X123669331Y-107890185D01*
X123637949Y-107879786D01*
X123502797Y-107835001D01*
X123502795Y-107835000D01*
X123400010Y-107824500D01*
X122599998Y-107824500D01*
X122599980Y-107824501D01*
X122497203Y-107835000D01*
X122497200Y-107835001D01*
X122330668Y-107890185D01*
X122330663Y-107890187D01*
X122181342Y-107982289D01*
X122057287Y-108106344D01*
X122017688Y-108170544D01*
X121965739Y-108217268D01*
X121896777Y-108228489D01*
X121832695Y-108200645D01*
X121824469Y-108193127D01*
X121716930Y-108085588D01*
X121716928Y-108085586D01*
X121576788Y-107983768D01*
X121422445Y-107905127D01*
X121257701Y-107851598D01*
X121257699Y-107851597D01*
X121257698Y-107851597D01*
X121126271Y-107830781D01*
X121086611Y-107824500D01*
X120913389Y-107824500D01*
X120873728Y-107830781D01*
X120742302Y-107851597D01*
X120577552Y-107905128D01*
X120423211Y-107983768D01*
X120359436Y-108030104D01*
X120283072Y-108085586D01*
X120283070Y-108085588D01*
X120283069Y-108085588D01*
X120160588Y-108208069D01*
X120160581Y-108208078D01*
X120100317Y-108291023D01*
X120044987Y-108333689D01*
X119975374Y-108339667D01*
X119913579Y-108307061D01*
X119899683Y-108291023D01*
X119839418Y-108208078D01*
X119839414Y-108208072D01*
X119716928Y-108085586D01*
X119651613Y-108038131D01*
X119608948Y-107982801D01*
X119600500Y-107937814D01*
X119600500Y-106893713D01*
X134649500Y-106893713D01*
X134649500Y-107106286D01*
X134682753Y-107316239D01*
X134748444Y-107518414D01*
X134844951Y-107707820D01*
X134969890Y-107879786D01*
X135120213Y-108030109D01*
X135292179Y-108155048D01*
X135292181Y-108155049D01*
X135292184Y-108155051D01*
X135481588Y-108251557D01*
X135683757Y-108317246D01*
X135893713Y-108350500D01*
X135893714Y-108350500D01*
X136106286Y-108350500D01*
X136106287Y-108350500D01*
X136316243Y-108317246D01*
X136518412Y-108251557D01*
X136707816Y-108155051D01*
X136774859Y-108106342D01*
X136879786Y-108030109D01*
X136879788Y-108030106D01*
X136879792Y-108030104D01*
X137030104Y-107879792D01*
X137030106Y-107879788D01*
X137030109Y-107879786D01*
X137155048Y-107707820D01*
X137155047Y-107707820D01*
X137155051Y-107707816D01*
X137251557Y-107518412D01*
X137317246Y-107316243D01*
X137350500Y-107106287D01*
X137350500Y-106893713D01*
X137317246Y-106683757D01*
X137251557Y-106481588D01*
X137155051Y-106292184D01*
X137155049Y-106292181D01*
X137155048Y-106292179D01*
X137030109Y-106120213D01*
X136879786Y-105969890D01*
X136707820Y-105844951D01*
X136518414Y-105748444D01*
X136518413Y-105748443D01*
X136518412Y-105748443D01*
X136316243Y-105682754D01*
X136316241Y-105682753D01*
X136316240Y-105682753D01*
X136154957Y-105657208D01*
X136106287Y-105649500D01*
X135893713Y-105649500D01*
X135845042Y-105657208D01*
X135683760Y-105682753D01*
X135481585Y-105748444D01*
X135292179Y-105844951D01*
X135120213Y-105969890D01*
X134969890Y-106120213D01*
X134844951Y-106292179D01*
X134748444Y-106481585D01*
X134682753Y-106683760D01*
X134649500Y-106893713D01*
X119600500Y-106893713D01*
X119600500Y-104342065D01*
X119620185Y-104275026D01*
X119621398Y-104273174D01*
X119709390Y-104141485D01*
X119709390Y-104141484D01*
X119709394Y-104141479D01*
X119769737Y-103995797D01*
X119800500Y-103841142D01*
X119800500Y-103683458D01*
X119800500Y-103683455D01*
X119800499Y-103683453D01*
X119769738Y-103528810D01*
X119769737Y-103528803D01*
X119769735Y-103528798D01*
X119709397Y-103383127D01*
X119709390Y-103383114D01*
X119621789Y-103252011D01*
X119621786Y-103252007D01*
X119510292Y-103140513D01*
X119510288Y-103140510D01*
X119379185Y-103052909D01*
X119379172Y-103052902D01*
X119233501Y-102992564D01*
X119233489Y-102992561D01*
X119078845Y-102961800D01*
X119078842Y-102961800D01*
X118921158Y-102961800D01*
X118921155Y-102961800D01*
X118766510Y-102992561D01*
X118766498Y-102992564D01*
X118620827Y-103052902D01*
X118620814Y-103052909D01*
X118489711Y-103140510D01*
X118489707Y-103140513D01*
X118378213Y-103252007D01*
X118378210Y-103252011D01*
X118290609Y-103383114D01*
X118290602Y-103383127D01*
X118230264Y-103528798D01*
X118230261Y-103528810D01*
X118199500Y-103683453D01*
X118199500Y-103841146D01*
X118230261Y-103995789D01*
X118230264Y-103995801D01*
X118290602Y-104141472D01*
X118290609Y-104141485D01*
X118378602Y-104273174D01*
X118399480Y-104339851D01*
X118399500Y-104342065D01*
X118399500Y-107937814D01*
X118379815Y-108004853D01*
X118348387Y-108038131D01*
X118283072Y-108085585D01*
X118160588Y-108208069D01*
X118160581Y-108208078D01*
X118100317Y-108291023D01*
X118044987Y-108333689D01*
X117975374Y-108339667D01*
X117913579Y-108307061D01*
X117899683Y-108291023D01*
X117839418Y-108208078D01*
X117839414Y-108208072D01*
X117716928Y-108085586D01*
X117651613Y-108038131D01*
X117608948Y-107982801D01*
X117600500Y-107937814D01*
X117600500Y-101694865D01*
X117620185Y-101627826D01*
X117621398Y-101625974D01*
X117709390Y-101494285D01*
X117709390Y-101494284D01*
X117709394Y-101494279D01*
X117769737Y-101348597D01*
X117800500Y-101193942D01*
X117800500Y-101036258D01*
X117800500Y-101036255D01*
X117800499Y-101036253D01*
X117769738Y-100881610D01*
X117769737Y-100881603D01*
X117769735Y-100881598D01*
X117709397Y-100735927D01*
X117709390Y-100735914D01*
X117680977Y-100693391D01*
X117660099Y-100626713D01*
X117678584Y-100559333D01*
X117730562Y-100512643D01*
X117784079Y-100500500D01*
X139375500Y-100500500D01*
X139442539Y-100520185D01*
X139488294Y-100572989D01*
X139499500Y-100624500D01*
X139499500Y-113375500D01*
X139479815Y-113442539D01*
X139427011Y-113488294D01*
X139375500Y-113499500D01*
X100624500Y-113499500D01*
X100557461Y-113479815D01*
X100511706Y-113427011D01*
X100500500Y-113375500D01*
X100500500Y-106893713D01*
X102649500Y-106893713D01*
X102649500Y-107106286D01*
X102682753Y-107316239D01*
X102748444Y-107518414D01*
X102844951Y-107707820D01*
X102969890Y-107879786D01*
X103120213Y-108030109D01*
X103292179Y-108155048D01*
X103292181Y-108155049D01*
X103292184Y-108155051D01*
X103481588Y-108251557D01*
X103683757Y-108317246D01*
X103893713Y-108350500D01*
X103893714Y-108350500D01*
X104106286Y-108350500D01*
X104106287Y-108350500D01*
X104316243Y-108317246D01*
X104518412Y-108251557D01*
X104707816Y-108155051D01*
X104774859Y-108106342D01*
X104879786Y-108030109D01*
X104879788Y-108030106D01*
X104879792Y-108030104D01*
X105030104Y-107879792D01*
X105030106Y-107879788D01*
X105030109Y-107879786D01*
X105155048Y-107707820D01*
X105155047Y-107707820D01*
X105155051Y-107707816D01*
X105251557Y-107518412D01*
X105317246Y-107316243D01*
X105350500Y-107106287D01*
X105350500Y-106893713D01*
X105317246Y-106683757D01*
X105251557Y-106481588D01*
X105155051Y-106292184D01*
X105155049Y-106292181D01*
X105155048Y-106292179D01*
X105030109Y-106120213D01*
X104879786Y-105969890D01*
X104707820Y-105844951D01*
X104518414Y-105748444D01*
X104518413Y-105748443D01*
X104518412Y-105748443D01*
X104316243Y-105682754D01*
X104316241Y-105682753D01*
X104316240Y-105682753D01*
X104154957Y-105657208D01*
X104106287Y-105649500D01*
X103893713Y-105649500D01*
X103845042Y-105657208D01*
X103683760Y-105682753D01*
X103481585Y-105748444D01*
X103292179Y-105844951D01*
X103120213Y-105969890D01*
X102969890Y-106120213D01*
X102844951Y-106292179D01*
X102748444Y-106481585D01*
X102682753Y-106683760D01*
X102649500Y-106893713D01*
X100500500Y-106893713D01*
X100500500Y-100624500D01*
X100520185Y-100557461D01*
X100572989Y-100511706D01*
X100624500Y-100500500D01*
X116215921Y-100500500D01*
X116282960Y-100520185D01*
G37*
%TD.AperFunction*%
M02*
