%TF.GenerationSoftware,KiCad,Pcbnew,9.0.7*%
%TF.CreationDate,2026-07-28T22:11:22-07:00*%
%TF.ProjectId,FN32ROV-XEBook-LED-KiCad,464e3332-524f-4562-9d58-45426f6f6b2d,rev?*%
%TF.SameCoordinates,Original*%
%TF.FileFunction,Copper,L2,Bot*%
%TF.FilePolarity,Positive*%
%FSLAX46Y46*%
G04 Gerber Fmt 4.6, Leading zero omitted, Abs format (unit mm)*
G04 Created by KiCad (PCBNEW 9.0.7) date 2026-07-28 22:11:22*
%MOMM*%
%LPD*%
G01*
G04 APERTURE LIST*
G04 Aperture macros list*
%AMRoundRect*
0 Rectangle with rounded corners*
0 $1 Rounding radius*
0 $2 $3 $4 $5 $6 $7 $8 $9 X,Y pos of 4 corners*
0 Add a 4 corners polygon primitive as box body*
4,1,4,$2,$3,$4,$5,$6,$7,$8,$9,$2,$3,0*
0 Add four circle primitives for the rounded corners*
1,1,$1+$1,$2,$3*
1,1,$1+$1,$4,$5*
1,1,$1+$1,$6,$7*
1,1,$1+$1,$8,$9*
0 Add four rect primitives between the rounded corners*
20,1,$1+$1,$2,$3,$4,$5,0*
20,1,$1+$1,$4,$5,$6,$7,0*
20,1,$1+$1,$6,$7,$8,$9,0*
20,1,$1+$1,$8,$9,$2,$3,0*%
G04 Aperture macros list end*
%TA.AperFunction,SMDPad,CuDef*%
%ADD10RoundRect,0.250000X0.250000X2.500000X-0.250000X2.500000X-0.250000X-2.500000X0.250000X-2.500000X0*%
%TD*%
%TA.AperFunction,SMDPad,CuDef*%
%ADD11RoundRect,0.250000X0.550000X1.250000X-0.550000X1.250000X-0.550000X-1.250000X0.550000X-1.250000X0*%
%TD*%
%TA.AperFunction,ViaPad*%
%ADD12C,0.600000*%
%TD*%
%TA.AperFunction,Conductor*%
%ADD13C,0.200000*%
%TD*%
G04 APERTURE END LIST*
D10*
%TO.P,J1,1*%
%TO.N,3V3*%
X123000000Y-105500000D03*
%TO.P,J1,2*%
%TO.N,LED_WIFI*%
X121000000Y-105500000D03*
%TO.P,J1,3*%
%TO.N,LED_BT*%
X119000000Y-105500000D03*
%TO.P,J1,4*%
%TO.N,LED_SIO*%
X117000000Y-105500000D03*
D11*
%TO.P,J1,MP*%
%TO.N,N/C*%
X125400000Y-103250000D03*
X114600000Y-103250000D03*
%TD*%
D12*
%TO.N,3V3*%
X124003600Y-103725000D03*
%TO.N,LED_WIFI*%
X115378300Y-106275000D03*
%TO.N,LED_BT*%
X124622300Y-106275000D03*
%TO.N,LED_SIO*%
X117000000Y-109120400D03*
%TD*%
D13*
%TO.N,3V3*%
X123000000Y-104728600D02*
X124003600Y-103725000D01*
X123000000Y-105500000D02*
X123000000Y-104728600D01*
%TO.N,LED_WIFI*%
X121000000Y-103910600D02*
X119536700Y-102447300D01*
X116500600Y-102447300D02*
X116104100Y-102843800D01*
X121000000Y-105500000D02*
X121000000Y-103910600D01*
X116104100Y-105549200D02*
X115378300Y-106275000D01*
X116104100Y-102843800D02*
X116104100Y-105549200D01*
X119536700Y-102447300D02*
X116500600Y-102447300D01*
%TO.N,LED_BT*%
X124622300Y-107428600D02*
X124622300Y-106275000D01*
X123468400Y-108582500D02*
X124622300Y-107428600D01*
X120530500Y-108582500D02*
X123468400Y-108582500D01*
X119000000Y-107052000D02*
X120530500Y-108582500D01*
X119000000Y-105500000D02*
X119000000Y-107052000D01*
%TO.N,LED_SIO*%
X117000000Y-105500000D02*
X117000000Y-109120400D01*
%TD*%
%TA.AperFunction,NonConductor*%
G36*
X139442539Y-100520185D02*
G01*
X139488294Y-100572989D01*
X139499500Y-100624500D01*
X139499500Y-109375500D01*
X139479815Y-109442539D01*
X139427011Y-109488294D01*
X139375500Y-109499500D01*
X117891869Y-109499500D01*
X117824830Y-109479815D01*
X117779075Y-109427011D01*
X117769131Y-109357853D01*
X117770252Y-109351308D01*
X117800500Y-109199244D01*
X117800500Y-109041555D01*
X117800499Y-109041553D01*
X117769738Y-108886910D01*
X117769737Y-108886903D01*
X117769735Y-108886898D01*
X117709397Y-108741227D01*
X117706521Y-108735846D01*
X117707885Y-108735116D01*
X117689279Y-108675670D01*
X117707770Y-108608292D01*
X117725570Y-108585797D01*
X117842712Y-108468656D01*
X117894461Y-108384756D01*
X117946409Y-108338032D01*
X118015371Y-108326809D01*
X118079454Y-108354653D01*
X118105538Y-108384756D01*
X118157288Y-108468656D01*
X118281344Y-108592712D01*
X118430666Y-108684814D01*
X118597203Y-108739999D01*
X118699991Y-108750500D01*
X119300008Y-108750499D01*
X119300016Y-108750498D01*
X119300019Y-108750498D01*
X119356302Y-108744748D01*
X119402797Y-108739999D01*
X119569334Y-108684814D01*
X119618397Y-108654551D01*
X119685787Y-108636111D01*
X119752451Y-108657033D01*
X119771174Y-108672409D01*
X120045639Y-108946874D01*
X120045649Y-108946885D01*
X120049979Y-108951215D01*
X120049980Y-108951216D01*
X120161784Y-109063020D01*
X120248595Y-109113139D01*
X120248597Y-109113141D01*
X120286651Y-109135111D01*
X120298715Y-109142077D01*
X120451443Y-109183001D01*
X120451446Y-109183001D01*
X120617153Y-109183001D01*
X120617169Y-109183000D01*
X123381731Y-109183000D01*
X123381747Y-109183001D01*
X123389343Y-109183001D01*
X123547454Y-109183001D01*
X123547457Y-109183001D01*
X123700185Y-109142077D01*
X123750304Y-109113139D01*
X123837116Y-109063020D01*
X123948920Y-108951216D01*
X123948920Y-108951214D01*
X123959128Y-108941007D01*
X123959130Y-108941004D01*
X124991013Y-107909121D01*
X124991016Y-107909120D01*
X125102820Y-107797316D01*
X125152939Y-107710504D01*
X125181877Y-107660385D01*
X125222801Y-107507657D01*
X125222801Y-107349543D01*
X125222801Y-107341948D01*
X125222800Y-107341930D01*
X125222800Y-106854765D01*
X125242485Y-106787726D01*
X125243698Y-106785874D01*
X125331690Y-106654185D01*
X125331690Y-106654184D01*
X125331694Y-106654179D01*
X125392037Y-106508497D01*
X125422800Y-106353842D01*
X125422800Y-106196158D01*
X125422800Y-106196155D01*
X125422799Y-106196153D01*
X125392038Y-106041510D01*
X125392037Y-106041503D01*
X125392035Y-106041498D01*
X125331697Y-105895827D01*
X125331690Y-105895814D01*
X125244089Y-105764711D01*
X125244086Y-105764707D01*
X125132592Y-105653213D01*
X125132588Y-105653210D01*
X125001485Y-105565609D01*
X125001472Y-105565602D01*
X124855801Y-105505264D01*
X124855792Y-105505261D01*
X124814408Y-105497029D01*
X124814393Y-105497027D01*
X124701142Y-105474500D01*
X124543458Y-105474500D01*
X124543455Y-105474500D01*
X124388810Y-105505261D01*
X124388798Y-105505264D01*
X124243127Y-105565602D01*
X124243116Y-105565608D01*
X124193389Y-105598835D01*
X124126711Y-105619712D01*
X124059331Y-105601227D01*
X124012642Y-105549248D01*
X124000499Y-105495732D01*
X124000499Y-104989572D01*
X124020184Y-104922533D01*
X124072988Y-104876778D01*
X124142146Y-104866834D01*
X124205702Y-104895859D01*
X124230036Y-104924474D01*
X124257288Y-104968656D01*
X124381344Y-105092712D01*
X124530666Y-105184814D01*
X124697203Y-105239999D01*
X124799991Y-105250500D01*
X126000008Y-105250499D01*
X126102797Y-105239999D01*
X126269334Y-105184814D01*
X126418656Y-105092712D01*
X126542712Y-104968656D01*
X126588937Y-104893713D01*
X134649500Y-104893713D01*
X134649500Y-105106287D01*
X134682754Y-105316243D01*
X134741495Y-105497029D01*
X134748444Y-105518414D01*
X134844951Y-105707820D01*
X134969890Y-105879786D01*
X135120213Y-106030109D01*
X135292179Y-106155048D01*
X135292181Y-106155049D01*
X135292184Y-106155051D01*
X135481588Y-106251557D01*
X135683757Y-106317246D01*
X135893713Y-106350500D01*
X135893714Y-106350500D01*
X136106286Y-106350500D01*
X136106287Y-106350500D01*
X136316243Y-106317246D01*
X136518412Y-106251557D01*
X136707816Y-106155051D01*
X136729789Y-106139086D01*
X136879786Y-106030109D01*
X136879788Y-106030106D01*
X136879792Y-106030104D01*
X137030104Y-105879792D01*
X137030106Y-105879788D01*
X137030109Y-105879786D01*
X137155048Y-105707820D01*
X137155047Y-105707820D01*
X137155051Y-105707816D01*
X137251557Y-105518412D01*
X137317246Y-105316243D01*
X137350500Y-105106287D01*
X137350500Y-104893713D01*
X137317246Y-104683757D01*
X137251557Y-104481588D01*
X137155051Y-104292184D01*
X137155049Y-104292181D01*
X137155048Y-104292179D01*
X137030109Y-104120213D01*
X136879786Y-103969890D01*
X136707820Y-103844951D01*
X136518414Y-103748444D01*
X136518413Y-103748443D01*
X136518412Y-103748443D01*
X136316243Y-103682754D01*
X136316241Y-103682753D01*
X136316240Y-103682753D01*
X136154957Y-103657208D01*
X136106287Y-103649500D01*
X135893713Y-103649500D01*
X135845042Y-103657208D01*
X135683760Y-103682753D01*
X135481585Y-103748444D01*
X135292179Y-103844951D01*
X135120213Y-103969890D01*
X134969890Y-104120213D01*
X134844951Y-104292179D01*
X134748444Y-104481585D01*
X134682753Y-104683760D01*
X134660582Y-104823744D01*
X134649500Y-104893713D01*
X126588937Y-104893713D01*
X126634814Y-104819334D01*
X126689999Y-104652797D01*
X126700500Y-104550009D01*
X126700499Y-101949992D01*
X126694138Y-101887726D01*
X126689999Y-101847203D01*
X126689998Y-101847200D01*
X126689865Y-101846799D01*
X126634814Y-101680666D01*
X126542712Y-101531344D01*
X126418656Y-101407288D01*
X126269334Y-101315186D01*
X126102797Y-101260001D01*
X126102795Y-101260000D01*
X126000010Y-101249500D01*
X124799998Y-101249500D01*
X124799981Y-101249501D01*
X124697203Y-101260000D01*
X124697200Y-101260001D01*
X124530668Y-101315185D01*
X124530663Y-101315187D01*
X124381342Y-101407289D01*
X124257289Y-101531342D01*
X124165187Y-101680663D01*
X124165186Y-101680666D01*
X124110001Y-101847203D01*
X124110001Y-101847204D01*
X124110000Y-101847204D01*
X124099500Y-101949983D01*
X124099500Y-102510425D01*
X124079815Y-102577464D01*
X124027011Y-102623219D01*
X123957853Y-102633163D01*
X123894297Y-102604138D01*
X123869962Y-102575522D01*
X123842714Y-102531347D01*
X123842711Y-102531343D01*
X123718657Y-102407289D01*
X123718656Y-102407288D01*
X123569334Y-102315186D01*
X123402797Y-102260001D01*
X123402795Y-102260000D01*
X123300010Y-102249500D01*
X122699998Y-102249500D01*
X122699980Y-102249501D01*
X122597203Y-102260000D01*
X122597200Y-102260001D01*
X122430668Y-102315185D01*
X122430663Y-102315187D01*
X122281342Y-102407289D01*
X122157289Y-102531342D01*
X122105539Y-102615243D01*
X122053591Y-102661967D01*
X121984628Y-102673190D01*
X121920546Y-102645346D01*
X121894461Y-102615243D01*
X121869961Y-102575522D01*
X121842712Y-102531344D01*
X121718656Y-102407288D01*
X121569334Y-102315186D01*
X121402797Y-102260001D01*
X121402795Y-102260000D01*
X121300010Y-102249500D01*
X120699998Y-102249500D01*
X120699980Y-102249501D01*
X120597203Y-102260000D01*
X120597200Y-102260001D01*
X120430666Y-102315186D01*
X120430665Y-102315186D01*
X120404731Y-102331182D01*
X120337338Y-102349620D01*
X120270675Y-102328695D01*
X120251957Y-102313322D01*
X120024290Y-102085655D01*
X120024288Y-102085652D01*
X119905417Y-101966781D01*
X119905416Y-101966780D01*
X119818604Y-101916660D01*
X119818604Y-101916659D01*
X119818600Y-101916658D01*
X119768485Y-101887723D01*
X119615757Y-101846799D01*
X119457643Y-101846799D01*
X119450047Y-101846799D01*
X119450031Y-101846800D01*
X116587270Y-101846800D01*
X116587254Y-101846799D01*
X116579658Y-101846799D01*
X116421543Y-101846799D01*
X116345179Y-101867261D01*
X116268814Y-101887723D01*
X116268809Y-101887726D01*
X116131890Y-101966775D01*
X116131886Y-101966778D01*
X116108020Y-101990644D01*
X116046696Y-102024128D01*
X115977004Y-102019142D01*
X115921072Y-101977270D01*
X115896982Y-101915562D01*
X115889999Y-101847203D01*
X115889998Y-101847200D01*
X115889865Y-101846799D01*
X115834814Y-101680666D01*
X115742712Y-101531344D01*
X115618656Y-101407288D01*
X115469334Y-101315186D01*
X115302797Y-101260001D01*
X115302795Y-101260000D01*
X115200010Y-101249500D01*
X113999998Y-101249500D01*
X113999981Y-101249501D01*
X113897203Y-101260000D01*
X113897200Y-101260001D01*
X113730668Y-101315185D01*
X113730663Y-101315187D01*
X113581342Y-101407289D01*
X113457289Y-101531342D01*
X113365187Y-101680663D01*
X113365186Y-101680666D01*
X113310001Y-101847203D01*
X113310001Y-101847204D01*
X113310000Y-101847204D01*
X113299500Y-101949983D01*
X113299500Y-104550001D01*
X113299501Y-104550018D01*
X113310000Y-104652796D01*
X113310001Y-104652799D01*
X113365185Y-104819331D01*
X113365187Y-104819336D01*
X113394484Y-104866834D01*
X113457288Y-104968656D01*
X113581344Y-105092712D01*
X113730666Y-105184814D01*
X113897203Y-105239999D01*
X113999991Y-105250500D01*
X115166593Y-105250499D01*
X115233632Y-105270184D01*
X115279387Y-105322987D01*
X115289331Y-105392146D01*
X115260306Y-105455702D01*
X115201528Y-105493476D01*
X115190785Y-105496116D01*
X115144808Y-105505261D01*
X115144798Y-105505264D01*
X114999127Y-105565602D01*
X114999114Y-105565609D01*
X114868011Y-105653210D01*
X114868007Y-105653213D01*
X114756513Y-105764707D01*
X114756510Y-105764711D01*
X114668909Y-105895814D01*
X114668902Y-105895827D01*
X114608564Y-106041498D01*
X114608561Y-106041510D01*
X114577800Y-106196153D01*
X114577800Y-106353846D01*
X114608561Y-106508489D01*
X114608564Y-106508501D01*
X114668902Y-106654172D01*
X114668909Y-106654185D01*
X114756510Y-106785288D01*
X114756513Y-106785292D01*
X114868007Y-106896786D01*
X114868011Y-106896789D01*
X114999114Y-106984390D01*
X114999127Y-106984397D01*
X115144798Y-107044735D01*
X115144803Y-107044737D01*
X115299453Y-107075499D01*
X115299456Y-107075500D01*
X115299458Y-107075500D01*
X115457144Y-107075500D01*
X115457145Y-107075499D01*
X115611797Y-107044737D01*
X115757479Y-106984394D01*
X115757484Y-106984390D01*
X115757487Y-106984389D01*
X115806608Y-106951567D01*
X115873285Y-106930688D01*
X115940665Y-106949172D01*
X115987356Y-107001150D01*
X115999500Y-107054668D01*
X115999500Y-108050001D01*
X115999501Y-108050018D01*
X116010000Y-108152796D01*
X116010001Y-108152799D01*
X116065185Y-108319331D01*
X116065187Y-108319336D01*
X116076719Y-108338032D01*
X116157287Y-108468655D01*
X116157289Y-108468657D01*
X116274422Y-108585790D01*
X116307907Y-108647113D01*
X116302923Y-108716805D01*
X116293243Y-108735721D01*
X116293479Y-108735847D01*
X116290602Y-108741228D01*
X116230264Y-108886898D01*
X116230261Y-108886910D01*
X116199500Y-109041553D01*
X116199500Y-109041558D01*
X116199500Y-109199242D01*
X116199500Y-109199244D01*
X116199499Y-109199244D01*
X116229748Y-109351308D01*
X116223521Y-109420900D01*
X116180658Y-109476077D01*
X116114769Y-109499322D01*
X116108131Y-109499500D01*
X100624500Y-109499500D01*
X100557461Y-109479815D01*
X100511706Y-109427011D01*
X100500500Y-109375500D01*
X100500500Y-104893713D01*
X102649500Y-104893713D01*
X102649500Y-105106287D01*
X102682754Y-105316243D01*
X102741495Y-105497029D01*
X102748444Y-105518414D01*
X102844951Y-105707820D01*
X102969890Y-105879786D01*
X103120213Y-106030109D01*
X103292179Y-106155048D01*
X103292181Y-106155049D01*
X103292184Y-106155051D01*
X103481588Y-106251557D01*
X103683757Y-106317246D01*
X103893713Y-106350500D01*
X103893714Y-106350500D01*
X104106286Y-106350500D01*
X104106287Y-106350500D01*
X104316243Y-106317246D01*
X104518412Y-106251557D01*
X104707816Y-106155051D01*
X104729789Y-106139086D01*
X104879786Y-106030109D01*
X104879788Y-106030106D01*
X104879792Y-106030104D01*
X105030104Y-105879792D01*
X105030106Y-105879788D01*
X105030109Y-105879786D01*
X105155048Y-105707820D01*
X105155047Y-105707820D01*
X105155051Y-105707816D01*
X105251557Y-105518412D01*
X105317246Y-105316243D01*
X105350500Y-105106287D01*
X105350500Y-104893713D01*
X105317246Y-104683757D01*
X105251557Y-104481588D01*
X105155051Y-104292184D01*
X105155049Y-104292181D01*
X105155048Y-104292179D01*
X105030109Y-104120213D01*
X104879786Y-103969890D01*
X104707820Y-103844951D01*
X104518414Y-103748444D01*
X104518413Y-103748443D01*
X104518412Y-103748443D01*
X104316243Y-103682754D01*
X104316241Y-103682753D01*
X104316240Y-103682753D01*
X104154957Y-103657208D01*
X104106287Y-103649500D01*
X103893713Y-103649500D01*
X103845042Y-103657208D01*
X103683760Y-103682753D01*
X103481585Y-103748444D01*
X103292179Y-103844951D01*
X103120213Y-103969890D01*
X102969890Y-104120213D01*
X102844951Y-104292179D01*
X102748444Y-104481585D01*
X102682753Y-104683760D01*
X102660582Y-104823744D01*
X102649500Y-104893713D01*
X100500500Y-104893713D01*
X100500500Y-100624500D01*
X100520185Y-100557461D01*
X100572989Y-100511706D01*
X100624500Y-100500500D01*
X139375500Y-100500500D01*
X139442539Y-100520185D01*
G37*
%TD.AperFunction*%
M02*
