%TF.GenerationSoftware,KiCad,Pcbnew,9.0.7*%
%TF.CreationDate,2026-07-28T22:11:22-07:00*%
%TF.ProjectId,FN32ROV-XEBook-LED-KiCad,464e3332-524f-4562-9d58-45426f6f6b2d,rev?*%
%TF.SameCoordinates,Original*%
%TF.FileFunction,Copper,L1,Top*%
%TF.FilePolarity,Positive*%
%FSLAX46Y46*%
G04 Gerber Fmt 4.6, Leading zero omitted, Abs format (unit mm)*
G04 Created by KiCad (PCBNEW 9.0.7) date 2026-07-28 22:11:22*
%MOMM*%
%LPD*%
G01*
G04 APERTURE LIST*
G04 Aperture macros list*
%AMRoundRect*
0 Rectangle with rounded corners*
0 $1 Rounding radius*
0 $2 $3 $4 $5 $6 $7 $8 $9 X,Y pos of 4 corners*
0 Add a 4 corners polygon primitive as box body*
4,1,4,$2,$3,$4,$5,$6,$7,$8,$9,$2,$3,0*
0 Add four circle primitives for the rounded corners*
1,1,$1+$1,$2,$3*
1,1,$1+$1,$4,$5*
1,1,$1+$1,$6,$7*
1,1,$1+$1,$8,$9*
0 Add four rect primitives between the rounded corners*
20,1,$1+$1,$2,$3,$4,$5,0*
20,1,$1+$1,$4,$5,$6,$7,0*
20,1,$1+$1,$6,$7,$8,$9,0*
20,1,$1+$1,$8,$9,$2,$3,0*%
G04 Aperture macros list end*
%TA.AperFunction,SMDPad,CuDef*%
%ADD10RoundRect,0.147500X-0.147500X-0.172500X0.147500X-0.172500X0.147500X0.172500X-0.147500X0.172500X0*%
%TD*%
%TA.AperFunction,ViaPad*%
%ADD11C,0.600000*%
%TD*%
%TA.AperFunction,Conductor*%
%ADD12C,0.200000*%
%TD*%
G04 APERTURE END LIST*
D10*
%TO.P,D2,1*%
%TO.N,LED_BT*%
X119515000Y-105000000D03*
%TO.P,D2,2*%
%TO.N,3V3*%
X120485000Y-105000000D03*
%TD*%
%TO.P,D1,1*%
%TO.N,LED_WIFI*%
X109515000Y-105000000D03*
%TO.P,D1,2*%
%TO.N,3V3*%
X110485000Y-105000000D03*
%TD*%
%TO.P,D3,1*%
%TO.N,LED_SIO*%
X129515000Y-105000000D03*
%TO.P,D3,2*%
%TO.N,3V3*%
X130485000Y-105000000D03*
%TD*%
D11*
%TO.N,3V3*%
X124003600Y-103725000D03*
%TO.N,LED_WIFI*%
X115378300Y-106275000D03*
%TO.N,LED_BT*%
X124622300Y-106275000D03*
%TO.N,LED_SIO*%
X117000000Y-109120400D03*
%TD*%
D12*
%TO.N,3V3*%
X121760000Y-103725000D02*
X120485000Y-105000000D01*
X124003600Y-103725000D02*
X121760000Y-103725000D01*
X129210000Y-103725000D02*
X124003600Y-103725000D01*
X111107300Y-104377700D02*
X119862700Y-104377700D01*
X130485000Y-105000000D02*
X129210000Y-103725000D01*
X119862700Y-104377700D02*
X120485000Y-105000000D01*
X110485000Y-105000000D02*
X111107300Y-104377700D01*
%TO.N,LED_WIFI*%
X110790000Y-106275000D02*
X109515000Y-105000000D01*
X115378300Y-106275000D02*
X110790000Y-106275000D01*
%TO.N,LED_BT*%
X120790000Y-106275000D02*
X119515000Y-105000000D01*
X124622300Y-106275000D02*
X120790000Y-106275000D01*
%TO.N,LED_SIO*%
X125394600Y-109120400D02*
X117000000Y-109120400D01*
X129515000Y-105000000D02*
X125394600Y-109120400D01*
%TD*%
%TA.AperFunction,NonConductor*%
G36*
X139442539Y-100520185D02*
G01*
X139488294Y-100572989D01*
X139499500Y-100624500D01*
X139499500Y-109375500D01*
X139479815Y-109442539D01*
X139427011Y-109488294D01*
X139375500Y-109499500D01*
X126164096Y-109499500D01*
X126097057Y-109479815D01*
X126051302Y-109427011D01*
X126041358Y-109357853D01*
X126070383Y-109294297D01*
X126076415Y-109287819D01*
X126844335Y-108519900D01*
X129507417Y-105856819D01*
X129568740Y-105823334D01*
X129595098Y-105820500D01*
X129727932Y-105820500D01*
X129727940Y-105820500D01*
X129764675Y-105817609D01*
X129764677Y-105817608D01*
X129764679Y-105817608D01*
X129921892Y-105771933D01*
X129921892Y-105771932D01*
X129921897Y-105771931D01*
X129936879Y-105763070D01*
X130004601Y-105745887D01*
X130063120Y-105763070D01*
X130078103Y-105771931D01*
X130078105Y-105771931D01*
X130078106Y-105771932D01*
X130078107Y-105771933D01*
X130235320Y-105817608D01*
X130235323Y-105817608D01*
X130235325Y-105817609D01*
X130272060Y-105820500D01*
X130272068Y-105820500D01*
X130697932Y-105820500D01*
X130697940Y-105820500D01*
X130734675Y-105817609D01*
X130734677Y-105817608D01*
X130734679Y-105817608D01*
X130891892Y-105771933D01*
X130891893Y-105771932D01*
X130891897Y-105771931D01*
X131032820Y-105688590D01*
X131148590Y-105572820D01*
X131231931Y-105431897D01*
X131231932Y-105431893D01*
X131231933Y-105431892D01*
X131277608Y-105274679D01*
X131277609Y-105274673D01*
X131280499Y-105237947D01*
X131280500Y-105237940D01*
X131280500Y-104893713D01*
X134649500Y-104893713D01*
X134649500Y-105106286D01*
X134670350Y-105237932D01*
X134682754Y-105316243D01*
X134720332Y-105431897D01*
X134748444Y-105518414D01*
X134844951Y-105707820D01*
X134969890Y-105879786D01*
X135120213Y-106030109D01*
X135292179Y-106155048D01*
X135292181Y-106155049D01*
X135292184Y-106155051D01*
X135481588Y-106251557D01*
X135683757Y-106317246D01*
X135893713Y-106350500D01*
X135893714Y-106350500D01*
X136106286Y-106350500D01*
X136106287Y-106350500D01*
X136316243Y-106317246D01*
X136518412Y-106251557D01*
X136707816Y-106155051D01*
X136729789Y-106139086D01*
X136879786Y-106030109D01*
X136879788Y-106030106D01*
X136879792Y-106030104D01*
X137030104Y-105879792D01*
X137030106Y-105879788D01*
X137030109Y-105879786D01*
X137155048Y-105707820D01*
X137155047Y-105707820D01*
X137155051Y-105707816D01*
X137251557Y-105518412D01*
X137317246Y-105316243D01*
X137350500Y-105106287D01*
X137350500Y-104893713D01*
X137317246Y-104683757D01*
X137251557Y-104481588D01*
X137155051Y-104292184D01*
X137155049Y-104292181D01*
X137155048Y-104292179D01*
X137030109Y-104120213D01*
X136879786Y-103969890D01*
X136707820Y-103844951D01*
X136518414Y-103748444D01*
X136518413Y-103748443D01*
X136518412Y-103748443D01*
X136316243Y-103682754D01*
X136316241Y-103682753D01*
X136316240Y-103682753D01*
X136154957Y-103657208D01*
X136106287Y-103649500D01*
X135893713Y-103649500D01*
X135845042Y-103657208D01*
X135683760Y-103682753D01*
X135481585Y-103748444D01*
X135292179Y-103844951D01*
X135120213Y-103969890D01*
X134969890Y-104120213D01*
X134844951Y-104292179D01*
X134748444Y-104481585D01*
X134682753Y-104683760D01*
X134649500Y-104893713D01*
X131280500Y-104893713D01*
X131280500Y-104762060D01*
X131277609Y-104725325D01*
X131277608Y-104725320D01*
X131231933Y-104568107D01*
X131231931Y-104568104D01*
X131231931Y-104568103D01*
X131148590Y-104427180D01*
X131148588Y-104427178D01*
X131148585Y-104427174D01*
X131032825Y-104311414D01*
X131032817Y-104311408D01*
X130891895Y-104228068D01*
X130891892Y-104228066D01*
X130734679Y-104182391D01*
X130734673Y-104182390D01*
X130697947Y-104179500D01*
X130697940Y-104179500D01*
X130565097Y-104179500D01*
X130498058Y-104159815D01*
X130477416Y-104143181D01*
X129697590Y-103363355D01*
X129697588Y-103363352D01*
X129578717Y-103244481D01*
X129578716Y-103244480D01*
X129491904Y-103194360D01*
X129491904Y-103194359D01*
X129491900Y-103194358D01*
X129441785Y-103165423D01*
X129289057Y-103124499D01*
X129130943Y-103124499D01*
X129123347Y-103124499D01*
X129123331Y-103124500D01*
X124583366Y-103124500D01*
X124516327Y-103104815D01*
X124514475Y-103103602D01*
X124382785Y-103015609D01*
X124382772Y-103015602D01*
X124237101Y-102955264D01*
X124237089Y-102955261D01*
X124082445Y-102924500D01*
X124082442Y-102924500D01*
X123924758Y-102924500D01*
X123924755Y-102924500D01*
X123770110Y-102955261D01*
X123770098Y-102955264D01*
X123624427Y-103015602D01*
X123624414Y-103015609D01*
X123492725Y-103103602D01*
X123426047Y-103124480D01*
X123423834Y-103124500D01*
X121839057Y-103124500D01*
X121680942Y-103124500D01*
X121528215Y-103165423D01*
X121528214Y-103165423D01*
X121528212Y-103165424D01*
X121528209Y-103165425D01*
X121478096Y-103194359D01*
X121478095Y-103194360D01*
X121434689Y-103219420D01*
X121391285Y-103244479D01*
X121391282Y-103244481D01*
X121279478Y-103356286D01*
X120572680Y-104063083D01*
X120564734Y-104067421D01*
X120559309Y-104074669D01*
X120534549Y-104083903D01*
X120511357Y-104096568D01*
X120502327Y-104095922D01*
X120493845Y-104099086D01*
X120468024Y-104093469D01*
X120441665Y-104091584D01*
X120432611Y-104085765D01*
X120425572Y-104084234D01*
X120397318Y-104063083D01*
X120350290Y-104016055D01*
X120350288Y-104016052D01*
X120231417Y-103897181D01*
X120231409Y-103897175D01*
X120140948Y-103844948D01*
X120140947Y-103844948D01*
X120121310Y-103833610D01*
X120094485Y-103818123D01*
X119941757Y-103777199D01*
X119783643Y-103777199D01*
X119776047Y-103777199D01*
X119776031Y-103777200D01*
X111186357Y-103777200D01*
X111028243Y-103777200D01*
X110875515Y-103818123D01*
X110875514Y-103818123D01*
X110875512Y-103818124D01*
X110875509Y-103818125D01*
X110829054Y-103844947D01*
X110829052Y-103844948D01*
X110738590Y-103897175D01*
X110738582Y-103897181D01*
X110626778Y-104008985D01*
X110626778Y-104008986D01*
X110492582Y-104143182D01*
X110431262Y-104176666D01*
X110404903Y-104179500D01*
X110272052Y-104179500D01*
X110235326Y-104182390D01*
X110235320Y-104182391D01*
X110078105Y-104228067D01*
X110063117Y-104236931D01*
X109995392Y-104254110D01*
X109936883Y-104236931D01*
X109921894Y-104228067D01*
X109764679Y-104182391D01*
X109764673Y-104182390D01*
X109727947Y-104179500D01*
X109727940Y-104179500D01*
X109302060Y-104179500D01*
X109302052Y-104179500D01*
X109265326Y-104182390D01*
X109265320Y-104182391D01*
X109108107Y-104228066D01*
X109108104Y-104228068D01*
X108967182Y-104311408D01*
X108967174Y-104311414D01*
X108851414Y-104427174D01*
X108851408Y-104427182D01*
X108768068Y-104568104D01*
X108768066Y-104568107D01*
X108722391Y-104725320D01*
X108722390Y-104725326D01*
X108719500Y-104762052D01*
X108719500Y-105237947D01*
X108722390Y-105274673D01*
X108722391Y-105274679D01*
X108768066Y-105431892D01*
X108768068Y-105431895D01*
X108851408Y-105572817D01*
X108851414Y-105572825D01*
X108967174Y-105688585D01*
X108967178Y-105688588D01*
X108967180Y-105688590D01*
X109108103Y-105771931D01*
X109108104Y-105771931D01*
X109108107Y-105771933D01*
X109265320Y-105817608D01*
X109265323Y-105817608D01*
X109265325Y-105817609D01*
X109302060Y-105820500D01*
X109434903Y-105820500D01*
X109501942Y-105840185D01*
X109522584Y-105856819D01*
X110305139Y-106639374D01*
X110305149Y-106639385D01*
X110309479Y-106643715D01*
X110309480Y-106643716D01*
X110421284Y-106755520D01*
X110472845Y-106785288D01*
X110508095Y-106805639D01*
X110508097Y-106805641D01*
X110558213Y-106834576D01*
X110558215Y-106834577D01*
X110710942Y-106875500D01*
X110710943Y-106875500D01*
X114798534Y-106875500D01*
X114865573Y-106895185D01*
X114867425Y-106896398D01*
X114999114Y-106984390D01*
X114999127Y-106984397D01*
X115144798Y-107044735D01*
X115144803Y-107044737D01*
X115299453Y-107075499D01*
X115299456Y-107075500D01*
X115299458Y-107075500D01*
X115457144Y-107075500D01*
X115457145Y-107075499D01*
X115611797Y-107044737D01*
X115757479Y-106984394D01*
X115888589Y-106896789D01*
X116000089Y-106785289D01*
X116087694Y-106654179D01*
X116148037Y-106508497D01*
X116178800Y-106353842D01*
X116178800Y-106196158D01*
X116178800Y-106196155D01*
X116178799Y-106196153D01*
X116148038Y-106041510D01*
X116148037Y-106041503D01*
X116148035Y-106041498D01*
X116087697Y-105895827D01*
X116087690Y-105895814D01*
X116000089Y-105764711D01*
X116000086Y-105764707D01*
X115888592Y-105653213D01*
X115888588Y-105653210D01*
X115757485Y-105565609D01*
X115757472Y-105565602D01*
X115611801Y-105505264D01*
X115611789Y-105505261D01*
X115457145Y-105474500D01*
X115457142Y-105474500D01*
X115299458Y-105474500D01*
X115299455Y-105474500D01*
X115144810Y-105505261D01*
X115144798Y-105505264D01*
X114999127Y-105565602D01*
X114999114Y-105565609D01*
X114867425Y-105653602D01*
X114800747Y-105674480D01*
X114798534Y-105674500D01*
X111305851Y-105674500D01*
X111238812Y-105654815D01*
X111193057Y-105602011D01*
X111183113Y-105532853D01*
X111199119Y-105487379D01*
X111231931Y-105431897D01*
X111231932Y-105431893D01*
X111231933Y-105431892D01*
X111277608Y-105274679D01*
X111277609Y-105274673D01*
X111280499Y-105237947D01*
X111280500Y-105237940D01*
X111280500Y-105105097D01*
X111289144Y-105075656D01*
X111295668Y-105045670D01*
X111299422Y-105040654D01*
X111300185Y-105038058D01*
X111316819Y-105017416D01*
X111319716Y-105014519D01*
X111381039Y-104981034D01*
X111407397Y-104978200D01*
X118595500Y-104978200D01*
X118662539Y-104997885D01*
X118708294Y-105050689D01*
X118719500Y-105102200D01*
X118719500Y-105237947D01*
X118722390Y-105274673D01*
X118722391Y-105274679D01*
X118768066Y-105431892D01*
X118768068Y-105431895D01*
X118851408Y-105572817D01*
X118851414Y-105572825D01*
X118967174Y-105688585D01*
X118967178Y-105688588D01*
X118967180Y-105688590D01*
X119108103Y-105771931D01*
X119108104Y-105771931D01*
X119108107Y-105771933D01*
X119265320Y-105817608D01*
X119265323Y-105817608D01*
X119265325Y-105817609D01*
X119302060Y-105820500D01*
X119434903Y-105820500D01*
X119501942Y-105840185D01*
X119522584Y-105856819D01*
X120305139Y-106639374D01*
X120305149Y-106639385D01*
X120309479Y-106643715D01*
X120309480Y-106643716D01*
X120421284Y-106755520D01*
X120472845Y-106785288D01*
X120508095Y-106805639D01*
X120508097Y-106805641D01*
X120558213Y-106834576D01*
X120558215Y-106834577D01*
X120710942Y-106875500D01*
X120710943Y-106875500D01*
X124042534Y-106875500D01*
X124109573Y-106895185D01*
X124111425Y-106896398D01*
X124243114Y-106984390D01*
X124243127Y-106984397D01*
X124388798Y-107044735D01*
X124388803Y-107044737D01*
X124543453Y-107075499D01*
X124543456Y-107075500D01*
X124543458Y-107075500D01*
X124701144Y-107075500D01*
X124701145Y-107075499D01*
X124855797Y-107044737D01*
X125001479Y-106984394D01*
X125132589Y-106896789D01*
X125244089Y-106785289D01*
X125331694Y-106654179D01*
X125392037Y-106508497D01*
X125422800Y-106353842D01*
X125422800Y-106196158D01*
X125422800Y-106196155D01*
X125422799Y-106196153D01*
X125392038Y-106041510D01*
X125392037Y-106041503D01*
X125392035Y-106041498D01*
X125331697Y-105895827D01*
X125331690Y-105895814D01*
X125244089Y-105764711D01*
X125244086Y-105764707D01*
X125132592Y-105653213D01*
X125132588Y-105653210D01*
X125001485Y-105565609D01*
X125001472Y-105565602D01*
X124855801Y-105505264D01*
X124855789Y-105505261D01*
X124701145Y-105474500D01*
X124701142Y-105474500D01*
X124543458Y-105474500D01*
X124543455Y-105474500D01*
X124388810Y-105505261D01*
X124388798Y-105505264D01*
X124243127Y-105565602D01*
X124243114Y-105565609D01*
X124111425Y-105653602D01*
X124044747Y-105674480D01*
X124042534Y-105674500D01*
X121305851Y-105674500D01*
X121238812Y-105654815D01*
X121193057Y-105602011D01*
X121183113Y-105532853D01*
X121199119Y-105487379D01*
X121231931Y-105431897D01*
X121231932Y-105431893D01*
X121231933Y-105431892D01*
X121277608Y-105274679D01*
X121277609Y-105274673D01*
X121280499Y-105237947D01*
X121280500Y-105237940D01*
X121280500Y-105105097D01*
X121300185Y-105038058D01*
X121316819Y-105017416D01*
X121972416Y-104361819D01*
X122033739Y-104328334D01*
X122060097Y-104325500D01*
X123423834Y-104325500D01*
X123490873Y-104345185D01*
X123492725Y-104346398D01*
X123624414Y-104434390D01*
X123624427Y-104434397D01*
X123703494Y-104467147D01*
X123770103Y-104494737D01*
X123924753Y-104525499D01*
X123924756Y-104525500D01*
X123924758Y-104525500D01*
X124082444Y-104525500D01*
X124082445Y-104525499D01*
X124237097Y-104494737D01*
X124382779Y-104434394D01*
X124393576Y-104427180D01*
X124514475Y-104346398D01*
X124581153Y-104325520D01*
X124583366Y-104325500D01*
X128694149Y-104325500D01*
X128761188Y-104345185D01*
X128806943Y-104397989D01*
X128816887Y-104467147D01*
X128800881Y-104512621D01*
X128768068Y-104568104D01*
X128768066Y-104568107D01*
X128722391Y-104725320D01*
X128722390Y-104725326D01*
X128719500Y-104762052D01*
X128719500Y-104894902D01*
X128699815Y-104961941D01*
X128683181Y-104982583D01*
X125182184Y-108483581D01*
X125120861Y-108517066D01*
X125094503Y-108519900D01*
X117579766Y-108519900D01*
X117512727Y-108500215D01*
X117510875Y-108499002D01*
X117379185Y-108411009D01*
X117379172Y-108411002D01*
X117233501Y-108350664D01*
X117233489Y-108350661D01*
X117078845Y-108319900D01*
X117078842Y-108319900D01*
X116921158Y-108319900D01*
X116921155Y-108319900D01*
X116766510Y-108350661D01*
X116766498Y-108350664D01*
X116620827Y-108411002D01*
X116620814Y-108411009D01*
X116489711Y-108498610D01*
X116489707Y-108498613D01*
X116378213Y-108610107D01*
X116378210Y-108610111D01*
X116290609Y-108741214D01*
X116290602Y-108741227D01*
X116230264Y-108886898D01*
X116230261Y-108886910D01*
X116199500Y-109041553D01*
X116199500Y-109041558D01*
X116199500Y-109199242D01*
X116199500Y-109199244D01*
X116199499Y-109199244D01*
X116229748Y-109351308D01*
X116223521Y-109420900D01*
X116180658Y-109476077D01*
X116114769Y-109499322D01*
X116108131Y-109499500D01*
X100624500Y-109499500D01*
X100557461Y-109479815D01*
X100511706Y-109427011D01*
X100500500Y-109375500D01*
X100500500Y-104893713D01*
X102649500Y-104893713D01*
X102649500Y-105106286D01*
X102670350Y-105237932D01*
X102682754Y-105316243D01*
X102720332Y-105431897D01*
X102748444Y-105518414D01*
X102844951Y-105707820D01*
X102969890Y-105879786D01*
X103120213Y-106030109D01*
X103292179Y-106155048D01*
X103292181Y-106155049D01*
X103292184Y-106155051D01*
X103481588Y-106251557D01*
X103683757Y-106317246D01*
X103893713Y-106350500D01*
X103893714Y-106350500D01*
X104106286Y-106350500D01*
X104106287Y-106350500D01*
X104316243Y-106317246D01*
X104518412Y-106251557D01*
X104707816Y-106155051D01*
X104729789Y-106139086D01*
X104879786Y-106030109D01*
X104879788Y-106030106D01*
X104879792Y-106030104D01*
X105030104Y-105879792D01*
X105030106Y-105879788D01*
X105030109Y-105879786D01*
X105155048Y-105707820D01*
X105155047Y-105707820D01*
X105155051Y-105707816D01*
X105251557Y-105518412D01*
X105317246Y-105316243D01*
X105350500Y-105106287D01*
X105350500Y-104893713D01*
X105317246Y-104683757D01*
X105251557Y-104481588D01*
X105155051Y-104292184D01*
X105155049Y-104292181D01*
X105155048Y-104292179D01*
X105030109Y-104120213D01*
X104879786Y-103969890D01*
X104707820Y-103844951D01*
X104518414Y-103748444D01*
X104518413Y-103748443D01*
X104518412Y-103748443D01*
X104316243Y-103682754D01*
X104316241Y-103682753D01*
X104316240Y-103682753D01*
X104154957Y-103657208D01*
X104106287Y-103649500D01*
X103893713Y-103649500D01*
X103845042Y-103657208D01*
X103683760Y-103682753D01*
X103481585Y-103748444D01*
X103292179Y-103844951D01*
X103120213Y-103969890D01*
X102969890Y-104120213D01*
X102844951Y-104292179D01*
X102748444Y-104481585D01*
X102682753Y-104683760D01*
X102649500Y-104893713D01*
X100500500Y-104893713D01*
X100500500Y-100624500D01*
X100520185Y-100557461D01*
X100572989Y-100511706D01*
X100624500Y-100500500D01*
X139375500Y-100500500D01*
X139442539Y-100520185D01*
G37*
%TD.AperFunction*%
M02*
