%TF.GenerationSoftware,KiCad,Pcbnew,9.0.7*%
%TF.CreationDate,2026-07-29T00:26:30-07:00*%
%TF.ProjectId,FN32ROV-XEBook-LED-KiCad,464e3332-524f-4562-9d58-45426f6f6b2d,rev?*%
%TF.SameCoordinates,Original*%
%TF.FileFunction,Legend,Top*%
%TF.FilePolarity,Positive*%
%FSLAX46Y46*%
G04 Gerber Fmt 4.6, Leading zero omitted, Abs format (unit mm)*
G04 Created by KiCad (PCBNEW 9.0.7) date 2026-07-29 00:26:30*
%MOMM*%
%LPD*%
G01*
G04 APERTURE LIST*
%ADD10C,0.150000*%
%ADD11C,0.100000*%
G04 APERTURE END LIST*
D10*
X129261905Y-102284819D02*
X129261905Y-101284819D01*
X129261905Y-101284819D02*
X129500000Y-101284819D01*
X129500000Y-101284819D02*
X129642857Y-101332438D01*
X129642857Y-101332438D02*
X129738095Y-101427676D01*
X129738095Y-101427676D02*
X129785714Y-101522914D01*
X129785714Y-101522914D02*
X129833333Y-101713390D01*
X129833333Y-101713390D02*
X129833333Y-101856247D01*
X129833333Y-101856247D02*
X129785714Y-102046723D01*
X129785714Y-102046723D02*
X129738095Y-102141961D01*
X129738095Y-102141961D02*
X129642857Y-102237200D01*
X129642857Y-102237200D02*
X129500000Y-102284819D01*
X129500000Y-102284819D02*
X129261905Y-102284819D01*
X130166667Y-101284819D02*
X130785714Y-101284819D01*
X130785714Y-101284819D02*
X130452381Y-101665771D01*
X130452381Y-101665771D02*
X130595238Y-101665771D01*
X130595238Y-101665771D02*
X130690476Y-101713390D01*
X130690476Y-101713390D02*
X130738095Y-101761009D01*
X130738095Y-101761009D02*
X130785714Y-101856247D01*
X130785714Y-101856247D02*
X130785714Y-102094342D01*
X130785714Y-102094342D02*
X130738095Y-102189580D01*
X130738095Y-102189580D02*
X130690476Y-102237200D01*
X130690476Y-102237200D02*
X130595238Y-102284819D01*
X130595238Y-102284819D02*
X130309524Y-102284819D01*
X130309524Y-102284819D02*
X130214286Y-102237200D01*
X130214286Y-102237200D02*
X130166667Y-102189580D01*
X109261905Y-102284819D02*
X109261905Y-101284819D01*
X109261905Y-101284819D02*
X109500000Y-101284819D01*
X109500000Y-101284819D02*
X109642857Y-101332438D01*
X109642857Y-101332438D02*
X109738095Y-101427676D01*
X109738095Y-101427676D02*
X109785714Y-101522914D01*
X109785714Y-101522914D02*
X109833333Y-101713390D01*
X109833333Y-101713390D02*
X109833333Y-101856247D01*
X109833333Y-101856247D02*
X109785714Y-102046723D01*
X109785714Y-102046723D02*
X109738095Y-102141961D01*
X109738095Y-102141961D02*
X109642857Y-102237200D01*
X109642857Y-102237200D02*
X109500000Y-102284819D01*
X109500000Y-102284819D02*
X109261905Y-102284819D01*
X110785714Y-102284819D02*
X110214286Y-102284819D01*
X110500000Y-102284819D02*
X110500000Y-101284819D01*
X110500000Y-101284819D02*
X110404762Y-101427676D01*
X110404762Y-101427676D02*
X110309524Y-101522914D01*
X110309524Y-101522914D02*
X110214286Y-101570533D01*
X119261905Y-102284819D02*
X119261905Y-101284819D01*
X119261905Y-101284819D02*
X119500000Y-101284819D01*
X119500000Y-101284819D02*
X119642857Y-101332438D01*
X119642857Y-101332438D02*
X119738095Y-101427676D01*
X119738095Y-101427676D02*
X119785714Y-101522914D01*
X119785714Y-101522914D02*
X119833333Y-101713390D01*
X119833333Y-101713390D02*
X119833333Y-101856247D01*
X119833333Y-101856247D02*
X119785714Y-102046723D01*
X119785714Y-102046723D02*
X119738095Y-102141961D01*
X119738095Y-102141961D02*
X119642857Y-102237200D01*
X119642857Y-102237200D02*
X119500000Y-102284819D01*
X119500000Y-102284819D02*
X119261905Y-102284819D01*
X120214286Y-101380057D02*
X120261905Y-101332438D01*
X120261905Y-101332438D02*
X120357143Y-101284819D01*
X120357143Y-101284819D02*
X120595238Y-101284819D01*
X120595238Y-101284819D02*
X120690476Y-101332438D01*
X120690476Y-101332438D02*
X120738095Y-101380057D01*
X120738095Y-101380057D02*
X120785714Y-101475295D01*
X120785714Y-101475295D02*
X120785714Y-101570533D01*
X120785714Y-101570533D02*
X120738095Y-101713390D01*
X120738095Y-101713390D02*
X120166667Y-102284819D01*
X120166667Y-102284819D02*
X120785714Y-102284819D01*
D11*
%TO.C,D3*%
X128960000Y-103000000D02*
G75*
G02*
X128860000Y-103000000I-50000J0D01*
G01*
X128860000Y-103000000D02*
G75*
G02*
X128960000Y-103000000I50000J0D01*
G01*
%TO.C,D1*%
X108960000Y-103000000D02*
G75*
G02*
X108860000Y-103000000I-50000J0D01*
G01*
X108860000Y-103000000D02*
G75*
G02*
X108960000Y-103000000I50000J0D01*
G01*
%TO.C,D2*%
X118960000Y-103000000D02*
G75*
G02*
X118860000Y-103000000I-50000J0D01*
G01*
X118860000Y-103000000D02*
G75*
G02*
X118960000Y-103000000I50000J0D01*
G01*
%TD*%
M02*
