%TF.GenerationSoftware,KiCad,Pcbnew,9.0.7*%
%TF.CreationDate,2026-07-29T00:26:31-07:00*%
%TF.ProjectId,FN32ROV-XEBook-LED-KiCad,464e3332-524f-4562-9d58-45426f6f6b2d,rev?*%
%TF.SameCoordinates,Original*%
%TF.FileFunction,Drillmap*%
%TF.FilePolarity,Positive*%
%FSLAX45Y45*%
G04 Gerber Fmt 4.5, Leading zero omitted, Abs format (unit mm)*
G04 Created by KiCad (PCBNEW 9.0.7) date 2026-07-29 00:26:31*
%MOMM*%
%LPD*%
G01*
G04 APERTURE LIST*
%ADD10C,0.100000*%
%ADD11C,0.200000*%
G04 APERTURE END LIST*
D10*
X10000000Y-10000000D02*
X14000000Y-10000000D01*
X14000000Y-11400000D01*
X10000000Y-11400000D01*
X10000000Y-10000000D01*
D11*
D10*
X11685000Y-10096510D02*
X11715000Y-10126510D01*
X11715000Y-10096510D02*
X11685000Y-10126510D01*
X11885000Y-10361230D02*
X11915000Y-10391230D01*
X11915000Y-10361230D02*
X11885000Y-10391230D01*
X11737500Y-10920000D02*
G75*
G02*
X11662500Y-10920000I-37500J0D01*
G01*
X11662500Y-10920000D02*
G75*
G02*
X11737500Y-10920000I37500J0D01*
G01*
X11937500Y-10920000D02*
G75*
G02*
X11862500Y-10920000I-37500J0D01*
G01*
X11862500Y-10920000D02*
G75*
G02*
X11937500Y-10920000I37500J0D01*
G01*
X12137500Y-10920000D02*
G75*
G02*
X12062500Y-10920000I-37500J0D01*
G01*
X12062500Y-10920000D02*
G75*
G02*
X12137500Y-10920000I37500J0D01*
G01*
X12337500Y-10920000D02*
G75*
G02*
X12262500Y-10920000I-37500J0D01*
G01*
X12262500Y-10920000D02*
G75*
G02*
X12337500Y-10920000I37500J0D01*
G01*
D11*
X10255777Y-11716484D02*
X10255777Y-11516484D01*
X10255777Y-11516484D02*
X10303396Y-11516484D01*
X10303396Y-11516484D02*
X10331967Y-11526008D01*
X10331967Y-11526008D02*
X10351015Y-11545055D01*
X10351015Y-11545055D02*
X10360539Y-11564103D01*
X10360539Y-11564103D02*
X10370063Y-11602198D01*
X10370063Y-11602198D02*
X10370063Y-11630769D01*
X10370063Y-11630769D02*
X10360539Y-11668865D01*
X10360539Y-11668865D02*
X10351015Y-11687912D01*
X10351015Y-11687912D02*
X10331967Y-11706960D01*
X10331967Y-11706960D02*
X10303396Y-11716484D01*
X10303396Y-11716484D02*
X10255777Y-11716484D01*
X10455777Y-11716484D02*
X10455777Y-11583150D01*
X10455777Y-11621246D02*
X10465301Y-11602198D01*
X10465301Y-11602198D02*
X10474824Y-11592674D01*
X10474824Y-11592674D02*
X10493872Y-11583150D01*
X10493872Y-11583150D02*
X10512920Y-11583150D01*
X10579586Y-11716484D02*
X10579586Y-11583150D01*
X10579586Y-11516484D02*
X10570063Y-11526008D01*
X10570063Y-11526008D02*
X10579586Y-11535531D01*
X10579586Y-11535531D02*
X10589110Y-11526008D01*
X10589110Y-11526008D02*
X10579586Y-11516484D01*
X10579586Y-11516484D02*
X10579586Y-11535531D01*
X10703396Y-11716484D02*
X10684348Y-11706960D01*
X10684348Y-11706960D02*
X10674824Y-11687912D01*
X10674824Y-11687912D02*
X10674824Y-11516484D01*
X10808158Y-11716484D02*
X10789110Y-11706960D01*
X10789110Y-11706960D02*
X10779586Y-11687912D01*
X10779586Y-11687912D02*
X10779586Y-11516484D01*
X11036729Y-11716484D02*
X11036729Y-11516484D01*
X11036729Y-11516484D02*
X11103396Y-11659341D01*
X11103396Y-11659341D02*
X11170063Y-11516484D01*
X11170063Y-11516484D02*
X11170063Y-11716484D01*
X11351015Y-11716484D02*
X11351015Y-11611722D01*
X11351015Y-11611722D02*
X11341491Y-11592674D01*
X11341491Y-11592674D02*
X11322443Y-11583150D01*
X11322443Y-11583150D02*
X11284348Y-11583150D01*
X11284348Y-11583150D02*
X11265301Y-11592674D01*
X11351015Y-11706960D02*
X11331967Y-11716484D01*
X11331967Y-11716484D02*
X11284348Y-11716484D01*
X11284348Y-11716484D02*
X11265301Y-11706960D01*
X11265301Y-11706960D02*
X11255777Y-11687912D01*
X11255777Y-11687912D02*
X11255777Y-11668865D01*
X11255777Y-11668865D02*
X11265301Y-11649817D01*
X11265301Y-11649817D02*
X11284348Y-11640293D01*
X11284348Y-11640293D02*
X11331967Y-11640293D01*
X11331967Y-11640293D02*
X11351015Y-11630769D01*
X11446253Y-11583150D02*
X11446253Y-11783150D01*
X11446253Y-11592674D02*
X11465301Y-11583150D01*
X11465301Y-11583150D02*
X11503396Y-11583150D01*
X11503396Y-11583150D02*
X11522443Y-11592674D01*
X11522443Y-11592674D02*
X11531967Y-11602198D01*
X11531967Y-11602198D02*
X11541491Y-11621246D01*
X11541491Y-11621246D02*
X11541491Y-11678388D01*
X11541491Y-11678388D02*
X11531967Y-11697436D01*
X11531967Y-11697436D02*
X11522443Y-11706960D01*
X11522443Y-11706960D02*
X11503396Y-11716484D01*
X11503396Y-11716484D02*
X11465301Y-11716484D01*
X11465301Y-11716484D02*
X11446253Y-11706960D01*
X11627205Y-11697436D02*
X11636729Y-11706960D01*
X11636729Y-11706960D02*
X11627205Y-11716484D01*
X11627205Y-11716484D02*
X11617682Y-11706960D01*
X11617682Y-11706960D02*
X11627205Y-11697436D01*
X11627205Y-11697436D02*
X11627205Y-11716484D01*
X11627205Y-11592674D02*
X11636729Y-11602198D01*
X11636729Y-11602198D02*
X11627205Y-11611722D01*
X11627205Y-11611722D02*
X11617682Y-11602198D01*
X11617682Y-11602198D02*
X11627205Y-11592674D01*
X11627205Y-11592674D02*
X11627205Y-11611722D01*
D10*
X9965000Y-12030000D02*
X9995000Y-12060000D01*
X9995000Y-12030000D02*
X9965000Y-12060000D01*
D11*
X10293872Y-11936484D02*
X10312920Y-11936484D01*
X10312920Y-11936484D02*
X10331967Y-11946008D01*
X10331967Y-11946008D02*
X10341491Y-11955531D01*
X10341491Y-11955531D02*
X10351015Y-11974579D01*
X10351015Y-11974579D02*
X10360539Y-12012674D01*
X10360539Y-12012674D02*
X10360539Y-12060293D01*
X10360539Y-12060293D02*
X10351015Y-12098388D01*
X10351015Y-12098388D02*
X10341491Y-12117436D01*
X10341491Y-12117436D02*
X10331967Y-12126960D01*
X10331967Y-12126960D02*
X10312920Y-12136484D01*
X10312920Y-12136484D02*
X10293872Y-12136484D01*
X10293872Y-12136484D02*
X10274824Y-12126960D01*
X10274824Y-12126960D02*
X10265301Y-12117436D01*
X10265301Y-12117436D02*
X10255777Y-12098388D01*
X10255777Y-12098388D02*
X10246253Y-12060293D01*
X10246253Y-12060293D02*
X10246253Y-12012674D01*
X10246253Y-12012674D02*
X10255777Y-11974579D01*
X10255777Y-11974579D02*
X10265301Y-11955531D01*
X10265301Y-11955531D02*
X10274824Y-11946008D01*
X10274824Y-11946008D02*
X10293872Y-11936484D01*
X10446253Y-12117436D02*
X10455777Y-12126960D01*
X10455777Y-12126960D02*
X10446253Y-12136484D01*
X10446253Y-12136484D02*
X10436729Y-12126960D01*
X10436729Y-12126960D02*
X10446253Y-12117436D01*
X10446253Y-12117436D02*
X10446253Y-12136484D01*
X10522444Y-11936484D02*
X10646253Y-11936484D01*
X10646253Y-11936484D02*
X10579586Y-12012674D01*
X10579586Y-12012674D02*
X10608158Y-12012674D01*
X10608158Y-12012674D02*
X10627205Y-12022198D01*
X10627205Y-12022198D02*
X10636729Y-12031722D01*
X10636729Y-12031722D02*
X10646253Y-12050769D01*
X10646253Y-12050769D02*
X10646253Y-12098388D01*
X10646253Y-12098388D02*
X10636729Y-12117436D01*
X10636729Y-12117436D02*
X10627205Y-12126960D01*
X10627205Y-12126960D02*
X10608158Y-12136484D01*
X10608158Y-12136484D02*
X10551015Y-12136484D01*
X10551015Y-12136484D02*
X10531967Y-12126960D01*
X10531967Y-12126960D02*
X10522444Y-12117436D01*
X10770063Y-11936484D02*
X10789110Y-11936484D01*
X10789110Y-11936484D02*
X10808158Y-11946008D01*
X10808158Y-11946008D02*
X10817682Y-11955531D01*
X10817682Y-11955531D02*
X10827205Y-11974579D01*
X10827205Y-11974579D02*
X10836729Y-12012674D01*
X10836729Y-12012674D02*
X10836729Y-12060293D01*
X10836729Y-12060293D02*
X10827205Y-12098388D01*
X10827205Y-12098388D02*
X10817682Y-12117436D01*
X10817682Y-12117436D02*
X10808158Y-12126960D01*
X10808158Y-12126960D02*
X10789110Y-12136484D01*
X10789110Y-12136484D02*
X10770063Y-12136484D01*
X10770063Y-12136484D02*
X10751015Y-12126960D01*
X10751015Y-12126960D02*
X10741491Y-12117436D01*
X10741491Y-12117436D02*
X10731967Y-12098388D01*
X10731967Y-12098388D02*
X10722444Y-12060293D01*
X10722444Y-12060293D02*
X10722444Y-12012674D01*
X10722444Y-12012674D02*
X10731967Y-11974579D01*
X10731967Y-11974579D02*
X10741491Y-11955531D01*
X10741491Y-11955531D02*
X10751015Y-11946008D01*
X10751015Y-11946008D02*
X10770063Y-11936484D01*
X10960539Y-11936484D02*
X10979586Y-11936484D01*
X10979586Y-11936484D02*
X10998634Y-11946008D01*
X10998634Y-11946008D02*
X11008158Y-11955531D01*
X11008158Y-11955531D02*
X11017682Y-11974579D01*
X11017682Y-11974579D02*
X11027205Y-12012674D01*
X11027205Y-12012674D02*
X11027205Y-12060293D01*
X11027205Y-12060293D02*
X11017682Y-12098388D01*
X11017682Y-12098388D02*
X11008158Y-12117436D01*
X11008158Y-12117436D02*
X10998634Y-12126960D01*
X10998634Y-12126960D02*
X10979586Y-12136484D01*
X10979586Y-12136484D02*
X10960539Y-12136484D01*
X10960539Y-12136484D02*
X10941491Y-12126960D01*
X10941491Y-12126960D02*
X10931967Y-12117436D01*
X10931967Y-12117436D02*
X10922444Y-12098388D01*
X10922444Y-12098388D02*
X10912920Y-12060293D01*
X10912920Y-12060293D02*
X10912920Y-12012674D01*
X10912920Y-12012674D02*
X10922444Y-11974579D01*
X10922444Y-11974579D02*
X10931967Y-11955531D01*
X10931967Y-11955531D02*
X10941491Y-11946008D01*
X10941491Y-11946008D02*
X10960539Y-11936484D01*
X11112920Y-12136484D02*
X11112920Y-12003150D01*
X11112920Y-12022198D02*
X11122444Y-12012674D01*
X11122444Y-12012674D02*
X11141491Y-12003150D01*
X11141491Y-12003150D02*
X11170063Y-12003150D01*
X11170063Y-12003150D02*
X11189110Y-12012674D01*
X11189110Y-12012674D02*
X11198634Y-12031722D01*
X11198634Y-12031722D02*
X11198634Y-12136484D01*
X11198634Y-12031722D02*
X11208158Y-12012674D01*
X11208158Y-12012674D02*
X11227205Y-12003150D01*
X11227205Y-12003150D02*
X11255777Y-12003150D01*
X11255777Y-12003150D02*
X11274824Y-12012674D01*
X11274824Y-12012674D02*
X11284348Y-12031722D01*
X11284348Y-12031722D02*
X11284348Y-12136484D01*
X11379586Y-12136484D02*
X11379586Y-12003150D01*
X11379586Y-12022198D02*
X11389110Y-12012674D01*
X11389110Y-12012674D02*
X11408158Y-12003150D01*
X11408158Y-12003150D02*
X11436729Y-12003150D01*
X11436729Y-12003150D02*
X11455777Y-12012674D01*
X11455777Y-12012674D02*
X11465301Y-12031722D01*
X11465301Y-12031722D02*
X11465301Y-12136484D01*
X11465301Y-12031722D02*
X11474824Y-12012674D01*
X11474824Y-12012674D02*
X11493872Y-12003150D01*
X11493872Y-12003150D02*
X11522443Y-12003150D01*
X11522443Y-12003150D02*
X11541491Y-12012674D01*
X11541491Y-12012674D02*
X11551015Y-12031722D01*
X11551015Y-12031722D02*
X11551015Y-12136484D01*
X11941491Y-11926960D02*
X11770063Y-12184103D01*
X12198634Y-11936484D02*
X12217682Y-11936484D01*
X12217682Y-11936484D02*
X12236729Y-11946008D01*
X12236729Y-11946008D02*
X12246253Y-11955531D01*
X12246253Y-11955531D02*
X12255777Y-11974579D01*
X12255777Y-11974579D02*
X12265301Y-12012674D01*
X12265301Y-12012674D02*
X12265301Y-12060293D01*
X12265301Y-12060293D02*
X12255777Y-12098388D01*
X12255777Y-12098388D02*
X12246253Y-12117436D01*
X12246253Y-12117436D02*
X12236729Y-12126960D01*
X12236729Y-12126960D02*
X12217682Y-12136484D01*
X12217682Y-12136484D02*
X12198634Y-12136484D01*
X12198634Y-12136484D02*
X12179586Y-12126960D01*
X12179586Y-12126960D02*
X12170063Y-12117436D01*
X12170063Y-12117436D02*
X12160539Y-12098388D01*
X12160539Y-12098388D02*
X12151015Y-12060293D01*
X12151015Y-12060293D02*
X12151015Y-12012674D01*
X12151015Y-12012674D02*
X12160539Y-11974579D01*
X12160539Y-11974579D02*
X12170063Y-11955531D01*
X12170063Y-11955531D02*
X12179586Y-11946008D01*
X12179586Y-11946008D02*
X12198634Y-11936484D01*
X12351015Y-12117436D02*
X12360539Y-12126960D01*
X12360539Y-12126960D02*
X12351015Y-12136484D01*
X12351015Y-12136484D02*
X12341491Y-12126960D01*
X12341491Y-12126960D02*
X12351015Y-12117436D01*
X12351015Y-12117436D02*
X12351015Y-12136484D01*
X12484348Y-11936484D02*
X12503396Y-11936484D01*
X12503396Y-11936484D02*
X12522444Y-11946008D01*
X12522444Y-11946008D02*
X12531967Y-11955531D01*
X12531967Y-11955531D02*
X12541491Y-11974579D01*
X12541491Y-11974579D02*
X12551015Y-12012674D01*
X12551015Y-12012674D02*
X12551015Y-12060293D01*
X12551015Y-12060293D02*
X12541491Y-12098388D01*
X12541491Y-12098388D02*
X12531967Y-12117436D01*
X12531967Y-12117436D02*
X12522444Y-12126960D01*
X12522444Y-12126960D02*
X12503396Y-12136484D01*
X12503396Y-12136484D02*
X12484348Y-12136484D01*
X12484348Y-12136484D02*
X12465301Y-12126960D01*
X12465301Y-12126960D02*
X12455777Y-12117436D01*
X12455777Y-12117436D02*
X12446253Y-12098388D01*
X12446253Y-12098388D02*
X12436729Y-12060293D01*
X12436729Y-12060293D02*
X12436729Y-12012674D01*
X12436729Y-12012674D02*
X12446253Y-11974579D01*
X12446253Y-11974579D02*
X12455777Y-11955531D01*
X12455777Y-11955531D02*
X12465301Y-11946008D01*
X12465301Y-11946008D02*
X12484348Y-11936484D01*
X12741491Y-12136484D02*
X12627206Y-12136484D01*
X12684348Y-12136484D02*
X12684348Y-11936484D01*
X12684348Y-11936484D02*
X12665301Y-11965055D01*
X12665301Y-11965055D02*
X12646253Y-11984103D01*
X12646253Y-11984103D02*
X12627206Y-11993627D01*
X12931967Y-12136484D02*
X12817682Y-12136484D01*
X12874825Y-12136484D02*
X12874825Y-11936484D01*
X12874825Y-11936484D02*
X12855777Y-11965055D01*
X12855777Y-11965055D02*
X12836729Y-11984103D01*
X12836729Y-11984103D02*
X12817682Y-11993627D01*
X13046253Y-12022198D02*
X13027206Y-12012674D01*
X13027206Y-12012674D02*
X13017682Y-12003150D01*
X13017682Y-12003150D02*
X13008158Y-11984103D01*
X13008158Y-11984103D02*
X13008158Y-11974579D01*
X13008158Y-11974579D02*
X13017682Y-11955531D01*
X13017682Y-11955531D02*
X13027206Y-11946008D01*
X13027206Y-11946008D02*
X13046253Y-11936484D01*
X13046253Y-11936484D02*
X13084348Y-11936484D01*
X13084348Y-11936484D02*
X13103396Y-11946008D01*
X13103396Y-11946008D02*
X13112920Y-11955531D01*
X13112920Y-11955531D02*
X13122444Y-11974579D01*
X13122444Y-11974579D02*
X13122444Y-11984103D01*
X13122444Y-11984103D02*
X13112920Y-12003150D01*
X13112920Y-12003150D02*
X13103396Y-12012674D01*
X13103396Y-12012674D02*
X13084348Y-12022198D01*
X13084348Y-12022198D02*
X13046253Y-12022198D01*
X13046253Y-12022198D02*
X13027206Y-12031722D01*
X13027206Y-12031722D02*
X13017682Y-12041246D01*
X13017682Y-12041246D02*
X13008158Y-12060293D01*
X13008158Y-12060293D02*
X13008158Y-12098388D01*
X13008158Y-12098388D02*
X13017682Y-12117436D01*
X13017682Y-12117436D02*
X13027206Y-12126960D01*
X13027206Y-12126960D02*
X13046253Y-12136484D01*
X13046253Y-12136484D02*
X13084348Y-12136484D01*
X13084348Y-12136484D02*
X13103396Y-12126960D01*
X13103396Y-12126960D02*
X13112920Y-12117436D01*
X13112920Y-12117436D02*
X13122444Y-12098388D01*
X13122444Y-12098388D02*
X13122444Y-12060293D01*
X13122444Y-12060293D02*
X13112920Y-12041246D01*
X13112920Y-12041246D02*
X13103396Y-12031722D01*
X13103396Y-12031722D02*
X13084348Y-12022198D01*
X13198634Y-11936484D02*
X13198634Y-11974579D01*
X13274825Y-11936484D02*
X13274825Y-11974579D01*
X13570063Y-12212674D02*
X13560539Y-12203150D01*
X13560539Y-12203150D02*
X13541491Y-12174579D01*
X13541491Y-12174579D02*
X13531968Y-12155531D01*
X13531968Y-12155531D02*
X13522444Y-12126960D01*
X13522444Y-12126960D02*
X13512920Y-12079341D01*
X13512920Y-12079341D02*
X13512920Y-12041246D01*
X13512920Y-12041246D02*
X13522444Y-11993627D01*
X13522444Y-11993627D02*
X13531968Y-11965055D01*
X13531968Y-11965055D02*
X13541491Y-11946008D01*
X13541491Y-11946008D02*
X13560539Y-11917436D01*
X13560539Y-11917436D02*
X13570063Y-11907912D01*
X13636729Y-11955531D02*
X13646253Y-11946008D01*
X13646253Y-11946008D02*
X13665301Y-11936484D01*
X13665301Y-11936484D02*
X13712920Y-11936484D01*
X13712920Y-11936484D02*
X13731968Y-11946008D01*
X13731968Y-11946008D02*
X13741491Y-11955531D01*
X13741491Y-11955531D02*
X13751015Y-11974579D01*
X13751015Y-11974579D02*
X13751015Y-11993627D01*
X13751015Y-11993627D02*
X13741491Y-12022198D01*
X13741491Y-12022198D02*
X13627206Y-12136484D01*
X13627206Y-12136484D02*
X13751015Y-12136484D01*
X13989110Y-12136484D02*
X13989110Y-11936484D01*
X14074825Y-12136484D02*
X14074825Y-12031722D01*
X14074825Y-12031722D02*
X14065301Y-12012674D01*
X14065301Y-12012674D02*
X14046253Y-12003150D01*
X14046253Y-12003150D02*
X14017682Y-12003150D01*
X14017682Y-12003150D02*
X13998634Y-12012674D01*
X13998634Y-12012674D02*
X13989110Y-12022198D01*
X14198634Y-12136484D02*
X14179587Y-12126960D01*
X14179587Y-12126960D02*
X14170063Y-12117436D01*
X14170063Y-12117436D02*
X14160539Y-12098388D01*
X14160539Y-12098388D02*
X14160539Y-12041246D01*
X14160539Y-12041246D02*
X14170063Y-12022198D01*
X14170063Y-12022198D02*
X14179587Y-12012674D01*
X14179587Y-12012674D02*
X14198634Y-12003150D01*
X14198634Y-12003150D02*
X14227206Y-12003150D01*
X14227206Y-12003150D02*
X14246253Y-12012674D01*
X14246253Y-12012674D02*
X14255777Y-12022198D01*
X14255777Y-12022198D02*
X14265301Y-12041246D01*
X14265301Y-12041246D02*
X14265301Y-12098388D01*
X14265301Y-12098388D02*
X14255777Y-12117436D01*
X14255777Y-12117436D02*
X14246253Y-12126960D01*
X14246253Y-12126960D02*
X14227206Y-12136484D01*
X14227206Y-12136484D02*
X14198634Y-12136484D01*
X14379587Y-12136484D02*
X14360539Y-12126960D01*
X14360539Y-12126960D02*
X14351015Y-12107912D01*
X14351015Y-12107912D02*
X14351015Y-11936484D01*
X14531968Y-12126960D02*
X14512920Y-12136484D01*
X14512920Y-12136484D02*
X14474825Y-12136484D01*
X14474825Y-12136484D02*
X14455777Y-12126960D01*
X14455777Y-12126960D02*
X14446253Y-12107912D01*
X14446253Y-12107912D02*
X14446253Y-12031722D01*
X14446253Y-12031722D02*
X14455777Y-12012674D01*
X14455777Y-12012674D02*
X14474825Y-12003150D01*
X14474825Y-12003150D02*
X14512920Y-12003150D01*
X14512920Y-12003150D02*
X14531968Y-12012674D01*
X14531968Y-12012674D02*
X14541491Y-12031722D01*
X14541491Y-12031722D02*
X14541491Y-12050769D01*
X14541491Y-12050769D02*
X14446253Y-12069817D01*
X14617682Y-12126960D02*
X14636730Y-12136484D01*
X14636730Y-12136484D02*
X14674825Y-12136484D01*
X14674825Y-12136484D02*
X14693872Y-12126960D01*
X14693872Y-12126960D02*
X14703396Y-12107912D01*
X14703396Y-12107912D02*
X14703396Y-12098388D01*
X14703396Y-12098388D02*
X14693872Y-12079341D01*
X14693872Y-12079341D02*
X14674825Y-12069817D01*
X14674825Y-12069817D02*
X14646253Y-12069817D01*
X14646253Y-12069817D02*
X14627206Y-12060293D01*
X14627206Y-12060293D02*
X14617682Y-12041246D01*
X14617682Y-12041246D02*
X14617682Y-12031722D01*
X14617682Y-12031722D02*
X14627206Y-12012674D01*
X14627206Y-12012674D02*
X14646253Y-12003150D01*
X14646253Y-12003150D02*
X14674825Y-12003150D01*
X14674825Y-12003150D02*
X14693872Y-12012674D01*
X14770063Y-12212674D02*
X14779587Y-12203150D01*
X14779587Y-12203150D02*
X14798634Y-12174579D01*
X14798634Y-12174579D02*
X14808158Y-12155531D01*
X14808158Y-12155531D02*
X14817682Y-12126960D01*
X14817682Y-12126960D02*
X14827206Y-12079341D01*
X14827206Y-12079341D02*
X14827206Y-12041246D01*
X14827206Y-12041246D02*
X14817682Y-11993627D01*
X14817682Y-11993627D02*
X14808158Y-11965055D01*
X14808158Y-11965055D02*
X14798634Y-11946008D01*
X14798634Y-11946008D02*
X14779587Y-11917436D01*
X14779587Y-11917436D02*
X14770063Y-11907912D01*
D10*
X9995000Y-12309000D02*
G75*
G02*
X9920000Y-12309000I-37500J0D01*
G01*
X9920000Y-12309000D02*
G75*
G02*
X9995000Y-12309000I37500J0D01*
G01*
D11*
X10293872Y-12200484D02*
X10312920Y-12200484D01*
X10312920Y-12200484D02*
X10331967Y-12210008D01*
X10331967Y-12210008D02*
X10341491Y-12219531D01*
X10341491Y-12219531D02*
X10351015Y-12238579D01*
X10351015Y-12238579D02*
X10360539Y-12276674D01*
X10360539Y-12276674D02*
X10360539Y-12324293D01*
X10360539Y-12324293D02*
X10351015Y-12362388D01*
X10351015Y-12362388D02*
X10341491Y-12381436D01*
X10341491Y-12381436D02*
X10331967Y-12390960D01*
X10331967Y-12390960D02*
X10312920Y-12400484D01*
X10312920Y-12400484D02*
X10293872Y-12400484D01*
X10293872Y-12400484D02*
X10274824Y-12390960D01*
X10274824Y-12390960D02*
X10265301Y-12381436D01*
X10265301Y-12381436D02*
X10255777Y-12362388D01*
X10255777Y-12362388D02*
X10246253Y-12324293D01*
X10246253Y-12324293D02*
X10246253Y-12276674D01*
X10246253Y-12276674D02*
X10255777Y-12238579D01*
X10255777Y-12238579D02*
X10265301Y-12219531D01*
X10265301Y-12219531D02*
X10274824Y-12210008D01*
X10274824Y-12210008D02*
X10293872Y-12200484D01*
X10446253Y-12381436D02*
X10455777Y-12390960D01*
X10455777Y-12390960D02*
X10446253Y-12400484D01*
X10446253Y-12400484D02*
X10436729Y-12390960D01*
X10436729Y-12390960D02*
X10446253Y-12381436D01*
X10446253Y-12381436D02*
X10446253Y-12400484D01*
X10522444Y-12200484D02*
X10655777Y-12200484D01*
X10655777Y-12200484D02*
X10570063Y-12400484D01*
X10827205Y-12200484D02*
X10731967Y-12200484D01*
X10731967Y-12200484D02*
X10722444Y-12295722D01*
X10722444Y-12295722D02*
X10731967Y-12286198D01*
X10731967Y-12286198D02*
X10751015Y-12276674D01*
X10751015Y-12276674D02*
X10798634Y-12276674D01*
X10798634Y-12276674D02*
X10817682Y-12286198D01*
X10817682Y-12286198D02*
X10827205Y-12295722D01*
X10827205Y-12295722D02*
X10836729Y-12314769D01*
X10836729Y-12314769D02*
X10836729Y-12362388D01*
X10836729Y-12362388D02*
X10827205Y-12381436D01*
X10827205Y-12381436D02*
X10817682Y-12390960D01*
X10817682Y-12390960D02*
X10798634Y-12400484D01*
X10798634Y-12400484D02*
X10751015Y-12400484D01*
X10751015Y-12400484D02*
X10731967Y-12390960D01*
X10731967Y-12390960D02*
X10722444Y-12381436D01*
X10960539Y-12200484D02*
X10979586Y-12200484D01*
X10979586Y-12200484D02*
X10998634Y-12210008D01*
X10998634Y-12210008D02*
X11008158Y-12219531D01*
X11008158Y-12219531D02*
X11017682Y-12238579D01*
X11017682Y-12238579D02*
X11027205Y-12276674D01*
X11027205Y-12276674D02*
X11027205Y-12324293D01*
X11027205Y-12324293D02*
X11017682Y-12362388D01*
X11017682Y-12362388D02*
X11008158Y-12381436D01*
X11008158Y-12381436D02*
X10998634Y-12390960D01*
X10998634Y-12390960D02*
X10979586Y-12400484D01*
X10979586Y-12400484D02*
X10960539Y-12400484D01*
X10960539Y-12400484D02*
X10941491Y-12390960D01*
X10941491Y-12390960D02*
X10931967Y-12381436D01*
X10931967Y-12381436D02*
X10922444Y-12362388D01*
X10922444Y-12362388D02*
X10912920Y-12324293D01*
X10912920Y-12324293D02*
X10912920Y-12276674D01*
X10912920Y-12276674D02*
X10922444Y-12238579D01*
X10922444Y-12238579D02*
X10931967Y-12219531D01*
X10931967Y-12219531D02*
X10941491Y-12210008D01*
X10941491Y-12210008D02*
X10960539Y-12200484D01*
X11112920Y-12400484D02*
X11112920Y-12267150D01*
X11112920Y-12286198D02*
X11122444Y-12276674D01*
X11122444Y-12276674D02*
X11141491Y-12267150D01*
X11141491Y-12267150D02*
X11170063Y-12267150D01*
X11170063Y-12267150D02*
X11189110Y-12276674D01*
X11189110Y-12276674D02*
X11198634Y-12295722D01*
X11198634Y-12295722D02*
X11198634Y-12400484D01*
X11198634Y-12295722D02*
X11208158Y-12276674D01*
X11208158Y-12276674D02*
X11227205Y-12267150D01*
X11227205Y-12267150D02*
X11255777Y-12267150D01*
X11255777Y-12267150D02*
X11274824Y-12276674D01*
X11274824Y-12276674D02*
X11284348Y-12295722D01*
X11284348Y-12295722D02*
X11284348Y-12400484D01*
X11379586Y-12400484D02*
X11379586Y-12267150D01*
X11379586Y-12286198D02*
X11389110Y-12276674D01*
X11389110Y-12276674D02*
X11408158Y-12267150D01*
X11408158Y-12267150D02*
X11436729Y-12267150D01*
X11436729Y-12267150D02*
X11455777Y-12276674D01*
X11455777Y-12276674D02*
X11465301Y-12295722D01*
X11465301Y-12295722D02*
X11465301Y-12400484D01*
X11465301Y-12295722D02*
X11474824Y-12276674D01*
X11474824Y-12276674D02*
X11493872Y-12267150D01*
X11493872Y-12267150D02*
X11522443Y-12267150D01*
X11522443Y-12267150D02*
X11541491Y-12276674D01*
X11541491Y-12276674D02*
X11551015Y-12295722D01*
X11551015Y-12295722D02*
X11551015Y-12400484D01*
X11941491Y-12190960D02*
X11770063Y-12448103D01*
X12198634Y-12200484D02*
X12217682Y-12200484D01*
X12217682Y-12200484D02*
X12236729Y-12210008D01*
X12236729Y-12210008D02*
X12246253Y-12219531D01*
X12246253Y-12219531D02*
X12255777Y-12238579D01*
X12255777Y-12238579D02*
X12265301Y-12276674D01*
X12265301Y-12276674D02*
X12265301Y-12324293D01*
X12265301Y-12324293D02*
X12255777Y-12362388D01*
X12255777Y-12362388D02*
X12246253Y-12381436D01*
X12246253Y-12381436D02*
X12236729Y-12390960D01*
X12236729Y-12390960D02*
X12217682Y-12400484D01*
X12217682Y-12400484D02*
X12198634Y-12400484D01*
X12198634Y-12400484D02*
X12179586Y-12390960D01*
X12179586Y-12390960D02*
X12170063Y-12381436D01*
X12170063Y-12381436D02*
X12160539Y-12362388D01*
X12160539Y-12362388D02*
X12151015Y-12324293D01*
X12151015Y-12324293D02*
X12151015Y-12276674D01*
X12151015Y-12276674D02*
X12160539Y-12238579D01*
X12160539Y-12238579D02*
X12170063Y-12219531D01*
X12170063Y-12219531D02*
X12179586Y-12210008D01*
X12179586Y-12210008D02*
X12198634Y-12200484D01*
X12351015Y-12381436D02*
X12360539Y-12390960D01*
X12360539Y-12390960D02*
X12351015Y-12400484D01*
X12351015Y-12400484D02*
X12341491Y-12390960D01*
X12341491Y-12390960D02*
X12351015Y-12381436D01*
X12351015Y-12381436D02*
X12351015Y-12400484D01*
X12484348Y-12200484D02*
X12503396Y-12200484D01*
X12503396Y-12200484D02*
X12522444Y-12210008D01*
X12522444Y-12210008D02*
X12531967Y-12219531D01*
X12531967Y-12219531D02*
X12541491Y-12238579D01*
X12541491Y-12238579D02*
X12551015Y-12276674D01*
X12551015Y-12276674D02*
X12551015Y-12324293D01*
X12551015Y-12324293D02*
X12541491Y-12362388D01*
X12541491Y-12362388D02*
X12531967Y-12381436D01*
X12531967Y-12381436D02*
X12522444Y-12390960D01*
X12522444Y-12390960D02*
X12503396Y-12400484D01*
X12503396Y-12400484D02*
X12484348Y-12400484D01*
X12484348Y-12400484D02*
X12465301Y-12390960D01*
X12465301Y-12390960D02*
X12455777Y-12381436D01*
X12455777Y-12381436D02*
X12446253Y-12362388D01*
X12446253Y-12362388D02*
X12436729Y-12324293D01*
X12436729Y-12324293D02*
X12436729Y-12276674D01*
X12436729Y-12276674D02*
X12446253Y-12238579D01*
X12446253Y-12238579D02*
X12455777Y-12219531D01*
X12455777Y-12219531D02*
X12465301Y-12210008D01*
X12465301Y-12210008D02*
X12484348Y-12200484D01*
X12627206Y-12219531D02*
X12636729Y-12210008D01*
X12636729Y-12210008D02*
X12655777Y-12200484D01*
X12655777Y-12200484D02*
X12703396Y-12200484D01*
X12703396Y-12200484D02*
X12722444Y-12210008D01*
X12722444Y-12210008D02*
X12731967Y-12219531D01*
X12731967Y-12219531D02*
X12741491Y-12238579D01*
X12741491Y-12238579D02*
X12741491Y-12257627D01*
X12741491Y-12257627D02*
X12731967Y-12286198D01*
X12731967Y-12286198D02*
X12617682Y-12400484D01*
X12617682Y-12400484D02*
X12741491Y-12400484D01*
X12836729Y-12400484D02*
X12874825Y-12400484D01*
X12874825Y-12400484D02*
X12893872Y-12390960D01*
X12893872Y-12390960D02*
X12903396Y-12381436D01*
X12903396Y-12381436D02*
X12922444Y-12352865D01*
X12922444Y-12352865D02*
X12931967Y-12314769D01*
X12931967Y-12314769D02*
X12931967Y-12238579D01*
X12931967Y-12238579D02*
X12922444Y-12219531D01*
X12922444Y-12219531D02*
X12912920Y-12210008D01*
X12912920Y-12210008D02*
X12893872Y-12200484D01*
X12893872Y-12200484D02*
X12855777Y-12200484D01*
X12855777Y-12200484D02*
X12836729Y-12210008D01*
X12836729Y-12210008D02*
X12827206Y-12219531D01*
X12827206Y-12219531D02*
X12817682Y-12238579D01*
X12817682Y-12238579D02*
X12817682Y-12286198D01*
X12817682Y-12286198D02*
X12827206Y-12305246D01*
X12827206Y-12305246D02*
X12836729Y-12314769D01*
X12836729Y-12314769D02*
X12855777Y-12324293D01*
X12855777Y-12324293D02*
X12893872Y-12324293D01*
X12893872Y-12324293D02*
X12912920Y-12314769D01*
X12912920Y-12314769D02*
X12922444Y-12305246D01*
X12922444Y-12305246D02*
X12931967Y-12286198D01*
X13112920Y-12200484D02*
X13017682Y-12200484D01*
X13017682Y-12200484D02*
X13008158Y-12295722D01*
X13008158Y-12295722D02*
X13017682Y-12286198D01*
X13017682Y-12286198D02*
X13036729Y-12276674D01*
X13036729Y-12276674D02*
X13084348Y-12276674D01*
X13084348Y-12276674D02*
X13103396Y-12286198D01*
X13103396Y-12286198D02*
X13112920Y-12295722D01*
X13112920Y-12295722D02*
X13122444Y-12314769D01*
X13122444Y-12314769D02*
X13122444Y-12362388D01*
X13122444Y-12362388D02*
X13112920Y-12381436D01*
X13112920Y-12381436D02*
X13103396Y-12390960D01*
X13103396Y-12390960D02*
X13084348Y-12400484D01*
X13084348Y-12400484D02*
X13036729Y-12400484D01*
X13036729Y-12400484D02*
X13017682Y-12390960D01*
X13017682Y-12390960D02*
X13008158Y-12381436D01*
X13198634Y-12200484D02*
X13198634Y-12238579D01*
X13274825Y-12200484D02*
X13274825Y-12238579D01*
X13570063Y-12476674D02*
X13560539Y-12467150D01*
X13560539Y-12467150D02*
X13541491Y-12438579D01*
X13541491Y-12438579D02*
X13531968Y-12419531D01*
X13531968Y-12419531D02*
X13522444Y-12390960D01*
X13522444Y-12390960D02*
X13512920Y-12343341D01*
X13512920Y-12343341D02*
X13512920Y-12305246D01*
X13512920Y-12305246D02*
X13522444Y-12257627D01*
X13522444Y-12257627D02*
X13531968Y-12229055D01*
X13531968Y-12229055D02*
X13541491Y-12210008D01*
X13541491Y-12210008D02*
X13560539Y-12181436D01*
X13560539Y-12181436D02*
X13570063Y-12171912D01*
X13731968Y-12267150D02*
X13731968Y-12400484D01*
X13684348Y-12190960D02*
X13636729Y-12333817D01*
X13636729Y-12333817D02*
X13760539Y-12333817D01*
X13989110Y-12400484D02*
X13989110Y-12200484D01*
X14074825Y-12400484D02*
X14074825Y-12295722D01*
X14074825Y-12295722D02*
X14065301Y-12276674D01*
X14065301Y-12276674D02*
X14046253Y-12267150D01*
X14046253Y-12267150D02*
X14017682Y-12267150D01*
X14017682Y-12267150D02*
X13998634Y-12276674D01*
X13998634Y-12276674D02*
X13989110Y-12286198D01*
X14198634Y-12400484D02*
X14179587Y-12390960D01*
X14179587Y-12390960D02*
X14170063Y-12381436D01*
X14170063Y-12381436D02*
X14160539Y-12362388D01*
X14160539Y-12362388D02*
X14160539Y-12305246D01*
X14160539Y-12305246D02*
X14170063Y-12286198D01*
X14170063Y-12286198D02*
X14179587Y-12276674D01*
X14179587Y-12276674D02*
X14198634Y-12267150D01*
X14198634Y-12267150D02*
X14227206Y-12267150D01*
X14227206Y-12267150D02*
X14246253Y-12276674D01*
X14246253Y-12276674D02*
X14255777Y-12286198D01*
X14255777Y-12286198D02*
X14265301Y-12305246D01*
X14265301Y-12305246D02*
X14265301Y-12362388D01*
X14265301Y-12362388D02*
X14255777Y-12381436D01*
X14255777Y-12381436D02*
X14246253Y-12390960D01*
X14246253Y-12390960D02*
X14227206Y-12400484D01*
X14227206Y-12400484D02*
X14198634Y-12400484D01*
X14379587Y-12400484D02*
X14360539Y-12390960D01*
X14360539Y-12390960D02*
X14351015Y-12371912D01*
X14351015Y-12371912D02*
X14351015Y-12200484D01*
X14531968Y-12390960D02*
X14512920Y-12400484D01*
X14512920Y-12400484D02*
X14474825Y-12400484D01*
X14474825Y-12400484D02*
X14455777Y-12390960D01*
X14455777Y-12390960D02*
X14446253Y-12371912D01*
X14446253Y-12371912D02*
X14446253Y-12295722D01*
X14446253Y-12295722D02*
X14455777Y-12276674D01*
X14455777Y-12276674D02*
X14474825Y-12267150D01*
X14474825Y-12267150D02*
X14512920Y-12267150D01*
X14512920Y-12267150D02*
X14531968Y-12276674D01*
X14531968Y-12276674D02*
X14541491Y-12295722D01*
X14541491Y-12295722D02*
X14541491Y-12314769D01*
X14541491Y-12314769D02*
X14446253Y-12333817D01*
X14617682Y-12390960D02*
X14636730Y-12400484D01*
X14636730Y-12400484D02*
X14674825Y-12400484D01*
X14674825Y-12400484D02*
X14693872Y-12390960D01*
X14693872Y-12390960D02*
X14703396Y-12371912D01*
X14703396Y-12371912D02*
X14703396Y-12362388D01*
X14703396Y-12362388D02*
X14693872Y-12343341D01*
X14693872Y-12343341D02*
X14674825Y-12333817D01*
X14674825Y-12333817D02*
X14646253Y-12333817D01*
X14646253Y-12333817D02*
X14627206Y-12324293D01*
X14627206Y-12324293D02*
X14617682Y-12305246D01*
X14617682Y-12305246D02*
X14617682Y-12295722D01*
X14617682Y-12295722D02*
X14627206Y-12276674D01*
X14627206Y-12276674D02*
X14646253Y-12267150D01*
X14646253Y-12267150D02*
X14674825Y-12267150D01*
X14674825Y-12267150D02*
X14693872Y-12276674D01*
X14770063Y-12476674D02*
X14779587Y-12467150D01*
X14779587Y-12467150D02*
X14798634Y-12438579D01*
X14798634Y-12438579D02*
X14808158Y-12419531D01*
X14808158Y-12419531D02*
X14817682Y-12390960D01*
X14817682Y-12390960D02*
X14827206Y-12343341D01*
X14827206Y-12343341D02*
X14827206Y-12305246D01*
X14827206Y-12305246D02*
X14817682Y-12257627D01*
X14817682Y-12257627D02*
X14808158Y-12229055D01*
X14808158Y-12229055D02*
X14798634Y-12210008D01*
X14798634Y-12210008D02*
X14779587Y-12181436D01*
X14779587Y-12181436D02*
X14770063Y-12171912D01*
M02*
