%TF.GenerationSoftware,KiCad,Pcbnew,9.0.7*%
%TF.CreationDate,2026-07-29T00:26:30-07:00*%
%TF.ProjectId,FN32ROV-XEBook-LED-KiCad,464e3332-524f-4562-9d58-45426f6f6b2d,rev?*%
%TF.SameCoordinates,Original*%
%TF.FileFunction,Legend,Bot*%
%TF.FilePolarity,Positive*%
%FSLAX46Y46*%
G04 Gerber Fmt 4.6, Leading zero omitted, Abs format (unit mm)*
G04 Created by KiCad (PCBNEW 9.0.7) date 2026-07-29 00:26:30*
%MOMM*%
%LPD*%
G01*
G04 APERTURE LIST*
%ADD10C,0.000000*%
%ADD11C,0.066145*%
%ADD12C,0.120000*%
G04 APERTURE END LIST*
D10*
G36*
X115574169Y-104526469D02*
G01*
X115385388Y-104526469D01*
X115385388Y-104603436D01*
X115509558Y-104603436D01*
X115510393Y-104603462D01*
X115511263Y-104603538D01*
X115512169Y-104603665D01*
X115513112Y-104603843D01*
X115514092Y-104604073D01*
X115515112Y-104604353D01*
X115516172Y-104604684D01*
X115517273Y-104605067D01*
X115518417Y-104605500D01*
X115519605Y-104605985D01*
X115520837Y-104606521D01*
X115522115Y-104607108D01*
X115523440Y-104607747D01*
X115524813Y-104608437D01*
X115526235Y-104609179D01*
X115527708Y-104609972D01*
X115529197Y-104610807D01*
X115530670Y-104611674D01*
X115532124Y-104612573D01*
X115533562Y-104613503D01*
X115534983Y-104614462D01*
X115536386Y-104615449D01*
X115537772Y-104616464D01*
X115539141Y-104617506D01*
X115541828Y-104619663D01*
X115544447Y-104621915D01*
X115546999Y-104624252D01*
X115549483Y-104626667D01*
X115550700Y-104627909D01*
X115551900Y-104629184D01*
X115553084Y-104630491D01*
X115554250Y-104631829D01*
X115555400Y-104633197D01*
X115556532Y-104634594D01*
X115557648Y-104636018D01*
X115558747Y-104637468D01*
X115560893Y-104640445D01*
X115562971Y-104643514D01*
X115564979Y-104646668D01*
X115566919Y-104649897D01*
X115567838Y-104651538D01*
X115568689Y-104653193D01*
X115569475Y-104654862D01*
X115570195Y-104656541D01*
X115570852Y-104658230D01*
X115571445Y-104659924D01*
X115571977Y-104661623D01*
X115572449Y-104663325D01*
X115572861Y-104665026D01*
X115573214Y-104666725D01*
X115573510Y-104668420D01*
X115573750Y-104670108D01*
X115573935Y-104671787D01*
X115574066Y-104673456D01*
X115574143Y-104675112D01*
X115574169Y-104676752D01*
X115574169Y-104938875D01*
X115265585Y-104938875D01*
X115265585Y-104799466D01*
X115267755Y-104798751D01*
X115267808Y-104798752D01*
X115455133Y-104798752D01*
X115455133Y-104722525D01*
X115322974Y-104722525D01*
X115321622Y-104722508D01*
X115320286Y-104722454D01*
X115318962Y-104722362D01*
X115317648Y-104722230D01*
X115316342Y-104722055D01*
X115315043Y-104721835D01*
X115313747Y-104721568D01*
X115312453Y-104721252D01*
X115311159Y-104720885D01*
X115309863Y-104720465D01*
X115308562Y-104719989D01*
X115307254Y-104719456D01*
X115305937Y-104718863D01*
X115304609Y-104718208D01*
X115303269Y-104717489D01*
X115301913Y-104716704D01*
X115300570Y-104715877D01*
X115299260Y-104715034D01*
X115297981Y-104714173D01*
X115296733Y-104713296D01*
X115295514Y-104712402D01*
X115294323Y-104711492D01*
X115293161Y-104710564D01*
X115292024Y-104709620D01*
X115290913Y-104708659D01*
X115289826Y-104707682D01*
X115288763Y-104706687D01*
X115287722Y-104705676D01*
X115286703Y-104704648D01*
X115285703Y-104703604D01*
X115283762Y-104701464D01*
X115282819Y-104700356D01*
X115281892Y-104699216D01*
X115280985Y-104698044D01*
X115280098Y-104696842D01*
X115279232Y-104695610D01*
X115278388Y-104694350D01*
X115277567Y-104693062D01*
X115276771Y-104691748D01*
X115276000Y-104690408D01*
X115275255Y-104689044D01*
X115274539Y-104687657D01*
X115273850Y-104686247D01*
X115273192Y-104684815D01*
X115272564Y-104683364D01*
X115271969Y-104681893D01*
X115271406Y-104680403D01*
X115270752Y-104678905D01*
X115270147Y-104677407D01*
X115269591Y-104675909D01*
X115269083Y-104674411D01*
X115268622Y-104672912D01*
X115268206Y-104671414D01*
X115267835Y-104669916D01*
X115267507Y-104668418D01*
X115267222Y-104666920D01*
X115266978Y-104665422D01*
X115266774Y-104663923D01*
X115266610Y-104662425D01*
X115266484Y-104660927D01*
X115266396Y-104659429D01*
X115266343Y-104657931D01*
X115266326Y-104656432D01*
X115266326Y-104477812D01*
X115266393Y-104473458D01*
X115266587Y-104469112D01*
X115266901Y-104464783D01*
X115267325Y-104460479D01*
X115267851Y-104456208D01*
X115268469Y-104451979D01*
X115269172Y-104447801D01*
X115269951Y-104443681D01*
X115270383Y-104441654D01*
X115270864Y-104439661D01*
X115271393Y-104437700D01*
X115271967Y-104435771D01*
X115272583Y-104433871D01*
X115273240Y-104432001D01*
X115273935Y-104430158D01*
X115274667Y-104428342D01*
X115276231Y-104424784D01*
X115277913Y-104421319D01*
X115279697Y-104417938D01*
X115281566Y-104414629D01*
X115282535Y-104413018D01*
X115283539Y-104411458D01*
X115284577Y-104409947D01*
X115285649Y-104408485D01*
X115286755Y-104407071D01*
X115287895Y-104405703D01*
X115289069Y-104404379D01*
X115290277Y-104403100D01*
X115291520Y-104401864D01*
X115292796Y-104400669D01*
X115294107Y-104399515D01*
X115295452Y-104398400D01*
X115296830Y-104397323D01*
X115298243Y-104396283D01*
X115299690Y-104395279D01*
X115301172Y-104394310D01*
X115302695Y-104393391D01*
X115304268Y-104392539D01*
X115305890Y-104391754D01*
X115307560Y-104391034D01*
X115309276Y-104390377D01*
X115311038Y-104389783D01*
X115312845Y-104389251D01*
X115314695Y-104388780D01*
X115316588Y-104388368D01*
X115318522Y-104388014D01*
X115320496Y-104387718D01*
X115322510Y-104387478D01*
X115324562Y-104387294D01*
X115326651Y-104387163D01*
X115328777Y-104387086D01*
X115330937Y-104387060D01*
X115574169Y-104387060D01*
X115574169Y-104526469D01*
G37*
G36*
X119517492Y-104609257D02*
G01*
X119615521Y-104387801D01*
X119721539Y-104387801D01*
X119721539Y-104938902D01*
X119600281Y-104938902D01*
X119600281Y-104716731D01*
X119502253Y-104938902D01*
X119396975Y-104938902D01*
X119396975Y-104387801D01*
X119517492Y-104387801D01*
X119517492Y-104609257D01*
G37*
G36*
X118503186Y-104527925D02*
G01*
X118401533Y-104527925D01*
X118401533Y-104939616D01*
X118281015Y-104939616D01*
X118281015Y-104527925D01*
X118179363Y-104527925D01*
X118179362Y-104527925D01*
X118179362Y-104388515D01*
X118503186Y-104388515D01*
X118503186Y-104527925D01*
G37*
G36*
X125822062Y-104333351D02*
G01*
X124315445Y-104333351D01*
X124315445Y-102500000D01*
X125822062Y-102500000D01*
X125822062Y-104333351D01*
G37*
G36*
X123158053Y-103569498D02*
G01*
X123056399Y-103569498D01*
X123056399Y-103981189D01*
X122935881Y-103981189D01*
X122935881Y-103569498D01*
X122834229Y-103569498D01*
X122834229Y-103430089D01*
X123158053Y-103430089D01*
X123158053Y-103569498D01*
G37*
G36*
X117353809Y-103569524D02*
G01*
X117297188Y-103569524D01*
X117297188Y-103981216D01*
X117176671Y-103981216D01*
X117176671Y-103430115D01*
X117353809Y-103430115D01*
X117353809Y-103569524D01*
G37*
G36*
X114640481Y-103022048D02*
G01*
X114519223Y-103022048D01*
X114519223Y-102882639D01*
X114640481Y-102882639D01*
X114640481Y-103022048D01*
G37*
G36*
X117056841Y-104938902D02*
G01*
X116934868Y-104938902D01*
X116934868Y-104387801D01*
X117056841Y-104387801D01*
X117056841Y-104938902D01*
G37*
G36*
X122193832Y-103569498D02*
G01*
X122092179Y-103569498D01*
X122092179Y-103981189D01*
X121971660Y-103981189D01*
X121971660Y-103569498D01*
X121870008Y-103569498D01*
X121870008Y-103430089D01*
X122193832Y-103430089D01*
X122193832Y-103569498D01*
G37*
G36*
X114975920Y-102610357D02*
G01*
X114919299Y-102610357D01*
X114919299Y-103022048D01*
X114798781Y-103022048D01*
X114798781Y-102470948D01*
X114975920Y-102470948D01*
X114975920Y-102610357D01*
G37*
G36*
X114384920Y-102610357D02*
G01*
X114196140Y-102610357D01*
X114361690Y-103022048D01*
X114230271Y-103022048D01*
X114230245Y-103022048D01*
X114060356Y-102600197D01*
X114060356Y-102470948D01*
X114384920Y-102470948D01*
X114384920Y-102610357D01*
G37*
G36*
X117087725Y-102473161D02*
G01*
X117088818Y-102473215D01*
X117089914Y-102473307D01*
X117091017Y-102473440D01*
X117092128Y-102473615D01*
X117093249Y-102473835D01*
X117094382Y-102474101D01*
X117095530Y-102474417D01*
X117096695Y-102474784D01*
X117097878Y-102475205D01*
X117099083Y-102475680D01*
X117100311Y-102476213D01*
X117101564Y-102476806D01*
X117102845Y-102477461D01*
X117104156Y-102478180D01*
X117105498Y-102478965D01*
X117106723Y-102479661D01*
X117107948Y-102480391D01*
X117109169Y-102481152D01*
X117110388Y-102481945D01*
X117111602Y-102482768D01*
X117112811Y-102483619D01*
X117115208Y-102485404D01*
X117117571Y-102487292D01*
X117119890Y-102489275D01*
X117122157Y-102491344D01*
X117124363Y-102493490D01*
X117126502Y-102495675D01*
X117128567Y-102497874D01*
X117130550Y-102500106D01*
X117131507Y-102501239D01*
X117132439Y-102502387D01*
X117133347Y-102503552D01*
X117134228Y-102504735D01*
X117135081Y-102505940D01*
X117135905Y-102507168D01*
X117136699Y-102508421D01*
X117137461Y-102509702D01*
X117138192Y-102511013D01*
X117138888Y-102512355D01*
X117139551Y-102513580D01*
X117140179Y-102514804D01*
X117140772Y-102516026D01*
X117141327Y-102517245D01*
X117141845Y-102518459D01*
X117142323Y-102519668D01*
X117142761Y-102520871D01*
X117143158Y-102522065D01*
X117143512Y-102523251D01*
X117143823Y-102524428D01*
X117144089Y-102525593D01*
X117144309Y-102526747D01*
X117144483Y-102527887D01*
X117144608Y-102529014D01*
X117144684Y-102530125D01*
X117144709Y-102531220D01*
X117144709Y-102963972D01*
X117144692Y-102965064D01*
X117144638Y-102966157D01*
X117144546Y-102967254D01*
X117144414Y-102968356D01*
X117144238Y-102969467D01*
X117144018Y-102970588D01*
X117143752Y-102971721D01*
X117143436Y-102972869D01*
X117143069Y-102974034D01*
X117142649Y-102975217D01*
X117142173Y-102976422D01*
X117141640Y-102977650D01*
X117141047Y-102978903D01*
X117140392Y-102980184D01*
X117139673Y-102981495D01*
X117138888Y-102982837D01*
X117138192Y-102984062D01*
X117137462Y-102985287D01*
X117136701Y-102986508D01*
X117135908Y-102987727D01*
X117135086Y-102988941D01*
X117134234Y-102990150D01*
X117132449Y-102992547D01*
X117130561Y-102994910D01*
X117128578Y-102997229D01*
X117126510Y-102999496D01*
X117124363Y-103001702D01*
X117122148Y-103003841D01*
X117119875Y-103005906D01*
X117117552Y-103007889D01*
X117115189Y-103009778D01*
X117113994Y-103010686D01*
X117112793Y-103011567D01*
X117111585Y-103012420D01*
X117110373Y-103013244D01*
X117109157Y-103014038D01*
X117107939Y-103014801D01*
X117106719Y-103015531D01*
X117105498Y-103016228D01*
X117104277Y-103016890D01*
X117103057Y-103017519D01*
X117101837Y-103018111D01*
X117100619Y-103018666D01*
X117099406Y-103019184D01*
X117098197Y-103019662D01*
X117096994Y-103020101D01*
X117095798Y-103020497D01*
X117094610Y-103020852D01*
X117093432Y-103021162D01*
X117092265Y-103021429D01*
X117091110Y-103021649D01*
X117089968Y-103021822D01*
X117088841Y-103021947D01*
X117087729Y-103022023D01*
X117086633Y-103022048D01*
X117086633Y-103022763D01*
X116873167Y-103022763D01*
X116872084Y-103022738D01*
X116871015Y-103022663D01*
X116869957Y-103022539D01*
X116868906Y-103022367D01*
X116867860Y-103022148D01*
X116866815Y-103021884D01*
X116865769Y-103021575D01*
X116864717Y-103021222D01*
X116863657Y-103020826D01*
X116862585Y-103020388D01*
X116861498Y-103019910D01*
X116860394Y-103019392D01*
X116859268Y-103018835D01*
X116858118Y-103018240D01*
X116855731Y-103016942D01*
X116854514Y-103016241D01*
X116853314Y-103015508D01*
X116852130Y-103014745D01*
X116850964Y-103013951D01*
X116849814Y-103013128D01*
X116848682Y-103012276D01*
X116847566Y-103011398D01*
X116846467Y-103010493D01*
X116845386Y-103009563D01*
X116844321Y-103008608D01*
X116843274Y-103007629D01*
X116842243Y-103006628D01*
X116841230Y-103005606D01*
X116840234Y-103004562D01*
X116839256Y-103003499D01*
X116838295Y-103002416D01*
X116837228Y-103001317D01*
X116836211Y-103000202D01*
X116835238Y-102999072D01*
X116834307Y-102997928D01*
X116833414Y-102996773D01*
X116832557Y-102995606D01*
X116831732Y-102994428D01*
X116830936Y-102993242D01*
X116829418Y-102990846D01*
X116827977Y-102988427D01*
X116826588Y-102985992D01*
X116825224Y-102983552D01*
X116824570Y-102982331D01*
X116823965Y-102981110D01*
X116823409Y-102979890D01*
X116822901Y-102978673D01*
X116822440Y-102977459D01*
X116822024Y-102976250D01*
X116821652Y-102975047D01*
X116821325Y-102973851D01*
X116821040Y-102972664D01*
X116820796Y-102971486D01*
X116820592Y-102970319D01*
X116820428Y-102969164D01*
X116820302Y-102968022D01*
X116820214Y-102966894D01*
X116820161Y-102965782D01*
X116820144Y-102964687D01*
X116820144Y-102882639D01*
X116820144Y-102611098D01*
X116942859Y-102611098D01*
X116942859Y-102882639D01*
X117025620Y-102882639D01*
X117025620Y-102611098D01*
X116942859Y-102611098D01*
X116820144Y-102611098D01*
X116820144Y-102530506D01*
X116820161Y-102529536D01*
X116820214Y-102528535D01*
X116820302Y-102527504D01*
X116820428Y-102526445D01*
X116820592Y-102525361D01*
X116820796Y-102524253D01*
X116821040Y-102523124D01*
X116821325Y-102521976D01*
X116821653Y-102520811D01*
X116822024Y-102519631D01*
X116822440Y-102518437D01*
X116822901Y-102517234D01*
X116823409Y-102516022D01*
X116823965Y-102514803D01*
X116824570Y-102513580D01*
X116825224Y-102512355D01*
X116826618Y-102509906D01*
X116828081Y-102507465D01*
X116829613Y-102505042D01*
X116831213Y-102502645D01*
X116832882Y-102500282D01*
X116834619Y-102497963D01*
X116836423Y-102495697D01*
X116838295Y-102493490D01*
X116840476Y-102491344D01*
X116842656Y-102489275D01*
X116844835Y-102487292D01*
X116847013Y-102485404D01*
X116849191Y-102483619D01*
X116851369Y-102481945D01*
X116852459Y-102481152D01*
X116853549Y-102480391D01*
X116854640Y-102479661D01*
X116855731Y-102478965D01*
X116858148Y-102477674D01*
X116859332Y-102477082D01*
X116860498Y-102476526D01*
X116861648Y-102476008D01*
X116862780Y-102475530D01*
X116863896Y-102475092D01*
X116864995Y-102474695D01*
X116866076Y-102474341D01*
X116867141Y-102474030D01*
X116868188Y-102473764D01*
X116869218Y-102473544D01*
X116870232Y-102473370D01*
X116871227Y-102473245D01*
X116872206Y-102473169D01*
X116873167Y-102473144D01*
X117086633Y-102473144D01*
X117087725Y-102473161D01*
G37*
G36*
X121507689Y-103842521D02*
G01*
X121591192Y-103842521D01*
X121591192Y-103430830D01*
X121710995Y-103430830D01*
X121710995Y-103923113D01*
X121710978Y-103924205D01*
X121710924Y-103925298D01*
X121710832Y-103926395D01*
X121710700Y-103927497D01*
X121710524Y-103928608D01*
X121710305Y-103929729D01*
X121710038Y-103930862D01*
X121709722Y-103932010D01*
X121709355Y-103933175D01*
X121708935Y-103934358D01*
X121708459Y-103935563D01*
X121707926Y-103936791D01*
X121707333Y-103938044D01*
X121706678Y-103939325D01*
X121705960Y-103940636D01*
X121705175Y-103941978D01*
X121704478Y-103943203D01*
X121703749Y-103944427D01*
X121702987Y-103945649D01*
X121702195Y-103946868D01*
X121701372Y-103948082D01*
X121700521Y-103949291D01*
X121698735Y-103951688D01*
X121696847Y-103954051D01*
X121694864Y-103956370D01*
X121692795Y-103958637D01*
X121690649Y-103960843D01*
X121688434Y-103962982D01*
X121686160Y-103965047D01*
X121683837Y-103967030D01*
X121682659Y-103967987D01*
X121681471Y-103968919D01*
X121680275Y-103969827D01*
X121679072Y-103970708D01*
X121677862Y-103971561D01*
X121676648Y-103972385D01*
X121675429Y-103973179D01*
X121674207Y-103973941D01*
X121672982Y-103974672D01*
X121671757Y-103975369D01*
X121670532Y-103976031D01*
X121669308Y-103976660D01*
X121668086Y-103977252D01*
X121666867Y-103977807D01*
X121665653Y-103978325D01*
X121664443Y-103978803D01*
X121663240Y-103979242D01*
X121662044Y-103979638D01*
X121660857Y-103979993D01*
X121659679Y-103980303D01*
X121658511Y-103980570D01*
X121657355Y-103980790D01*
X121656212Y-103980963D01*
X121655082Y-103981088D01*
X121653966Y-103981164D01*
X121652867Y-103981189D01*
X121652152Y-103981904D01*
X121652177Y-103981930D01*
X121387171Y-103981930D01*
X121387171Y-103430830D01*
X121507689Y-103430830D01*
X121507689Y-103842521D01*
G37*
G36*
X123583218Y-103430106D02*
G01*
X123584311Y-103430160D01*
X123585407Y-103430252D01*
X123586510Y-103430384D01*
X123587621Y-103430559D01*
X123588742Y-103430779D01*
X123589875Y-103431046D01*
X123591023Y-103431362D01*
X123592187Y-103431729D01*
X123593371Y-103432149D01*
X123594575Y-103432625D01*
X123595803Y-103433158D01*
X123597057Y-103433751D01*
X123598337Y-103434406D01*
X123599648Y-103435125D01*
X123600991Y-103435909D01*
X123602216Y-103436606D01*
X123603440Y-103437336D01*
X123604662Y-103438097D01*
X123605881Y-103438890D01*
X123607095Y-103439712D01*
X123608304Y-103440564D01*
X123610701Y-103442349D01*
X123613064Y-103444237D01*
X123615383Y-103446220D01*
X123617650Y-103448288D01*
X123619856Y-103450435D01*
X123621996Y-103452620D01*
X123624061Y-103454819D01*
X123626043Y-103457051D01*
X123627000Y-103458184D01*
X123627933Y-103459332D01*
X123628840Y-103460496D01*
X123629721Y-103461680D01*
X123630574Y-103462885D01*
X123631398Y-103464112D01*
X123632192Y-103465366D01*
X123632955Y-103466647D01*
X123633685Y-103467957D01*
X123634382Y-103469300D01*
X123635045Y-103470525D01*
X123635673Y-103471749D01*
X123636265Y-103472971D01*
X123636821Y-103474190D01*
X123637338Y-103475404D01*
X123637817Y-103476613D01*
X123638255Y-103477815D01*
X123638652Y-103479010D01*
X123639006Y-103480196D01*
X123639317Y-103481373D01*
X123639583Y-103482538D01*
X123639803Y-103483692D01*
X123639976Y-103484832D01*
X123640102Y-103485959D01*
X123640177Y-103487070D01*
X123640203Y-103488165D01*
X123640203Y-103698006D01*
X123640178Y-103699504D01*
X123640104Y-103701002D01*
X123639984Y-103702500D01*
X123639818Y-103703999D01*
X123639611Y-103705497D01*
X123639363Y-103706995D01*
X123639077Y-103708493D01*
X123638754Y-103709991D01*
X123638009Y-103712988D01*
X123637144Y-103715984D01*
X123636176Y-103718981D01*
X123635123Y-103721977D01*
X123634560Y-103723466D01*
X123633966Y-103724937D01*
X123633339Y-103726389D01*
X123632682Y-103727820D01*
X123631996Y-103729230D01*
X123631281Y-103730617D01*
X123630538Y-103731981D01*
X123629768Y-103733321D01*
X123628973Y-103734635D01*
X123628153Y-103735923D01*
X123627309Y-103737183D01*
X123626442Y-103738415D01*
X123625554Y-103739617D01*
X123624645Y-103740789D01*
X123623715Y-103741930D01*
X123622767Y-103743038D01*
X123621806Y-103744246D01*
X123620826Y-103745420D01*
X123619827Y-103746560D01*
X123618807Y-103747666D01*
X123617766Y-103748738D01*
X123616703Y-103749776D01*
X123615617Y-103750780D01*
X123614505Y-103751749D01*
X123613369Y-103752685D01*
X123612206Y-103753586D01*
X123611016Y-103754453D01*
X123609797Y-103755286D01*
X123608548Y-103756085D01*
X123607270Y-103756850D01*
X123605959Y-103757581D01*
X123604617Y-103758278D01*
X123603257Y-103758940D01*
X123601897Y-103759569D01*
X123600536Y-103760161D01*
X123599175Y-103760716D01*
X123597814Y-103761234D01*
X123596452Y-103761712D01*
X123595090Y-103762151D01*
X123593729Y-103762547D01*
X123592367Y-103762902D01*
X123591005Y-103763213D01*
X123589644Y-103763479D01*
X123588282Y-103763699D01*
X123586921Y-103763872D01*
X123585561Y-103763997D01*
X123584201Y-103764073D01*
X123582841Y-103764099D01*
X123436898Y-103764099D01*
X123436898Y-103840325D01*
X123518945Y-103840325D01*
X123518945Y-103785874D01*
X123639463Y-103827995D01*
X123639463Y-103921658D01*
X123639446Y-103922758D01*
X123639393Y-103923873D01*
X123639305Y-103925003D01*
X123639179Y-103926146D01*
X123639015Y-103927302D01*
X123638811Y-103928469D01*
X123638568Y-103929646D01*
X123638282Y-103930832D01*
X123637954Y-103932027D01*
X123637583Y-103933228D01*
X123637167Y-103934436D01*
X123636706Y-103935648D01*
X123636198Y-103936864D01*
X123635642Y-103938082D01*
X123635037Y-103939302D01*
X123634383Y-103940523D01*
X123632989Y-103942964D01*
X123631526Y-103945401D01*
X123629994Y-103947824D01*
X123628393Y-103950223D01*
X123626725Y-103952588D01*
X123624988Y-103954911D01*
X123623184Y-103957180D01*
X123621313Y-103959388D01*
X123620352Y-103960466D01*
X123619374Y-103961527D01*
X123618382Y-103962569D01*
X123617376Y-103963592D01*
X123616357Y-103964594D01*
X123615326Y-103965574D01*
X123614284Y-103966531D01*
X123613233Y-103967464D01*
X123612174Y-103968371D01*
X123611107Y-103969252D01*
X123610034Y-103970105D01*
X123608956Y-103970929D01*
X123607875Y-103971723D01*
X123606790Y-103972486D01*
X123605704Y-103973216D01*
X123604618Y-103973913D01*
X123603531Y-103974576D01*
X123602444Y-103975204D01*
X123601356Y-103975796D01*
X123600267Y-103976352D01*
X123599178Y-103976869D01*
X123598089Y-103977348D01*
X123597000Y-103977786D01*
X123595910Y-103978183D01*
X123594819Y-103978537D01*
X123593729Y-103978848D01*
X123592638Y-103979114D01*
X123591547Y-103979334D01*
X123590456Y-103979507D01*
X123589364Y-103979633D01*
X123588273Y-103979708D01*
X123587182Y-103979734D01*
X123373716Y-103979734D01*
X123372625Y-103979717D01*
X123371532Y-103979663D01*
X123370435Y-103979571D01*
X123369332Y-103979438D01*
X123368222Y-103979263D01*
X123367101Y-103979043D01*
X123365968Y-103978777D01*
X123364820Y-103978461D01*
X123363655Y-103978094D01*
X123362471Y-103977673D01*
X123361267Y-103977198D01*
X123360039Y-103976664D01*
X123358786Y-103976071D01*
X123357505Y-103975417D01*
X123356194Y-103974698D01*
X123354851Y-103973913D01*
X123353626Y-103973217D01*
X123352402Y-103972487D01*
X123351180Y-103971726D01*
X123349961Y-103970933D01*
X123348747Y-103970110D01*
X123347538Y-103969259D01*
X123345141Y-103967474D01*
X123342778Y-103965586D01*
X123340459Y-103963603D01*
X123338192Y-103961534D01*
X123335986Y-103959388D01*
X123333847Y-103957173D01*
X123331781Y-103954899D01*
X123329799Y-103952577D01*
X123327909Y-103950213D01*
X123327002Y-103949019D01*
X123326121Y-103947817D01*
X123325268Y-103946610D01*
X123324444Y-103945398D01*
X123323650Y-103944182D01*
X123322888Y-103942963D01*
X123322157Y-103941743D01*
X123321460Y-103940523D01*
X123320797Y-103939302D01*
X123320169Y-103938081D01*
X123319577Y-103936861D01*
X123319021Y-103935644D01*
X123318503Y-103934430D01*
X123318025Y-103933221D01*
X123317587Y-103932018D01*
X123317190Y-103930822D01*
X123316836Y-103929635D01*
X123316525Y-103928457D01*
X123316259Y-103927290D01*
X123316039Y-103926135D01*
X123315866Y-103924993D01*
X123315740Y-103923865D01*
X123315665Y-103922753D01*
X123315639Y-103921658D01*
X123315639Y-103714013D01*
X123315664Y-103712515D01*
X123315738Y-103711017D01*
X123315859Y-103709518D01*
X123316024Y-103708020D01*
X123316231Y-103706522D01*
X123316479Y-103705024D01*
X123316766Y-103703526D01*
X123317088Y-103702027D01*
X123317833Y-103699031D01*
X123318698Y-103696034D01*
X123319666Y-103693038D01*
X123320719Y-103690042D01*
X123321281Y-103688552D01*
X123321876Y-103687080D01*
X123322502Y-103685625D01*
X123323159Y-103684187D01*
X123323846Y-103682767D01*
X123324561Y-103681364D01*
X123325304Y-103679977D01*
X123326074Y-103678608D01*
X123327689Y-103675921D01*
X123329400Y-103673302D01*
X123331198Y-103670751D01*
X123333075Y-103668266D01*
X123334036Y-103667184D01*
X123335016Y-103666118D01*
X123336015Y-103665070D01*
X123337035Y-103664040D01*
X123338076Y-103663026D01*
X123339139Y-103662031D01*
X123340226Y-103661052D01*
X123341337Y-103660091D01*
X123342473Y-103659147D01*
X123343636Y-103658221D01*
X123344826Y-103657311D01*
X123346045Y-103656420D01*
X123347294Y-103655545D01*
X123348572Y-103654688D01*
X123349883Y-103653849D01*
X123351225Y-103653026D01*
X123352585Y-103652364D01*
X123353945Y-103651736D01*
X123355306Y-103651143D01*
X123356667Y-103650588D01*
X123358028Y-103650070D01*
X123359390Y-103649592D01*
X123360752Y-103649154D01*
X123362113Y-103648757D01*
X123363475Y-103648402D01*
X123364837Y-103648092D01*
X123366198Y-103647826D01*
X123367560Y-103647605D01*
X123368921Y-103647432D01*
X123370281Y-103647307D01*
X123371641Y-103647231D01*
X123373001Y-103647206D01*
X123518945Y-103647206D01*
X123518230Y-103646491D01*
X123518204Y-103646465D01*
X123518204Y-103568783D01*
X123436157Y-103568783D01*
X123436157Y-103623235D01*
X123315638Y-103581113D01*
X123315638Y-103487450D01*
X123315655Y-103486481D01*
X123315708Y-103485480D01*
X123315796Y-103484449D01*
X123315922Y-103483390D01*
X123316086Y-103482306D01*
X123316290Y-103481198D01*
X123316534Y-103480069D01*
X123316819Y-103478921D01*
X123317147Y-103477756D01*
X123317518Y-103476575D01*
X123317934Y-103475382D01*
X123318395Y-103474179D01*
X123318903Y-103472966D01*
X123319459Y-103471748D01*
X123320064Y-103470525D01*
X123320718Y-103469300D01*
X123322112Y-103466851D01*
X123323575Y-103464410D01*
X123325107Y-103461987D01*
X123326708Y-103459590D01*
X123328376Y-103457227D01*
X123330113Y-103454908D01*
X123331917Y-103452641D01*
X123333788Y-103450435D01*
X123335970Y-103448288D01*
X123338150Y-103446220D01*
X123340329Y-103444237D01*
X123342507Y-103442349D01*
X123344685Y-103440564D01*
X123346863Y-103438890D01*
X123347953Y-103438097D01*
X123349043Y-103437336D01*
X123350133Y-103436606D01*
X123351224Y-103435909D01*
X123353642Y-103434619D01*
X123354825Y-103434026D01*
X123355992Y-103433471D01*
X123357141Y-103432953D01*
X123358274Y-103432475D01*
X123359390Y-103432037D01*
X123360488Y-103431640D01*
X123361570Y-103431285D01*
X123362634Y-103430975D01*
X123363682Y-103430709D01*
X123364712Y-103430488D01*
X123365725Y-103430315D01*
X123366721Y-103430190D01*
X123367699Y-103430114D01*
X123368660Y-103430089D01*
X123582126Y-103430089D01*
X123583218Y-103430106D01*
G37*
G36*
X116231279Y-104387827D02*
G01*
X116233405Y-104387905D01*
X116235494Y-104388035D01*
X116237546Y-104388220D01*
X116239560Y-104388460D01*
X116241534Y-104388756D01*
X116243468Y-104389109D01*
X116245361Y-104389521D01*
X116247211Y-104389993D01*
X116249018Y-104390525D01*
X116250780Y-104391119D01*
X116252496Y-104391775D01*
X116254166Y-104392496D01*
X116255788Y-104393281D01*
X116257361Y-104394132D01*
X116258885Y-104395051D01*
X116260492Y-104396021D01*
X116262049Y-104397026D01*
X116263557Y-104398067D01*
X116265018Y-104399145D01*
X116266432Y-104400262D01*
X116267800Y-104401418D01*
X116269124Y-104402614D01*
X116270404Y-104403852D01*
X116271642Y-104405132D01*
X116272838Y-104406456D01*
X116273994Y-104407824D01*
X116275111Y-104409238D01*
X116276189Y-104410699D01*
X116277230Y-104412207D01*
X116278235Y-104413764D01*
X116279205Y-104415371D01*
X116280140Y-104417012D01*
X116281042Y-104418672D01*
X116281909Y-104420350D01*
X116282742Y-104422050D01*
X116283542Y-104423771D01*
X116284307Y-104425514D01*
X116285039Y-104427281D01*
X116285737Y-104429073D01*
X116286401Y-104430891D01*
X116287031Y-104432735D01*
X116287627Y-104434607D01*
X116288190Y-104436508D01*
X116288719Y-104438439D01*
X116289215Y-104440401D01*
X116289677Y-104442395D01*
X116290105Y-104444422D01*
X116290892Y-104448542D01*
X116291598Y-104452721D01*
X116292217Y-104456950D01*
X116292741Y-104461220D01*
X116293162Y-104465524D01*
X116293473Y-104469853D01*
X116293664Y-104474199D01*
X116293730Y-104478554D01*
X116293730Y-104656433D01*
X116293705Y-104657931D01*
X116293631Y-104659429D01*
X116293511Y-104660928D01*
X116293346Y-104662426D01*
X116293138Y-104663924D01*
X116292890Y-104665422D01*
X116292604Y-104666920D01*
X116292282Y-104668419D01*
X116291536Y-104671415D01*
X116290672Y-104674412D01*
X116289704Y-104677408D01*
X116288650Y-104680404D01*
X116287493Y-104683397D01*
X116286210Y-104686363D01*
X116285523Y-104687828D01*
X116284808Y-104689278D01*
X116284065Y-104690708D01*
X116283295Y-104692115D01*
X116282500Y-104693497D01*
X116281680Y-104694850D01*
X116280836Y-104696171D01*
X116279970Y-104697456D01*
X116279081Y-104698703D01*
X116278172Y-104699908D01*
X116277242Y-104701068D01*
X116276294Y-104702180D01*
X116274345Y-104704349D01*
X116272323Y-104706496D01*
X116271282Y-104707552D01*
X116270218Y-104708592D01*
X116269132Y-104709614D01*
X116268022Y-104710613D01*
X116266887Y-104711587D01*
X116265726Y-104712532D01*
X116264537Y-104713446D01*
X116263320Y-104714324D01*
X116262073Y-104715164D01*
X116260795Y-104715962D01*
X116259486Y-104716715D01*
X116258143Y-104717420D01*
X116256784Y-104718082D01*
X116255424Y-104718710D01*
X116254063Y-104719303D01*
X116252702Y-104719858D01*
X116251341Y-104720376D01*
X116249979Y-104720854D01*
X116248618Y-104721292D01*
X116247256Y-104721689D01*
X116245894Y-104722044D01*
X116244532Y-104722354D01*
X116243171Y-104722620D01*
X116241810Y-104722841D01*
X116240449Y-104723014D01*
X116239088Y-104723139D01*
X116237728Y-104723215D01*
X116236368Y-104723240D01*
X116104950Y-104723240D01*
X116104950Y-104799467D01*
X116293730Y-104799467D01*
X116293730Y-104800181D01*
X116293756Y-104800207D01*
X116293756Y-104939616D01*
X116042534Y-104939616D01*
X116040646Y-104939591D01*
X116038793Y-104939513D01*
X116036973Y-104939382D01*
X116035187Y-104939198D01*
X116033435Y-104938958D01*
X116031717Y-104938662D01*
X116030033Y-104938308D01*
X116028383Y-104937896D01*
X116026766Y-104937425D01*
X116025183Y-104936893D01*
X116023634Y-104936299D01*
X116022119Y-104935642D01*
X116020637Y-104934922D01*
X116019189Y-104934137D01*
X116017775Y-104933285D01*
X116016394Y-104932367D01*
X116015047Y-104931397D01*
X116013735Y-104930393D01*
X116012457Y-104929356D01*
X116011214Y-104928284D01*
X116010005Y-104927178D01*
X116008830Y-104926038D01*
X116007690Y-104924863D01*
X116006584Y-104923655D01*
X116005512Y-104922413D01*
X116004474Y-104921136D01*
X116003471Y-104919826D01*
X116002501Y-104918481D01*
X116001564Y-104917102D01*
X116000662Y-104915689D01*
X115999793Y-104914242D01*
X115998958Y-104912761D01*
X115997357Y-104909728D01*
X115995834Y-104906611D01*
X115994397Y-104903392D01*
X115993713Y-104901739D01*
X115993054Y-104900054D01*
X115992421Y-104898335D01*
X115991815Y-104896580D01*
X115991236Y-104894786D01*
X115990687Y-104892952D01*
X115990167Y-104891075D01*
X115989678Y-104889153D01*
X115989221Y-104887184D01*
X115988798Y-104885165D01*
X115988050Y-104881078D01*
X115987428Y-104876994D01*
X115986924Y-104872910D01*
X115986529Y-104868827D01*
X115986236Y-104864744D01*
X115986037Y-104860660D01*
X115985924Y-104856576D01*
X115985888Y-104852489D01*
X115985888Y-104677494D01*
X115985921Y-104675731D01*
X115986021Y-104673985D01*
X115986185Y-104672254D01*
X115986410Y-104670537D01*
X115986695Y-104668833D01*
X115987037Y-104667141D01*
X115987435Y-104665460D01*
X115987885Y-104663788D01*
X115988386Y-104662126D01*
X115988936Y-104660471D01*
X115989533Y-104658822D01*
X115990174Y-104657179D01*
X115990857Y-104655540D01*
X115991580Y-104653904D01*
X115993137Y-104650639D01*
X115993968Y-104649023D01*
X115994834Y-104647439D01*
X115995734Y-104645884D01*
X115996669Y-104644356D01*
X115997638Y-104642854D01*
X115998642Y-104641375D01*
X115999681Y-104639917D01*
X116000754Y-104638478D01*
X116001861Y-104637056D01*
X116003003Y-104635649D01*
X116004179Y-104634255D01*
X116005389Y-104632872D01*
X116007913Y-104630131D01*
X116010573Y-104627408D01*
X116011937Y-104626074D01*
X116013300Y-104624787D01*
X116014663Y-104623547D01*
X116016025Y-104622351D01*
X116017387Y-104621198D01*
X116018749Y-104620084D01*
X116021470Y-104617969D01*
X116024191Y-104615991D01*
X116026911Y-104614133D01*
X116029630Y-104612379D01*
X116032348Y-104610713D01*
X116033691Y-104609925D01*
X116035001Y-104609186D01*
X116036280Y-104608499D01*
X116037528Y-104607861D01*
X116038747Y-104607274D01*
X116039938Y-104606738D01*
X116041101Y-104606253D01*
X116042237Y-104605818D01*
X116043348Y-104605434D01*
X116044435Y-104605101D01*
X116045498Y-104604819D01*
X116046539Y-104604589D01*
X116047558Y-104604409D01*
X116048558Y-104604281D01*
X116049537Y-104604203D01*
X116050499Y-104604178D01*
X116174668Y-104604178D01*
X116174668Y-104527210D01*
X115985888Y-104527210D01*
X115985888Y-104387801D01*
X116229119Y-104387801D01*
X116231279Y-104387827D01*
G37*
G36*
X123639462Y-103022789D02*
G01*
X123518203Y-103022789D01*
X123518203Y-102820939D01*
X123389695Y-102820939D01*
X123389695Y-102688065D01*
X123518203Y-102688065D01*
X123518203Y-102611098D01*
X123331592Y-102611098D01*
X123331592Y-102471689D01*
X123639462Y-102471689D01*
X123639462Y-103022789D01*
G37*
G36*
X121462682Y-103022763D02*
G01*
X121154098Y-103022763D01*
X121154098Y-102883354D01*
X121340708Y-102883354D01*
X121340708Y-102807127D01*
X121212201Y-102807127D01*
X121212201Y-102688038D01*
X121340708Y-102688038D01*
X121340708Y-102611071D01*
X121154098Y-102611071D01*
X121154098Y-102471662D01*
X121462682Y-102471662D01*
X121462682Y-103022763D01*
G37*
G36*
X114625929Y-104526469D02*
G01*
X114437149Y-104526469D01*
X114437149Y-104603436D01*
X114561318Y-104603436D01*
X114562161Y-104603462D01*
X114563054Y-104603538D01*
X114563993Y-104603665D01*
X114564976Y-104603843D01*
X114566002Y-104604073D01*
X114567068Y-104604353D01*
X114568172Y-104604684D01*
X114569312Y-104605067D01*
X114570485Y-104605500D01*
X114571691Y-104605985D01*
X114572925Y-104606521D01*
X114574188Y-104607108D01*
X114575475Y-104607747D01*
X114576786Y-104608437D01*
X114578118Y-104609179D01*
X114579468Y-104609972D01*
X114580958Y-104610807D01*
X114582430Y-104611674D01*
X114583885Y-104612573D01*
X114585323Y-104613503D01*
X114586743Y-104614462D01*
X114588146Y-104615449D01*
X114589532Y-104616464D01*
X114590902Y-104617506D01*
X114593589Y-104619663D01*
X114596208Y-104621915D01*
X114598759Y-104624252D01*
X114601244Y-104626667D01*
X114603690Y-104629184D01*
X114606111Y-104631829D01*
X114607304Y-104633197D01*
X114608481Y-104634594D01*
X114609639Y-104636018D01*
X114610775Y-104637468D01*
X114611886Y-104638944D01*
X114612967Y-104640445D01*
X114614017Y-104641968D01*
X114615033Y-104643514D01*
X114616009Y-104645081D01*
X114616945Y-104646668D01*
X114617836Y-104648273D01*
X114618680Y-104649897D01*
X114619598Y-104651538D01*
X114620450Y-104653193D01*
X114621235Y-104654862D01*
X114621955Y-104656541D01*
X114622612Y-104658230D01*
X114623206Y-104659924D01*
X114623738Y-104661623D01*
X114624209Y-104663325D01*
X114624621Y-104665026D01*
X114624975Y-104666725D01*
X114625271Y-104668420D01*
X114625511Y-104670108D01*
X114625695Y-104671787D01*
X114625826Y-104673456D01*
X114625904Y-104675112D01*
X114625929Y-104676752D01*
X114625929Y-104938875D01*
X114317346Y-104938875D01*
X114317346Y-104798751D01*
X114317372Y-104798752D01*
X114505438Y-104798752D01*
X114505438Y-104722525D01*
X114373278Y-104722525D01*
X114371927Y-104722508D01*
X114370590Y-104722454D01*
X114369266Y-104722362D01*
X114367952Y-104722230D01*
X114366647Y-104722055D01*
X114365347Y-104721835D01*
X114364052Y-104721568D01*
X114362758Y-104721252D01*
X114361464Y-104720885D01*
X114360167Y-104720465D01*
X114358866Y-104719989D01*
X114357558Y-104719456D01*
X114356242Y-104718863D01*
X114354914Y-104718208D01*
X114353574Y-104717489D01*
X114352218Y-104716704D01*
X114350875Y-104715877D01*
X114349565Y-104715034D01*
X114348286Y-104714173D01*
X114347038Y-104713296D01*
X114345819Y-104712402D01*
X114344628Y-104711492D01*
X114343465Y-104710564D01*
X114342329Y-104709620D01*
X114341218Y-104708659D01*
X114340131Y-104707682D01*
X114339068Y-104706687D01*
X114338027Y-104705676D01*
X114337007Y-104704648D01*
X114336008Y-104703604D01*
X114334067Y-104701464D01*
X114333123Y-104700356D01*
X114332197Y-104699216D01*
X114331290Y-104698044D01*
X114330403Y-104696842D01*
X114329537Y-104695610D01*
X114328693Y-104694350D01*
X114327872Y-104693062D01*
X114327076Y-104691748D01*
X114326305Y-104690408D01*
X114325560Y-104689044D01*
X114324843Y-104687657D01*
X114324155Y-104686247D01*
X114323497Y-104684815D01*
X114322869Y-104683364D01*
X114322274Y-104681893D01*
X114321711Y-104680403D01*
X114321057Y-104678905D01*
X114320452Y-104677407D01*
X114319896Y-104675909D01*
X114319388Y-104674411D01*
X114318927Y-104672912D01*
X114318511Y-104671414D01*
X114318140Y-104669916D01*
X114317812Y-104668418D01*
X114317527Y-104666920D01*
X114317283Y-104665422D01*
X114317079Y-104663923D01*
X114316915Y-104662425D01*
X114316789Y-104660927D01*
X114316701Y-104659429D01*
X114316648Y-104657931D01*
X114316631Y-104656432D01*
X114316631Y-104477812D01*
X114316698Y-104473458D01*
X114316892Y-104469112D01*
X114317206Y-104464783D01*
X114317630Y-104460479D01*
X114318156Y-104456208D01*
X114318774Y-104451979D01*
X114319477Y-104447801D01*
X114320256Y-104443681D01*
X114320688Y-104441654D01*
X114321170Y-104439661D01*
X114321698Y-104437700D01*
X114322272Y-104435771D01*
X114322888Y-104433871D01*
X114323545Y-104432001D01*
X114324240Y-104430158D01*
X114324972Y-104428342D01*
X114326536Y-104424784D01*
X114328218Y-104421319D01*
X114330003Y-104417938D01*
X114331871Y-104414629D01*
X114332971Y-104413023D01*
X114334089Y-104411465D01*
X114335225Y-104409957D01*
X114336382Y-104408497D01*
X114337559Y-104407083D01*
X114338759Y-104405714D01*
X114339981Y-104404390D01*
X114341227Y-104403110D01*
X114342499Y-104401872D01*
X114343797Y-104400676D01*
X114345122Y-104399520D01*
X114346475Y-104398404D01*
X114347857Y-104397325D01*
X114349270Y-104396284D01*
X114350714Y-104395279D01*
X114352191Y-104394310D01*
X114353710Y-104393391D01*
X114355280Y-104392539D01*
X114356900Y-104391754D01*
X114358568Y-104391034D01*
X114360284Y-104390377D01*
X114362046Y-104389783D01*
X114363854Y-104389251D01*
X114365705Y-104388780D01*
X114367599Y-104388368D01*
X114369534Y-104388014D01*
X114371510Y-104387718D01*
X114373526Y-104387478D01*
X114375579Y-104387294D01*
X114377670Y-104387163D01*
X114379796Y-104387086D01*
X114381957Y-104387060D01*
X114625929Y-104387060D01*
X114625929Y-104526469D01*
G37*
G36*
X118374678Y-102688065D02*
G01*
X118457439Y-102688065D01*
X118457439Y-102471689D01*
X118577957Y-102471689D01*
X118577957Y-102688065D01*
X118577921Y-102690546D01*
X118577800Y-102693078D01*
X118577578Y-102695643D01*
X118577423Y-102696933D01*
X118577236Y-102698225D01*
X118577015Y-102699517D01*
X118576758Y-102700807D01*
X118576463Y-102702092D01*
X118576126Y-102703372D01*
X118575747Y-102704643D01*
X118575324Y-102705904D01*
X118574853Y-102707152D01*
X118574332Y-102708385D01*
X118572127Y-102713375D01*
X118570983Y-102715886D01*
X118569788Y-102718363D01*
X118568526Y-102720772D01*
X118567865Y-102721940D01*
X118567181Y-102723078D01*
X118566472Y-102724182D01*
X118565735Y-102725249D01*
X118564969Y-102726273D01*
X118564172Y-102727250D01*
X118560913Y-102731037D01*
X118559280Y-102732888D01*
X118557646Y-102734688D01*
X118556011Y-102736419D01*
X118554375Y-102738066D01*
X118552738Y-102739610D01*
X118551920Y-102740338D01*
X118551101Y-102741034D01*
X118550283Y-102741697D01*
X118549467Y-102742325D01*
X118548653Y-102742918D01*
X118547842Y-102743473D01*
X118547037Y-102743991D01*
X118546236Y-102744469D01*
X118545442Y-102744907D01*
X118544655Y-102745304D01*
X118543877Y-102745659D01*
X118543108Y-102745969D01*
X118542350Y-102746235D01*
X118541602Y-102746456D01*
X118540867Y-102746629D01*
X118540146Y-102746754D01*
X118539438Y-102746830D01*
X118538745Y-102746855D01*
X118540378Y-102747578D01*
X118542011Y-102748384D01*
X118543644Y-102749274D01*
X118545278Y-102750247D01*
X118546912Y-102751300D01*
X118548547Y-102752433D01*
X118550181Y-102753645D01*
X118551816Y-102754935D01*
X118553451Y-102756301D01*
X118555085Y-102757743D01*
X118556720Y-102759260D01*
X118558354Y-102760849D01*
X118559988Y-102762510D01*
X118561621Y-102764243D01*
X118563254Y-102766045D01*
X118564887Y-102767916D01*
X118566468Y-102769960D01*
X118567947Y-102772006D01*
X118569325Y-102774055D01*
X118570601Y-102776110D01*
X118571775Y-102778174D01*
X118572848Y-102780248D01*
X118573818Y-102782335D01*
X118574686Y-102784436D01*
X118575452Y-102786555D01*
X118576117Y-102788692D01*
X118576679Y-102790852D01*
X118577139Y-102793035D01*
X118577497Y-102795244D01*
X118577753Y-102797480D01*
X118577906Y-102799748D01*
X118577957Y-102802047D01*
X118577957Y-103022763D01*
X118457439Y-103022763D01*
X118457439Y-102806387D01*
X118371027Y-102806387D01*
X118371027Y-103022763D01*
X118253393Y-103022763D01*
X118253393Y-102802047D01*
X118253444Y-102799740D01*
X118253598Y-102797450D01*
X118253854Y-102795180D01*
X118254211Y-102792931D01*
X118254671Y-102790703D01*
X118255234Y-102788497D01*
X118255898Y-102786315D01*
X118256664Y-102784158D01*
X118257533Y-102782027D01*
X118258503Y-102779922D01*
X118259575Y-102777846D01*
X118260749Y-102775798D01*
X118262025Y-102773780D01*
X118263403Y-102771793D01*
X118264883Y-102769838D01*
X118266464Y-102767916D01*
X118268096Y-102766045D01*
X118269729Y-102764243D01*
X118271363Y-102762510D01*
X118272996Y-102760849D01*
X118274631Y-102759260D01*
X118276265Y-102757743D01*
X118277900Y-102756301D01*
X118279534Y-102754935D01*
X118281169Y-102753645D01*
X118282803Y-102752433D01*
X118284438Y-102751300D01*
X118286072Y-102750247D01*
X118287706Y-102749274D01*
X118289339Y-102748384D01*
X118290972Y-102747578D01*
X118292604Y-102746855D01*
X118292042Y-102746830D01*
X118291449Y-102746755D01*
X118290826Y-102746631D01*
X118290176Y-102746459D01*
X118289500Y-102746241D01*
X118288802Y-102745976D01*
X118288082Y-102745667D01*
X118287343Y-102745314D01*
X118286587Y-102744918D01*
X118285816Y-102744481D01*
X118285032Y-102744003D01*
X118284237Y-102743484D01*
X118283433Y-102742928D01*
X118282623Y-102742333D01*
X118281808Y-102741702D01*
X118280990Y-102741034D01*
X118280046Y-102740346D01*
X118279118Y-102739639D01*
X118278208Y-102738913D01*
X118277314Y-102738166D01*
X118276437Y-102737398D01*
X118275578Y-102736608D01*
X118274735Y-102735794D01*
X118273909Y-102734956D01*
X118273100Y-102734092D01*
X118272308Y-102733202D01*
X118271534Y-102732284D01*
X118270776Y-102731338D01*
X118270036Y-102730363D01*
X118269313Y-102729357D01*
X118268607Y-102728320D01*
X118267919Y-102727250D01*
X118266561Y-102725278D01*
X118265212Y-102723178D01*
X118263879Y-102720960D01*
X118262571Y-102718631D01*
X118261297Y-102716200D01*
X118260065Y-102713677D01*
X118258883Y-102711069D01*
X118257759Y-102708385D01*
X118256736Y-102705698D01*
X118256275Y-102704378D01*
X118255849Y-102703071D01*
X118255457Y-102701776D01*
X118255098Y-102700493D01*
X118254774Y-102699220D01*
X118254485Y-102697957D01*
X118254229Y-102696702D01*
X118254007Y-102695455D01*
X118253819Y-102694214D01*
X118253666Y-102692978D01*
X118253547Y-102691746D01*
X118253461Y-102690517D01*
X118253410Y-102689290D01*
X118253393Y-102688065D01*
X118253393Y-102471689D01*
X118374651Y-102471689D01*
X118374678Y-102471689D01*
X118374678Y-102688065D01*
G37*
G36*
X125592591Y-104852489D02*
G01*
X125737794Y-104852489D01*
X125737794Y-104489454D01*
X125882998Y-104489454D01*
X125882998Y-104925091D01*
X125447387Y-104925091D01*
X125447387Y-104489454D01*
X125592591Y-104489454D01*
X125592591Y-104852489D01*
G37*
G36*
X120482454Y-104800234D02*
G01*
X120565956Y-104800234D01*
X120565956Y-104388542D01*
X120685759Y-104388542D01*
X120685759Y-104880826D01*
X120685742Y-104881917D01*
X120685688Y-104883010D01*
X120685596Y-104884107D01*
X120685464Y-104885209D01*
X120685288Y-104886320D01*
X120685068Y-104887441D01*
X120684802Y-104888574D01*
X120684486Y-104889722D01*
X120684119Y-104890887D01*
X120683699Y-104892070D01*
X120683223Y-104893275D01*
X120682690Y-104894503D01*
X120682097Y-104895756D01*
X120681442Y-104897037D01*
X120680724Y-104898348D01*
X120679939Y-104899690D01*
X120679242Y-104900915D01*
X120678513Y-104902139D01*
X120677751Y-104903361D01*
X120676958Y-104904580D01*
X120676136Y-104905794D01*
X120675285Y-104907003D01*
X120673499Y-104909400D01*
X120671611Y-104911763D01*
X120669629Y-104914082D01*
X120667560Y-104916349D01*
X120665413Y-104918555D01*
X120663198Y-104920694D01*
X120660925Y-104922759D01*
X120658601Y-104924741D01*
X120657423Y-104925698D01*
X120656236Y-104926631D01*
X120655040Y-104927539D01*
X120653837Y-104928419D01*
X120652627Y-104929272D01*
X120651412Y-104930097D01*
X120650194Y-104930891D01*
X120648971Y-104931653D01*
X120647747Y-104932384D01*
X120646522Y-104933081D01*
X120645297Y-104933743D01*
X120644073Y-104934372D01*
X120642851Y-104934964D01*
X120641632Y-104935519D01*
X120640417Y-104936037D01*
X120639208Y-104936515D01*
X120638004Y-104936954D01*
X120636809Y-104937350D01*
X120635621Y-104937705D01*
X120634443Y-104938015D01*
X120633275Y-104938282D01*
X120632119Y-104938502D01*
X120630976Y-104938675D01*
X120629846Y-104938800D01*
X120628730Y-104938876D01*
X120627631Y-104938901D01*
X120628345Y-104939616D01*
X120414959Y-104939616D01*
X120413875Y-104939591D01*
X120412806Y-104939516D01*
X120411748Y-104939392D01*
X120410698Y-104939220D01*
X120409652Y-104939002D01*
X120408607Y-104938737D01*
X120407560Y-104938428D01*
X120406508Y-104938075D01*
X120405448Y-104937679D01*
X120404376Y-104937242D01*
X120403290Y-104936763D01*
X120402185Y-104936245D01*
X120401059Y-104935688D01*
X120399909Y-104935094D01*
X120397522Y-104933795D01*
X120396305Y-104933094D01*
X120395105Y-104932361D01*
X120393922Y-104931598D01*
X120392755Y-104930804D01*
X120391606Y-104929981D01*
X120390473Y-104929129D01*
X120389357Y-104928251D01*
X120388259Y-104927346D01*
X120387177Y-104926416D01*
X120386112Y-104925461D01*
X120385065Y-104924482D01*
X120384035Y-104923481D01*
X120383022Y-104922459D01*
X120382026Y-104921415D01*
X120381047Y-104920352D01*
X120380086Y-104919270D01*
X120379020Y-104918170D01*
X120378002Y-104917055D01*
X120377029Y-104915925D01*
X120376098Y-104914781D01*
X120375206Y-104913626D01*
X120374349Y-104912459D01*
X120373524Y-104911281D01*
X120372728Y-104910095D01*
X120371210Y-104907699D01*
X120369769Y-104905280D01*
X120368380Y-104902845D01*
X120367016Y-104900405D01*
X120366361Y-104899184D01*
X120365757Y-104897963D01*
X120365201Y-104896744D01*
X120364693Y-104895526D01*
X120364231Y-104894312D01*
X120363815Y-104893103D01*
X120363444Y-104891900D01*
X120363116Y-104890705D01*
X120362831Y-104889517D01*
X120362587Y-104888339D01*
X120362384Y-104887172D01*
X120362220Y-104886017D01*
X120362094Y-104884875D01*
X120362005Y-104883747D01*
X120361953Y-104882635D01*
X120361936Y-104881540D01*
X120361936Y-104388542D01*
X120482454Y-104388542D01*
X120482454Y-104800234D01*
G37*
D11*
X125823683Y-101943949D02*
X125913432Y-101950773D01*
X126001876Y-101962012D01*
X126088904Y-101977553D01*
X126174405Y-101997287D01*
X126258268Y-102021101D01*
X126340382Y-102048886D01*
X126420636Y-102080529D01*
X126498919Y-102115920D01*
X126575120Y-102154947D01*
X126649127Y-102197501D01*
X126720831Y-102243469D01*
X126790118Y-102292740D01*
X126856880Y-102345205D01*
X126921004Y-102400750D01*
X126982380Y-102459267D01*
X127040896Y-102520642D01*
X127096442Y-102584767D01*
X127148906Y-102651528D01*
X127198178Y-102720816D01*
X127244146Y-102792519D01*
X127286699Y-102866527D01*
X127325727Y-102942727D01*
X127361118Y-103021010D01*
X127392761Y-103101264D01*
X127420545Y-103183378D01*
X127444360Y-103267241D01*
X127464093Y-103352743D01*
X127479635Y-103439771D01*
X127490874Y-103528215D01*
X127497698Y-103617964D01*
X127499998Y-103708907D01*
X127499998Y-103708933D01*
X127497698Y-103799876D01*
X127490874Y-103889625D01*
X127479635Y-103978069D01*
X127464093Y-104065097D01*
X127444360Y-104150598D01*
X127420545Y-104234462D01*
X127392761Y-104316576D01*
X127361118Y-104396830D01*
X127325727Y-104475113D01*
X127286699Y-104551313D01*
X127244146Y-104625321D01*
X127198178Y-104697024D01*
X127148906Y-104766312D01*
X127096442Y-104833073D01*
X127040896Y-104897197D01*
X126982380Y-104958573D01*
X126921004Y-105017090D01*
X126856880Y-105072635D01*
X126790118Y-105125100D01*
X126720831Y-105174371D01*
X126649127Y-105220339D01*
X126575120Y-105262893D01*
X126498919Y-105301920D01*
X126420636Y-105337311D01*
X126340382Y-105368954D01*
X126258268Y-105396739D01*
X126174405Y-105420553D01*
X126088904Y-105440287D01*
X126001876Y-105455828D01*
X125913432Y-105467067D01*
X125823683Y-105473892D01*
X125732740Y-105476191D01*
X114267260Y-105476192D01*
X114176317Y-105473893D01*
X114086568Y-105467068D01*
X113998124Y-105455829D01*
X113911096Y-105440288D01*
X113825595Y-105420554D01*
X113741732Y-105396740D01*
X113659618Y-105368956D01*
X113579364Y-105337312D01*
X113501081Y-105301921D01*
X113424880Y-105262894D01*
X113350873Y-105220340D01*
X113279169Y-105174372D01*
X113209881Y-105125101D01*
X113143120Y-105072637D01*
X113078996Y-105017091D01*
X113017620Y-104958574D01*
X112959104Y-104897199D01*
X112903558Y-104833075D01*
X112851094Y-104766313D01*
X112801822Y-104697025D01*
X112755854Y-104625322D01*
X112713300Y-104551315D01*
X112674273Y-104475114D01*
X112638882Y-104396831D01*
X112607239Y-104316577D01*
X112579454Y-104234463D01*
X112555640Y-104150600D01*
X112535906Y-104065099D01*
X112520365Y-103978070D01*
X112509126Y-103889626D01*
X112502301Y-103799877D01*
X112500002Y-103708935D01*
X112500002Y-103708908D01*
X112502301Y-103617965D01*
X112509126Y-103528216D01*
X112520365Y-103439772D01*
X112535906Y-103352744D01*
X112555640Y-103267243D01*
X112579454Y-103183380D01*
X112607239Y-103101265D01*
X112638882Y-103021011D01*
X112674273Y-102942729D01*
X112713300Y-102866528D01*
X112755854Y-102792520D01*
X112801822Y-102720817D01*
X112851094Y-102651529D01*
X112903558Y-102584768D01*
X112959104Y-102520644D01*
X113017620Y-102459268D01*
X113078996Y-102400752D01*
X113143120Y-102345206D01*
X113209881Y-102292742D01*
X113279169Y-102243470D01*
X113350873Y-102197502D01*
X113424880Y-102154949D01*
X113501081Y-102115921D01*
X113579364Y-102080530D01*
X113659618Y-102048887D01*
X113741732Y-102021103D01*
X113825595Y-101997288D01*
X113911096Y-101977555D01*
X113998124Y-101962013D01*
X114086568Y-101950774D01*
X114176317Y-101943950D01*
X114267260Y-101941650D01*
X125732740Y-101941649D01*
X125823683Y-101943949D01*
D10*
G36*
X118928352Y-104388533D02*
G01*
X118929445Y-104388587D01*
X118930542Y-104388679D01*
X118931645Y-104388811D01*
X118932756Y-104388986D01*
X118933877Y-104389206D01*
X118935011Y-104389473D01*
X118936160Y-104389789D01*
X118937326Y-104390156D01*
X118938511Y-104390576D01*
X118939718Y-104391052D01*
X118940949Y-104391585D01*
X118942205Y-104392178D01*
X118943489Y-104392833D01*
X118944804Y-104393552D01*
X118946151Y-104394336D01*
X118947377Y-104395033D01*
X118948601Y-104395763D01*
X118949823Y-104396524D01*
X118951042Y-104397317D01*
X118952256Y-104398139D01*
X118953466Y-104398991D01*
X118955865Y-104400776D01*
X118958231Y-104402664D01*
X118960554Y-104404646D01*
X118962828Y-104406715D01*
X118965043Y-104408862D01*
X118967189Y-104411047D01*
X118969258Y-104413246D01*
X118970261Y-104414357D01*
X118971241Y-104415478D01*
X118972197Y-104416611D01*
X118973129Y-104417759D01*
X118974035Y-104418923D01*
X118974914Y-104420107D01*
X118975765Y-104421311D01*
X118976588Y-104422539D01*
X118977380Y-104423793D01*
X118978142Y-104425073D01*
X118978872Y-104426384D01*
X118979568Y-104427727D01*
X118980231Y-104428952D01*
X118980859Y-104430176D01*
X118981451Y-104431398D01*
X118982007Y-104432617D01*
X118982524Y-104433831D01*
X118983003Y-104435040D01*
X118983441Y-104436242D01*
X118983838Y-104437437D01*
X118984192Y-104438623D01*
X118984503Y-104439799D01*
X118984769Y-104440965D01*
X118984989Y-104442118D01*
X118985162Y-104443259D01*
X118985287Y-104444385D01*
X118985363Y-104445496D01*
X118985389Y-104446591D01*
X118985389Y-104656433D01*
X118985364Y-104657931D01*
X118985290Y-104659429D01*
X118985169Y-104660927D01*
X118985004Y-104662425D01*
X118984797Y-104663924D01*
X118984549Y-104665422D01*
X118984263Y-104666920D01*
X118983940Y-104668418D01*
X118983195Y-104671415D01*
X118982330Y-104674411D01*
X118981363Y-104677407D01*
X118980309Y-104680404D01*
X118979747Y-104681893D01*
X118979152Y-104683364D01*
X118978526Y-104684816D01*
X118977869Y-104686247D01*
X118977182Y-104687657D01*
X118976467Y-104689044D01*
X118975724Y-104690408D01*
X118974955Y-104691748D01*
X118974159Y-104693062D01*
X118973339Y-104694350D01*
X118972495Y-104695610D01*
X118971629Y-104696842D01*
X118970740Y-104698044D01*
X118969831Y-104699216D01*
X118968902Y-104700357D01*
X118967953Y-104701465D01*
X118966992Y-104702673D01*
X118966012Y-104703847D01*
X118965013Y-104704987D01*
X118963993Y-104706093D01*
X118962952Y-104707165D01*
X118961889Y-104708203D01*
X118960802Y-104709207D01*
X118959691Y-104710176D01*
X118958555Y-104711112D01*
X118957392Y-104712013D01*
X118956201Y-104712880D01*
X118954983Y-104713713D01*
X118953734Y-104714512D01*
X118952456Y-104715277D01*
X118951146Y-104716008D01*
X118949803Y-104716705D01*
X118948443Y-104717368D01*
X118947083Y-104717996D01*
X118945723Y-104718588D01*
X118944362Y-104719144D01*
X118943000Y-104719661D01*
X118941639Y-104720140D01*
X118940277Y-104720578D01*
X118938915Y-104720975D01*
X118937554Y-104721329D01*
X118936192Y-104721640D01*
X118934830Y-104721906D01*
X118933469Y-104722126D01*
X118932108Y-104722299D01*
X118930747Y-104722424D01*
X118929387Y-104722500D01*
X118928028Y-104722526D01*
X118782084Y-104722526D01*
X118782084Y-104798752D01*
X118864131Y-104798752D01*
X118864131Y-104744301D01*
X118984648Y-104786422D01*
X118984648Y-104880085D01*
X118984631Y-104881185D01*
X118984579Y-104882300D01*
X118984490Y-104883430D01*
X118984364Y-104884573D01*
X118984200Y-104885729D01*
X118983997Y-104886896D01*
X118983753Y-104888073D01*
X118983468Y-104889260D01*
X118983140Y-104890454D01*
X118982769Y-104891655D01*
X118982353Y-104892863D01*
X118981891Y-104894075D01*
X118981383Y-104895291D01*
X118980827Y-104896509D01*
X118980223Y-104897729D01*
X118979569Y-104898950D01*
X118978175Y-104901391D01*
X118976712Y-104903828D01*
X118975180Y-104906251D01*
X118973579Y-104908650D01*
X118971911Y-104911015D01*
X118970174Y-104913338D01*
X118968370Y-104915607D01*
X118966498Y-104917814D01*
X118965537Y-104918892D01*
X118964560Y-104919953D01*
X118963567Y-104920996D01*
X118962561Y-104922019D01*
X118961542Y-104923021D01*
X118960511Y-104924001D01*
X118959469Y-104924958D01*
X118958418Y-104925891D01*
X118957359Y-104926798D01*
X118956292Y-104927679D01*
X118955219Y-104928532D01*
X118954141Y-104929356D01*
X118953060Y-104930150D01*
X118951975Y-104930913D01*
X118950889Y-104931643D01*
X118949803Y-104932340D01*
X118948716Y-104933003D01*
X118947629Y-104933631D01*
X118946541Y-104934223D01*
X118945453Y-104934779D01*
X118944364Y-104935296D01*
X118943274Y-104935775D01*
X118942185Y-104936213D01*
X118941095Y-104936610D01*
X118940004Y-104936964D01*
X118938914Y-104937275D01*
X118937823Y-104937541D01*
X118936732Y-104937761D01*
X118935641Y-104937934D01*
X118934549Y-104938059D01*
X118933458Y-104938135D01*
X118932366Y-104938161D01*
X118718900Y-104938161D01*
X118717809Y-104938143D01*
X118716716Y-104938090D01*
X118715619Y-104937998D01*
X118714516Y-104937865D01*
X118713405Y-104937690D01*
X118712284Y-104937470D01*
X118711150Y-104937203D01*
X118710001Y-104936888D01*
X118708835Y-104936521D01*
X118707649Y-104936100D01*
X118706443Y-104935625D01*
X118705212Y-104935091D01*
X118703956Y-104934498D01*
X118702671Y-104933844D01*
X118701357Y-104933125D01*
X118700009Y-104932340D01*
X118698784Y-104931644D01*
X118697560Y-104930914D01*
X118696338Y-104930152D01*
X118695119Y-104929360D01*
X118693904Y-104928537D01*
X118692695Y-104927686D01*
X118690296Y-104925901D01*
X118687930Y-104924013D01*
X118685606Y-104922030D01*
X118683333Y-104919961D01*
X118681118Y-104917814D01*
X118678971Y-104915599D01*
X118676903Y-104913326D01*
X118674920Y-104911004D01*
X118673963Y-104909826D01*
X118673032Y-104908640D01*
X118672126Y-104907445D01*
X118671247Y-104906244D01*
X118670395Y-104905037D01*
X118669573Y-104903824D01*
X118668780Y-104902609D01*
X118668019Y-104901390D01*
X118667289Y-104900170D01*
X118666593Y-104898950D01*
X118665930Y-104897729D01*
X118665302Y-104896508D01*
X118664710Y-104895288D01*
X118664154Y-104894071D01*
X118663637Y-104892857D01*
X118663158Y-104891648D01*
X118662720Y-104890445D01*
X118662323Y-104889250D01*
X118661969Y-104888062D01*
X118661658Y-104886884D01*
X118661392Y-104885717D01*
X118661172Y-104884562D01*
X118660998Y-104883420D01*
X118660873Y-104882292D01*
X118660797Y-104881180D01*
X118660772Y-104880085D01*
X118660772Y-104672440D01*
X118660797Y-104670942D01*
X118660871Y-104669444D01*
X118660991Y-104667945D01*
X118661156Y-104666447D01*
X118661364Y-104664949D01*
X118661612Y-104663451D01*
X118661898Y-104661953D01*
X118662220Y-104660454D01*
X118662966Y-104657458D01*
X118663830Y-104654462D01*
X118664798Y-104651465D01*
X118665852Y-104648469D01*
X118666414Y-104646979D01*
X118667009Y-104645507D01*
X118667635Y-104644052D01*
X118668292Y-104642615D01*
X118668979Y-104641194D01*
X118669694Y-104639791D01*
X118670437Y-104638405D01*
X118671206Y-104637036D01*
X118672822Y-104634348D01*
X118674532Y-104631729D01*
X118676330Y-104629178D01*
X118678208Y-104626694D01*
X118679169Y-104625611D01*
X118680149Y-104624546D01*
X118681148Y-104623498D01*
X118682167Y-104622467D01*
X118683208Y-104621454D01*
X118684272Y-104620458D01*
X118685358Y-104619479D01*
X118686469Y-104618518D01*
X118687606Y-104617574D01*
X118688769Y-104616648D01*
X118689959Y-104615739D01*
X118691178Y-104614847D01*
X118692427Y-104613973D01*
X118693705Y-104613116D01*
X118695016Y-104612276D01*
X118696358Y-104611454D01*
X118697718Y-104610791D01*
X118699078Y-104610163D01*
X118700438Y-104609570D01*
X118701799Y-104609015D01*
X118703161Y-104608497D01*
X118704522Y-104608019D01*
X118705884Y-104607581D01*
X118707246Y-104607184D01*
X118708607Y-104606830D01*
X118709969Y-104606519D01*
X118711331Y-104606253D01*
X118712692Y-104606033D01*
X118714053Y-104605859D01*
X118715414Y-104605734D01*
X118716774Y-104605658D01*
X118718133Y-104605633D01*
X118864077Y-104605633D01*
X118863363Y-104604918D01*
X118863337Y-104604892D01*
X118863337Y-104527210D01*
X118781289Y-104527210D01*
X118781289Y-104581661D01*
X118660771Y-104539540D01*
X118660771Y-104445877D01*
X118660789Y-104444908D01*
X118660841Y-104443907D01*
X118660930Y-104442876D01*
X118661055Y-104441817D01*
X118661220Y-104440733D01*
X118661423Y-104439625D01*
X118661667Y-104438496D01*
X118661952Y-104437348D01*
X118662280Y-104436182D01*
X118662651Y-104435002D01*
X118663067Y-104433809D01*
X118663528Y-104432605D01*
X118664036Y-104431393D01*
X118664592Y-104430175D01*
X118665197Y-104428952D01*
X118665851Y-104427727D01*
X118667245Y-104425277D01*
X118668708Y-104422837D01*
X118670240Y-104420414D01*
X118671841Y-104418016D01*
X118673509Y-104415654D01*
X118675246Y-104413335D01*
X118677050Y-104411068D01*
X118678922Y-104408862D01*
X118681103Y-104406715D01*
X118683283Y-104404646D01*
X118685462Y-104402664D01*
X118687640Y-104400776D01*
X118689818Y-104398991D01*
X118691997Y-104397317D01*
X118693086Y-104396524D01*
X118694176Y-104395763D01*
X118695267Y-104395033D01*
X118696358Y-104394336D01*
X118698775Y-104393046D01*
X118699959Y-104392453D01*
X118701125Y-104391898D01*
X118702275Y-104391380D01*
X118703407Y-104390902D01*
X118704523Y-104390464D01*
X118705622Y-104390067D01*
X118706703Y-104389712D01*
X118707768Y-104389402D01*
X118708815Y-104389135D01*
X118709846Y-104388915D01*
X118710859Y-104388742D01*
X118711855Y-104388617D01*
X118712833Y-104388541D01*
X118713794Y-104388515D01*
X118927260Y-104388515D01*
X118928352Y-104388533D01*
G37*
G36*
X122969246Y-102883380D02*
G01*
X123052750Y-102883380D01*
X123052750Y-102471689D01*
X123172554Y-102471689D01*
X123172554Y-102963972D01*
X123172536Y-102965064D01*
X123172483Y-102966157D01*
X123172390Y-102967254D01*
X123172258Y-102968356D01*
X123172083Y-102969467D01*
X123171863Y-102970588D01*
X123171596Y-102971721D01*
X123171280Y-102972869D01*
X123170913Y-102974034D01*
X123170493Y-102975217D01*
X123170017Y-102976422D01*
X123169484Y-102977650D01*
X123168891Y-102978903D01*
X123168236Y-102980184D01*
X123167517Y-102981495D01*
X123166732Y-102982837D01*
X123166036Y-102984062D01*
X123165306Y-102985287D01*
X123164545Y-102986508D01*
X123163752Y-102987727D01*
X123162930Y-102988941D01*
X123162079Y-102990150D01*
X123160293Y-102992547D01*
X123158405Y-102994910D01*
X123156422Y-102997229D01*
X123154353Y-102999496D01*
X123152207Y-103001702D01*
X123149992Y-103003841D01*
X123147719Y-103005906D01*
X123145396Y-103007889D01*
X123143032Y-103009778D01*
X123141838Y-103010686D01*
X123140636Y-103011567D01*
X123139429Y-103012420D01*
X123138217Y-103013244D01*
X123137001Y-103014038D01*
X123135782Y-103014801D01*
X123134562Y-103015531D01*
X123133341Y-103016228D01*
X123132121Y-103016890D01*
X123130900Y-103017519D01*
X123129680Y-103018111D01*
X123128463Y-103018666D01*
X123127249Y-103019184D01*
X123126040Y-103019662D01*
X123124837Y-103020101D01*
X123123641Y-103020497D01*
X123122454Y-103020852D01*
X123121276Y-103021162D01*
X123120109Y-103021429D01*
X123118954Y-103021649D01*
X123117812Y-103021822D01*
X123116684Y-103021947D01*
X123115572Y-103022023D01*
X123114477Y-103022048D01*
X123115191Y-103022763D01*
X122901750Y-103022763D01*
X122900667Y-103022738D01*
X122899598Y-103022663D01*
X122898540Y-103022539D01*
X122897489Y-103022367D01*
X122896443Y-103022148D01*
X122895399Y-103021884D01*
X122894352Y-103021575D01*
X122893300Y-103021222D01*
X122892240Y-103020826D01*
X122891169Y-103020388D01*
X122890082Y-103019910D01*
X122888978Y-103019392D01*
X122887852Y-103018835D01*
X122886702Y-103018240D01*
X122884315Y-103016942D01*
X122883098Y-103016241D01*
X122881898Y-103015508D01*
X122880714Y-103014745D01*
X122879548Y-103013951D01*
X122878398Y-103013128D01*
X122877266Y-103012276D01*
X122876150Y-103011398D01*
X122875051Y-103010493D01*
X122873970Y-103009563D01*
X122872905Y-103008608D01*
X122871858Y-103007629D01*
X122870828Y-103006628D01*
X122869815Y-103005606D01*
X122868819Y-103004562D01*
X122867840Y-103003499D01*
X122866879Y-103002416D01*
X122865813Y-103001317D01*
X122864795Y-103000202D01*
X122863822Y-102999072D01*
X122862891Y-102997928D01*
X122861999Y-102996773D01*
X122861141Y-102995606D01*
X122860316Y-102994428D01*
X122859520Y-102993242D01*
X122858002Y-102990846D01*
X122856562Y-102988427D01*
X122855172Y-102985992D01*
X122853809Y-102983552D01*
X122853154Y-102982331D01*
X122852550Y-102981110D01*
X122851994Y-102979890D01*
X122851486Y-102978673D01*
X122851024Y-102977459D01*
X122850609Y-102976250D01*
X122850237Y-102975047D01*
X122849909Y-102973851D01*
X122849624Y-102972664D01*
X122849380Y-102971486D01*
X122849177Y-102970319D01*
X122849013Y-102969164D01*
X122848887Y-102968022D01*
X122848798Y-102966894D01*
X122848746Y-102965782D01*
X122848729Y-102964687D01*
X122848729Y-102471689D01*
X122969246Y-102471689D01*
X122969246Y-102883380D01*
G37*
G36*
X116718154Y-104390015D02*
G01*
X116719247Y-104390069D01*
X116720344Y-104390161D01*
X116721447Y-104390293D01*
X116722557Y-104390468D01*
X116723678Y-104390688D01*
X116724812Y-104390955D01*
X116725960Y-104391271D01*
X116727124Y-104391638D01*
X116728308Y-104392058D01*
X116729513Y-104392534D01*
X116730740Y-104393067D01*
X116731994Y-104393660D01*
X116733275Y-104394315D01*
X116734585Y-104395033D01*
X116735928Y-104395818D01*
X116737153Y-104396515D01*
X116738377Y-104397244D01*
X116739599Y-104398006D01*
X116740818Y-104398798D01*
X116742032Y-104399621D01*
X116743241Y-104400472D01*
X116745638Y-104402258D01*
X116748001Y-104404146D01*
X116750320Y-104406128D01*
X116752587Y-104408197D01*
X116754793Y-104410344D01*
X116756939Y-104412528D01*
X116759008Y-104414728D01*
X116760011Y-104415838D01*
X116760991Y-104416959D01*
X116761947Y-104418093D01*
X116762879Y-104419241D01*
X116763785Y-104420405D01*
X116764664Y-104421589D01*
X116765516Y-104422793D01*
X116766338Y-104424021D01*
X116767131Y-104425275D01*
X116767892Y-104426555D01*
X116768622Y-104427866D01*
X116769318Y-104429209D01*
X116769981Y-104430434D01*
X116770609Y-104431658D01*
X116771201Y-104432880D01*
X116771757Y-104434098D01*
X116772274Y-104435313D01*
X116772753Y-104436522D01*
X116773191Y-104437724D01*
X116773588Y-104438919D01*
X116773942Y-104440105D01*
X116774253Y-104441281D01*
X116774519Y-104442447D01*
X116774739Y-104443600D01*
X116774912Y-104444741D01*
X116775037Y-104445867D01*
X116775113Y-104446978D01*
X116775139Y-104448073D01*
X116775139Y-104880826D01*
X116775121Y-104881917D01*
X116775068Y-104883010D01*
X116774976Y-104884107D01*
X116774843Y-104885210D01*
X116774668Y-104886320D01*
X116774448Y-104887441D01*
X116774181Y-104888575D01*
X116773866Y-104889722D01*
X116773499Y-104890887D01*
X116773078Y-104892071D01*
X116772603Y-104893275D01*
X116772069Y-104894503D01*
X116771476Y-104895756D01*
X116770822Y-104897037D01*
X116770103Y-104898348D01*
X116769318Y-104899691D01*
X116768622Y-104900916D01*
X116767892Y-104902140D01*
X116767130Y-104903362D01*
X116766338Y-104904580D01*
X116765515Y-104905795D01*
X116764664Y-104907004D01*
X116762879Y-104909401D01*
X116760991Y-104911763D01*
X116759008Y-104914082D01*
X116756939Y-104916349D01*
X116754793Y-104918555D01*
X116752578Y-104920694D01*
X116750305Y-104922759D01*
X116747982Y-104924742D01*
X116745618Y-104926631D01*
X116744424Y-104927539D01*
X116743223Y-104928420D01*
X116742015Y-104929273D01*
X116740803Y-104930097D01*
X116739587Y-104930891D01*
X116738369Y-104931654D01*
X116737149Y-104932384D01*
X116735928Y-104933081D01*
X116734707Y-104933744D01*
X116733486Y-104934372D01*
X116732267Y-104934964D01*
X116731049Y-104935520D01*
X116729835Y-104936037D01*
X116728626Y-104936516D01*
X116727423Y-104936954D01*
X116726228Y-104937351D01*
X116725040Y-104937705D01*
X116723862Y-104938016D01*
X116722695Y-104938282D01*
X116721540Y-104938502D01*
X116720398Y-104938675D01*
X116719270Y-104938800D01*
X116718158Y-104938876D01*
X116717063Y-104938902D01*
X116717063Y-104939616D01*
X116503597Y-104939616D01*
X116502514Y-104939591D01*
X116501445Y-104939516D01*
X116500387Y-104939392D01*
X116499336Y-104939220D01*
X116498290Y-104939002D01*
X116497245Y-104938737D01*
X116496199Y-104938428D01*
X116495147Y-104938075D01*
X116494087Y-104937679D01*
X116493015Y-104937242D01*
X116491929Y-104936763D01*
X116490824Y-104936245D01*
X116489698Y-104935688D01*
X116488548Y-104935094D01*
X116486161Y-104933795D01*
X116484944Y-104933094D01*
X116483744Y-104932361D01*
X116482561Y-104931598D01*
X116481394Y-104930804D01*
X116480245Y-104929981D01*
X116479112Y-104929129D01*
X116477996Y-104928251D01*
X116476898Y-104927346D01*
X116475816Y-104926416D01*
X116474751Y-104925461D01*
X116473704Y-104924482D01*
X116472674Y-104923481D01*
X116471661Y-104922459D01*
X116470665Y-104921415D01*
X116469686Y-104920352D01*
X116468725Y-104919270D01*
X116467659Y-104918170D01*
X116466641Y-104917055D01*
X116465668Y-104915925D01*
X116464737Y-104914781D01*
X116463844Y-104913626D01*
X116462987Y-104912459D01*
X116462162Y-104911281D01*
X116461366Y-104910095D01*
X116459848Y-104907699D01*
X116458408Y-104905280D01*
X116457018Y-104902845D01*
X116455655Y-104900405D01*
X116455000Y-104899184D01*
X116454396Y-104897963D01*
X116453840Y-104896744D01*
X116453332Y-104895526D01*
X116452870Y-104894312D01*
X116452454Y-104893103D01*
X116452083Y-104891900D01*
X116451755Y-104890705D01*
X116451470Y-104889517D01*
X116451226Y-104888339D01*
X116451023Y-104887172D01*
X116450859Y-104886017D01*
X116450733Y-104884875D01*
X116450644Y-104883747D01*
X116450592Y-104882635D01*
X116450575Y-104881540D01*
X116450575Y-104799467D01*
X116450575Y-104527925D01*
X116572547Y-104527925D01*
X116572547Y-104799467D01*
X116655309Y-104799467D01*
X116655309Y-104527925D01*
X116572547Y-104527925D01*
X116450575Y-104527925D01*
X116450575Y-104447359D01*
X116450592Y-104446390D01*
X116450644Y-104445389D01*
X116450733Y-104444358D01*
X116450859Y-104443299D01*
X116451023Y-104442215D01*
X116451226Y-104441107D01*
X116451470Y-104439978D01*
X116451755Y-104438829D01*
X116452083Y-104437664D01*
X116452454Y-104436484D01*
X116452870Y-104435291D01*
X116453332Y-104434087D01*
X116453840Y-104432875D01*
X116454396Y-104431657D01*
X116455000Y-104430434D01*
X116455655Y-104429209D01*
X116457049Y-104426759D01*
X116458512Y-104424319D01*
X116460044Y-104421896D01*
X116461644Y-104419498D01*
X116463313Y-104417136D01*
X116465050Y-104414817D01*
X116466854Y-104412550D01*
X116468725Y-104410344D01*
X116470907Y-104408197D01*
X116473087Y-104406128D01*
X116475265Y-104404146D01*
X116477443Y-104402258D01*
X116479621Y-104400472D01*
X116481800Y-104398799D01*
X116482890Y-104398006D01*
X116483980Y-104397244D01*
X116485070Y-104396515D01*
X116486161Y-104395818D01*
X116488578Y-104394527D01*
X116489762Y-104393935D01*
X116490928Y-104393380D01*
X116492078Y-104392862D01*
X116493210Y-104392384D01*
X116494326Y-104391945D01*
X116495425Y-104391549D01*
X116496506Y-104391194D01*
X116497571Y-104390883D01*
X116498618Y-104390617D01*
X116499649Y-104390397D01*
X116500662Y-104390224D01*
X116501658Y-104390099D01*
X116502636Y-104390023D01*
X116503597Y-104389997D01*
X116717063Y-104389997D01*
X116718154Y-104390015D01*
G37*
G36*
X117672579Y-103695836D02*
G01*
X117711050Y-103430089D01*
X117833023Y-103430089D01*
X117736450Y-103981189D01*
X117608682Y-103981189D01*
X117508484Y-103430089D01*
X117630457Y-103430089D01*
X117672579Y-103695836D01*
G37*
G36*
X115050354Y-104390015D02*
G01*
X115051447Y-104390069D01*
X115052543Y-104390161D01*
X115053646Y-104390293D01*
X115054757Y-104390468D01*
X115055878Y-104390688D01*
X115057011Y-104390955D01*
X115058159Y-104391271D01*
X115059323Y-104391638D01*
X115060507Y-104392058D01*
X115061712Y-104392534D01*
X115062939Y-104393067D01*
X115064193Y-104393660D01*
X115065474Y-104394315D01*
X115066784Y-104395033D01*
X115068127Y-104395818D01*
X115069352Y-104396515D01*
X115070576Y-104397244D01*
X115071798Y-104398006D01*
X115073017Y-104398798D01*
X115074231Y-104399621D01*
X115075440Y-104400472D01*
X115077837Y-104402258D01*
X115080200Y-104404146D01*
X115082519Y-104406128D01*
X115084786Y-104408197D01*
X115086992Y-104410344D01*
X115089138Y-104412528D01*
X115091207Y-104414728D01*
X115092210Y-104415838D01*
X115093190Y-104416959D01*
X115094146Y-104418093D01*
X115095078Y-104419241D01*
X115095984Y-104420405D01*
X115096863Y-104421589D01*
X115097714Y-104422793D01*
X115098537Y-104424021D01*
X115099329Y-104425275D01*
X115100091Y-104426555D01*
X115100821Y-104427866D01*
X115101517Y-104429209D01*
X115102180Y-104430434D01*
X115102808Y-104431658D01*
X115103400Y-104432880D01*
X115103956Y-104434098D01*
X115104473Y-104435313D01*
X115104952Y-104436522D01*
X115105390Y-104437724D01*
X115105787Y-104438919D01*
X115106141Y-104440105D01*
X115106452Y-104441281D01*
X115106718Y-104442447D01*
X115106938Y-104443600D01*
X115107112Y-104444741D01*
X115107237Y-104445867D01*
X115107313Y-104446978D01*
X115107338Y-104448073D01*
X115107338Y-104880826D01*
X115107321Y-104881917D01*
X115107267Y-104883010D01*
X115107175Y-104884107D01*
X115107043Y-104885210D01*
X115106867Y-104886320D01*
X115106648Y-104887441D01*
X115106381Y-104888575D01*
X115106065Y-104889722D01*
X115105698Y-104890887D01*
X115105278Y-104892071D01*
X115104802Y-104893275D01*
X115104269Y-104894503D01*
X115103676Y-104895756D01*
X115103021Y-104897037D01*
X115102302Y-104898348D01*
X115101517Y-104899691D01*
X115100821Y-104900916D01*
X115100091Y-104902140D01*
X115099330Y-104903362D01*
X115098537Y-104904580D01*
X115097715Y-104905795D01*
X115096863Y-104907004D01*
X115095078Y-104909401D01*
X115093190Y-104911763D01*
X115091207Y-104914082D01*
X115089138Y-104916349D01*
X115086992Y-104918555D01*
X115085900Y-104919625D01*
X115084807Y-104920664D01*
X115083710Y-104921673D01*
X115082608Y-104922655D01*
X115081497Y-104923612D01*
X115080376Y-104924546D01*
X115079243Y-104925459D01*
X115078095Y-104926354D01*
X115075747Y-104928094D01*
X115073314Y-104929784D01*
X115070780Y-104931441D01*
X115068127Y-104933081D01*
X115068127Y-104933795D01*
X115066902Y-104934458D01*
X115065678Y-104935086D01*
X115064456Y-104935678D01*
X115063237Y-104936234D01*
X115062023Y-104936751D01*
X115060814Y-104937230D01*
X115059611Y-104937668D01*
X115058417Y-104938065D01*
X115057231Y-104938419D01*
X115056054Y-104938730D01*
X115054889Y-104938996D01*
X115053735Y-104939216D01*
X115052595Y-104939390D01*
X115051468Y-104939515D01*
X115050357Y-104939591D01*
X115049262Y-104939616D01*
X114835796Y-104939616D01*
X114834713Y-104939591D01*
X114833644Y-104939516D01*
X114832586Y-104939392D01*
X114831535Y-104939220D01*
X114830489Y-104939002D01*
X114829445Y-104938737D01*
X114828398Y-104938428D01*
X114827346Y-104938075D01*
X114826286Y-104937679D01*
X114825214Y-104937242D01*
X114824128Y-104936763D01*
X114823023Y-104936245D01*
X114821897Y-104935688D01*
X114820747Y-104935094D01*
X114818360Y-104933795D01*
X114817143Y-104933094D01*
X114815943Y-104932361D01*
X114814760Y-104931598D01*
X114813593Y-104930804D01*
X114812444Y-104929981D01*
X114811311Y-104929129D01*
X114810195Y-104928251D01*
X114809097Y-104927346D01*
X114808015Y-104926416D01*
X114806951Y-104925461D01*
X114805903Y-104924482D01*
X114804873Y-104923481D01*
X114803860Y-104922459D01*
X114802864Y-104921415D01*
X114801886Y-104920352D01*
X114800925Y-104919270D01*
X114799858Y-104918170D01*
X114798840Y-104917055D01*
X114797867Y-104915925D01*
X114796936Y-104914781D01*
X114796044Y-104913626D01*
X114795187Y-104912459D01*
X114794362Y-104911281D01*
X114793566Y-104910095D01*
X114792048Y-104907699D01*
X114790607Y-104905280D01*
X114789218Y-104902845D01*
X114787854Y-104900405D01*
X114787200Y-104899184D01*
X114786595Y-104897963D01*
X114786039Y-104896744D01*
X114785531Y-104895526D01*
X114785069Y-104894312D01*
X114784654Y-104893103D01*
X114784282Y-104891900D01*
X114783955Y-104890705D01*
X114783669Y-104889517D01*
X114783425Y-104888339D01*
X114783222Y-104887172D01*
X114783058Y-104886017D01*
X114782932Y-104884875D01*
X114782843Y-104883747D01*
X114782791Y-104882635D01*
X114782774Y-104881540D01*
X114782774Y-104799493D01*
X114782774Y-104644844D01*
X114904032Y-104644844D01*
X114904032Y-104799493D01*
X114947609Y-104799493D01*
X114904032Y-104644844D01*
X114782774Y-104644844D01*
X114782774Y-104527925D01*
X114943958Y-104527925D01*
X114987535Y-104682574D01*
X114987535Y-104527925D01*
X114943958Y-104527925D01*
X114782774Y-104527925D01*
X114782774Y-104447359D01*
X114782791Y-104446390D01*
X114782843Y-104445389D01*
X114782932Y-104444358D01*
X114783058Y-104443299D01*
X114783222Y-104442215D01*
X114783425Y-104441107D01*
X114783669Y-104439978D01*
X114783955Y-104438829D01*
X114784282Y-104437664D01*
X114784654Y-104436484D01*
X114785069Y-104435291D01*
X114785531Y-104434087D01*
X114786039Y-104432875D01*
X114786595Y-104431657D01*
X114787200Y-104430434D01*
X114787854Y-104429209D01*
X114789248Y-104426759D01*
X114790711Y-104424319D01*
X114792243Y-104421896D01*
X114793844Y-104419498D01*
X114795512Y-104417136D01*
X114797249Y-104414817D01*
X114799053Y-104412550D01*
X114800925Y-104410344D01*
X114803106Y-104408197D01*
X114805286Y-104406128D01*
X114807465Y-104404146D01*
X114809642Y-104402258D01*
X114811820Y-104400472D01*
X114813999Y-104398799D01*
X114815089Y-104398006D01*
X114816179Y-104397244D01*
X114817269Y-104396515D01*
X114818360Y-104395818D01*
X114820778Y-104394527D01*
X114821961Y-104393935D01*
X114823127Y-104393380D01*
X114824277Y-104392862D01*
X114825410Y-104392384D01*
X114826525Y-104391945D01*
X114827624Y-104391549D01*
X114828706Y-104391194D01*
X114829770Y-104390883D01*
X114830818Y-104390617D01*
X114831848Y-104390397D01*
X114832861Y-104390224D01*
X114833857Y-104390099D01*
X114834835Y-104390023D01*
X114835796Y-104389997D01*
X115049262Y-104389997D01*
X115050354Y-104390015D01*
G37*
G36*
X123348383Y-104491102D02*
G01*
X123358314Y-104491602D01*
X123367920Y-104492436D01*
X123377203Y-104493607D01*
X123386162Y-104495115D01*
X123394797Y-104496963D01*
X123403107Y-104499151D01*
X123411094Y-104501681D01*
X123418756Y-104504555D01*
X123426093Y-104507774D01*
X123433106Y-104511339D01*
X123439793Y-104515252D01*
X123446156Y-104519515D01*
X123452194Y-104524128D01*
X123457907Y-104529094D01*
X123463294Y-104534413D01*
X123468355Y-104540088D01*
X123473092Y-104546119D01*
X123477502Y-104552508D01*
X123481586Y-104559257D01*
X123485345Y-104566367D01*
X123488777Y-104573839D01*
X123491883Y-104581675D01*
X123494663Y-104589877D01*
X123497116Y-104598445D01*
X123499242Y-104607381D01*
X123501042Y-104616688D01*
X123502515Y-104626365D01*
X123503661Y-104636415D01*
X123504479Y-104646839D01*
X123504970Y-104657639D01*
X123505134Y-104668815D01*
X123504487Y-104690832D01*
X123502544Y-104711422D01*
X123501086Y-104721182D01*
X123499304Y-104730586D01*
X123497196Y-104739633D01*
X123494763Y-104748324D01*
X123492005Y-104756659D01*
X123488921Y-104764638D01*
X123485511Y-104772261D01*
X123481775Y-104779528D01*
X123477712Y-104786440D01*
X123473322Y-104792996D01*
X123468606Y-104799197D01*
X123463562Y-104805043D01*
X123458190Y-104810533D01*
X123452491Y-104815668D01*
X123446463Y-104820448D01*
X123440107Y-104824874D01*
X123433423Y-104828945D01*
X123426409Y-104832661D01*
X123419067Y-104836023D01*
X123411395Y-104839030D01*
X123403393Y-104841683D01*
X123395062Y-104843982D01*
X123386400Y-104845927D01*
X123377408Y-104847518D01*
X123368085Y-104848755D01*
X123358431Y-104849639D01*
X123348446Y-104850169D01*
X123338130Y-104850346D01*
X123323255Y-104849886D01*
X123309131Y-104848506D01*
X123295761Y-104846206D01*
X123289359Y-104844709D01*
X123283146Y-104842983D01*
X123277122Y-104841025D01*
X123271289Y-104838836D01*
X123265645Y-104836417D01*
X123260191Y-104833766D01*
X123254928Y-104830884D01*
X123249855Y-104827770D01*
X123244974Y-104824425D01*
X123240284Y-104820848D01*
X123235785Y-104817039D01*
X123231478Y-104812999D01*
X123227364Y-104808726D01*
X123223441Y-104804221D01*
X123219711Y-104799483D01*
X123216174Y-104794513D01*
X123212831Y-104789311D01*
X123209680Y-104783875D01*
X123206723Y-104778207D01*
X123203961Y-104772306D01*
X123201392Y-104766172D01*
X123199018Y-104759804D01*
X123194854Y-104746368D01*
X123191472Y-104731998D01*
X123192186Y-104730543D01*
X123192184Y-104730516D01*
X123240840Y-104716731D01*
X123242190Y-104721487D01*
X123243655Y-104726089D01*
X123245236Y-104730539D01*
X123246931Y-104734836D01*
X123248743Y-104738981D01*
X123250670Y-104742973D01*
X123252712Y-104746813D01*
X123254871Y-104750501D01*
X123257145Y-104754037D01*
X123259536Y-104757421D01*
X123262043Y-104760653D01*
X123264666Y-104763734D01*
X123267405Y-104766663D01*
X123270262Y-104769441D01*
X123273235Y-104772067D01*
X123276325Y-104774542D01*
X123279531Y-104776867D01*
X123282855Y-104779040D01*
X123286296Y-104781063D01*
X123289855Y-104782935D01*
X123293531Y-104784657D01*
X123297324Y-104786228D01*
X123301236Y-104787649D01*
X123305265Y-104788920D01*
X123309412Y-104790041D01*
X123313677Y-104791012D01*
X123318060Y-104791833D01*
X123322562Y-104792505D01*
X123327182Y-104793027D01*
X123331920Y-104793400D01*
X123341754Y-104793698D01*
X123348389Y-104793575D01*
X123354815Y-104793205D01*
X123361033Y-104792588D01*
X123367042Y-104791725D01*
X123372841Y-104790616D01*
X123378432Y-104789261D01*
X123383813Y-104787659D01*
X123388985Y-104785812D01*
X123393947Y-104783719D01*
X123398700Y-104781381D01*
X123403243Y-104778797D01*
X123407576Y-104775967D01*
X123411699Y-104772893D01*
X123415611Y-104769573D01*
X123419313Y-104766009D01*
X123422805Y-104762200D01*
X123426086Y-104758146D01*
X123429156Y-104753847D01*
X123432016Y-104749305D01*
X123434665Y-104744518D01*
X123437102Y-104739487D01*
X123439328Y-104734212D01*
X123441343Y-104728693D01*
X123443146Y-104722931D01*
X123444738Y-104716924D01*
X123446117Y-104710675D01*
X123447285Y-104704182D01*
X123448241Y-104697446D01*
X123448985Y-104690467D01*
X123449516Y-104683246D01*
X123449835Y-104675781D01*
X123449941Y-104668074D01*
X123449499Y-104652110D01*
X123448174Y-104637169D01*
X123445969Y-104623251D01*
X123444536Y-104616677D01*
X123442885Y-104610359D01*
X123441014Y-104604297D01*
X123438924Y-104598492D01*
X123436616Y-104592944D01*
X123434090Y-104587653D01*
X123431345Y-104582618D01*
X123428383Y-104577840D01*
X123425203Y-104573320D01*
X123421806Y-104569057D01*
X123418192Y-104565052D01*
X123414362Y-104561303D01*
X123410314Y-104557813D01*
X123406051Y-104554581D01*
X123401572Y-104551606D01*
X123396877Y-104548889D01*
X123391967Y-104546431D01*
X123386842Y-104544230D01*
X123381502Y-104542289D01*
X123375947Y-104540605D01*
X123370178Y-104539181D01*
X123364195Y-104538015D01*
X123357999Y-104537108D01*
X123351588Y-104536460D01*
X123344965Y-104536071D01*
X123338129Y-104535941D01*
X123330375Y-104536180D01*
X123322910Y-104536897D01*
X123315729Y-104538094D01*
X123308832Y-104539774D01*
X123302215Y-104541939D01*
X123295878Y-104544592D01*
X123289817Y-104547733D01*
X123284031Y-104551366D01*
X123278518Y-104555493D01*
X123273275Y-104560115D01*
X123268300Y-104565236D01*
X123263592Y-104570856D01*
X123259147Y-104576979D01*
X123254965Y-104583606D01*
X123251042Y-104590740D01*
X123247377Y-104598383D01*
X123198720Y-104588223D01*
X123200308Y-104582259D01*
X123202074Y-104576483D01*
X123204019Y-104570894D01*
X123206142Y-104565492D01*
X123208444Y-104560278D01*
X123210925Y-104555252D01*
X123213584Y-104550414D01*
X123216422Y-104545764D01*
X123219438Y-104541302D01*
X123222633Y-104537029D01*
X123226007Y-104532944D01*
X123229559Y-104529047D01*
X123233290Y-104525339D01*
X123237200Y-104521821D01*
X123241288Y-104518491D01*
X123245555Y-104515350D01*
X123250001Y-104512399D01*
X123254625Y-104509637D01*
X123259428Y-104507065D01*
X123264410Y-104504682D01*
X123269570Y-104502489D01*
X123274909Y-104500486D01*
X123280427Y-104498673D01*
X123286124Y-104497051D01*
X123291999Y-104495619D01*
X123298053Y-104494377D01*
X123304285Y-104493326D01*
X123310697Y-104492466D01*
X123317287Y-104491797D01*
X123324056Y-104491319D01*
X123331003Y-104491031D01*
X123338130Y-104490936D01*
X123348383Y-104491102D01*
G37*
G36*
X121172652Y-103430106D02*
G01*
X121173745Y-103430160D01*
X121174842Y-103430252D01*
X121175945Y-103430384D01*
X121177056Y-103430559D01*
X121178178Y-103430779D01*
X121179312Y-103431046D01*
X121180461Y-103431362D01*
X121181627Y-103431729D01*
X121182812Y-103432149D01*
X121184019Y-103432625D01*
X121185250Y-103433158D01*
X121186506Y-103433751D01*
X121187790Y-103434406D01*
X121189105Y-103435125D01*
X121190452Y-103435909D01*
X121191677Y-103436606D01*
X121192902Y-103437336D01*
X121194124Y-103438097D01*
X121195343Y-103438890D01*
X121196557Y-103439712D01*
X121197767Y-103440564D01*
X121200166Y-103442349D01*
X121202532Y-103444237D01*
X121204855Y-103446220D01*
X121207129Y-103448288D01*
X121209343Y-103450435D01*
X121211490Y-103452620D01*
X121213559Y-103454819D01*
X121214561Y-103455930D01*
X121215541Y-103457051D01*
X121216498Y-103458184D01*
X121217430Y-103459332D01*
X121218336Y-103460496D01*
X121219215Y-103461680D01*
X121220066Y-103462885D01*
X121220889Y-103464112D01*
X121221682Y-103465366D01*
X121222443Y-103466647D01*
X121223173Y-103467957D01*
X121223870Y-103469300D01*
X121224532Y-103470525D01*
X121225160Y-103471749D01*
X121225753Y-103472971D01*
X121226308Y-103474190D01*
X121226826Y-103475404D01*
X121227304Y-103476613D01*
X121227742Y-103477815D01*
X121228139Y-103479010D01*
X121228493Y-103480196D01*
X121228804Y-103481373D01*
X121229070Y-103482538D01*
X121229290Y-103483692D01*
X121229464Y-103484832D01*
X121229589Y-103485959D01*
X121229665Y-103487070D01*
X121229690Y-103488165D01*
X121229690Y-103698006D01*
X121229665Y-103699504D01*
X121229591Y-103701002D01*
X121229471Y-103702500D01*
X121229306Y-103703999D01*
X121229098Y-103705497D01*
X121228850Y-103706995D01*
X121228564Y-103708493D01*
X121228241Y-103709991D01*
X121227496Y-103712988D01*
X121226632Y-103715984D01*
X121225664Y-103718981D01*
X121224610Y-103721977D01*
X121224048Y-103723466D01*
X121223453Y-103724937D01*
X121222827Y-103726389D01*
X121222170Y-103727820D01*
X121221483Y-103729230D01*
X121220768Y-103730617D01*
X121220025Y-103731981D01*
X121219256Y-103733321D01*
X121218460Y-103734635D01*
X121217640Y-103735923D01*
X121216796Y-103737183D01*
X121215930Y-103738415D01*
X121215041Y-103739617D01*
X121214132Y-103740789D01*
X121213202Y-103741930D01*
X121212254Y-103743038D01*
X121211293Y-103744246D01*
X121210313Y-103745420D01*
X121209314Y-103746560D01*
X121208295Y-103747666D01*
X121207254Y-103748738D01*
X121206191Y-103749776D01*
X121205104Y-103750780D01*
X121203993Y-103751749D01*
X121202856Y-103752685D01*
X121201693Y-103753586D01*
X121200503Y-103754453D01*
X121199284Y-103755286D01*
X121198036Y-103756085D01*
X121196757Y-103756850D01*
X121195447Y-103757581D01*
X121194104Y-103758278D01*
X121192744Y-103758940D01*
X121191384Y-103759569D01*
X121190023Y-103760161D01*
X121188662Y-103760716D01*
X121187301Y-103761234D01*
X121185940Y-103761712D01*
X121184578Y-103762151D01*
X121183216Y-103762547D01*
X121181855Y-103762902D01*
X121180493Y-103763213D01*
X121179132Y-103763479D01*
X121177770Y-103763699D01*
X121176409Y-103763872D01*
X121175049Y-103763997D01*
X121173689Y-103764073D01*
X121172329Y-103764099D01*
X121026385Y-103764099D01*
X121026385Y-103840325D01*
X121108432Y-103840325D01*
X121108432Y-103785874D01*
X121228950Y-103827995D01*
X121228950Y-103921658D01*
X121228933Y-103922758D01*
X121228880Y-103923873D01*
X121228792Y-103925003D01*
X121228666Y-103926146D01*
X121228502Y-103927302D01*
X121228298Y-103928469D01*
X121228055Y-103929646D01*
X121227769Y-103930832D01*
X121227442Y-103932027D01*
X121227070Y-103933228D01*
X121226655Y-103934436D01*
X121226193Y-103935648D01*
X121225685Y-103936864D01*
X121225130Y-103938082D01*
X121224525Y-103939302D01*
X121223871Y-103940523D01*
X121222477Y-103942964D01*
X121221014Y-103945401D01*
X121219482Y-103947824D01*
X121217881Y-103950223D01*
X121216212Y-103952588D01*
X121214476Y-103954911D01*
X121212671Y-103957180D01*
X121210800Y-103959388D01*
X121209839Y-103960466D01*
X121208862Y-103961527D01*
X121207869Y-103962569D01*
X121206863Y-103963592D01*
X121205844Y-103964594D01*
X121204813Y-103965574D01*
X121203772Y-103966531D01*
X121202720Y-103967464D01*
X121201661Y-103968371D01*
X121200594Y-103969252D01*
X121199521Y-103970105D01*
X121198444Y-103970929D01*
X121197362Y-103971723D01*
X121196277Y-103972486D01*
X121195191Y-103973216D01*
X121194105Y-103973913D01*
X121193018Y-103974576D01*
X121191931Y-103975204D01*
X121190843Y-103975796D01*
X121189754Y-103976352D01*
X121188666Y-103976869D01*
X121187576Y-103977348D01*
X121186487Y-103977786D01*
X121185397Y-103978183D01*
X121184307Y-103978537D01*
X121183216Y-103978848D01*
X121182125Y-103979114D01*
X121181034Y-103979334D01*
X121179943Y-103979507D01*
X121178852Y-103979633D01*
X121177761Y-103979708D01*
X121176670Y-103979734D01*
X120963203Y-103979734D01*
X120962112Y-103979717D01*
X120961019Y-103979663D01*
X120959922Y-103979571D01*
X120958819Y-103979438D01*
X120957708Y-103979263D01*
X120956587Y-103979043D01*
X120955452Y-103978777D01*
X120954303Y-103978461D01*
X120953137Y-103978094D01*
X120951952Y-103977673D01*
X120950745Y-103977198D01*
X120949515Y-103976664D01*
X120948258Y-103976071D01*
X120946974Y-103975417D01*
X120945659Y-103974698D01*
X120944312Y-103973913D01*
X120943087Y-103973217D01*
X120941863Y-103972487D01*
X120940641Y-103971726D01*
X120939422Y-103970933D01*
X120938207Y-103970110D01*
X120936998Y-103969259D01*
X120934599Y-103967474D01*
X120932233Y-103965586D01*
X120929909Y-103963603D01*
X120927636Y-103961534D01*
X120925421Y-103959388D01*
X120923274Y-103957173D01*
X120921205Y-103954900D01*
X120919223Y-103952577D01*
X120918266Y-103951400D01*
X120917335Y-103950213D01*
X120916429Y-103949019D01*
X120915549Y-103947817D01*
X120914698Y-103946610D01*
X120913876Y-103945398D01*
X120913083Y-103944182D01*
X120912322Y-103942963D01*
X120911592Y-103941743D01*
X120910896Y-103940523D01*
X120910233Y-103939302D01*
X120909605Y-103938081D01*
X120909013Y-103936861D01*
X120908457Y-103935644D01*
X120907939Y-103934430D01*
X120907461Y-103933221D01*
X120907023Y-103932018D01*
X120906626Y-103930822D01*
X120906272Y-103929635D01*
X120905961Y-103928457D01*
X120905695Y-103927290D01*
X120905474Y-103926135D01*
X120905301Y-103924993D01*
X120905176Y-103923865D01*
X120905100Y-103922753D01*
X120905075Y-103921658D01*
X120905075Y-103714013D01*
X120905100Y-103712515D01*
X120905174Y-103711017D01*
X120905294Y-103709518D01*
X120905459Y-103708020D01*
X120905667Y-103706522D01*
X120905915Y-103705024D01*
X120906201Y-103703526D01*
X120906523Y-103702027D01*
X120907268Y-103699031D01*
X120908133Y-103696034D01*
X120909101Y-103693038D01*
X120910155Y-103690042D01*
X120910717Y-103688552D01*
X120911312Y-103687080D01*
X120911938Y-103685625D01*
X120912595Y-103684187D01*
X120913281Y-103682767D01*
X120913996Y-103681364D01*
X120914739Y-103679977D01*
X120915509Y-103678608D01*
X120917124Y-103675921D01*
X120918835Y-103673302D01*
X120920633Y-103670751D01*
X120922511Y-103668266D01*
X120923472Y-103667184D01*
X120924452Y-103666118D01*
X120925451Y-103665070D01*
X120926470Y-103664040D01*
X120927511Y-103663026D01*
X120928574Y-103662031D01*
X120929661Y-103661052D01*
X120930772Y-103660091D01*
X120931908Y-103659147D01*
X120933071Y-103658221D01*
X120934262Y-103657311D01*
X120935481Y-103656420D01*
X120936729Y-103655545D01*
X120938008Y-103654688D01*
X120939318Y-103653849D01*
X120940661Y-103653026D01*
X120942021Y-103652364D01*
X120943381Y-103651736D01*
X120944741Y-103651143D01*
X120946103Y-103650588D01*
X120947464Y-103650070D01*
X120948825Y-103649592D01*
X120950187Y-103649154D01*
X120951549Y-103648757D01*
X120952911Y-103648402D01*
X120954272Y-103648092D01*
X120955634Y-103647826D01*
X120956995Y-103647605D01*
X120958356Y-103647432D01*
X120959717Y-103647307D01*
X120961077Y-103647231D01*
X120962436Y-103647206D01*
X121108381Y-103647206D01*
X121107667Y-103646491D01*
X121107659Y-103646485D01*
X121107652Y-103646478D01*
X121107648Y-103646475D01*
X121107645Y-103646472D01*
X121107641Y-103646468D01*
X121107638Y-103646465D01*
X121107638Y-103568783D01*
X121025590Y-103568783D01*
X121025590Y-103623235D01*
X120905073Y-103581113D01*
X120905073Y-103487450D01*
X120905090Y-103486481D01*
X120905142Y-103485480D01*
X120905231Y-103484449D01*
X120905357Y-103483390D01*
X120905521Y-103482306D01*
X120905724Y-103481198D01*
X120905968Y-103480069D01*
X120906253Y-103478921D01*
X120906581Y-103477756D01*
X120906953Y-103476575D01*
X120907368Y-103475382D01*
X120907830Y-103474179D01*
X120908338Y-103472966D01*
X120908894Y-103471748D01*
X120909499Y-103470525D01*
X120910153Y-103469300D01*
X120911547Y-103466851D01*
X120913010Y-103464410D01*
X120914541Y-103461987D01*
X120916142Y-103459590D01*
X120917811Y-103457227D01*
X120919547Y-103454908D01*
X120921352Y-103452641D01*
X120923223Y-103450435D01*
X120925405Y-103448288D01*
X120927584Y-103446220D01*
X120929763Y-103444237D01*
X120931941Y-103442349D01*
X120934119Y-103440564D01*
X120936298Y-103438890D01*
X120937387Y-103438097D01*
X120938478Y-103437336D01*
X120939568Y-103436606D01*
X120940659Y-103435909D01*
X120943076Y-103434619D01*
X120944260Y-103434026D01*
X120945426Y-103433471D01*
X120946576Y-103432953D01*
X120947709Y-103432475D01*
X120948824Y-103432037D01*
X120949923Y-103431640D01*
X120951004Y-103431285D01*
X120952069Y-103430975D01*
X120953116Y-103430709D01*
X120954147Y-103430488D01*
X120955160Y-103430315D01*
X120956155Y-103430190D01*
X120957134Y-103430114D01*
X120958095Y-103430089D01*
X121171561Y-103430089D01*
X121172652Y-103430106D01*
G37*
G36*
X122117605Y-104938928D02*
G01*
X121845323Y-104938928D01*
X121845323Y-104937473D01*
X121845323Y-104937446D01*
X121844240Y-104937421D01*
X121843171Y-104937346D01*
X121842112Y-104937222D01*
X121841062Y-104937050D01*
X121840016Y-104936832D01*
X121838971Y-104936567D01*
X121837925Y-104936258D01*
X121836873Y-104935905D01*
X121835813Y-104935509D01*
X121834741Y-104935072D01*
X121833655Y-104934593D01*
X121832550Y-104934075D01*
X121831424Y-104933518D01*
X121830274Y-104932924D01*
X121827887Y-104931625D01*
X121826670Y-104930924D01*
X121825470Y-104930192D01*
X121824286Y-104929428D01*
X121823120Y-104928634D01*
X121821970Y-104927811D01*
X121820838Y-104926960D01*
X121819722Y-104926081D01*
X121818623Y-104925176D01*
X121817542Y-104924246D01*
X121816477Y-104923291D01*
X121815430Y-104922313D01*
X121814400Y-104921312D01*
X121813387Y-104920289D01*
X121812391Y-104919245D01*
X121811412Y-104918182D01*
X121810451Y-104917100D01*
X121809385Y-104916000D01*
X121808367Y-104914885D01*
X121807394Y-104913755D01*
X121806463Y-104912612D01*
X121805571Y-104911456D01*
X121804713Y-104910289D01*
X121803888Y-104909112D01*
X121803092Y-104907925D01*
X121801574Y-104905529D01*
X121800134Y-104903110D01*
X121798744Y-104900676D01*
X121797381Y-104898235D01*
X121796727Y-104897014D01*
X121796122Y-104895793D01*
X121795566Y-104894574D01*
X121795058Y-104893356D01*
X121794596Y-104892143D01*
X121794181Y-104890934D01*
X121793809Y-104889731D01*
X121793482Y-104888535D01*
X121793196Y-104887347D01*
X121792952Y-104886169D01*
X121792749Y-104885002D01*
X121792585Y-104883847D01*
X121792459Y-104882705D01*
X121792370Y-104881578D01*
X121792318Y-104880466D01*
X121792301Y-104879370D01*
X121792301Y-104799467D01*
X121792301Y-104527925D01*
X121914300Y-104527925D01*
X121914300Y-104799467D01*
X121997802Y-104799467D01*
X121997802Y-104527925D01*
X121914300Y-104527925D01*
X121792301Y-104527925D01*
X121792301Y-104445189D01*
X121792318Y-104444220D01*
X121792370Y-104443219D01*
X121792459Y-104442188D01*
X121792585Y-104441129D01*
X121792749Y-104440045D01*
X121792952Y-104438937D01*
X121793196Y-104437808D01*
X121793482Y-104436660D01*
X121793809Y-104435495D01*
X121794181Y-104434314D01*
X121794596Y-104433121D01*
X121795058Y-104431918D01*
X121795566Y-104430705D01*
X121796122Y-104429487D01*
X121796727Y-104428264D01*
X121797381Y-104427039D01*
X121798775Y-104424590D01*
X121800238Y-104422149D01*
X121801770Y-104419726D01*
X121803370Y-104417329D01*
X121805039Y-104414966D01*
X121806776Y-104412647D01*
X121808580Y-104410380D01*
X121810451Y-104408174D01*
X121812633Y-104406028D01*
X121814813Y-104403959D01*
X121816991Y-104401976D01*
X121819169Y-104400088D01*
X121821347Y-104398303D01*
X121823526Y-104396629D01*
X121824616Y-104395836D01*
X121825706Y-104395075D01*
X121826796Y-104394345D01*
X121827887Y-104393649D01*
X121830304Y-104392358D01*
X121831488Y-104391765D01*
X121832654Y-104391210D01*
X121833804Y-104390692D01*
X121834937Y-104390214D01*
X121836052Y-104389776D01*
X121837151Y-104389379D01*
X121838232Y-104389024D01*
X121839297Y-104388714D01*
X121840344Y-104388448D01*
X121841375Y-104388227D01*
X121842388Y-104388054D01*
X121843383Y-104387929D01*
X121844362Y-104387853D01*
X121845323Y-104387828D01*
X122117605Y-104387828D01*
X122117605Y-104938928D01*
G37*
G36*
X126463890Y-103182492D02*
G01*
X126028253Y-103182492D01*
X126028253Y-103037288D01*
X126463890Y-103037288D01*
X126463890Y-103182492D01*
G37*
G36*
X116681113Y-103431614D02*
G01*
X116682206Y-103431668D01*
X116683303Y-103431760D01*
X116684405Y-103431892D01*
X116685516Y-103432068D01*
X116686637Y-103432288D01*
X116687770Y-103432554D01*
X116688918Y-103432870D01*
X116690083Y-103433237D01*
X116691266Y-103433657D01*
X116692471Y-103434133D01*
X116693699Y-103434666D01*
X116694952Y-103435259D01*
X116696233Y-103435914D01*
X116697543Y-103436633D01*
X116698886Y-103437418D01*
X116700111Y-103438114D01*
X116701335Y-103438844D01*
X116702557Y-103439605D01*
X116703776Y-103440398D01*
X116704990Y-103441220D01*
X116706199Y-103442072D01*
X116708596Y-103443857D01*
X116710959Y-103445745D01*
X116713278Y-103447728D01*
X116715545Y-103449797D01*
X116717751Y-103451943D01*
X116719890Y-103454128D01*
X116721955Y-103456327D01*
X116723938Y-103458559D01*
X116724895Y-103459692D01*
X116725827Y-103460840D01*
X116726735Y-103462005D01*
X116727616Y-103463188D01*
X116728469Y-103464393D01*
X116729293Y-103465621D01*
X116730087Y-103466874D01*
X116730849Y-103468155D01*
X116731580Y-103469466D01*
X116732276Y-103470808D01*
X116732939Y-103472033D01*
X116733567Y-103473257D01*
X116734160Y-103474479D01*
X116734715Y-103475698D01*
X116735233Y-103476912D01*
X116735711Y-103478121D01*
X116736149Y-103479324D01*
X116736546Y-103480518D01*
X116736900Y-103481704D01*
X116737211Y-103482881D01*
X116737477Y-103484046D01*
X116737697Y-103485200D01*
X116737870Y-103486340D01*
X116737995Y-103487467D01*
X116738071Y-103488578D01*
X116738097Y-103489673D01*
X116738097Y-103922425D01*
X116738079Y-103923517D01*
X116738026Y-103924610D01*
X116737934Y-103925707D01*
X116737801Y-103926809D01*
X116737626Y-103927920D01*
X116737406Y-103929041D01*
X116737139Y-103930174D01*
X116736823Y-103931322D01*
X116736457Y-103932487D01*
X116736036Y-103933670D01*
X116735561Y-103934875D01*
X116735027Y-103936103D01*
X116734434Y-103937356D01*
X116733780Y-103938637D01*
X116733061Y-103939948D01*
X116732276Y-103941290D01*
X116731580Y-103942515D01*
X116730850Y-103943739D01*
X116730089Y-103944961D01*
X116729296Y-103946180D01*
X116728474Y-103947394D01*
X116727622Y-103948603D01*
X116725837Y-103951000D01*
X116723949Y-103953363D01*
X116721966Y-103955682D01*
X116719898Y-103957949D01*
X116717751Y-103960155D01*
X116716660Y-103961225D01*
X116715567Y-103962264D01*
X116714470Y-103963273D01*
X116713367Y-103964255D01*
X116712257Y-103965212D01*
X116711136Y-103966146D01*
X116710002Y-103967059D01*
X116708854Y-103967954D01*
X116706506Y-103969694D01*
X116704074Y-103971384D01*
X116701539Y-103973041D01*
X116698886Y-103974681D01*
X116698886Y-103975395D01*
X116697661Y-103976058D01*
X116696437Y-103976686D01*
X116695215Y-103977278D01*
X116693996Y-103977834D01*
X116692782Y-103978351D01*
X116691573Y-103978830D01*
X116690371Y-103979268D01*
X116689176Y-103979665D01*
X116687990Y-103980019D01*
X116686814Y-103980330D01*
X116685648Y-103980596D01*
X116684494Y-103980816D01*
X116683354Y-103980989D01*
X116682228Y-103981115D01*
X116681116Y-103981190D01*
X116680021Y-103981216D01*
X116466556Y-103981216D01*
X116465472Y-103981191D01*
X116464403Y-103981116D01*
X116463345Y-103980992D01*
X116462295Y-103980820D01*
X116461249Y-103980601D01*
X116460204Y-103980337D01*
X116459157Y-103980028D01*
X116458106Y-103979675D01*
X116457045Y-103979279D01*
X116455974Y-103978841D01*
X116454887Y-103978363D01*
X116453783Y-103977845D01*
X116452657Y-103977288D01*
X116451506Y-103976694D01*
X116449120Y-103975395D01*
X116447903Y-103974694D01*
X116446702Y-103973962D01*
X116445519Y-103973198D01*
X116444353Y-103972404D01*
X116443203Y-103971581D01*
X116442070Y-103970729D01*
X116440955Y-103969851D01*
X116439856Y-103968946D01*
X116438774Y-103968016D01*
X116437710Y-103967061D01*
X116436663Y-103966082D01*
X116435632Y-103965081D01*
X116434619Y-103964059D01*
X116433623Y-103963015D01*
X116432645Y-103961952D01*
X116431684Y-103960870D01*
X116430618Y-103959770D01*
X116429600Y-103958655D01*
X116428627Y-103957525D01*
X116427696Y-103956381D01*
X116426803Y-103955226D01*
X116425946Y-103954059D01*
X116425121Y-103952881D01*
X116424325Y-103951695D01*
X116422807Y-103949299D01*
X116421366Y-103946880D01*
X116419977Y-103944445D01*
X116418613Y-103942005D01*
X116417959Y-103940784D01*
X116417354Y-103939563D01*
X116416798Y-103938343D01*
X116416290Y-103937126D01*
X116415829Y-103935912D01*
X116415413Y-103934703D01*
X116415042Y-103933500D01*
X116414714Y-103932304D01*
X116414428Y-103931117D01*
X116414185Y-103929939D01*
X116413981Y-103928772D01*
X116413817Y-103927617D01*
X116413691Y-103926475D01*
X116413603Y-103925347D01*
X116413550Y-103924235D01*
X116413533Y-103923140D01*
X116413533Y-103841066D01*
X116413533Y-103686417D01*
X116534792Y-103686417D01*
X116534792Y-103841066D01*
X116578369Y-103841066D01*
X116534792Y-103686417D01*
X116413533Y-103686417D01*
X116413533Y-103569498D01*
X116574718Y-103569498D01*
X116618294Y-103724147D01*
X116618294Y-103569498D01*
X116574718Y-103569498D01*
X116413533Y-103569498D01*
X116413533Y-103488959D01*
X116413550Y-103487989D01*
X116413603Y-103486988D01*
X116413691Y-103485957D01*
X116413817Y-103484898D01*
X116413981Y-103483814D01*
X116414185Y-103482706D01*
X116414428Y-103481577D01*
X116414714Y-103480429D01*
X116415042Y-103479264D01*
X116415413Y-103478084D01*
X116415829Y-103476890D01*
X116416290Y-103475687D01*
X116416798Y-103474475D01*
X116417354Y-103473256D01*
X116417959Y-103472033D01*
X116418613Y-103470808D01*
X116420007Y-103468359D01*
X116421470Y-103465918D01*
X116423002Y-103463495D01*
X116424603Y-103461098D01*
X116426271Y-103458735D01*
X116428008Y-103456416D01*
X116429812Y-103454149D01*
X116431684Y-103451943D01*
X116433865Y-103449797D01*
X116436045Y-103447728D01*
X116438224Y-103445745D01*
X116440402Y-103443857D01*
X116442580Y-103442072D01*
X116444758Y-103440398D01*
X116445848Y-103439605D01*
X116446938Y-103438844D01*
X116448029Y-103438114D01*
X116449120Y-103437418D01*
X116451537Y-103436127D01*
X116452720Y-103435534D01*
X116453887Y-103434979D01*
X116455036Y-103434461D01*
X116456169Y-103433983D01*
X116457285Y-103433545D01*
X116458383Y-103433148D01*
X116459465Y-103432794D01*
X116460530Y-103432483D01*
X116461577Y-103432217D01*
X116462607Y-103431997D01*
X116463620Y-103431823D01*
X116464616Y-103431698D01*
X116465594Y-103431622D01*
X116466556Y-103431597D01*
X116680021Y-103431597D01*
X116681113Y-103431614D01*
G37*
G36*
X119312070Y-103022101D02*
G01*
X119190812Y-103022101D01*
X119190812Y-102805725D01*
X119108764Y-102805725D01*
X119108764Y-103022101D01*
X118988246Y-103022101D01*
X118986791Y-103021387D01*
X118986764Y-103021334D01*
X118986764Y-102800619D01*
X118986816Y-102798311D01*
X118986969Y-102796021D01*
X118987225Y-102793751D01*
X118987583Y-102791502D01*
X118988043Y-102789274D01*
X118988605Y-102787068D01*
X118989269Y-102784887D01*
X118990036Y-102782730D01*
X118990904Y-102780598D01*
X118991874Y-102778494D01*
X118992946Y-102776417D01*
X118994120Y-102774369D01*
X118995396Y-102772351D01*
X118996774Y-102770364D01*
X118998254Y-102768409D01*
X118999835Y-102766487D01*
X119001467Y-102764616D01*
X119003100Y-102762814D01*
X119004734Y-102761082D01*
X119006368Y-102759420D01*
X119008002Y-102757831D01*
X119009636Y-102756315D01*
X119011271Y-102754873D01*
X119012905Y-102753506D01*
X119014540Y-102752216D01*
X119016175Y-102751004D01*
X119017809Y-102749871D01*
X119019443Y-102748818D01*
X119021077Y-102747846D01*
X119022710Y-102746956D01*
X119024343Y-102746149D01*
X119025976Y-102745427D01*
X119025414Y-102745401D01*
X119024820Y-102745326D01*
X119024197Y-102745202D01*
X119023547Y-102745031D01*
X119022872Y-102744812D01*
X119022173Y-102744548D01*
X119021453Y-102744238D01*
X119020714Y-102743885D01*
X119019958Y-102743490D01*
X119019187Y-102743052D01*
X119018403Y-102742574D01*
X119017608Y-102742056D01*
X119016805Y-102741499D01*
X119015994Y-102740904D01*
X119015179Y-102740273D01*
X119014361Y-102739606D01*
X119013417Y-102738917D01*
X119012490Y-102738210D01*
X119011579Y-102737484D01*
X119010685Y-102736737D01*
X119009809Y-102735969D01*
X119008949Y-102735179D01*
X119008106Y-102734365D01*
X119007280Y-102733527D01*
X119006471Y-102732663D01*
X119005680Y-102731773D01*
X119004905Y-102730856D01*
X119004148Y-102729910D01*
X119003407Y-102728934D01*
X119002684Y-102727928D01*
X119001979Y-102726891D01*
X119001290Y-102725821D01*
X118999932Y-102723849D01*
X118998583Y-102721750D01*
X118997250Y-102719531D01*
X118995943Y-102717202D01*
X118994668Y-102714771D01*
X118993436Y-102712248D01*
X118992254Y-102709640D01*
X118991130Y-102706956D01*
X118990107Y-102704270D01*
X118989646Y-102702949D01*
X118989220Y-102701642D01*
X118988828Y-102700347D01*
X118988470Y-102699064D01*
X118988146Y-102697791D01*
X118987856Y-102696528D01*
X118987600Y-102695273D01*
X118987378Y-102694026D01*
X118987191Y-102692785D01*
X118987037Y-102691549D01*
X118986918Y-102690317D01*
X118986833Y-102689088D01*
X118986790Y-102688065D01*
X118986782Y-102687862D01*
X118986764Y-102686636D01*
X118986764Y-102611098D01*
X119109479Y-102611098D01*
X119109479Y-102688065D01*
X119191526Y-102688065D01*
X119191526Y-102611098D01*
X119109479Y-102611098D01*
X118986764Y-102611098D01*
X118986764Y-102528362D01*
X118986782Y-102527393D01*
X118986834Y-102526392D01*
X118986923Y-102525361D01*
X118987048Y-102524302D01*
X118987213Y-102523218D01*
X118987416Y-102522110D01*
X118987660Y-102520981D01*
X118987945Y-102519833D01*
X118988273Y-102518668D01*
X118988644Y-102517487D01*
X118989060Y-102516294D01*
X118989521Y-102515091D01*
X118990030Y-102513878D01*
X118990585Y-102512660D01*
X118991190Y-102511437D01*
X118991844Y-102510212D01*
X118993238Y-102507763D01*
X118994701Y-102505322D01*
X118996233Y-102502899D01*
X118997834Y-102500502D01*
X118999502Y-102498139D01*
X119001239Y-102495820D01*
X119003043Y-102493553D01*
X119004915Y-102491347D01*
X119007096Y-102489200D01*
X119009276Y-102487132D01*
X119011455Y-102485149D01*
X119013633Y-102483261D01*
X119015811Y-102481476D01*
X119017989Y-102479802D01*
X119019079Y-102479009D01*
X119020169Y-102478248D01*
X119021260Y-102477518D01*
X119022351Y-102476822D01*
X119024768Y-102475531D01*
X119025952Y-102474938D01*
X119027118Y-102474383D01*
X119028268Y-102473865D01*
X119029400Y-102473387D01*
X119030516Y-102472949D01*
X119031615Y-102472552D01*
X119032696Y-102472197D01*
X119033761Y-102471887D01*
X119034808Y-102471621D01*
X119035839Y-102471400D01*
X119036852Y-102471227D01*
X119037848Y-102471102D01*
X119038826Y-102471026D01*
X119039787Y-102471001D01*
X119312070Y-102471001D01*
X119312070Y-103022101D01*
G37*
G36*
X120203690Y-104938928D02*
G01*
X120082431Y-104938928D01*
X120082431Y-104722552D01*
X120000384Y-104722552D01*
X120000384Y-104938928D01*
X119879866Y-104938928D01*
X119878411Y-104938214D01*
X119878384Y-104938161D01*
X119878384Y-104717446D01*
X119878435Y-104715138D01*
X119878589Y-104712848D01*
X119878844Y-104710578D01*
X119879202Y-104708329D01*
X119879662Y-104706101D01*
X119880225Y-104703895D01*
X119880889Y-104701713D01*
X119881655Y-104699556D01*
X119882524Y-104697425D01*
X119883494Y-104695320D01*
X119884566Y-104693244D01*
X119885740Y-104691196D01*
X119887016Y-104689178D01*
X119888394Y-104687191D01*
X119889873Y-104685236D01*
X119891455Y-104683314D01*
X119893087Y-104681443D01*
X119894720Y-104679641D01*
X119896354Y-104677909D01*
X119897987Y-104676247D01*
X119899622Y-104674658D01*
X119901256Y-104673142D01*
X119902891Y-104671700D01*
X119904525Y-104670333D01*
X119906160Y-104669043D01*
X119907794Y-104667831D01*
X119909429Y-104666698D01*
X119911063Y-104665645D01*
X119912697Y-104664672D01*
X119914330Y-104663782D01*
X119915963Y-104662976D01*
X119917596Y-104662253D01*
X119917034Y-104662228D01*
X119916440Y-104662153D01*
X119915817Y-104662029D01*
X119915167Y-104661857D01*
X119914492Y-104661639D01*
X119913793Y-104661374D01*
X119913073Y-104661065D01*
X119912334Y-104660712D01*
X119911578Y-104660316D01*
X119910807Y-104659879D01*
X119910023Y-104659401D01*
X119909228Y-104658883D01*
X119908424Y-104658326D01*
X119907614Y-104657731D01*
X119906799Y-104657100D01*
X119905981Y-104656433D01*
X119905037Y-104655744D01*
X119904109Y-104655037D01*
X119903199Y-104654311D01*
X119902305Y-104653564D01*
X119901428Y-104652796D01*
X119900568Y-104652006D01*
X119899726Y-104651192D01*
X119898900Y-104650354D01*
X119898091Y-104649490D01*
X119897299Y-104648600D01*
X119896525Y-104647682D01*
X119895767Y-104646736D01*
X119895027Y-104645761D01*
X119894304Y-104644755D01*
X119893598Y-104643718D01*
X119892910Y-104642648D01*
X119891552Y-104640676D01*
X119890203Y-104638576D01*
X119888870Y-104636358D01*
X119887562Y-104634029D01*
X119886288Y-104631598D01*
X119885056Y-104629075D01*
X119883874Y-104626467D01*
X119882750Y-104623783D01*
X119881727Y-104621097D01*
X119881266Y-104619776D01*
X119880840Y-104618469D01*
X119880448Y-104617174D01*
X119880089Y-104615891D01*
X119879765Y-104614618D01*
X119879475Y-104613355D01*
X119879220Y-104612100D01*
X119878998Y-104610853D01*
X119878810Y-104609612D01*
X119878657Y-104608376D01*
X119878538Y-104607144D01*
X119878452Y-104605915D01*
X119878410Y-104604892D01*
X119878401Y-104604688D01*
X119878384Y-104603463D01*
X119878384Y-104527924D01*
X120000357Y-104527924D01*
X120000357Y-104604892D01*
X120082404Y-104604892D01*
X120082404Y-104527924D01*
X120000357Y-104527924D01*
X119878384Y-104527924D01*
X119878384Y-104445189D01*
X119878401Y-104444220D01*
X119878454Y-104443219D01*
X119878542Y-104442188D01*
X119878668Y-104441129D01*
X119878832Y-104440045D01*
X119879036Y-104438937D01*
X119879280Y-104437808D01*
X119879565Y-104436660D01*
X119879893Y-104435495D01*
X119880264Y-104434314D01*
X119880680Y-104433121D01*
X119881141Y-104431918D01*
X119881649Y-104430705D01*
X119882205Y-104429487D01*
X119882810Y-104428264D01*
X119883464Y-104427039D01*
X119884858Y-104424590D01*
X119886321Y-104422149D01*
X119887853Y-104419726D01*
X119889453Y-104417329D01*
X119891122Y-104414966D01*
X119892859Y-104412647D01*
X119894663Y-104410380D01*
X119896534Y-104408174D01*
X119898716Y-104406028D01*
X119900896Y-104403959D01*
X119903075Y-104401976D01*
X119905253Y-104400088D01*
X119907431Y-104398303D01*
X119909609Y-104396629D01*
X119910699Y-104395836D01*
X119911789Y-104395075D01*
X119912880Y-104394345D01*
X119913971Y-104393649D01*
X119916388Y-104392358D01*
X119917571Y-104391765D01*
X119918738Y-104391210D01*
X119919888Y-104390692D01*
X119921020Y-104390214D01*
X119922136Y-104389776D01*
X119923235Y-104389379D01*
X119924316Y-104389024D01*
X119925381Y-104388714D01*
X119926428Y-104388448D01*
X119927458Y-104388227D01*
X119928471Y-104388054D01*
X119929467Y-104387929D01*
X119930446Y-104387853D01*
X119931407Y-104387828D01*
X120203690Y-104387828D01*
X120203690Y-104938928D01*
G37*
G36*
X125302157Y-104925064D02*
G01*
X125156953Y-104925064D01*
X125156953Y-104779860D01*
X125011750Y-104779860D01*
X125011750Y-104925063D01*
X124866546Y-104925063D01*
X124866546Y-104779860D01*
X124939148Y-104779860D01*
X124939148Y-104707259D01*
X124939122Y-104707259D01*
X124866520Y-104707259D01*
X124866520Y-104562056D01*
X125011750Y-104562056D01*
X125011750Y-104707259D01*
X125156953Y-104707259D01*
X125156953Y-104562056D01*
X125011750Y-104562056D01*
X124866520Y-104562056D01*
X124866520Y-104489427D01*
X125302157Y-104489427D01*
X125302157Y-104925064D01*
G37*
G36*
X119953532Y-103432329D02*
G01*
X119954625Y-103432382D01*
X119955722Y-103432474D01*
X119956825Y-103432607D01*
X119957936Y-103432782D01*
X119959058Y-103433002D01*
X119960192Y-103433269D01*
X119961341Y-103433584D01*
X119962507Y-103433951D01*
X119963692Y-103434372D01*
X119964899Y-103434847D01*
X119966129Y-103435381D01*
X119967386Y-103435974D01*
X119968670Y-103436628D01*
X119969985Y-103437347D01*
X119971332Y-103438132D01*
X119972557Y-103438828D01*
X119973782Y-103439558D01*
X119975004Y-103440320D01*
X119976223Y-103441112D01*
X119977437Y-103441935D01*
X119978647Y-103442786D01*
X119981046Y-103444571D01*
X119983411Y-103446459D01*
X119985735Y-103448442D01*
X119988009Y-103450511D01*
X119990223Y-103452658D01*
X119992370Y-103454842D01*
X119994439Y-103457041D01*
X119995442Y-103458152D01*
X119996422Y-103459273D01*
X119997378Y-103460406D01*
X119998310Y-103461554D01*
X119999216Y-103462719D01*
X120000095Y-103463902D01*
X120000946Y-103465107D01*
X120001769Y-103466335D01*
X120002561Y-103467588D01*
X120003323Y-103468869D01*
X120004052Y-103470180D01*
X120004749Y-103471522D01*
X120005412Y-103472748D01*
X120006040Y-103473972D01*
X120006632Y-103475194D01*
X120007188Y-103476412D01*
X120007705Y-103477627D01*
X120008184Y-103478835D01*
X120008622Y-103480038D01*
X120009019Y-103481233D01*
X120009373Y-103482419D01*
X120009684Y-103483595D01*
X120009950Y-103484761D01*
X120010170Y-103485914D01*
X120010343Y-103487055D01*
X120010468Y-103488181D01*
X120010544Y-103489292D01*
X120010570Y-103490387D01*
X120010570Y-103923140D01*
X120010552Y-103924231D01*
X120010499Y-103925324D01*
X120010406Y-103926421D01*
X120010274Y-103927524D01*
X120010099Y-103928634D01*
X120009879Y-103929755D01*
X120009612Y-103930888D01*
X120009296Y-103932036D01*
X120008929Y-103933201D01*
X120008509Y-103934384D01*
X120008033Y-103935589D01*
X120007500Y-103936817D01*
X120006907Y-103938070D01*
X120006252Y-103939351D01*
X120005534Y-103940662D01*
X120004749Y-103942004D01*
X120004052Y-103943230D01*
X120003323Y-103944454D01*
X120002561Y-103945676D01*
X120001769Y-103946894D01*
X120000946Y-103948109D01*
X120000095Y-103949318D01*
X119998310Y-103951715D01*
X119996422Y-103954077D01*
X119994439Y-103956396D01*
X119992370Y-103958663D01*
X119990223Y-103960869D01*
X119988009Y-103963008D01*
X119985735Y-103965074D01*
X119983411Y-103967056D01*
X119982233Y-103968013D01*
X119981046Y-103968946D01*
X119979850Y-103969853D01*
X119978647Y-103970734D01*
X119977437Y-103971587D01*
X119976223Y-103972411D01*
X119975004Y-103973205D01*
X119973782Y-103973968D01*
X119972557Y-103974698D01*
X119971332Y-103975395D01*
X119970107Y-103976058D01*
X119968883Y-103976686D01*
X119967661Y-103977278D01*
X119966442Y-103977834D01*
X119965227Y-103978351D01*
X119964018Y-103978830D01*
X119962814Y-103979268D01*
X119961619Y-103979665D01*
X119960431Y-103980019D01*
X119959253Y-103980330D01*
X119958085Y-103980596D01*
X119956929Y-103980816D01*
X119955786Y-103980989D01*
X119954656Y-103981114D01*
X119953540Y-103981190D01*
X119952441Y-103981216D01*
X119952441Y-103981930D01*
X119738975Y-103981930D01*
X119737892Y-103981905D01*
X119736823Y-103981830D01*
X119735765Y-103981706D01*
X119734714Y-103981534D01*
X119733668Y-103981316D01*
X119732623Y-103981051D01*
X119731577Y-103980742D01*
X119730525Y-103980389D01*
X119729465Y-103979993D01*
X119728393Y-103979556D01*
X119727306Y-103979077D01*
X119726202Y-103978559D01*
X119725076Y-103978002D01*
X119723925Y-103977408D01*
X119721539Y-103976109D01*
X119720322Y-103975409D01*
X119719121Y-103974676D01*
X119717938Y-103973912D01*
X119716772Y-103973118D01*
X119715622Y-103972295D01*
X119714489Y-103971444D01*
X119713374Y-103970565D01*
X119712275Y-103969660D01*
X119711193Y-103968730D01*
X119710129Y-103967775D01*
X119709081Y-103966797D01*
X119708051Y-103965796D01*
X119707038Y-103964773D01*
X119706042Y-103963729D01*
X119705064Y-103962666D01*
X119704103Y-103961584D01*
X119703036Y-103960484D01*
X119702018Y-103959369D01*
X119701046Y-103958239D01*
X119700114Y-103957096D01*
X119699222Y-103955940D01*
X119698365Y-103954773D01*
X119697540Y-103953596D01*
X119696744Y-103952409D01*
X119695226Y-103950013D01*
X119693785Y-103947594D01*
X119692396Y-103945160D01*
X119691032Y-103942719D01*
X119690378Y-103941498D01*
X119689773Y-103940277D01*
X119689217Y-103939058D01*
X119688709Y-103937840D01*
X119688248Y-103936627D01*
X119687832Y-103935418D01*
X119687460Y-103934215D01*
X119687133Y-103933019D01*
X119686848Y-103931831D01*
X119686604Y-103930653D01*
X119686400Y-103929486D01*
X119686236Y-103928331D01*
X119686110Y-103927189D01*
X119686022Y-103926061D01*
X119685969Y-103924949D01*
X119685952Y-103923854D01*
X119685952Y-103841040D01*
X119685952Y-103569498D01*
X119807952Y-103569498D01*
X119807952Y-103841040D01*
X119890713Y-103841040D01*
X119890713Y-103569498D01*
X119807952Y-103569498D01*
X119685952Y-103569498D01*
X119685952Y-103489673D01*
X119685969Y-103488704D01*
X119686022Y-103487703D01*
X119686110Y-103486672D01*
X119686236Y-103485613D01*
X119686400Y-103484528D01*
X119686604Y-103483421D01*
X119686848Y-103482292D01*
X119687133Y-103481143D01*
X119687461Y-103479978D01*
X119687832Y-103478798D01*
X119688248Y-103477605D01*
X119688709Y-103476401D01*
X119689217Y-103475189D01*
X119689773Y-103473970D01*
X119690378Y-103472747D01*
X119691032Y-103471522D01*
X119692426Y-103469073D01*
X119693889Y-103466633D01*
X119695421Y-103464209D01*
X119697021Y-103461812D01*
X119698690Y-103459450D01*
X119700427Y-103457131D01*
X119702231Y-103454864D01*
X119704103Y-103452658D01*
X119706284Y-103450511D01*
X119708464Y-103448442D01*
X119710642Y-103446459D01*
X119712820Y-103444571D01*
X119714998Y-103442786D01*
X119717177Y-103441112D01*
X119718267Y-103440320D01*
X119719357Y-103439558D01*
X119720447Y-103438828D01*
X119721539Y-103438132D01*
X119723956Y-103436841D01*
X119725139Y-103436249D01*
X119726306Y-103435693D01*
X119727455Y-103435176D01*
X119728588Y-103434697D01*
X119729704Y-103434259D01*
X119730802Y-103433862D01*
X119731884Y-103433508D01*
X119732949Y-103433197D01*
X119733996Y-103432931D01*
X119735026Y-103432711D01*
X119736039Y-103432538D01*
X119737035Y-103432413D01*
X119738014Y-103432337D01*
X119738975Y-103432311D01*
X119952441Y-103432311D01*
X119953532Y-103432329D01*
G37*
G36*
X120494095Y-103981216D02*
G01*
X120221813Y-103981216D01*
X120221813Y-103979761D01*
X120221813Y-103979734D01*
X120220730Y-103979709D01*
X120219661Y-103979634D01*
X120218602Y-103979510D01*
X120217552Y-103979338D01*
X120216506Y-103979120D01*
X120215461Y-103978855D01*
X120214415Y-103978546D01*
X120213363Y-103978193D01*
X120212303Y-103977797D01*
X120211231Y-103977360D01*
X120210144Y-103976881D01*
X120209040Y-103976363D01*
X120207914Y-103975806D01*
X120206763Y-103975212D01*
X120204377Y-103973913D01*
X120203160Y-103973213D01*
X120201960Y-103972480D01*
X120200776Y-103971716D01*
X120199610Y-103970922D01*
X120198460Y-103970099D01*
X120197328Y-103969248D01*
X120196212Y-103968369D01*
X120195113Y-103967464D01*
X120194031Y-103966534D01*
X120192967Y-103965579D01*
X120191919Y-103964601D01*
X120190889Y-103963600D01*
X120189876Y-103962577D01*
X120188880Y-103961533D01*
X120187902Y-103960470D01*
X120186940Y-103959388D01*
X120185874Y-103958288D01*
X120184856Y-103957173D01*
X120183883Y-103956043D01*
X120182952Y-103954900D01*
X120182060Y-103953744D01*
X120181203Y-103952577D01*
X120180378Y-103951400D01*
X120179582Y-103950213D01*
X120178064Y-103947817D01*
X120176623Y-103945398D01*
X120175234Y-103942964D01*
X120173870Y-103940523D01*
X120173216Y-103939302D01*
X120172611Y-103938081D01*
X120172055Y-103936862D01*
X120171547Y-103935644D01*
X120171086Y-103934431D01*
X120170670Y-103933222D01*
X120170298Y-103932019D01*
X120169971Y-103930823D01*
X120169685Y-103929635D01*
X120169442Y-103928457D01*
X120169238Y-103927290D01*
X120169074Y-103926135D01*
X120168948Y-103924993D01*
X120168860Y-103923865D01*
X120168807Y-103922753D01*
X120168790Y-103921658D01*
X120168790Y-103841066D01*
X120168790Y-103764099D01*
X120290817Y-103764099D01*
X120290817Y-103841066D01*
X120373578Y-103841066D01*
X120373578Y-103764099D01*
X120290817Y-103764099D01*
X120168790Y-103764099D01*
X120168790Y-103759733D01*
X120168841Y-103757425D01*
X120168995Y-103755136D01*
X120169250Y-103752866D01*
X120169608Y-103750616D01*
X120170068Y-103748388D01*
X120170630Y-103746183D01*
X120171295Y-103744001D01*
X120172061Y-103741844D01*
X120172929Y-103739713D01*
X120173900Y-103737608D01*
X120174972Y-103735531D01*
X120176146Y-103733484D01*
X120177422Y-103731466D01*
X120178800Y-103729479D01*
X120180279Y-103727524D01*
X120181860Y-103725602D01*
X120183493Y-103723731D01*
X120185126Y-103721929D01*
X120186759Y-103720196D01*
X120188393Y-103718535D01*
X120190027Y-103716945D01*
X120191662Y-103715429D01*
X120193296Y-103713987D01*
X120194931Y-103712621D01*
X120196566Y-103711331D01*
X120198200Y-103710119D01*
X120199835Y-103708986D01*
X120201469Y-103707932D01*
X120203103Y-103706960D01*
X120204736Y-103706070D01*
X120206369Y-103705263D01*
X120208002Y-103704541D01*
X120207440Y-103704516D01*
X120206846Y-103704441D01*
X120206223Y-103704317D01*
X120205573Y-103704145D01*
X120204898Y-103703926D01*
X120204199Y-103703662D01*
X120203479Y-103703353D01*
X120202740Y-103703000D01*
X120201984Y-103702604D01*
X120201213Y-103702167D01*
X120200429Y-103701688D01*
X120199634Y-103701170D01*
X120198830Y-103700613D01*
X120198020Y-103700019D01*
X120197204Y-103699387D01*
X120196386Y-103698720D01*
X120195442Y-103698032D01*
X120194515Y-103697325D01*
X120193605Y-103696599D01*
X120192711Y-103695852D01*
X120191834Y-103695084D01*
X120190974Y-103694294D01*
X120190132Y-103693480D01*
X120189306Y-103692641D01*
X120188497Y-103691778D01*
X120187705Y-103690888D01*
X120186931Y-103689970D01*
X120186173Y-103689024D01*
X120185433Y-103688049D01*
X120184710Y-103687043D01*
X120184005Y-103686005D01*
X120183316Y-103684935D01*
X120181958Y-103682964D01*
X120180609Y-103680864D01*
X120179276Y-103678646D01*
X120177968Y-103676317D01*
X120176694Y-103673886D01*
X120175462Y-103671362D01*
X120174280Y-103668754D01*
X120173156Y-103666071D01*
X120172133Y-103663384D01*
X120171672Y-103662063D01*
X120171246Y-103660756D01*
X120170853Y-103659462D01*
X120170495Y-103658179D01*
X120170171Y-103656906D01*
X120169881Y-103655643D01*
X120169626Y-103654388D01*
X120169404Y-103653140D01*
X120169216Y-103651899D01*
X120169063Y-103650663D01*
X120168943Y-103649431D01*
X120168858Y-103648203D01*
X120168807Y-103646976D01*
X120168800Y-103646465D01*
X120168790Y-103645751D01*
X120168790Y-103569498D01*
X120290076Y-103569498D01*
X120290076Y-103646465D01*
X120372837Y-103646465D01*
X120372837Y-103569498D01*
X120290076Y-103569498D01*
X120168790Y-103569498D01*
X120168790Y-103487477D01*
X120168807Y-103486508D01*
X120168860Y-103485507D01*
X120168948Y-103484476D01*
X120169074Y-103483417D01*
X120169238Y-103482333D01*
X120169442Y-103481225D01*
X120169686Y-103480096D01*
X120169971Y-103478948D01*
X120170299Y-103477782D01*
X120170670Y-103476602D01*
X120171086Y-103475409D01*
X120171547Y-103474205D01*
X120172055Y-103472993D01*
X120172611Y-103471774D01*
X120173216Y-103470552D01*
X120173870Y-103469327D01*
X120175264Y-103466877D01*
X120176727Y-103464437D01*
X120178259Y-103462014D01*
X120179859Y-103459616D01*
X120181528Y-103457254D01*
X120183264Y-103454935D01*
X120185069Y-103452668D01*
X120186940Y-103450462D01*
X120189122Y-103448315D01*
X120191302Y-103446246D01*
X120193480Y-103444264D01*
X120195658Y-103442375D01*
X120197836Y-103440590D01*
X120200015Y-103438916D01*
X120201105Y-103438124D01*
X120202195Y-103437362D01*
X120203286Y-103436633D01*
X120204377Y-103435936D01*
X120206794Y-103434645D01*
X120207977Y-103434053D01*
X120209144Y-103433497D01*
X120210293Y-103432980D01*
X120211426Y-103432501D01*
X120212542Y-103432063D01*
X120213640Y-103431666D01*
X120214722Y-103431312D01*
X120215786Y-103431001D01*
X120216834Y-103430735D01*
X120217864Y-103430515D01*
X120218877Y-103430342D01*
X120219873Y-103430217D01*
X120220852Y-103430141D01*
X120221813Y-103430115D01*
X120494095Y-103430115D01*
X120494095Y-103981216D01*
G37*
G36*
X122504586Y-102882666D02*
G01*
X122691196Y-102882666D01*
X122691196Y-103022075D01*
X122436324Y-103022075D01*
X122436327Y-103022072D01*
X122436330Y-103022068D01*
X122436333Y-103022065D01*
X122436336Y-103022062D01*
X122436342Y-103022055D01*
X122436346Y-103022052D01*
X122436348Y-103022048D01*
X122435257Y-103022031D01*
X122434167Y-103021977D01*
X122433077Y-103021885D01*
X122431987Y-103021753D01*
X122430898Y-103021578D01*
X122429809Y-103021358D01*
X122428720Y-103021091D01*
X122427631Y-103020775D01*
X122426542Y-103020408D01*
X122425453Y-103019988D01*
X122424364Y-103019512D01*
X122423275Y-103018979D01*
X122422185Y-103018386D01*
X122421095Y-103017731D01*
X122420004Y-103017012D01*
X122418913Y-103016228D01*
X122417822Y-103015531D01*
X122416733Y-103014801D01*
X122415646Y-103014040D01*
X122414563Y-103013247D01*
X122413485Y-103012425D01*
X122412412Y-103011573D01*
X122411346Y-103010694D01*
X122410288Y-103009788D01*
X122409238Y-103008857D01*
X122408198Y-103007900D01*
X122407169Y-103006920D01*
X122406151Y-103005918D01*
X122405146Y-103004893D01*
X122404155Y-103003849D01*
X122403179Y-103002784D01*
X122402218Y-103001702D01*
X122401283Y-103000602D01*
X122400379Y-102999487D01*
X122399504Y-102998357D01*
X122398658Y-102997214D01*
X122397837Y-102996058D01*
X122397039Y-102994891D01*
X122395504Y-102992527D01*
X122394037Y-102990132D01*
X122392619Y-102987712D01*
X122389863Y-102982837D01*
X122389204Y-102981616D01*
X122388596Y-102980395D01*
X122388038Y-102979176D01*
X122387529Y-102977958D01*
X122387067Y-102976745D01*
X122386651Y-102975536D01*
X122386280Y-102974333D01*
X122385953Y-102973137D01*
X122385670Y-102971949D01*
X122385427Y-102970771D01*
X122385225Y-102969604D01*
X122385063Y-102968449D01*
X122384938Y-102967307D01*
X122384851Y-102966180D01*
X122384799Y-102965068D01*
X122384782Y-102963972D01*
X122384782Y-102470974D01*
X122504586Y-102470974D01*
X122504586Y-102882666D01*
G37*
G36*
X122823732Y-104388533D02*
G01*
X122824825Y-104388587D01*
X122825922Y-104388679D01*
X122827024Y-104388811D01*
X122828136Y-104388986D01*
X122829257Y-104389206D01*
X122830391Y-104389473D01*
X122831540Y-104389789D01*
X122832706Y-104390156D01*
X122833892Y-104390576D01*
X122835098Y-104391052D01*
X122836329Y-104391585D01*
X122837585Y-104392178D01*
X122838869Y-104392833D01*
X122840184Y-104393552D01*
X122841531Y-104394336D01*
X122842757Y-104395033D01*
X122843981Y-104395763D01*
X122845203Y-104396524D01*
X122846422Y-104397317D01*
X122847636Y-104398139D01*
X122848846Y-104398991D01*
X122851245Y-104400776D01*
X122853610Y-104402664D01*
X122855934Y-104404646D01*
X122858208Y-104406715D01*
X122860423Y-104408862D01*
X122862569Y-104411047D01*
X122864638Y-104413246D01*
X122865641Y-104414357D01*
X122866621Y-104415478D01*
X122867577Y-104416611D01*
X122868509Y-104417759D01*
X122869415Y-104418923D01*
X122870294Y-104420107D01*
X122871145Y-104421311D01*
X122871968Y-104422539D01*
X122872760Y-104423793D01*
X122873522Y-104425073D01*
X122874252Y-104426384D01*
X122874948Y-104427727D01*
X122875611Y-104428952D01*
X122876239Y-104430176D01*
X122876831Y-104431398D01*
X122877387Y-104432617D01*
X122877904Y-104433831D01*
X122878383Y-104435040D01*
X122878821Y-104436242D01*
X122879218Y-104437437D01*
X122879572Y-104438623D01*
X122879883Y-104439799D01*
X122880149Y-104440965D01*
X122880369Y-104442118D01*
X122880543Y-104443259D01*
X122880668Y-104444385D01*
X122880744Y-104445496D01*
X122880769Y-104446591D01*
X122880769Y-104656433D01*
X122880744Y-104657931D01*
X122880670Y-104659429D01*
X122880550Y-104660927D01*
X122880385Y-104662425D01*
X122880177Y-104663924D01*
X122879929Y-104665422D01*
X122879643Y-104666920D01*
X122879320Y-104668418D01*
X122878575Y-104671415D01*
X122877710Y-104674411D01*
X122876743Y-104677407D01*
X122875689Y-104680404D01*
X122875127Y-104681893D01*
X122874532Y-104683364D01*
X122873906Y-104684816D01*
X122873249Y-104686247D01*
X122872562Y-104687657D01*
X122871847Y-104689044D01*
X122871104Y-104690408D01*
X122870335Y-104691748D01*
X122869539Y-104693062D01*
X122868719Y-104694350D01*
X122867875Y-104695610D01*
X122867009Y-104696842D01*
X122866120Y-104698044D01*
X122865211Y-104699216D01*
X122864281Y-104700357D01*
X122863333Y-104701465D01*
X122862372Y-104702673D01*
X122861392Y-104703847D01*
X122860393Y-104704987D01*
X122859374Y-104706093D01*
X122858333Y-104707165D01*
X122857270Y-104708203D01*
X122856183Y-104709207D01*
X122855072Y-104710176D01*
X122853936Y-104711112D01*
X122852773Y-104712013D01*
X122851582Y-104712880D01*
X122850363Y-104713713D01*
X122849115Y-104714512D01*
X122847836Y-104715277D01*
X122846526Y-104716008D01*
X122845183Y-104716705D01*
X122843823Y-104717368D01*
X122842463Y-104717996D01*
X122841103Y-104718588D01*
X122839742Y-104719144D01*
X122838380Y-104719661D01*
X122837019Y-104720140D01*
X122835657Y-104720578D01*
X122834295Y-104720975D01*
X122832934Y-104721329D01*
X122831572Y-104721640D01*
X122830211Y-104721906D01*
X122828849Y-104722126D01*
X122827489Y-104722299D01*
X122826128Y-104722424D01*
X122824768Y-104722500D01*
X122823409Y-104722526D01*
X122677464Y-104722526D01*
X122677464Y-104798752D01*
X122759512Y-104798752D01*
X122759512Y-104744301D01*
X122880029Y-104786422D01*
X122880029Y-104880085D01*
X122880012Y-104881185D01*
X122879960Y-104882300D01*
X122879871Y-104883430D01*
X122879745Y-104884573D01*
X122879581Y-104885729D01*
X122879378Y-104886896D01*
X122879134Y-104888073D01*
X122878848Y-104889260D01*
X122878521Y-104890454D01*
X122878149Y-104891655D01*
X122877734Y-104892863D01*
X122877272Y-104894075D01*
X122876764Y-104895291D01*
X122876208Y-104896509D01*
X122875603Y-104897729D01*
X122874949Y-104898950D01*
X122873555Y-104901391D01*
X122872092Y-104903828D01*
X122870561Y-104906251D01*
X122868960Y-104908650D01*
X122867291Y-104911015D01*
X122865555Y-104913338D01*
X122863750Y-104915607D01*
X122861879Y-104917814D01*
X122860918Y-104918892D01*
X122859941Y-104919953D01*
X122858948Y-104920996D01*
X122857942Y-104922019D01*
X122856923Y-104923021D01*
X122855892Y-104924001D01*
X122854850Y-104924958D01*
X122853799Y-104925891D01*
X122852740Y-104926798D01*
X122851673Y-104927679D01*
X122850600Y-104928532D01*
X122849523Y-104929356D01*
X122848441Y-104930150D01*
X122847357Y-104930913D01*
X122846270Y-104931643D01*
X122845184Y-104932340D01*
X122844097Y-104933003D01*
X122843010Y-104933631D01*
X122841922Y-104934223D01*
X122840834Y-104934779D01*
X122839745Y-104935296D01*
X122838655Y-104935775D01*
X122837566Y-104936213D01*
X122836476Y-104936610D01*
X122835386Y-104936964D01*
X122834295Y-104937275D01*
X122833204Y-104937541D01*
X122832113Y-104937761D01*
X122831022Y-104937934D01*
X122829931Y-104938059D01*
X122828839Y-104938135D01*
X122827748Y-104938161D01*
X122614282Y-104938161D01*
X122613191Y-104938143D01*
X122612098Y-104938090D01*
X122611001Y-104937998D01*
X122609898Y-104937865D01*
X122608787Y-104937690D01*
X122607666Y-104937470D01*
X122606532Y-104937203D01*
X122605383Y-104936888D01*
X122604217Y-104936521D01*
X122603031Y-104936100D01*
X122601824Y-104935625D01*
X122600594Y-104935091D01*
X122599338Y-104934498D01*
X122598053Y-104933844D01*
X122596738Y-104933125D01*
X122595391Y-104932340D01*
X122594166Y-104931644D01*
X122592942Y-104930914D01*
X122591720Y-104930152D01*
X122590501Y-104929360D01*
X122589286Y-104928537D01*
X122588077Y-104927686D01*
X122585678Y-104925901D01*
X122583312Y-104924013D01*
X122580988Y-104922030D01*
X122578715Y-104919961D01*
X122576500Y-104917814D01*
X122574353Y-104915599D01*
X122572284Y-104913326D01*
X122570302Y-104911004D01*
X122569345Y-104909826D01*
X122568414Y-104908640D01*
X122567508Y-104907445D01*
X122566628Y-104906244D01*
X122565777Y-104905037D01*
X122564954Y-104903824D01*
X122564162Y-104902609D01*
X122563400Y-104901390D01*
X122562671Y-104900170D01*
X122561974Y-104898950D01*
X122561311Y-104897729D01*
X122560683Y-104896508D01*
X122560091Y-104895288D01*
X122559535Y-104894071D01*
X122559017Y-104892857D01*
X122558539Y-104891648D01*
X122558101Y-104890445D01*
X122557704Y-104889250D01*
X122557350Y-104888062D01*
X122557039Y-104886884D01*
X122556773Y-104885717D01*
X122556553Y-104884562D01*
X122556380Y-104883420D01*
X122556255Y-104882292D01*
X122556179Y-104881180D01*
X122556154Y-104880085D01*
X122556154Y-104672440D01*
X122556179Y-104670942D01*
X122556253Y-104669444D01*
X122556373Y-104667945D01*
X122556538Y-104666447D01*
X122556746Y-104664949D01*
X122556994Y-104663451D01*
X122557280Y-104661953D01*
X122557602Y-104660454D01*
X122558347Y-104657458D01*
X122559212Y-104654462D01*
X122560179Y-104651465D01*
X122561233Y-104648469D01*
X122561795Y-104646979D01*
X122562390Y-104645507D01*
X122563016Y-104644052D01*
X122563673Y-104642615D01*
X122564360Y-104641194D01*
X122565075Y-104639791D01*
X122565818Y-104638405D01*
X122566587Y-104637036D01*
X122568203Y-104634348D01*
X122569913Y-104631729D01*
X122571711Y-104629178D01*
X122573589Y-104626694D01*
X122574550Y-104625611D01*
X122575530Y-104624546D01*
X122576529Y-104623498D01*
X122577549Y-104622467D01*
X122578589Y-104621454D01*
X122579653Y-104620458D01*
X122580739Y-104619479D01*
X122581850Y-104618518D01*
X122582987Y-104617574D01*
X122584150Y-104616648D01*
X122585340Y-104615739D01*
X122586559Y-104614847D01*
X122587807Y-104613973D01*
X122589086Y-104613116D01*
X122590396Y-104612276D01*
X122591739Y-104611454D01*
X122593099Y-104610791D01*
X122594459Y-104610163D01*
X122595820Y-104609570D01*
X122597181Y-104609015D01*
X122598542Y-104608497D01*
X122599904Y-104608019D01*
X122601265Y-104607581D01*
X122602627Y-104607184D01*
X122603989Y-104606830D01*
X122605351Y-104606519D01*
X122606712Y-104606253D01*
X122608073Y-104606033D01*
X122609434Y-104605859D01*
X122610795Y-104605734D01*
X122612155Y-104605658D01*
X122613514Y-104605633D01*
X122759459Y-104605633D01*
X122758744Y-104604918D01*
X122758718Y-104604892D01*
X122758718Y-104527210D01*
X122676671Y-104527210D01*
X122676671Y-104581661D01*
X122556152Y-104539540D01*
X122556152Y-104445877D01*
X122556169Y-104444908D01*
X122556222Y-104443907D01*
X122556310Y-104442876D01*
X122556436Y-104441817D01*
X122556600Y-104440733D01*
X122556804Y-104439625D01*
X122557048Y-104438496D01*
X122557333Y-104437348D01*
X122557661Y-104436182D01*
X122558032Y-104435002D01*
X122558448Y-104433809D01*
X122558909Y-104432605D01*
X122559418Y-104431393D01*
X122559973Y-104430175D01*
X122560578Y-104428952D01*
X122561232Y-104427727D01*
X122562626Y-104425277D01*
X122564089Y-104422837D01*
X122565621Y-104420414D01*
X122567222Y-104418016D01*
X122568890Y-104415654D01*
X122570627Y-104413335D01*
X122572431Y-104411068D01*
X122574302Y-104408862D01*
X122576484Y-104406715D01*
X122578664Y-104404646D01*
X122580843Y-104402664D01*
X122583021Y-104400776D01*
X122585199Y-104398991D01*
X122587377Y-104397317D01*
X122588467Y-104396524D01*
X122589557Y-104395763D01*
X122590647Y-104395033D01*
X122591738Y-104394336D01*
X122594156Y-104393046D01*
X122595339Y-104392453D01*
X122596505Y-104391898D01*
X122597655Y-104391380D01*
X122598788Y-104390902D01*
X122599903Y-104390464D01*
X122601002Y-104390067D01*
X122602084Y-104389712D01*
X122603148Y-104389402D01*
X122604196Y-104389135D01*
X122605226Y-104388915D01*
X122606239Y-104388742D01*
X122607235Y-104388617D01*
X122608213Y-104388541D01*
X122609174Y-104388515D01*
X122822640Y-104388515D01*
X122823732Y-104388533D01*
G37*
G36*
X119472150Y-103430847D02*
G01*
X119473243Y-103430901D01*
X119474340Y-103430993D01*
X119475443Y-103431125D01*
X119476554Y-103431300D01*
X119477675Y-103431520D01*
X119478809Y-103431787D01*
X119479958Y-103432103D01*
X119481124Y-103432470D01*
X119482310Y-103432890D01*
X119483516Y-103433366D01*
X119484747Y-103433899D01*
X119486003Y-103434492D01*
X119487288Y-103435147D01*
X119488602Y-103435866D01*
X119489950Y-103436650D01*
X119491175Y-103437347D01*
X119492399Y-103438076D01*
X119493621Y-103438838D01*
X119494840Y-103439631D01*
X119496055Y-103440453D01*
X119497264Y-103441305D01*
X119499663Y-103443090D01*
X119502029Y-103444978D01*
X119504352Y-103446960D01*
X119506626Y-103449029D01*
X119508841Y-103451176D01*
X119510987Y-103453361D01*
X119513056Y-103455560D01*
X119514059Y-103456671D01*
X119515039Y-103457791D01*
X119515995Y-103458925D01*
X119516927Y-103460073D01*
X119517833Y-103461237D01*
X119518712Y-103462421D01*
X119519563Y-103463626D01*
X119520386Y-103464853D01*
X119521178Y-103466107D01*
X119521940Y-103467388D01*
X119522670Y-103468698D01*
X119523366Y-103470041D01*
X119524029Y-103471266D01*
X119524657Y-103472490D01*
X119525249Y-103473712D01*
X119525805Y-103474931D01*
X119526322Y-103476145D01*
X119526801Y-103477354D01*
X119527239Y-103478556D01*
X119527636Y-103479751D01*
X119527990Y-103480937D01*
X119528301Y-103482114D01*
X119528567Y-103483279D01*
X119528787Y-103484433D01*
X119528960Y-103485573D01*
X119529085Y-103486699D01*
X119529161Y-103487811D01*
X119529187Y-103488906D01*
X119529187Y-103981189D01*
X119529134Y-103981189D01*
X119407876Y-103981189D01*
X119407876Y-103764813D01*
X119322918Y-103764813D01*
X119322918Y-103981189D01*
X119204569Y-103981189D01*
X119204569Y-103646465D01*
X119204569Y-103569498D01*
X119327283Y-103569498D01*
X119327283Y-103646465D01*
X119407876Y-103646465D01*
X119407876Y-103569498D01*
X119327283Y-103569498D01*
X119204569Y-103569498D01*
X119204569Y-103488191D01*
X119204587Y-103487222D01*
X119204639Y-103486221D01*
X119204728Y-103485190D01*
X119204853Y-103484131D01*
X119205018Y-103483047D01*
X119205221Y-103481939D01*
X119205465Y-103480810D01*
X119205750Y-103479662D01*
X119206078Y-103478497D01*
X119206449Y-103477316D01*
X119206865Y-103476123D01*
X119207327Y-103474920D01*
X119207835Y-103473707D01*
X119208390Y-103472489D01*
X119208995Y-103471266D01*
X119209649Y-103470041D01*
X119211043Y-103467592D01*
X119212506Y-103465151D01*
X119214038Y-103462728D01*
X119215638Y-103460331D01*
X119217307Y-103457968D01*
X119219044Y-103455649D01*
X119220848Y-103453382D01*
X119222720Y-103451176D01*
X119224901Y-103449029D01*
X119227081Y-103446961D01*
X119229260Y-103444978D01*
X119231438Y-103443090D01*
X119233616Y-103441305D01*
X119235794Y-103439631D01*
X119236884Y-103438838D01*
X119237974Y-103438077D01*
X119239065Y-103437347D01*
X119240156Y-103436650D01*
X119242573Y-103435360D01*
X119243757Y-103434767D01*
X119244923Y-103434212D01*
X119246073Y-103433694D01*
X119247205Y-103433216D01*
X119248321Y-103432778D01*
X119249420Y-103432381D01*
X119250501Y-103432026D01*
X119251566Y-103431716D01*
X119252613Y-103431450D01*
X119253644Y-103431229D01*
X119254657Y-103431056D01*
X119255652Y-103430931D01*
X119256631Y-103430855D01*
X119257592Y-103430830D01*
X119471058Y-103430830D01*
X119472150Y-103430847D01*
G37*
G36*
X117817014Y-104800234D02*
G01*
X117900517Y-104800234D01*
X117900517Y-104388542D01*
X118020320Y-104388542D01*
X118020320Y-104880826D01*
X118020303Y-104881917D01*
X118020249Y-104883010D01*
X118020157Y-104884107D01*
X118020025Y-104885209D01*
X118019850Y-104886320D01*
X118019630Y-104887441D01*
X118019363Y-104888574D01*
X118019047Y-104889722D01*
X118018680Y-104890887D01*
X118018260Y-104892070D01*
X118017784Y-104893275D01*
X118017251Y-104894503D01*
X118016658Y-104895756D01*
X118016003Y-104897037D01*
X118015284Y-104898348D01*
X118014500Y-104899690D01*
X118013803Y-104900915D01*
X118013074Y-104902139D01*
X118012312Y-104903361D01*
X118011519Y-104904580D01*
X118010697Y-104905794D01*
X118009846Y-104907003D01*
X118008060Y-104909400D01*
X118006172Y-104911763D01*
X118004190Y-104914082D01*
X118002121Y-104916349D01*
X117999974Y-104918555D01*
X117997759Y-104920694D01*
X117995486Y-104922759D01*
X117993164Y-104924741D01*
X117990800Y-104926631D01*
X117989605Y-104927539D01*
X117988404Y-104928419D01*
X117987197Y-104929272D01*
X117985984Y-104930097D01*
X117984769Y-104930891D01*
X117983550Y-104931653D01*
X117982330Y-104932384D01*
X117981109Y-104933081D01*
X117979888Y-104933743D01*
X117978668Y-104934372D01*
X117977448Y-104934964D01*
X117976231Y-104935519D01*
X117975017Y-104936037D01*
X117973808Y-104936515D01*
X117972605Y-104936954D01*
X117971409Y-104937350D01*
X117970222Y-104937705D01*
X117969044Y-104938015D01*
X117967877Y-104938282D01*
X117966721Y-104938502D01*
X117965579Y-104938675D01*
X117964452Y-104938800D01*
X117963340Y-104938876D01*
X117962245Y-104938901D01*
X117962959Y-104939616D01*
X117749520Y-104939616D01*
X117748437Y-104939591D01*
X117747368Y-104939516D01*
X117746309Y-104939392D01*
X117745259Y-104939220D01*
X117744213Y-104939002D01*
X117743168Y-104938737D01*
X117742121Y-104938428D01*
X117741070Y-104938075D01*
X117740009Y-104937679D01*
X117738938Y-104937242D01*
X117737851Y-104936763D01*
X117736746Y-104936245D01*
X117735621Y-104935688D01*
X117734470Y-104935094D01*
X117732083Y-104933795D01*
X117730866Y-104933094D01*
X117729666Y-104932361D01*
X117728483Y-104931598D01*
X117727316Y-104930804D01*
X117726167Y-104929981D01*
X117725034Y-104929129D01*
X117723918Y-104928251D01*
X117722820Y-104927346D01*
X117721738Y-104926416D01*
X117720674Y-104925461D01*
X117719626Y-104924482D01*
X117718596Y-104923481D01*
X117717583Y-104922459D01*
X117716587Y-104921415D01*
X117715609Y-104920352D01*
X117714647Y-104919270D01*
X117713581Y-104918170D01*
X117712563Y-104917055D01*
X117711590Y-104915925D01*
X117710659Y-104914781D01*
X117709767Y-104913626D01*
X117708910Y-104912459D01*
X117708085Y-104911281D01*
X117707289Y-104910095D01*
X117705771Y-104907699D01*
X117704330Y-104905280D01*
X117702940Y-104902845D01*
X117701577Y-104900405D01*
X117700922Y-104899184D01*
X117700318Y-104897963D01*
X117699762Y-104896744D01*
X117699254Y-104895526D01*
X117698792Y-104894312D01*
X117698377Y-104893103D01*
X117698005Y-104891900D01*
X117697678Y-104890705D01*
X117697392Y-104889517D01*
X117697148Y-104888339D01*
X117696945Y-104887172D01*
X117696781Y-104886017D01*
X117696655Y-104884875D01*
X117696567Y-104883747D01*
X117696514Y-104882635D01*
X117696497Y-104881540D01*
X117696497Y-104388542D01*
X117817014Y-104388542D01*
X117817014Y-104800234D01*
G37*
G36*
X115294663Y-102736695D02*
G01*
X115333134Y-102470948D01*
X115455107Y-102470948D01*
X115358534Y-103022048D01*
X115230767Y-103022048D01*
X115230766Y-103022048D01*
X115130569Y-102470948D01*
X115252542Y-102470948D01*
X115294663Y-102736695D01*
G37*
G36*
X126463890Y-103690756D02*
G01*
X126391288Y-103690756D01*
X126391288Y-103763358D01*
X126100855Y-103763358D01*
X126100855Y-103690756D01*
X126028254Y-103690756D01*
X126028253Y-103690756D01*
X126028253Y-103618155D01*
X126028253Y-103472951D01*
X126100854Y-103472951D01*
X126100854Y-103618155D01*
X126391287Y-103618155D01*
X126391287Y-103472951D01*
X126100854Y-103472951D01*
X126028253Y-103472951D01*
X126028253Y-103327722D01*
X126463890Y-103327722D01*
X126463890Y-103690756D01*
G37*
G36*
X119046323Y-103981242D02*
G01*
X118925065Y-103981242D01*
X118925065Y-103764866D01*
X118843017Y-103764866D01*
X118843017Y-103981242D01*
X118722499Y-103981242D01*
X118721044Y-103980528D01*
X118721017Y-103980475D01*
X118721017Y-103759760D01*
X118721069Y-103757452D01*
X118721222Y-103755162D01*
X118721478Y-103752892D01*
X118721836Y-103750643D01*
X118722296Y-103748415D01*
X118722858Y-103746209D01*
X118723522Y-103744028D01*
X118724288Y-103741871D01*
X118725157Y-103739739D01*
X118726127Y-103737635D01*
X118727199Y-103735558D01*
X118728373Y-103733510D01*
X118729649Y-103731492D01*
X118731027Y-103729505D01*
X118732507Y-103727550D01*
X118734088Y-103725628D01*
X118735720Y-103723757D01*
X118737353Y-103721955D01*
X118738987Y-103720223D01*
X118740621Y-103718561D01*
X118742255Y-103716972D01*
X118743889Y-103715456D01*
X118745524Y-103714014D01*
X118747158Y-103712647D01*
X118748793Y-103711357D01*
X118750428Y-103710145D01*
X118752062Y-103709012D01*
X118753696Y-103707959D01*
X118755330Y-103706987D01*
X118756964Y-103706097D01*
X118758597Y-103705290D01*
X118760229Y-103704568D01*
X118759667Y-103704542D01*
X118759073Y-103704467D01*
X118758451Y-103704343D01*
X118757800Y-103704172D01*
X118757125Y-103703953D01*
X118756426Y-103703689D01*
X118755706Y-103703379D01*
X118754967Y-103703026D01*
X118754211Y-103702631D01*
X118753440Y-103702193D01*
X118752656Y-103701715D01*
X118751861Y-103701197D01*
X118751058Y-103700640D01*
X118750247Y-103700045D01*
X118749432Y-103699414D01*
X118748614Y-103698747D01*
X118747670Y-103698058D01*
X118746742Y-103697351D01*
X118745832Y-103696625D01*
X118744938Y-103695879D01*
X118744062Y-103695111D01*
X118743202Y-103694320D01*
X118742359Y-103693506D01*
X118741533Y-103692668D01*
X118740724Y-103691804D01*
X118739933Y-103690914D01*
X118739158Y-103689997D01*
X118738400Y-103689051D01*
X118737660Y-103688075D01*
X118736937Y-103687069D01*
X118736232Y-103686032D01*
X118735543Y-103684962D01*
X118734185Y-103682990D01*
X118732836Y-103680891D01*
X118731503Y-103678672D01*
X118730195Y-103676343D01*
X118728921Y-103673913D01*
X118727689Y-103671389D01*
X118726507Y-103668781D01*
X118725383Y-103666097D01*
X118724360Y-103663411D01*
X118723899Y-103662090D01*
X118723473Y-103660783D01*
X118723081Y-103659488D01*
X118722723Y-103658205D01*
X118722399Y-103656932D01*
X118722109Y-103655669D01*
X118721853Y-103654414D01*
X118721631Y-103653167D01*
X118721444Y-103651926D01*
X118721290Y-103650690D01*
X118721171Y-103649458D01*
X118721086Y-103648229D01*
X118721034Y-103647003D01*
X118721027Y-103646465D01*
X118721017Y-103645777D01*
X118721017Y-103569498D01*
X118842990Y-103569498D01*
X118842990Y-103646465D01*
X118925037Y-103646465D01*
X118925037Y-103569498D01*
X118842990Y-103569498D01*
X118721017Y-103569498D01*
X118721017Y-103487504D01*
X118721035Y-103486534D01*
X118721087Y-103485533D01*
X118721176Y-103484502D01*
X118721301Y-103483443D01*
X118721466Y-103482359D01*
X118721669Y-103481251D01*
X118721913Y-103480122D01*
X118722198Y-103478974D01*
X118722526Y-103477809D01*
X118722897Y-103476628D01*
X118723313Y-103475435D01*
X118723774Y-103474232D01*
X118724282Y-103473020D01*
X118724838Y-103471801D01*
X118725443Y-103470578D01*
X118726097Y-103469353D01*
X118727491Y-103466904D01*
X118728954Y-103464463D01*
X118730486Y-103462040D01*
X118732087Y-103459643D01*
X118733755Y-103457280D01*
X118735492Y-103454961D01*
X118737296Y-103452694D01*
X118739168Y-103450488D01*
X118741349Y-103448342D01*
X118743529Y-103446273D01*
X118745708Y-103444290D01*
X118747886Y-103442402D01*
X118750064Y-103440617D01*
X118752242Y-103438943D01*
X118753332Y-103438150D01*
X118754422Y-103437389D01*
X118755513Y-103436659D01*
X118756604Y-103435963D01*
X118759021Y-103434672D01*
X118760205Y-103434079D01*
X118761371Y-103433524D01*
X118762521Y-103433006D01*
X118763653Y-103432528D01*
X118764769Y-103432090D01*
X118765868Y-103431693D01*
X118766949Y-103431339D01*
X118768014Y-103431028D01*
X118769061Y-103430762D01*
X118770092Y-103430542D01*
X118771105Y-103430368D01*
X118772101Y-103430243D01*
X118773079Y-103430167D01*
X118774040Y-103430142D01*
X119046323Y-103430142D01*
X119046323Y-103981242D01*
G37*
G36*
X126318686Y-102746882D02*
G01*
X126391287Y-102746882D01*
X126391287Y-102456449D01*
X126463889Y-102456449D01*
X126463889Y-102892085D01*
X126173456Y-102892085D01*
X126173456Y-102601652D01*
X126100854Y-102601652D01*
X126100854Y-102892085D01*
X126028253Y-102892085D01*
X126028253Y-102456449D01*
X126318686Y-102456449D01*
X126318686Y-102746882D01*
G37*
G36*
X116059944Y-102674254D02*
G01*
X116059944Y-102470948D01*
X116181202Y-102470948D01*
X116181202Y-103022048D01*
X116180488Y-103021334D01*
X116059230Y-103021334D01*
X116059230Y-102817314D01*
X115980807Y-103021334D01*
X115858093Y-103021334D01*
X115955380Y-102746141D01*
X115858093Y-102470948D01*
X115982262Y-102470948D01*
X116059944Y-102674254D01*
G37*
G36*
X126463890Y-104925091D02*
G01*
X126028253Y-104925091D01*
X126028253Y-104852489D01*
X126028253Y-104707286D01*
X126173482Y-104707286D01*
X126173482Y-104852489D01*
X126318686Y-104852489D01*
X126318686Y-104707286D01*
X126173482Y-104707286D01*
X126028253Y-104707286D01*
X126028253Y-104707259D01*
X126100854Y-104707259D01*
X126100854Y-104634657D01*
X126028253Y-104634657D01*
X126028253Y-104562056D01*
X126173482Y-104562056D01*
X126173482Y-104634657D01*
X126318686Y-104634657D01*
X126318686Y-104562056D01*
X126173482Y-104562056D01*
X126028253Y-104562056D01*
X126028253Y-104489454D01*
X126463890Y-104489454D01*
X126463890Y-104925091D01*
G37*
G36*
X117628288Y-103022075D02*
G01*
X117356005Y-103022075D01*
X117356005Y-103020620D01*
X117356005Y-103020593D01*
X117354922Y-103020568D01*
X117353853Y-103020493D01*
X117352795Y-103020369D01*
X117351744Y-103020197D01*
X117350698Y-103019979D01*
X117349654Y-103019714D01*
X117348607Y-103019405D01*
X117347555Y-103019052D01*
X117346495Y-103018656D01*
X117345423Y-103018219D01*
X117344336Y-103017740D01*
X117343232Y-103017222D01*
X117342106Y-103016665D01*
X117340956Y-103016071D01*
X117338569Y-103014772D01*
X117337352Y-103014072D01*
X117336152Y-103013339D01*
X117334968Y-103012575D01*
X117333802Y-103011781D01*
X117332652Y-103010958D01*
X117331520Y-103010107D01*
X117330404Y-103009228D01*
X117329305Y-103008323D01*
X117328224Y-103007393D01*
X117327159Y-103006438D01*
X117326112Y-103005460D01*
X117325081Y-103004459D01*
X117324068Y-103003436D01*
X117323072Y-103002392D01*
X117322094Y-103001329D01*
X117321133Y-103000247D01*
X117320067Y-102999147D01*
X117319049Y-102998032D01*
X117318076Y-102996902D01*
X117317145Y-102995759D01*
X117316252Y-102994603D01*
X117315395Y-102993436D01*
X117314570Y-102992259D01*
X117313774Y-102991072D01*
X117312256Y-102988676D01*
X117310815Y-102986257D01*
X117309426Y-102983823D01*
X117308062Y-102981382D01*
X117307408Y-102980161D01*
X117306803Y-102978940D01*
X117306247Y-102977721D01*
X117305739Y-102976503D01*
X117305278Y-102975290D01*
X117304862Y-102974081D01*
X117304491Y-102972878D01*
X117304163Y-102971682D01*
X117303878Y-102970494D01*
X117303634Y-102969316D01*
X117303430Y-102968149D01*
X117303266Y-102966994D01*
X117303141Y-102965852D01*
X117303052Y-102964724D01*
X117303000Y-102963612D01*
X117302982Y-102962517D01*
X117302982Y-102882639D01*
X117302982Y-102805672D01*
X117424983Y-102805672D01*
X117424983Y-102882639D01*
X117507744Y-102882639D01*
X117507744Y-102805672D01*
X117424983Y-102805672D01*
X117302982Y-102805672D01*
X117302982Y-102800592D01*
X117303034Y-102798284D01*
X117303187Y-102795995D01*
X117303443Y-102793725D01*
X117303801Y-102791475D01*
X117304261Y-102789247D01*
X117304823Y-102787042D01*
X117305487Y-102784860D01*
X117306253Y-102782703D01*
X117307122Y-102780572D01*
X117308092Y-102778467D01*
X117309164Y-102776390D01*
X117310338Y-102774343D01*
X117311614Y-102772325D01*
X117312992Y-102770338D01*
X117314472Y-102768383D01*
X117316053Y-102766461D01*
X117317685Y-102764590D01*
X117319318Y-102762788D01*
X117320952Y-102761055D01*
X117322586Y-102759394D01*
X117324220Y-102757804D01*
X117325854Y-102756288D01*
X117327489Y-102754846D01*
X117329123Y-102753480D01*
X117330758Y-102752190D01*
X117332393Y-102750978D01*
X117334027Y-102749845D01*
X117335661Y-102748791D01*
X117337295Y-102747819D01*
X117338929Y-102746929D01*
X117340562Y-102746122D01*
X117342194Y-102745400D01*
X117341632Y-102745375D01*
X117341038Y-102745300D01*
X117340416Y-102745176D01*
X117339765Y-102745004D01*
X117339090Y-102744785D01*
X117338391Y-102744521D01*
X117337671Y-102744212D01*
X117336932Y-102743859D01*
X117336176Y-102743463D01*
X117335405Y-102743026D01*
X117334621Y-102742547D01*
X117333826Y-102742029D01*
X117333023Y-102741472D01*
X117332212Y-102740878D01*
X117331397Y-102740246D01*
X117330579Y-102739579D01*
X117329635Y-102738891D01*
X117328707Y-102738184D01*
X117327797Y-102737458D01*
X117326903Y-102736711D01*
X117326027Y-102735943D01*
X117325167Y-102735153D01*
X117324324Y-102734339D01*
X117323498Y-102733500D01*
X117322689Y-102732637D01*
X117321897Y-102731747D01*
X117321123Y-102730829D01*
X117320365Y-102729883D01*
X117319625Y-102728908D01*
X117318902Y-102727902D01*
X117318197Y-102726864D01*
X117317508Y-102725794D01*
X117316150Y-102723823D01*
X117314801Y-102721723D01*
X117313468Y-102719505D01*
X117312160Y-102717176D01*
X117310886Y-102714745D01*
X117309654Y-102712221D01*
X117308472Y-102709613D01*
X117307348Y-102706930D01*
X117306325Y-102704243D01*
X117305864Y-102702922D01*
X117305438Y-102701615D01*
X117305046Y-102700321D01*
X117304688Y-102699038D01*
X117304364Y-102697765D01*
X117304074Y-102696502D01*
X117303818Y-102695247D01*
X117303596Y-102693999D01*
X117303409Y-102692758D01*
X117303255Y-102691522D01*
X117303136Y-102690290D01*
X117303051Y-102689062D01*
X117303009Y-102688065D01*
X117302999Y-102687835D01*
X117302982Y-102686610D01*
X117302982Y-102611098D01*
X117424982Y-102611098D01*
X117424982Y-102688065D01*
X117507744Y-102688065D01*
X117507744Y-102611098D01*
X117424982Y-102611098D01*
X117302982Y-102611098D01*
X117302982Y-102528336D01*
X117303000Y-102527367D01*
X117303052Y-102526365D01*
X117303141Y-102525334D01*
X117303266Y-102524276D01*
X117303431Y-102523191D01*
X117303634Y-102522084D01*
X117303878Y-102520955D01*
X117304163Y-102519806D01*
X117304491Y-102518641D01*
X117304862Y-102517461D01*
X117305278Y-102516268D01*
X117305739Y-102515064D01*
X117306247Y-102513852D01*
X117306803Y-102512633D01*
X117307408Y-102511410D01*
X117308062Y-102510185D01*
X117309456Y-102507736D01*
X117310919Y-102505296D01*
X117312451Y-102502872D01*
X117314051Y-102500475D01*
X117315720Y-102498113D01*
X117317457Y-102495794D01*
X117319261Y-102493527D01*
X117321133Y-102491321D01*
X117323314Y-102489174D01*
X117325494Y-102487105D01*
X117327673Y-102485122D01*
X117329851Y-102483234D01*
X117332029Y-102481449D01*
X117334207Y-102479775D01*
X117335297Y-102478983D01*
X117336387Y-102478221D01*
X117337478Y-102477492D01*
X117338569Y-102476795D01*
X117340986Y-102475504D01*
X117342169Y-102474912D01*
X117343336Y-102474356D01*
X117344486Y-102473839D01*
X117345618Y-102473360D01*
X117346734Y-102472922D01*
X117347833Y-102472525D01*
X117348914Y-102472171D01*
X117349979Y-102471860D01*
X117351026Y-102471594D01*
X117352057Y-102471374D01*
X117353070Y-102471201D01*
X117354065Y-102471076D01*
X117355044Y-102471000D01*
X117356005Y-102470974D01*
X117628288Y-102470974D01*
X117628288Y-103022075D01*
G37*
G36*
X113992093Y-103022048D02*
G01*
X113870835Y-103022048D01*
X113870835Y-102882639D01*
X113992093Y-102882639D01*
X113992093Y-103022048D01*
G37*
G36*
X120996540Y-102611098D02*
G01*
X120894887Y-102611098D01*
X120894887Y-103022789D01*
X120774369Y-103022789D01*
X120774369Y-102611098D01*
X120672717Y-102611098D01*
X120672716Y-102611098D01*
X120672716Y-102471689D01*
X120996540Y-102471689D01*
X120996540Y-102611098D01*
G37*
G36*
X124721343Y-104925091D02*
G01*
X124721317Y-104925091D01*
X124576113Y-104925091D01*
X124576113Y-104562056D01*
X124430910Y-104562056D01*
X124430910Y-104925091D01*
X124285706Y-104925091D01*
X124285706Y-104489454D01*
X124721343Y-104489454D01*
X124721343Y-104925091D01*
G37*
G36*
X116605601Y-102473161D02*
G01*
X116606694Y-102473215D01*
X116607791Y-102473307D01*
X116608893Y-102473440D01*
X116610004Y-102473615D01*
X116611125Y-102473835D01*
X116612258Y-102474101D01*
X116613406Y-102474417D01*
X116614570Y-102474784D01*
X116615754Y-102475205D01*
X116616959Y-102475680D01*
X116618186Y-102476213D01*
X116619440Y-102476806D01*
X116620721Y-102477461D01*
X116622031Y-102478180D01*
X116623374Y-102478965D01*
X116624599Y-102479661D01*
X116625823Y-102480391D01*
X116627045Y-102481152D01*
X116628264Y-102481945D01*
X116629478Y-102482768D01*
X116630687Y-102483619D01*
X116633084Y-102485404D01*
X116635447Y-102487292D01*
X116637766Y-102489275D01*
X116640033Y-102491344D01*
X116642239Y-102493490D01*
X116644378Y-102495675D01*
X116646443Y-102497874D01*
X116648425Y-102500106D01*
X116649382Y-102501239D01*
X116650315Y-102502387D01*
X116651222Y-102503552D01*
X116652103Y-102504735D01*
X116652956Y-102505940D01*
X116653780Y-102507168D01*
X116654574Y-102508421D01*
X116655337Y-102509702D01*
X116656068Y-102511013D01*
X116656765Y-102512355D01*
X116657427Y-102513580D01*
X116658055Y-102514804D01*
X116658648Y-102516026D01*
X116659203Y-102517245D01*
X116659721Y-102518459D01*
X116660199Y-102519668D01*
X116660637Y-102520871D01*
X116661034Y-102522065D01*
X116661388Y-102523251D01*
X116661699Y-102524428D01*
X116661965Y-102525593D01*
X116662185Y-102526747D01*
X116662359Y-102527887D01*
X116662484Y-102529014D01*
X116662560Y-102530125D01*
X116662585Y-102531220D01*
X116662585Y-102963972D01*
X116662568Y-102965064D01*
X116662514Y-102966157D01*
X116662422Y-102967254D01*
X116662290Y-102968356D01*
X116662115Y-102969467D01*
X116661895Y-102970588D01*
X116661628Y-102971721D01*
X116661312Y-102972869D01*
X116660945Y-102974034D01*
X116660525Y-102975217D01*
X116660049Y-102976422D01*
X116659516Y-102977650D01*
X116658923Y-102978903D01*
X116658268Y-102980184D01*
X116657549Y-102981495D01*
X116656765Y-102982837D01*
X116656068Y-102984062D01*
X116655338Y-102985287D01*
X116654577Y-102986508D01*
X116653784Y-102987727D01*
X116652962Y-102988941D01*
X116652110Y-102990150D01*
X116650325Y-102992547D01*
X116648437Y-102994910D01*
X116646454Y-102997229D01*
X116644385Y-102999496D01*
X116642239Y-103001702D01*
X116640024Y-103003841D01*
X116637751Y-103005906D01*
X116635428Y-103007889D01*
X116633064Y-103009778D01*
X116631870Y-103010686D01*
X116630668Y-103011567D01*
X116629461Y-103012420D01*
X116628249Y-103013244D01*
X116627033Y-103014038D01*
X116625815Y-103014801D01*
X116624595Y-103015531D01*
X116623374Y-103016228D01*
X116622153Y-103016890D01*
X116620932Y-103017519D01*
X116619713Y-103018111D01*
X116618495Y-103018666D01*
X116617282Y-103019184D01*
X116616073Y-103019662D01*
X116614870Y-103020101D01*
X116613674Y-103020497D01*
X116612486Y-103020852D01*
X116611308Y-103021162D01*
X116610141Y-103021429D01*
X116608986Y-103021649D01*
X116607844Y-103021822D01*
X116606717Y-103021947D01*
X116605605Y-103022023D01*
X116604509Y-103022048D01*
X116604509Y-103022763D01*
X116391043Y-103022763D01*
X116389960Y-103022738D01*
X116388891Y-103022663D01*
X116387833Y-103022539D01*
X116386782Y-103022367D01*
X116385737Y-103022148D01*
X116384692Y-103021884D01*
X116383645Y-103021575D01*
X116382593Y-103021222D01*
X116381533Y-103020826D01*
X116380461Y-103020388D01*
X116379375Y-103019910D01*
X116378270Y-103019392D01*
X116377145Y-103018835D01*
X116375994Y-103018240D01*
X116373607Y-103016942D01*
X116372390Y-103016241D01*
X116371190Y-103015508D01*
X116370007Y-103014745D01*
X116368840Y-103013951D01*
X116367691Y-103013128D01*
X116366558Y-103012276D01*
X116365443Y-103011398D01*
X116364344Y-103010493D01*
X116363262Y-103009563D01*
X116362198Y-103008608D01*
X116361150Y-103007629D01*
X116360120Y-103006628D01*
X116359107Y-103005606D01*
X116358111Y-103004562D01*
X116357133Y-103003499D01*
X116356171Y-103002416D01*
X116355105Y-103001317D01*
X116354087Y-103000202D01*
X116353114Y-102999072D01*
X116352183Y-102997928D01*
X116351291Y-102996773D01*
X116350434Y-102995606D01*
X116349609Y-102994428D01*
X116348813Y-102993242D01*
X116347295Y-102990846D01*
X116345854Y-102988427D01*
X116344465Y-102985992D01*
X116343101Y-102983552D01*
X116342447Y-102982331D01*
X116341842Y-102981110D01*
X116341286Y-102979890D01*
X116340778Y-102978673D01*
X116340317Y-102977459D01*
X116339901Y-102976250D01*
X116339529Y-102975047D01*
X116339202Y-102973851D01*
X116338916Y-102972664D01*
X116338672Y-102971486D01*
X116338469Y-102970319D01*
X116338305Y-102969164D01*
X116338179Y-102968022D01*
X116338090Y-102966894D01*
X116338038Y-102965782D01*
X116338021Y-102964687D01*
X116338021Y-102882639D01*
X116338021Y-102611098D01*
X116460020Y-102611098D01*
X116460020Y-102882639D01*
X116542782Y-102882639D01*
X116542782Y-102611098D01*
X116460020Y-102611098D01*
X116338021Y-102611098D01*
X116338021Y-102530506D01*
X116338038Y-102529536D01*
X116338090Y-102528535D01*
X116338179Y-102527504D01*
X116338305Y-102526445D01*
X116338469Y-102525361D01*
X116338672Y-102524253D01*
X116338916Y-102523124D01*
X116339202Y-102521976D01*
X116339529Y-102520811D01*
X116339901Y-102519631D01*
X116340317Y-102518437D01*
X116340778Y-102517234D01*
X116341286Y-102516022D01*
X116341842Y-102514803D01*
X116342447Y-102513580D01*
X116343101Y-102512355D01*
X116344495Y-102509906D01*
X116345958Y-102507465D01*
X116347490Y-102505042D01*
X116349091Y-102502645D01*
X116350759Y-102500282D01*
X116352496Y-102497963D01*
X116354300Y-102495697D01*
X116356171Y-102493490D01*
X116358353Y-102491344D01*
X116360533Y-102489275D01*
X116362712Y-102487292D01*
X116364890Y-102485404D01*
X116367067Y-102483619D01*
X116369246Y-102481945D01*
X116370336Y-102481152D01*
X116371426Y-102480391D01*
X116372516Y-102479661D01*
X116373607Y-102478965D01*
X116376025Y-102477674D01*
X116377208Y-102477082D01*
X116378375Y-102476526D01*
X116379524Y-102476008D01*
X116380657Y-102475530D01*
X116381773Y-102475092D01*
X116382871Y-102474695D01*
X116383953Y-102474341D01*
X116385017Y-102474030D01*
X116386065Y-102473764D01*
X116387095Y-102473544D01*
X116388108Y-102473370D01*
X116389104Y-102473245D01*
X116390082Y-102473169D01*
X116391043Y-102473144D01*
X116604509Y-102473144D01*
X116605601Y-102473161D01*
G37*
G36*
X120261025Y-103022789D02*
G01*
X120139766Y-103022789D01*
X120139766Y-102820939D01*
X120011258Y-102820939D01*
X120011258Y-102688065D01*
X120139766Y-102688065D01*
X120139766Y-102611098D01*
X119953156Y-102611098D01*
X119953156Y-102471689D01*
X120261025Y-102471689D01*
X120261025Y-103022789D01*
G37*
G36*
X113768467Y-102610357D02*
G01*
X113711846Y-102610357D01*
X113711846Y-103022048D01*
X113591329Y-103022048D01*
X113591329Y-102470948D01*
X113768467Y-102470948D01*
X113768467Y-102610357D01*
G37*
G36*
X122397879Y-104938902D02*
G01*
X122275907Y-104938902D01*
X122275907Y-104387801D01*
X122397879Y-104387801D01*
X122397879Y-104938902D01*
G37*
G36*
X114102121Y-104390015D02*
G01*
X114103237Y-104390069D01*
X114104367Y-104390161D01*
X114105510Y-104390293D01*
X114106666Y-104390468D01*
X114107833Y-104390688D01*
X114109010Y-104390955D01*
X114110196Y-104391271D01*
X114111391Y-104391638D01*
X114112592Y-104392058D01*
X114113800Y-104392534D01*
X114115012Y-104393067D01*
X114116228Y-104393660D01*
X114117446Y-104394315D01*
X114118666Y-104395033D01*
X114119887Y-104395818D01*
X114121238Y-104396515D01*
X114122572Y-104397244D01*
X114123889Y-104398006D01*
X114125190Y-104398798D01*
X114126474Y-104399621D01*
X114127741Y-104400472D01*
X114128992Y-104401352D01*
X114130225Y-104402258D01*
X114131442Y-104403189D01*
X114132642Y-104404146D01*
X114133826Y-104405126D01*
X114134993Y-104406128D01*
X114137276Y-104408197D01*
X114139492Y-104410344D01*
X114141639Y-104412559D01*
X114143708Y-104414832D01*
X114145691Y-104417155D01*
X114146647Y-104418332D01*
X114147579Y-104419518D01*
X114148485Y-104420713D01*
X114149364Y-104421914D01*
X114150215Y-104423122D01*
X114151038Y-104424334D01*
X114151830Y-104425550D01*
X114152592Y-104426768D01*
X114153321Y-104427988D01*
X114154018Y-104429209D01*
X114154681Y-104430430D01*
X114155309Y-104431650D01*
X114155901Y-104432870D01*
X114156457Y-104434087D01*
X114156974Y-104435301D01*
X114157453Y-104436510D01*
X114157891Y-104437713D01*
X114158288Y-104438909D01*
X114158642Y-104440096D01*
X114158953Y-104441274D01*
X114159219Y-104442441D01*
X114159439Y-104443597D01*
X114159612Y-104444739D01*
X114159737Y-104445866D01*
X114159813Y-104446978D01*
X114159839Y-104448073D01*
X114159839Y-104880826D01*
X114159813Y-104881925D01*
X114159738Y-104883041D01*
X114159614Y-104884171D01*
X114159443Y-104885314D01*
X114159224Y-104886470D01*
X114158960Y-104887637D01*
X114158651Y-104888814D01*
X114158298Y-104890000D01*
X114157902Y-104891195D01*
X114157464Y-104892396D01*
X114156986Y-104893604D01*
X114156468Y-104894816D01*
X114155911Y-104896032D01*
X114155316Y-104897250D01*
X114154685Y-104898470D01*
X114154018Y-104899691D01*
X114153317Y-104900911D01*
X114152584Y-104902132D01*
X114151820Y-104903352D01*
X114151027Y-104904569D01*
X114149352Y-104906992D01*
X114147569Y-104909391D01*
X114145684Y-104911756D01*
X114143704Y-104914078D01*
X114141638Y-104916348D01*
X114139492Y-104918555D01*
X114137071Y-104920672D01*
X114134691Y-104922667D01*
X114132329Y-104924558D01*
X114129957Y-104926364D01*
X114127553Y-104928101D01*
X114125089Y-104929788D01*
X114122542Y-104931442D01*
X114119887Y-104933081D01*
X114118661Y-104933744D01*
X114117437Y-104934372D01*
X114116215Y-104934964D01*
X114114997Y-104935520D01*
X114113783Y-104936037D01*
X114112574Y-104936515D01*
X114111371Y-104936954D01*
X114110176Y-104937351D01*
X114108990Y-104937705D01*
X114107814Y-104938016D01*
X114106649Y-104938282D01*
X114105495Y-104938502D01*
X114104354Y-104938675D01*
X114103228Y-104938800D01*
X114102117Y-104938876D01*
X114101022Y-104938902D01*
X113887556Y-104938902D01*
X113886465Y-104938884D01*
X113885374Y-104938831D01*
X113884284Y-104938739D01*
X113883195Y-104938606D01*
X113882105Y-104938431D01*
X113881016Y-104938211D01*
X113879927Y-104937944D01*
X113878838Y-104937628D01*
X113877749Y-104937261D01*
X113876660Y-104936841D01*
X113875571Y-104936365D01*
X113874482Y-104935832D01*
X113873392Y-104935239D01*
X113872302Y-104934584D01*
X113871211Y-104933866D01*
X113870120Y-104933081D01*
X113868903Y-104932384D01*
X113867703Y-104931655D01*
X113866520Y-104930893D01*
X113865353Y-104930101D01*
X113864203Y-104929278D01*
X113863071Y-104928427D01*
X113861955Y-104927548D01*
X113860856Y-104926642D01*
X113859775Y-104925710D01*
X113858710Y-104924753D01*
X113857663Y-104923773D01*
X113856633Y-104922771D01*
X113855620Y-104921747D01*
X113854624Y-104920702D01*
X113853645Y-104919638D01*
X113852684Y-104918555D01*
X113851618Y-104917456D01*
X113850600Y-104916340D01*
X113849627Y-104915210D01*
X113848696Y-104914067D01*
X113847803Y-104912911D01*
X113846946Y-104911744D01*
X113846121Y-104910567D01*
X113845325Y-104909381D01*
X113843807Y-104906985D01*
X113842367Y-104904565D01*
X113840977Y-104902131D01*
X113839614Y-104899691D01*
X113838959Y-104898470D01*
X113838355Y-104897249D01*
X113837799Y-104896029D01*
X113837291Y-104894812D01*
X113836829Y-104893598D01*
X113836413Y-104892389D01*
X113836042Y-104891186D01*
X113835714Y-104889990D01*
X113835429Y-104888803D01*
X113835185Y-104887625D01*
X113834982Y-104886458D01*
X113834818Y-104885303D01*
X113834692Y-104884161D01*
X113834603Y-104883033D01*
X113834551Y-104881921D01*
X113834534Y-104880826D01*
X113834534Y-104799493D01*
X113834534Y-104723266D01*
X113955051Y-104723266D01*
X113955051Y-104799493D01*
X114037099Y-104799493D01*
X114037099Y-104723266D01*
X113955051Y-104723266D01*
X113834534Y-104723266D01*
X113834534Y-104609257D01*
X114037099Y-104609257D01*
X114037099Y-104528665D01*
X113955051Y-104528665D01*
X113955051Y-104583858D01*
X113834534Y-104541022D01*
X113834534Y-104447359D01*
X113834551Y-104446390D01*
X113834603Y-104445389D01*
X113834692Y-104444358D01*
X113834818Y-104443299D01*
X113834982Y-104442215D01*
X113835185Y-104441107D01*
X113835429Y-104439978D01*
X113835714Y-104438829D01*
X113836042Y-104437664D01*
X113836413Y-104436484D01*
X113836829Y-104435291D01*
X113837291Y-104434087D01*
X113837799Y-104432875D01*
X113838355Y-104431657D01*
X113838959Y-104430434D01*
X113839614Y-104429209D01*
X113841008Y-104426759D01*
X113842471Y-104424319D01*
X113844003Y-104421896D01*
X113845603Y-104419498D01*
X113847272Y-104417136D01*
X113849008Y-104414817D01*
X113850813Y-104412550D01*
X113852684Y-104410344D01*
X113854866Y-104408197D01*
X113857046Y-104406128D01*
X113859224Y-104404146D01*
X113861402Y-104402258D01*
X113863580Y-104400472D01*
X113865759Y-104398799D01*
X113866848Y-104398006D01*
X113867938Y-104397244D01*
X113869029Y-104396515D01*
X113870120Y-104395818D01*
X113872537Y-104394527D01*
X113873721Y-104393935D01*
X113874887Y-104393380D01*
X113876037Y-104392862D01*
X113877169Y-104392384D01*
X113878285Y-104391945D01*
X113879384Y-104391549D01*
X113880465Y-104391194D01*
X113881530Y-104390883D01*
X113882577Y-104390617D01*
X113883608Y-104390397D01*
X113884621Y-104390224D01*
X113885616Y-104390099D01*
X113886595Y-104390023D01*
X113887556Y-104389997D01*
X114101022Y-104389997D01*
X114102121Y-104390015D01*
G37*
G36*
X126463890Y-104344224D02*
G01*
X126391288Y-104344224D01*
X126391288Y-104053791D01*
X126246085Y-104053791D01*
X126246085Y-104271623D01*
X126173483Y-104271623D01*
X126173483Y-104053791D01*
X126100882Y-104053791D01*
X126100882Y-104344224D01*
X126028281Y-104344224D01*
X126028253Y-104344224D01*
X126028253Y-103908588D01*
X126463890Y-103908588D01*
X126463890Y-104344224D01*
G37*
G36*
X117018370Y-103980475D02*
G01*
X116897112Y-103980475D01*
X116897112Y-103841066D01*
X117018370Y-103841066D01*
X117018370Y-103980475D01*
G37*
G36*
X121635482Y-104938901D02*
G01*
X121635482Y-104938902D01*
X121326898Y-104938902D01*
X121326898Y-104799493D01*
X121513508Y-104799493D01*
X121513508Y-104723266D01*
X121385001Y-104723266D01*
X121385001Y-104604177D01*
X121513508Y-104604177D01*
X121513508Y-104527210D01*
X121326898Y-104527210D01*
X121326898Y-104387801D01*
X121635482Y-104387801D01*
X121635482Y-104938901D01*
G37*
G36*
X119737156Y-102473161D02*
G01*
X119738249Y-102473215D01*
X119739346Y-102473307D01*
X119740449Y-102473440D01*
X119741560Y-102473615D01*
X119742681Y-102473835D01*
X119743815Y-102474101D01*
X119744964Y-102474417D01*
X119746130Y-102474784D01*
X119747316Y-102475205D01*
X119748523Y-102475680D01*
X119749753Y-102476213D01*
X119751009Y-102476806D01*
X119752294Y-102477461D01*
X119753609Y-102478180D01*
X119754956Y-102478965D01*
X119756181Y-102479661D01*
X119757405Y-102480391D01*
X119758627Y-102481152D01*
X119759846Y-102481945D01*
X119761061Y-102482768D01*
X119762270Y-102483619D01*
X119764669Y-102485404D01*
X119767035Y-102487292D01*
X119769359Y-102489275D01*
X119771632Y-102491344D01*
X119773847Y-102493490D01*
X119775994Y-102495675D01*
X119778062Y-102497874D01*
X119779065Y-102498985D01*
X119780045Y-102500106D01*
X119781002Y-102501239D01*
X119781933Y-102502387D01*
X119782839Y-102503552D01*
X119783718Y-102504735D01*
X119784570Y-102505940D01*
X119785392Y-102507168D01*
X119786185Y-102508421D01*
X119786947Y-102509702D01*
X119787676Y-102511013D01*
X119788373Y-102512355D01*
X119789035Y-102513580D01*
X119789663Y-102514804D01*
X119790256Y-102516026D01*
X119790811Y-102517245D01*
X119791329Y-102518459D01*
X119791807Y-102519668D01*
X119792245Y-102520871D01*
X119792642Y-102522065D01*
X119792996Y-102523251D01*
X119793307Y-102524428D01*
X119793573Y-102525593D01*
X119793793Y-102526747D01*
X119793966Y-102527887D01*
X119794091Y-102529014D01*
X119794167Y-102530125D01*
X119794193Y-102531220D01*
X119794193Y-102963972D01*
X119794175Y-102965064D01*
X119794122Y-102966157D01*
X119794030Y-102967254D01*
X119793897Y-102968356D01*
X119793722Y-102969467D01*
X119793502Y-102970588D01*
X119793235Y-102971721D01*
X119792920Y-102972869D01*
X119792553Y-102974034D01*
X119792132Y-102975217D01*
X119791657Y-102976422D01*
X119791123Y-102977650D01*
X119790531Y-102978903D01*
X119789876Y-102980184D01*
X119789157Y-102981495D01*
X119788373Y-102982837D01*
X119787676Y-102984062D01*
X119786946Y-102985287D01*
X119786185Y-102986508D01*
X119785392Y-102987727D01*
X119784570Y-102988941D01*
X119783718Y-102990150D01*
X119781933Y-102992547D01*
X119780045Y-102994910D01*
X119778062Y-102997229D01*
X119775994Y-102999496D01*
X119773847Y-103001702D01*
X119771632Y-103003841D01*
X119769359Y-103005906D01*
X119767035Y-103007889D01*
X119765857Y-103008846D01*
X119764669Y-103009778D01*
X119763473Y-103010686D01*
X119762270Y-103011567D01*
X119761061Y-103012420D01*
X119759846Y-103013244D01*
X119758627Y-103014038D01*
X119757405Y-103014801D01*
X119756181Y-103015531D01*
X119754956Y-103016228D01*
X119753731Y-103016890D01*
X119752507Y-103017519D01*
X119751285Y-103018111D01*
X119750066Y-103018666D01*
X119748851Y-103019184D01*
X119747641Y-103019662D01*
X119746438Y-103020101D01*
X119745242Y-103020497D01*
X119744055Y-103020852D01*
X119742877Y-103021162D01*
X119741709Y-103021429D01*
X119740553Y-103021649D01*
X119739409Y-103021822D01*
X119738279Y-103021947D01*
X119737164Y-103022023D01*
X119736064Y-103022048D01*
X119736064Y-103022763D01*
X119522599Y-103022763D01*
X119521516Y-103022738D01*
X119520446Y-103022663D01*
X119519388Y-103022539D01*
X119518338Y-103022367D01*
X119517292Y-103022148D01*
X119516247Y-103021884D01*
X119515200Y-103021575D01*
X119514148Y-103021222D01*
X119513088Y-103020826D01*
X119512016Y-103020388D01*
X119510930Y-103019910D01*
X119509825Y-103019392D01*
X119508699Y-103018835D01*
X119507549Y-103018240D01*
X119505162Y-103016942D01*
X119503945Y-103016241D01*
X119502745Y-103015508D01*
X119501562Y-103014745D01*
X119500395Y-103013951D01*
X119499246Y-103013128D01*
X119498113Y-103012276D01*
X119496997Y-103011398D01*
X119495899Y-103010493D01*
X119494817Y-103009563D01*
X119493753Y-103008608D01*
X119492705Y-103007629D01*
X119491675Y-103006628D01*
X119490662Y-103005606D01*
X119489666Y-103004562D01*
X119488687Y-103003499D01*
X119487726Y-103002416D01*
X119486660Y-103001317D01*
X119485642Y-103000202D01*
X119484669Y-102999072D01*
X119483738Y-102997928D01*
X119482846Y-102996773D01*
X119481988Y-102995606D01*
X119481164Y-102994428D01*
X119480368Y-102993242D01*
X119478849Y-102990846D01*
X119477409Y-102988427D01*
X119476019Y-102985992D01*
X119474656Y-102983552D01*
X119474001Y-102982331D01*
X119473397Y-102981110D01*
X119472841Y-102979890D01*
X119472333Y-102978673D01*
X119471871Y-102977459D01*
X119471455Y-102976250D01*
X119471084Y-102975047D01*
X119470756Y-102973851D01*
X119470471Y-102972664D01*
X119470227Y-102971486D01*
X119470024Y-102970319D01*
X119469860Y-102969164D01*
X119469734Y-102968022D01*
X119469646Y-102966894D01*
X119469593Y-102965782D01*
X119469576Y-102964687D01*
X119469576Y-102882639D01*
X119469576Y-102611098D01*
X119591576Y-102611098D01*
X119591576Y-102882639D01*
X119674337Y-102882639D01*
X119674337Y-102611098D01*
X119591576Y-102611098D01*
X119469576Y-102611098D01*
X119469576Y-102530506D01*
X119469593Y-102529536D01*
X119469646Y-102528535D01*
X119469734Y-102527504D01*
X119469860Y-102526445D01*
X119470024Y-102525361D01*
X119470228Y-102524253D01*
X119470471Y-102523124D01*
X119470757Y-102521976D01*
X119471084Y-102520811D01*
X119471456Y-102519631D01*
X119471871Y-102518437D01*
X119472333Y-102517234D01*
X119472841Y-102516022D01*
X119473397Y-102514803D01*
X119474001Y-102513580D01*
X119474656Y-102512355D01*
X119476050Y-102509906D01*
X119477513Y-102507465D01*
X119479044Y-102505042D01*
X119480645Y-102502645D01*
X119482314Y-102500282D01*
X119484050Y-102497963D01*
X119485855Y-102495697D01*
X119487726Y-102493490D01*
X119489908Y-102491344D01*
X119492087Y-102489275D01*
X119494266Y-102487292D01*
X119496444Y-102485404D01*
X119498622Y-102483619D01*
X119500801Y-102481945D01*
X119501890Y-102481152D01*
X119502980Y-102480391D01*
X119504071Y-102479661D01*
X119505162Y-102478965D01*
X119507579Y-102477674D01*
X119508763Y-102477082D01*
X119509929Y-102476526D01*
X119511079Y-102476008D01*
X119512212Y-102475530D01*
X119513327Y-102475092D01*
X119514426Y-102474695D01*
X119515508Y-102474341D01*
X119516572Y-102474030D01*
X119517620Y-102473764D01*
X119518650Y-102473544D01*
X119519663Y-102473370D01*
X119520659Y-102473245D01*
X119521637Y-102473169D01*
X119522599Y-102473144D01*
X119736064Y-102473144D01*
X119737156Y-102473161D01*
G37*
G36*
X121742189Y-102693118D02*
G01*
X121840217Y-102471662D01*
X121946235Y-102471662D01*
X121946235Y-103022763D01*
X121824976Y-103022763D01*
X121824976Y-102800592D01*
X121726948Y-103022763D01*
X121621671Y-103022763D01*
X121621671Y-102471662D01*
X121742189Y-102471662D01*
X121742189Y-102693118D01*
G37*
G36*
X118564199Y-103981216D02*
G01*
X118291916Y-103981216D01*
X118291916Y-103979761D01*
X118291916Y-103979734D01*
X118290833Y-103979709D01*
X118289764Y-103979634D01*
X118288705Y-103979510D01*
X118287655Y-103979338D01*
X118286609Y-103979120D01*
X118285564Y-103978855D01*
X118284518Y-103978546D01*
X118283466Y-103978193D01*
X118282406Y-103977797D01*
X118281334Y-103977360D01*
X118280247Y-103976881D01*
X118279143Y-103976363D01*
X118278017Y-103975806D01*
X118276866Y-103975212D01*
X118274479Y-103973913D01*
X118273262Y-103973213D01*
X118272062Y-103972480D01*
X118270879Y-103971716D01*
X118269712Y-103970922D01*
X118268563Y-103970099D01*
X118267430Y-103969248D01*
X118266315Y-103968369D01*
X118265216Y-103967464D01*
X118264134Y-103966534D01*
X118263070Y-103965579D01*
X118262022Y-103964601D01*
X118260992Y-103963600D01*
X118259979Y-103962577D01*
X118258983Y-103961533D01*
X118258005Y-103960470D01*
X118257043Y-103959388D01*
X118255977Y-103958288D01*
X118254959Y-103957173D01*
X118253986Y-103956043D01*
X118253055Y-103954900D01*
X118252163Y-103953744D01*
X118251306Y-103952577D01*
X118250481Y-103951400D01*
X118249685Y-103950213D01*
X118248167Y-103947817D01*
X118246726Y-103945398D01*
X118245336Y-103942964D01*
X118243973Y-103940523D01*
X118243318Y-103939302D01*
X118242714Y-103938081D01*
X118242158Y-103936862D01*
X118241650Y-103935644D01*
X118241188Y-103934431D01*
X118240773Y-103933222D01*
X118240401Y-103932019D01*
X118240074Y-103930823D01*
X118239788Y-103929635D01*
X118239545Y-103928457D01*
X118239341Y-103927290D01*
X118239177Y-103926135D01*
X118239051Y-103924993D01*
X118238963Y-103923865D01*
X118238910Y-103922753D01*
X118238893Y-103921658D01*
X118238893Y-103841040D01*
X118238893Y-103569498D01*
X118360893Y-103569498D01*
X118360893Y-103841040D01*
X118444395Y-103841040D01*
X118444395Y-103569498D01*
X118360893Y-103569498D01*
X118238893Y-103569498D01*
X118238893Y-103487477D01*
X118238910Y-103486508D01*
X118238963Y-103485507D01*
X118239051Y-103484476D01*
X118239177Y-103483417D01*
X118239341Y-103482333D01*
X118239545Y-103481225D01*
X118239789Y-103480096D01*
X118240074Y-103478947D01*
X118240402Y-103477782D01*
X118240773Y-103476602D01*
X118241189Y-103475409D01*
X118241650Y-103474205D01*
X118242158Y-103472993D01*
X118242714Y-103471774D01*
X118243318Y-103470551D01*
X118243973Y-103469326D01*
X118245367Y-103466877D01*
X118246830Y-103464437D01*
X118248362Y-103462013D01*
X118249962Y-103459616D01*
X118251631Y-103457254D01*
X118253368Y-103454935D01*
X118255172Y-103452668D01*
X118257043Y-103450462D01*
X118259225Y-103448315D01*
X118261405Y-103446246D01*
X118263583Y-103444263D01*
X118265761Y-103442375D01*
X118267939Y-103440590D01*
X118270118Y-103438916D01*
X118271208Y-103438124D01*
X118272298Y-103437362D01*
X118273388Y-103436632D01*
X118274479Y-103435936D01*
X118276897Y-103434645D01*
X118278080Y-103434053D01*
X118279247Y-103433497D01*
X118280396Y-103432980D01*
X118281529Y-103432501D01*
X118282645Y-103432063D01*
X118283743Y-103431666D01*
X118284825Y-103431312D01*
X118285890Y-103431001D01*
X118286937Y-103430735D01*
X118287967Y-103430515D01*
X118288980Y-103430342D01*
X118289976Y-103430217D01*
X118290955Y-103430141D01*
X118291916Y-103430115D01*
X118564199Y-103430115D01*
X118564199Y-103981216D01*
G37*
G36*
X123347619Y-104356719D02*
G01*
X123357036Y-104357148D01*
X123366371Y-104357883D01*
X123375612Y-104358942D01*
X123384753Y-104360340D01*
X123393782Y-104362094D01*
X123402691Y-104364222D01*
X123407097Y-104365431D01*
X123411470Y-104366740D01*
X123420387Y-104369326D01*
X123429723Y-104372176D01*
X123449679Y-104378633D01*
X123471407Y-104386043D01*
X123494973Y-104394336D01*
X123514364Y-104406774D01*
X123532512Y-104419857D01*
X123549416Y-104433583D01*
X123557401Y-104440687D01*
X123565074Y-104447950D01*
X123572436Y-104455373D01*
X123579486Y-104462956D01*
X123586224Y-104470697D01*
X123592650Y-104478598D01*
X123598764Y-104486656D01*
X123604566Y-104494873D01*
X123610056Y-104503249D01*
X123615232Y-104511781D01*
X123620096Y-104520472D01*
X123624648Y-104529319D01*
X123628886Y-104538323D01*
X123632811Y-104547484D01*
X123636423Y-104556801D01*
X123639721Y-104566275D01*
X123642706Y-104575904D01*
X123645378Y-104585688D01*
X123647736Y-104595628D01*
X123649779Y-104605723D01*
X123651509Y-104615972D01*
X123652924Y-104626376D01*
X123654026Y-104636934D01*
X123654812Y-104647645D01*
X123655442Y-104669529D01*
X123655272Y-104679969D01*
X123654764Y-104690324D01*
X123653919Y-104700594D01*
X123652741Y-104710779D01*
X123651231Y-104720880D01*
X123649391Y-104730895D01*
X123647223Y-104740825D01*
X123644730Y-104750670D01*
X123641913Y-104760431D01*
X123638775Y-104770106D01*
X123635318Y-104779697D01*
X123631544Y-104789202D01*
X123627455Y-104798623D01*
X123623054Y-104807958D01*
X123618342Y-104817209D01*
X123613321Y-104826374D01*
X123606306Y-104835694D01*
X123599429Y-104844599D01*
X123592690Y-104853080D01*
X123586089Y-104861127D01*
X123579623Y-104868733D01*
X123573293Y-104875889D01*
X123567099Y-104882587D01*
X123561039Y-104888816D01*
X123554809Y-104894876D01*
X123548112Y-104901070D01*
X123540956Y-104907400D01*
X123533350Y-104913865D01*
X123525303Y-104920467D01*
X123516822Y-104927206D01*
X123507918Y-104934083D01*
X123498598Y-104941098D01*
X123488916Y-104946236D01*
X123479198Y-104951036D01*
X123469440Y-104955498D01*
X123459642Y-104959623D01*
X123449801Y-104963412D01*
X123439915Y-104966866D01*
X123429982Y-104969987D01*
X123420000Y-104972775D01*
X123409966Y-104975231D01*
X123399880Y-104977357D01*
X123389738Y-104979152D01*
X123379539Y-104980619D01*
X123369280Y-104981758D01*
X123358960Y-104982571D01*
X123348577Y-104983057D01*
X123338128Y-104983219D01*
X123318391Y-104979472D01*
X123298933Y-104975310D01*
X123279764Y-104970722D01*
X123260893Y-104965701D01*
X123242327Y-104960236D01*
X123224077Y-104954321D01*
X123206151Y-104947944D01*
X123188559Y-104941098D01*
X123174774Y-104930938D01*
X123166200Y-104924981D01*
X123157915Y-104919102D01*
X123149936Y-104913310D01*
X123142279Y-104907612D01*
X123134964Y-104902016D01*
X123128008Y-104896533D01*
X123121428Y-104891168D01*
X123115243Y-104885932D01*
X123112146Y-104883149D01*
X123109116Y-104880246D01*
X123106151Y-104877221D01*
X123103251Y-104874074D01*
X123100415Y-104870804D01*
X123097641Y-104867410D01*
X123094929Y-104863890D01*
X123092277Y-104860244D01*
X123089685Y-104856471D01*
X123087151Y-104852569D01*
X123084675Y-104848538D01*
X123082255Y-104844376D01*
X123079891Y-104840082D01*
X123077581Y-104835656D01*
X123075325Y-104831096D01*
X123073122Y-104826401D01*
X123067190Y-104815193D01*
X123061649Y-104804173D01*
X123056497Y-104793340D01*
X123051734Y-104782695D01*
X123047357Y-104772237D01*
X123043367Y-104761966D01*
X123039761Y-104751882D01*
X123036540Y-104741985D01*
X123033701Y-104732276D01*
X123031244Y-104722754D01*
X123029169Y-104713420D01*
X123027473Y-104704272D01*
X123026155Y-104695312D01*
X123025216Y-104686540D01*
X123024653Y-104677954D01*
X123024465Y-104669556D01*
X123024480Y-104668815D01*
X123075292Y-104668815D01*
X123075445Y-104676319D01*
X123075903Y-104683859D01*
X123076666Y-104691439D01*
X123077731Y-104699059D01*
X123079099Y-104706722D01*
X123080767Y-104714430D01*
X123082736Y-104722186D01*
X123085003Y-104729990D01*
X123087567Y-104737846D01*
X123090429Y-104745754D01*
X123093585Y-104753718D01*
X123097037Y-104761740D01*
X123100781Y-104769820D01*
X123104818Y-104777963D01*
X123109146Y-104786168D01*
X123113763Y-104794439D01*
X123118725Y-104802616D01*
X123123806Y-104810539D01*
X123129008Y-104818208D01*
X123134333Y-104825626D01*
X123139781Y-104832791D01*
X123145353Y-104839707D01*
X123151050Y-104846374D01*
X123156874Y-104852793D01*
X123162825Y-104858965D01*
X123168905Y-104864892D01*
X123175114Y-104870574D01*
X123181454Y-104876012D01*
X123187925Y-104881208D01*
X123194530Y-104886162D01*
X123201267Y-104890876D01*
X123208140Y-104895351D01*
X123216385Y-104899571D01*
X123224513Y-104903518D01*
X123232523Y-104907194D01*
X123240417Y-104910596D01*
X123248197Y-104913727D01*
X123255863Y-104916585D01*
X123263415Y-104919172D01*
X123270857Y-104921486D01*
X123278187Y-104923527D01*
X123285408Y-104925297D01*
X123292520Y-104926794D01*
X123299525Y-104928019D01*
X123306423Y-104928972D01*
X123313215Y-104929653D01*
X123319903Y-104930061D01*
X123326488Y-104930197D01*
X123331184Y-104930127D01*
X123336552Y-104929913D01*
X123342585Y-104929545D01*
X123349273Y-104929016D01*
X123356606Y-104928317D01*
X123364578Y-104927440D01*
X123373177Y-104926376D01*
X123382395Y-104925117D01*
X123387217Y-104924361D01*
X123392158Y-104923453D01*
X123397216Y-104922393D01*
X123402391Y-104921184D01*
X123407680Y-104919826D01*
X123413084Y-104918320D01*
X123424229Y-104914868D01*
X123435817Y-104910836D01*
X123447839Y-104906234D01*
X123460285Y-104901070D01*
X123473147Y-104895351D01*
X123481688Y-104889216D01*
X123489887Y-104883063D01*
X123497742Y-104876891D01*
X123505250Y-104870699D01*
X123512410Y-104864486D01*
X123519218Y-104858250D01*
X123525674Y-104851992D01*
X123531775Y-104845709D01*
X123537518Y-104839400D01*
X123542901Y-104833066D01*
X123547922Y-104826703D01*
X123552580Y-104820312D01*
X123556871Y-104813891D01*
X123560793Y-104807439D01*
X123564345Y-104800956D01*
X123567524Y-104794439D01*
X123571743Y-104787435D01*
X123575690Y-104780313D01*
X123579366Y-104773075D01*
X123582768Y-104765721D01*
X123585899Y-104758252D01*
X123588758Y-104750670D01*
X123591344Y-104742975D01*
X123593658Y-104735169D01*
X123595699Y-104727252D01*
X123597469Y-104719225D01*
X123598966Y-104711090D01*
X123600191Y-104702847D01*
X123601144Y-104694496D01*
X123601824Y-104686040D01*
X123602233Y-104677480D01*
X123602369Y-104668815D01*
X123602233Y-104660636D01*
X123601824Y-104652442D01*
X123601144Y-104644233D01*
X123600191Y-104636010D01*
X123598966Y-104627775D01*
X123597469Y-104619529D01*
X123595699Y-104611272D01*
X123593658Y-104603007D01*
X123591344Y-104594733D01*
X123588758Y-104586452D01*
X123585899Y-104578166D01*
X123582768Y-104569874D01*
X123579366Y-104561579D01*
X123575690Y-104553281D01*
X123571743Y-104544982D01*
X123567524Y-104536682D01*
X123566068Y-104536682D01*
X123566094Y-104536669D01*
X123566107Y-104536662D01*
X123566120Y-104536656D01*
X123555780Y-104520692D01*
X123544911Y-104505750D01*
X123539278Y-104498664D01*
X123533511Y-104491833D01*
X123527611Y-104485259D01*
X123521577Y-104478941D01*
X123515410Y-104472879D01*
X123509108Y-104467074D01*
X123502671Y-104461526D01*
X123496100Y-104456234D01*
X123489394Y-104451200D01*
X123482552Y-104446422D01*
X123475575Y-104441902D01*
X123468462Y-104437639D01*
X123461213Y-104433633D01*
X123453828Y-104429885D01*
X123446306Y-104426395D01*
X123438647Y-104423162D01*
X123430850Y-104420188D01*
X123422917Y-104417471D01*
X123414845Y-104415012D01*
X123406636Y-104412812D01*
X123398288Y-104410870D01*
X123389802Y-104409187D01*
X123381177Y-104407762D01*
X123372412Y-104406597D01*
X123363509Y-104405689D01*
X123354466Y-104405041D01*
X123335959Y-104404523D01*
X123325800Y-104404523D01*
X123320088Y-104404608D01*
X123314391Y-104404864D01*
X123308708Y-104405293D01*
X123303036Y-104405894D01*
X123297372Y-104406670D01*
X123291715Y-104407622D01*
X123286063Y-104408750D01*
X123280413Y-104410056D01*
X123274764Y-104411541D01*
X123269113Y-104413206D01*
X123263457Y-104415052D01*
X123257796Y-104417080D01*
X123252127Y-104419292D01*
X123246447Y-104421688D01*
X123240755Y-104424270D01*
X123235048Y-104427039D01*
X123224023Y-104432926D01*
X123213280Y-104439164D01*
X123208016Y-104442417D01*
X123202825Y-104445761D01*
X123197709Y-104449196D01*
X123192668Y-104452723D01*
X123187703Y-104456345D01*
X123182815Y-104460061D01*
X123178006Y-104463872D01*
X123173276Y-104467781D01*
X123168627Y-104471787D01*
X123164058Y-104475891D01*
X123159573Y-104480095D01*
X123155170Y-104484400D01*
X123150861Y-104488791D01*
X123146653Y-104493251D01*
X123142546Y-104497784D01*
X123138539Y-104502392D01*
X123134630Y-104507076D01*
X123130819Y-104511839D01*
X123127104Y-104516683D01*
X123123483Y-104521611D01*
X123119957Y-104526623D01*
X123116523Y-104531723D01*
X123113182Y-104536913D01*
X123109930Y-104542194D01*
X123106769Y-104547569D01*
X123103695Y-104553040D01*
X123100709Y-104558609D01*
X123097808Y-104564278D01*
X123095044Y-104569990D01*
X123092465Y-104575686D01*
X123090071Y-104581370D01*
X123087861Y-104587042D01*
X123085833Y-104592705D01*
X123083987Y-104598362D01*
X123082321Y-104604014D01*
X123080835Y-104609664D01*
X123079528Y-104615314D01*
X123078398Y-104620965D01*
X123077445Y-104626620D01*
X123076667Y-104632282D01*
X123076064Y-104637951D01*
X123075635Y-104643631D01*
X123075378Y-104649323D01*
X123075292Y-104655030D01*
X123075292Y-104668815D01*
X123024480Y-104668815D01*
X123024653Y-104660407D01*
X123024982Y-104655030D01*
X123025216Y-104651206D01*
X123026155Y-104641953D01*
X123027473Y-104632645D01*
X123029169Y-104623283D01*
X123031244Y-104613864D01*
X123033701Y-104604388D01*
X123036540Y-104594854D01*
X123039761Y-104585261D01*
X123043367Y-104575607D01*
X123047357Y-104565892D01*
X123051734Y-104556115D01*
X123056497Y-104546275D01*
X123061649Y-104536370D01*
X123067190Y-104526399D01*
X123073122Y-104516362D01*
X123076398Y-104508100D01*
X123080234Y-104499923D01*
X123084627Y-104491831D01*
X123089574Y-104483824D01*
X123095075Y-104475902D01*
X123101126Y-104468065D01*
X123107726Y-104460313D01*
X123114873Y-104452647D01*
X123122564Y-104445066D01*
X123130797Y-104437570D01*
X123139571Y-104430160D01*
X123148882Y-104422835D01*
X123158730Y-104415595D01*
X123169112Y-104408441D01*
X123180026Y-104401372D01*
X123191470Y-104394389D01*
X123191470Y-104395051D01*
X123200215Y-104390433D01*
X123209026Y-104386105D01*
X123217901Y-104382069D01*
X123226838Y-104378324D01*
X123235835Y-104374873D01*
X123244889Y-104371716D01*
X123253999Y-104368855D01*
X123263162Y-104366291D01*
X123272376Y-104364024D01*
X123281639Y-104362055D01*
X123290949Y-104360387D01*
X123300304Y-104359019D01*
X123309701Y-104357954D01*
X123319139Y-104357191D01*
X123328615Y-104356733D01*
X123338128Y-104356580D01*
X123347619Y-104356719D01*
G37*
G36*
X122618944Y-103430847D02*
G01*
X122620037Y-103430901D01*
X122621134Y-103430993D01*
X122622237Y-103431125D01*
X122623348Y-103431300D01*
X122624470Y-103431520D01*
X122625604Y-103431787D01*
X122626753Y-103432103D01*
X122627919Y-103432470D01*
X122629104Y-103432890D01*
X122630311Y-103433366D01*
X122631542Y-103433899D01*
X122632798Y-103434492D01*
X122634082Y-103435147D01*
X122635397Y-103435866D01*
X122636744Y-103436650D01*
X122637969Y-103437347D01*
X122639193Y-103438076D01*
X122640416Y-103438838D01*
X122641635Y-103439631D01*
X122642849Y-103440453D01*
X122644059Y-103441305D01*
X122646458Y-103443090D01*
X122648824Y-103444978D01*
X122651147Y-103446960D01*
X122653421Y-103449029D01*
X122655635Y-103451176D01*
X122657782Y-103453361D01*
X122659851Y-103455560D01*
X122660854Y-103456671D01*
X122661834Y-103457791D01*
X122662790Y-103458925D01*
X122663722Y-103460073D01*
X122664628Y-103461237D01*
X122665507Y-103462421D01*
X122666358Y-103463626D01*
X122667181Y-103464853D01*
X122667974Y-103466107D01*
X122668735Y-103467388D01*
X122669465Y-103468698D01*
X122670162Y-103470041D01*
X122670824Y-103471266D01*
X122671452Y-103472490D01*
X122672045Y-103473712D01*
X122672600Y-103474931D01*
X122673118Y-103476145D01*
X122673596Y-103477354D01*
X122674034Y-103478556D01*
X122674431Y-103479751D01*
X122674785Y-103480937D01*
X122675096Y-103482114D01*
X122675362Y-103483279D01*
X122675582Y-103484433D01*
X122675755Y-103485573D01*
X122675881Y-103486699D01*
X122675956Y-103487811D01*
X122675982Y-103488906D01*
X122677437Y-103489620D01*
X122677412Y-103489647D01*
X122677412Y-103981930D01*
X122556152Y-103981930D01*
X122556152Y-103766295D01*
X122471195Y-103766295D01*
X122471195Y-103981930D01*
X122352847Y-103981930D01*
X122352847Y-103647179D01*
X122352847Y-103569498D01*
X122474104Y-103569498D01*
X122474104Y-103647179D01*
X122554697Y-103647179D01*
X122554697Y-103569498D01*
X122474104Y-103569498D01*
X122352847Y-103569498D01*
X122352847Y-103430830D01*
X122617853Y-103430830D01*
X122618944Y-103430847D01*
G37*
G36*
X121168624Y-104938928D02*
G01*
X120896341Y-104938928D01*
X120896341Y-104937473D01*
X120896342Y-104937446D01*
X120895259Y-104937421D01*
X120894190Y-104937346D01*
X120893131Y-104937222D01*
X120892081Y-104937050D01*
X120891035Y-104936832D01*
X120889990Y-104936567D01*
X120888944Y-104936258D01*
X120887892Y-104935905D01*
X120886831Y-104935509D01*
X120885760Y-104935072D01*
X120884673Y-104934593D01*
X120883568Y-104934075D01*
X120882443Y-104933518D01*
X120881292Y-104932924D01*
X120878906Y-104931625D01*
X120877689Y-104930924D01*
X120876489Y-104930192D01*
X120875305Y-104929428D01*
X120874139Y-104928634D01*
X120872989Y-104927811D01*
X120871856Y-104926960D01*
X120870741Y-104926081D01*
X120869642Y-104925176D01*
X120868560Y-104924246D01*
X120867496Y-104923291D01*
X120866448Y-104922313D01*
X120865418Y-104921312D01*
X120864405Y-104920289D01*
X120863409Y-104919245D01*
X120862430Y-104918182D01*
X120861469Y-104917100D01*
X120860403Y-104916000D01*
X120859385Y-104914885D01*
X120858412Y-104913755D01*
X120857481Y-104912612D01*
X120856589Y-104911456D01*
X120855731Y-104910289D01*
X120854906Y-104909112D01*
X120854111Y-104907925D01*
X120852593Y-104905529D01*
X120851152Y-104903110D01*
X120849762Y-104900676D01*
X120848399Y-104898235D01*
X120847744Y-104897014D01*
X120847140Y-104895793D01*
X120846584Y-104894574D01*
X120846076Y-104893356D01*
X120845614Y-104892143D01*
X120845198Y-104890934D01*
X120844827Y-104889731D01*
X120844499Y-104888535D01*
X120844214Y-104887347D01*
X120843970Y-104886169D01*
X120843767Y-104885002D01*
X120843603Y-104883847D01*
X120843477Y-104882705D01*
X120843388Y-104881578D01*
X120843336Y-104880466D01*
X120843319Y-104879370D01*
X120843319Y-104799493D01*
X120843319Y-104722525D01*
X120965318Y-104722525D01*
X120965318Y-104799493D01*
X121048081Y-104799493D01*
X121048081Y-104722525D01*
X120965318Y-104722525D01*
X120843319Y-104722525D01*
X120843319Y-104717445D01*
X120843370Y-104715137D01*
X120843523Y-104712848D01*
X120843779Y-104710578D01*
X120844137Y-104708328D01*
X120844597Y-104706100D01*
X120845159Y-104703895D01*
X120845823Y-104701713D01*
X120846590Y-104699556D01*
X120847458Y-104697425D01*
X120848428Y-104695320D01*
X120849501Y-104693244D01*
X120850675Y-104691196D01*
X120851951Y-104689178D01*
X120853329Y-104687191D01*
X120854808Y-104685236D01*
X120856390Y-104683314D01*
X120858022Y-104681443D01*
X120859655Y-104679641D01*
X120861288Y-104677908D01*
X120862922Y-104676247D01*
X120864556Y-104674657D01*
X120866191Y-104673141D01*
X120867825Y-104671699D01*
X120869460Y-104670333D01*
X120871094Y-104669043D01*
X120872729Y-104667831D01*
X120874363Y-104666698D01*
X120875998Y-104665644D01*
X120877632Y-104664672D01*
X120879265Y-104663782D01*
X120880898Y-104662975D01*
X120882531Y-104662253D01*
X120881969Y-104662228D01*
X120881375Y-104662153D01*
X120880752Y-104662029D01*
X120880102Y-104661857D01*
X120879426Y-104661639D01*
X120878728Y-104661374D01*
X120878008Y-104661065D01*
X120877269Y-104660712D01*
X120876513Y-104660316D01*
X120875741Y-104659879D01*
X120874957Y-104659400D01*
X120874163Y-104658882D01*
X120873359Y-104658325D01*
X120872548Y-104657731D01*
X120871733Y-104657099D01*
X120870915Y-104656432D01*
X120869971Y-104655744D01*
X120869044Y-104655037D01*
X120868133Y-104654311D01*
X120867240Y-104653564D01*
X120866363Y-104652796D01*
X120865503Y-104652006D01*
X120864660Y-104651192D01*
X120863835Y-104650354D01*
X120863026Y-104649490D01*
X120862234Y-104648600D01*
X120861459Y-104647682D01*
X120860702Y-104646736D01*
X120859962Y-104645761D01*
X120859239Y-104644755D01*
X120858533Y-104643717D01*
X120857845Y-104642647D01*
X120856487Y-104640676D01*
X120855137Y-104638576D01*
X120853805Y-104636358D01*
X120852497Y-104634029D01*
X120851223Y-104631598D01*
X120849990Y-104629074D01*
X120848808Y-104626467D01*
X120847684Y-104623783D01*
X120846661Y-104621096D01*
X120846201Y-104619776D01*
X120845774Y-104618468D01*
X120845382Y-104617174D01*
X120845024Y-104615891D01*
X120844700Y-104614618D01*
X120844410Y-104613355D01*
X120844154Y-104612100D01*
X120843932Y-104610853D01*
X120843745Y-104609611D01*
X120843591Y-104608375D01*
X120843472Y-104607143D01*
X120843387Y-104605915D01*
X120843344Y-104604892D01*
X120843336Y-104604688D01*
X120843319Y-104603463D01*
X120843319Y-104527924D01*
X120965318Y-104527924D01*
X120965318Y-104604892D01*
X121048081Y-104604892D01*
X121048081Y-104527924D01*
X120965318Y-104527924D01*
X120843319Y-104527924D01*
X120843319Y-104445189D01*
X120843336Y-104444220D01*
X120843388Y-104443219D01*
X120843477Y-104442188D01*
X120843603Y-104441129D01*
X120843767Y-104440045D01*
X120843970Y-104438937D01*
X120844214Y-104437808D01*
X120844500Y-104436660D01*
X120844827Y-104435494D01*
X120845199Y-104434314D01*
X120845615Y-104433121D01*
X120846076Y-104431917D01*
X120846584Y-104430705D01*
X120847140Y-104429487D01*
X120847744Y-104428264D01*
X120848399Y-104427039D01*
X120849793Y-104424589D01*
X120851256Y-104422149D01*
X120852788Y-104419726D01*
X120854388Y-104417328D01*
X120856057Y-104414966D01*
X120857793Y-104412647D01*
X120859597Y-104410380D01*
X120861469Y-104408174D01*
X120863651Y-104406027D01*
X120865831Y-104403958D01*
X120868009Y-104401976D01*
X120870187Y-104400088D01*
X120872365Y-104398303D01*
X120874544Y-104396629D01*
X120875634Y-104395836D01*
X120876724Y-104395075D01*
X120877815Y-104394345D01*
X120878906Y-104393648D01*
X120881323Y-104392358D01*
X120882506Y-104391765D01*
X120883673Y-104391210D01*
X120884822Y-104390692D01*
X120885955Y-104390214D01*
X120887071Y-104389775D01*
X120888169Y-104389379D01*
X120889251Y-104389024D01*
X120890315Y-104388713D01*
X120891363Y-104388447D01*
X120892393Y-104388227D01*
X120893406Y-104388054D01*
X120894402Y-104387929D01*
X120895381Y-104387853D01*
X120896342Y-104387827D01*
X121168624Y-104387827D01*
X121168624Y-104938928D01*
G37*
G36*
X118095145Y-103022763D02*
G01*
X117786562Y-103022763D01*
X117786562Y-102883354D01*
X117973172Y-102883354D01*
X117973172Y-102820912D01*
X117844664Y-102820912D01*
X117844664Y-102688038D01*
X117973172Y-102688038D01*
X117973172Y-102611071D01*
X117786562Y-102611071D01*
X117786562Y-102471662D01*
X118095145Y-102471662D01*
X118095145Y-103022763D01*
G37*
G36*
X122226509Y-103022763D02*
G01*
X122104536Y-103022763D01*
X122104536Y-102471662D01*
X122226509Y-102471662D01*
X122226509Y-103022763D01*
G37*
G36*
X117538965Y-104938928D02*
G01*
X117266682Y-104938928D01*
X117266682Y-104937473D01*
X117266682Y-104937446D01*
X117265599Y-104937421D01*
X117264530Y-104937346D01*
X117263472Y-104937222D01*
X117262421Y-104937050D01*
X117261375Y-104936832D01*
X117260330Y-104936567D01*
X117259284Y-104936258D01*
X117258232Y-104935905D01*
X117257172Y-104935509D01*
X117256100Y-104935072D01*
X117255014Y-104934593D01*
X117253909Y-104934075D01*
X117252783Y-104933518D01*
X117251633Y-104932924D01*
X117249246Y-104931625D01*
X117248029Y-104930924D01*
X117246829Y-104930192D01*
X117245645Y-104929428D01*
X117244479Y-104928634D01*
X117243329Y-104927811D01*
X117242197Y-104926960D01*
X117241081Y-104926081D01*
X117239982Y-104925176D01*
X117238901Y-104924246D01*
X117237836Y-104923291D01*
X117236789Y-104922313D01*
X117235758Y-104921312D01*
X117234745Y-104920289D01*
X117233749Y-104919245D01*
X117232771Y-104918182D01*
X117231810Y-104917100D01*
X117230743Y-104916000D01*
X117229726Y-104914885D01*
X117228753Y-104913755D01*
X117227822Y-104912612D01*
X117226929Y-104911456D01*
X117226072Y-104910289D01*
X117225247Y-104909112D01*
X117224451Y-104907925D01*
X117222933Y-104905529D01*
X117221492Y-104903110D01*
X117220103Y-104900676D01*
X117218739Y-104898235D01*
X117218085Y-104897014D01*
X117217480Y-104895793D01*
X117216924Y-104894574D01*
X117216416Y-104893356D01*
X117215955Y-104892143D01*
X117215539Y-104890934D01*
X117215168Y-104889731D01*
X117214840Y-104888535D01*
X117214555Y-104887347D01*
X117214311Y-104886169D01*
X117214107Y-104885002D01*
X117213943Y-104883847D01*
X117213817Y-104882705D01*
X117213729Y-104881578D01*
X117213677Y-104880466D01*
X117213659Y-104879370D01*
X117213659Y-104799467D01*
X117213659Y-104527925D01*
X117335659Y-104527925D01*
X117335659Y-104799467D01*
X117419161Y-104799467D01*
X117419161Y-104527925D01*
X117335659Y-104527925D01*
X117213659Y-104527925D01*
X117213659Y-104445189D01*
X117213677Y-104444220D01*
X117213729Y-104443219D01*
X117213818Y-104442188D01*
X117213943Y-104441129D01*
X117214107Y-104440045D01*
X117214311Y-104438937D01*
X117214555Y-104437808D01*
X117214840Y-104436660D01*
X117215168Y-104435495D01*
X117215539Y-104434314D01*
X117215955Y-104433121D01*
X117216416Y-104431918D01*
X117216924Y-104430705D01*
X117217480Y-104429487D01*
X117218085Y-104428264D01*
X117218739Y-104427039D01*
X117220133Y-104424590D01*
X117221596Y-104422149D01*
X117223128Y-104419726D01*
X117224728Y-104417329D01*
X117226397Y-104414966D01*
X117228134Y-104412647D01*
X117229938Y-104410380D01*
X117231810Y-104408174D01*
X117233991Y-104406028D01*
X117236171Y-104403959D01*
X117238350Y-104401976D01*
X117240528Y-104400088D01*
X117242706Y-104398303D01*
X117244884Y-104396629D01*
X117245974Y-104395836D01*
X117247064Y-104395075D01*
X117248155Y-104394345D01*
X117249246Y-104393649D01*
X117251663Y-104392358D01*
X117252847Y-104391765D01*
X117254013Y-104391210D01*
X117255163Y-104390692D01*
X117256295Y-104390214D01*
X117257411Y-104389776D01*
X117258510Y-104389379D01*
X117259591Y-104389024D01*
X117260656Y-104388714D01*
X117261703Y-104388448D01*
X117262734Y-104388227D01*
X117263747Y-104388054D01*
X117264742Y-104387929D01*
X117265721Y-104387853D01*
X117266682Y-104387828D01*
X117538965Y-104387828D01*
X117538965Y-104938928D01*
G37*
D12*
%TO.C,J1*%
X114940000Y-108700000D02*
X115550000Y-108700000D01*
X114940000Y-110000000D02*
X115550000Y-110000000D01*
X115550000Y-108000000D02*
X117500000Y-108000000D01*
X115550000Y-111500000D02*
X115550000Y-108000000D01*
X117500000Y-108000000D02*
X117500000Y-107390000D01*
X117900000Y-111000000D02*
X117900000Y-111500000D01*
X118000000Y-111500000D02*
X118000000Y-111000000D01*
X118100000Y-111000000D02*
X117900000Y-111000000D01*
X118100000Y-111500000D02*
X118100000Y-111000000D01*
X119900000Y-111000000D02*
X119900000Y-111500000D01*
X120000000Y-111500000D02*
X120000000Y-111000000D01*
X120100000Y-111000000D02*
X119900000Y-111000000D01*
X120100000Y-111500000D02*
X120100000Y-111000000D01*
X121900000Y-111000000D02*
X121900000Y-111500000D01*
X122000000Y-111500000D02*
X122000000Y-111000000D01*
X122100000Y-111000000D02*
X121900000Y-111000000D01*
X122100000Y-111500000D02*
X122100000Y-111000000D01*
X122500000Y-107390000D02*
X122500000Y-108000000D01*
X122500000Y-108000000D02*
X124450000Y-108000000D01*
X123300000Y-107190000D02*
X123600000Y-107190000D01*
X123300000Y-107290000D02*
X123600000Y-107290000D01*
X123300000Y-107390000D02*
X123300000Y-107190000D01*
X123600000Y-107190000D02*
X123600000Y-107390000D01*
X124110000Y-107090000D02*
X125360000Y-107090000D01*
X124450000Y-108000000D02*
X124450000Y-111500000D01*
X124450000Y-111500000D02*
X115550000Y-111500000D01*
X125060000Y-108700000D02*
X124450000Y-108700000D01*
X125060000Y-110000000D02*
X124450000Y-110000000D01*
X125360000Y-107090000D02*
X125360000Y-108340000D01*
X125060000Y-107390000D02*
X114940000Y-107390000D01*
X114940000Y-112110000D01*
X125060000Y-112110000D01*
X125060000Y-107390000D01*
%TD*%
M02*
