%TF.GenerationSoftware,KiCad,Pcbnew,9.0.7*%
%TF.CreationDate,2026-07-29T00:26:30-07:00*%
%TF.ProjectId,FN32ROV-XEBook-LED-KiCad,464e3332-524f-4562-9d58-45426f6f6b2d,rev?*%
%TF.SameCoordinates,Original*%
%TF.FileFunction,Copper,L1,Top*%
%TF.FilePolarity,Positive*%
%FSLAX46Y46*%
G04 Gerber Fmt 4.6, Leading zero omitted, Abs format (unit mm)*
G04 Created by KiCad (PCBNEW 9.0.7) date 2026-07-29 00:26:30*
%MOMM*%
%LPD*%
G01*
G04 APERTURE LIST*
G04 Aperture macros list*
%AMRoundRect*
0 Rectangle with rounded corners*
0 $1 Rounding radius*
0 $2 $3 $4 $5 $6 $7 $8 $9 X,Y pos of 4 corners*
0 Add a 4 corners polygon primitive as box body*
4,1,4,$2,$3,$4,$5,$6,$7,$8,$9,$2,$3,0*
0 Add four circle primitives for the rounded corners*
1,1,$1+$1,$2,$3*
1,1,$1+$1,$4,$5*
1,1,$1+$1,$6,$7*
1,1,$1+$1,$8,$9*
0 Add four rect primitives between the rounded corners*
20,1,$1+$1,$2,$3,$4,$5,0*
20,1,$1+$1,$4,$5,$6,$7,0*
20,1,$1+$1,$6,$7,$8,$9,0*
20,1,$1+$1,$8,$9,$2,$3,0*%
G04 Aperture macros list end*
%TA.AperFunction,SMDPad,CuDef*%
%ADD10RoundRect,0.147500X-0.147500X-0.172500X0.147500X-0.172500X0.147500X0.172500X-0.147500X0.172500X0*%
%TD*%
%TA.AperFunction,ComponentPad*%
%ADD11RoundRect,0.250000X0.350000X0.625000X-0.350000X0.625000X-0.350000X-0.625000X0.350000X-0.625000X0*%
%TD*%
%TA.AperFunction,ComponentPad*%
%ADD12O,1.200000X1.750000*%
%TD*%
%TA.AperFunction,ViaPad*%
%ADD13C,0.600000*%
%TD*%
%TA.AperFunction,Conductor*%
%ADD14C,0.200000*%
%TD*%
G04 APERTURE END LIST*
D10*
%TO.P,D3,1,K*%
%TO.N,/LED_SIO*%
X129515000Y-103000000D03*
%TO.P,D3,2,A*%
%TO.N,/3V3*%
X130485000Y-103000000D03*
%TD*%
%TO.P,D1,1,K*%
%TO.N,/LED_WIFI*%
X109515000Y-103000000D03*
%TO.P,D1,2,A*%
%TO.N,/3V3*%
X110485000Y-103000000D03*
%TD*%
%TO.P,D2,1,K*%
%TO.N,/LED_BT*%
X119515000Y-103000000D03*
%TO.P,D2,2,A*%
%TO.N,/3V3*%
X120485000Y-103000000D03*
%TD*%
D11*
%TO.P,J1,1,Pin_1*%
%TO.N,/3V3*%
X123000000Y-109200000D03*
D12*
%TO.P,J1,2,Pin_2*%
%TO.N,/LED_WIFI*%
X121000000Y-109200000D03*
%TO.P,J1,3,Pin_3*%
%TO.N,/LED_BT*%
X119000000Y-109200000D03*
%TO.P,J1,4,Pin_4*%
%TO.N,/LED_SIO*%
X117000000Y-109200000D03*
%TD*%
D13*
%TO.N,/LED_BT*%
X119000000Y-103762300D03*
%TO.N,/LED_SIO*%
X117000000Y-101115100D03*
%TD*%
D14*
%TO.N,/LED_WIFI*%
X109515000Y-103000000D02*
X114445000Y-107930000D01*
X121000000Y-109200000D02*
X120098300Y-109200000D01*
X120098300Y-108713500D02*
X120098300Y-109200000D01*
X119314800Y-107930000D02*
X120098300Y-108713500D01*
X114445000Y-107930000D02*
X119314800Y-107930000D01*
%TO.N,/3V3*%
X123000000Y-103626700D02*
X123000000Y-109200000D01*
X129858300Y-103626700D02*
X130485000Y-103000000D01*
X123000000Y-103626700D02*
X129858300Y-103626700D01*
X110485000Y-103000000D02*
X111164800Y-102320200D01*
X119805200Y-102320200D02*
X120485000Y-103000000D01*
X122373300Y-103000000D02*
X123000000Y-103626700D01*
X111164800Y-102320200D02*
X119805200Y-102320200D01*
X120485000Y-103000000D02*
X122373300Y-103000000D01*
%TO.N,/LED_BT*%
X119515000Y-103000000D02*
X119515000Y-103247300D01*
X119515000Y-103247300D02*
X119000000Y-103762300D01*
%TO.N,/LED_SIO*%
X127630100Y-101115100D02*
X117000000Y-101115100D01*
X129515000Y-103000000D02*
X127630100Y-101115100D01*
%TD*%
%TA.AperFunction,NonConductor*%
G36*
X127397042Y-101735285D02*
G01*
X127417684Y-101751919D01*
X128480284Y-102814519D01*
X128513769Y-102875842D01*
X128508785Y-102945534D01*
X128466913Y-103001467D01*
X128401449Y-103025884D01*
X128392603Y-103026200D01*
X123300098Y-103026200D01*
X123233059Y-103006515D01*
X123212417Y-102989881D01*
X122860890Y-102638355D01*
X122860888Y-102638352D01*
X122742017Y-102519481D01*
X122742016Y-102519480D01*
X122655204Y-102469360D01*
X122655204Y-102469359D01*
X122655200Y-102469358D01*
X122605085Y-102440423D01*
X122452357Y-102399499D01*
X122294243Y-102399499D01*
X122286647Y-102399499D01*
X122286631Y-102399500D01*
X121172272Y-102399500D01*
X121105233Y-102379815D01*
X121084590Y-102363180D01*
X121032825Y-102311414D01*
X121032817Y-102311408D01*
X120891895Y-102228068D01*
X120891892Y-102228066D01*
X120734679Y-102182391D01*
X120734673Y-102182390D01*
X120697947Y-102179500D01*
X120697940Y-102179500D01*
X120565097Y-102179500D01*
X120498058Y-102159815D01*
X120477416Y-102143181D01*
X120292790Y-101958555D01*
X120285721Y-101951486D01*
X120285720Y-101951484D01*
X120261513Y-101927277D01*
X120228031Y-101865956D01*
X120230782Y-101827501D01*
X120233016Y-101796266D01*
X120274888Y-101740333D01*
X120274888Y-101740332D01*
X120274889Y-101740332D01*
X120304785Y-101729181D01*
X120340352Y-101715916D01*
X120349198Y-101715600D01*
X127330003Y-101715600D01*
X127397042Y-101735285D01*
G37*
%TD.AperFunction*%
%TA.AperFunction,NonConductor*%
G36*
X118437879Y-102928594D02*
G01*
X118465505Y-102933324D01*
X118470952Y-102938306D01*
X118478033Y-102940385D01*
X118496381Y-102961560D01*
X118517066Y-102980476D01*
X118518955Y-102987612D01*
X118523788Y-102993189D01*
X118527775Y-103020923D01*
X118534950Y-103048018D01*
X118532681Y-103055042D01*
X118533732Y-103062347D01*
X118522090Y-103087839D01*
X118513478Y-103114507D01*
X118506353Y-103122297D01*
X118504707Y-103125903D01*
X118490000Y-103140220D01*
X118378213Y-103252007D01*
X118378210Y-103252011D01*
X118290609Y-103383114D01*
X118290602Y-103383127D01*
X118230264Y-103528798D01*
X118230261Y-103528810D01*
X118199500Y-103683453D01*
X118199500Y-103841146D01*
X118230261Y-103995789D01*
X118230264Y-103995801D01*
X118290602Y-104141472D01*
X118290609Y-104141485D01*
X118378210Y-104272588D01*
X118378213Y-104272592D01*
X118489707Y-104384086D01*
X118489711Y-104384089D01*
X118620814Y-104471690D01*
X118620827Y-104471697D01*
X118766498Y-104532035D01*
X118766503Y-104532037D01*
X118921153Y-104562799D01*
X118921156Y-104562800D01*
X118921158Y-104562800D01*
X119078844Y-104562800D01*
X119078845Y-104562799D01*
X119233497Y-104532037D01*
X119379179Y-104471694D01*
X119510289Y-104384089D01*
X119621789Y-104272589D01*
X119709394Y-104141479D01*
X119769737Y-103995797D01*
X119792972Y-103878990D01*
X119797233Y-103870842D01*
X119797747Y-103861660D01*
X119813173Y-103840371D01*
X119825357Y-103817079D01*
X119834435Y-103811027D01*
X119838744Y-103805082D01*
X119858202Y-103795186D01*
X119869454Y-103787687D01*
X119874638Y-103785660D01*
X119921897Y-103771931D01*
X119945521Y-103757959D01*
X119954865Y-103754308D01*
X119980074Y-103752110D01*
X120004601Y-103745887D01*
X120015328Y-103749036D01*
X120024470Y-103748240D01*
X120039449Y-103756119D01*
X120063120Y-103763070D01*
X120078103Y-103771931D01*
X120078105Y-103771931D01*
X120078106Y-103771932D01*
X120078107Y-103771933D01*
X120235320Y-103817608D01*
X120235323Y-103817608D01*
X120235325Y-103817609D01*
X120272060Y-103820500D01*
X120272068Y-103820500D01*
X120697932Y-103820500D01*
X120697940Y-103820500D01*
X120734675Y-103817609D01*
X120734677Y-103817608D01*
X120734679Y-103817608D01*
X120891892Y-103771933D01*
X120891893Y-103771932D01*
X120891897Y-103771931D01*
X121032820Y-103688590D01*
X121084590Y-103636820D01*
X121145913Y-103603334D01*
X121172272Y-103600500D01*
X122073203Y-103600500D01*
X122140242Y-103620185D01*
X122160884Y-103636819D01*
X122363181Y-103839116D01*
X122396666Y-103900439D01*
X122399500Y-103926797D01*
X122399500Y-107779091D01*
X122379815Y-107846130D01*
X122335731Y-107884641D01*
X122336813Y-107886395D01*
X122330667Y-107890185D01*
X122330666Y-107890186D01*
X122232419Y-107950784D01*
X122181342Y-107982289D01*
X122057287Y-108106344D01*
X122017688Y-108170544D01*
X121965739Y-108217268D01*
X121896777Y-108228489D01*
X121832695Y-108200645D01*
X121824469Y-108193127D01*
X121716930Y-108085588D01*
X121716928Y-108085586D01*
X121576788Y-107983768D01*
X121422445Y-107905127D01*
X121257701Y-107851598D01*
X121257699Y-107851597D01*
X121257698Y-107851597D01*
X121126271Y-107830781D01*
X121086611Y-107824500D01*
X120913389Y-107824500D01*
X120873728Y-107830781D01*
X120742302Y-107851597D01*
X120577552Y-107905128D01*
X120423207Y-107983770D01*
X120389916Y-108007957D01*
X120324109Y-108031435D01*
X120256056Y-108015608D01*
X120229353Y-107995318D01*
X119802390Y-107568355D01*
X119802388Y-107568352D01*
X119683517Y-107449481D01*
X119683516Y-107449480D01*
X119596704Y-107399360D01*
X119596704Y-107399359D01*
X119596700Y-107399358D01*
X119546585Y-107370423D01*
X119393857Y-107329499D01*
X119235743Y-107329499D01*
X119228147Y-107329499D01*
X119228131Y-107329500D01*
X114745097Y-107329500D01*
X114678058Y-107309815D01*
X114657416Y-107293181D01*
X111130503Y-103766268D01*
X111097018Y-103704945D01*
X111102002Y-103635253D01*
X111130503Y-103590906D01*
X111148590Y-103572820D01*
X111231931Y-103431897D01*
X111231932Y-103431893D01*
X111231933Y-103431892D01*
X111277608Y-103274679D01*
X111277609Y-103274673D01*
X111280500Y-103237940D01*
X111280500Y-103105097D01*
X111300185Y-103038058D01*
X111316819Y-103017416D01*
X111377216Y-102957019D01*
X111438539Y-102923534D01*
X111464897Y-102920700D01*
X118410994Y-102920700D01*
X118437879Y-102928594D01*
G37*
%TD.AperFunction*%
%TA.AperFunction,NonConductor*%
G36*
X116282960Y-100520185D02*
G01*
X116328715Y-100572989D01*
X116338659Y-100642147D01*
X116319023Y-100693391D01*
X116290609Y-100735914D01*
X116290602Y-100735927D01*
X116230264Y-100881598D01*
X116230261Y-100881610D01*
X116199500Y-101036253D01*
X116199500Y-101193946D01*
X116230261Y-101348589D01*
X116230264Y-101348601D01*
X116290602Y-101494272D01*
X116290612Y-101494290D01*
X116312341Y-101526810D01*
X116333219Y-101593487D01*
X116314734Y-101660867D01*
X116262755Y-101707557D01*
X116209239Y-101719700D01*
X111085740Y-101719700D01*
X111044819Y-101730664D01*
X111044819Y-101730665D01*
X111008742Y-101740332D01*
X110933014Y-101760623D01*
X110933009Y-101760626D01*
X110796090Y-101839675D01*
X110796082Y-101839681D01*
X110684278Y-101951486D01*
X110492584Y-102143181D01*
X110431261Y-102176666D01*
X110404903Y-102179500D01*
X110272052Y-102179500D01*
X110235326Y-102182390D01*
X110235320Y-102182391D01*
X110078105Y-102228067D01*
X110063117Y-102236931D01*
X109995392Y-102254110D01*
X109936883Y-102236931D01*
X109921894Y-102228067D01*
X109764679Y-102182391D01*
X109764673Y-102182390D01*
X109727947Y-102179500D01*
X109727940Y-102179500D01*
X109302060Y-102179500D01*
X109302052Y-102179500D01*
X109265326Y-102182390D01*
X109265320Y-102182391D01*
X109108107Y-102228066D01*
X109108104Y-102228068D01*
X108967182Y-102311408D01*
X108967174Y-102311414D01*
X108851414Y-102427174D01*
X108851408Y-102427182D01*
X108768068Y-102568104D01*
X108768066Y-102568107D01*
X108722391Y-102725320D01*
X108722390Y-102725326D01*
X108719500Y-102762052D01*
X108719500Y-103237947D01*
X108722390Y-103274673D01*
X108722391Y-103274679D01*
X108768066Y-103431892D01*
X108768068Y-103431895D01*
X108851408Y-103572817D01*
X108851414Y-103572825D01*
X108967174Y-103688585D01*
X108967178Y-103688588D01*
X108967180Y-103688590D01*
X109108103Y-103771931D01*
X109108104Y-103771931D01*
X109108107Y-103771933D01*
X109265320Y-103817608D01*
X109265323Y-103817608D01*
X109265325Y-103817609D01*
X109302060Y-103820500D01*
X109434903Y-103820500D01*
X109501942Y-103840185D01*
X109522584Y-103856819D01*
X113960139Y-108294374D01*
X113960149Y-108294385D01*
X113964479Y-108298715D01*
X113964480Y-108298716D01*
X114076284Y-108410520D01*
X114163095Y-108460639D01*
X114163097Y-108460641D01*
X114201151Y-108482611D01*
X114213215Y-108489577D01*
X114365943Y-108530501D01*
X114365946Y-108530501D01*
X114531653Y-108530501D01*
X114531669Y-108530500D01*
X115803080Y-108530500D01*
X115870119Y-108550185D01*
X115915874Y-108602989D01*
X115925818Y-108672147D01*
X115925556Y-108673872D01*
X115899500Y-108838389D01*
X115899500Y-109561611D01*
X115926598Y-109732701D01*
X115980127Y-109897445D01*
X116058768Y-110051788D01*
X116160586Y-110191928D01*
X116283072Y-110314414D01*
X116423212Y-110416232D01*
X116577555Y-110494873D01*
X116742299Y-110548402D01*
X116913389Y-110575500D01*
X116913390Y-110575500D01*
X117086610Y-110575500D01*
X117086611Y-110575500D01*
X117257701Y-110548402D01*
X117422445Y-110494873D01*
X117576788Y-110416232D01*
X117716928Y-110314414D01*
X117839414Y-110191928D01*
X117899682Y-110108975D01*
X117955012Y-110066311D01*
X118024626Y-110060332D01*
X118086421Y-110092938D01*
X118100315Y-110108973D01*
X118160586Y-110191928D01*
X118283072Y-110314414D01*
X118423212Y-110416232D01*
X118577555Y-110494873D01*
X118742299Y-110548402D01*
X118913389Y-110575500D01*
X118913390Y-110575500D01*
X119086610Y-110575500D01*
X119086611Y-110575500D01*
X119257701Y-110548402D01*
X119422445Y-110494873D01*
X119576788Y-110416232D01*
X119716928Y-110314414D01*
X119839414Y-110191928D01*
X119899682Y-110108975D01*
X119955012Y-110066311D01*
X120024626Y-110060332D01*
X120086421Y-110092938D01*
X120100315Y-110108973D01*
X120160586Y-110191928D01*
X120283072Y-110314414D01*
X120423212Y-110416232D01*
X120577555Y-110494873D01*
X120742299Y-110548402D01*
X120913389Y-110575500D01*
X120913390Y-110575500D01*
X121086610Y-110575500D01*
X121086611Y-110575500D01*
X121257701Y-110548402D01*
X121422445Y-110494873D01*
X121576788Y-110416232D01*
X121716928Y-110314414D01*
X121824472Y-110206869D01*
X121885791Y-110173387D01*
X121955483Y-110178371D01*
X122011417Y-110220242D01*
X122017688Y-110229456D01*
X122057285Y-110293652D01*
X122057288Y-110293656D01*
X122181344Y-110417712D01*
X122330666Y-110509814D01*
X122497203Y-110564999D01*
X122599991Y-110575500D01*
X123400008Y-110575499D01*
X123400016Y-110575498D01*
X123400019Y-110575498D01*
X123456302Y-110569748D01*
X123502797Y-110564999D01*
X123669334Y-110509814D01*
X123818656Y-110417712D01*
X123942712Y-110293656D01*
X124034814Y-110144334D01*
X124089999Y-109977797D01*
X124100500Y-109875009D01*
X124100499Y-108524992D01*
X124093925Y-108460641D01*
X124089999Y-108422203D01*
X124089998Y-108422200D01*
X124063378Y-108341866D01*
X124034814Y-108255666D01*
X123942712Y-108106344D01*
X123818656Y-107982288D01*
X123669334Y-107890186D01*
X123669332Y-107890185D01*
X123663187Y-107886395D01*
X123664290Y-107884605D01*
X123619649Y-107845290D01*
X123600500Y-107779091D01*
X123600500Y-106893713D01*
X134649500Y-106893713D01*
X134649500Y-107106287D01*
X134682754Y-107316243D01*
X134726045Y-107449479D01*
X134748444Y-107518414D01*
X134844951Y-107707820D01*
X134969890Y-107879786D01*
X135120213Y-108030109D01*
X135292179Y-108155048D01*
X135292181Y-108155049D01*
X135292184Y-108155051D01*
X135481588Y-108251557D01*
X135683757Y-108317246D01*
X135893713Y-108350500D01*
X135893714Y-108350500D01*
X136106286Y-108350500D01*
X136106287Y-108350500D01*
X136316243Y-108317246D01*
X136518412Y-108251557D01*
X136707816Y-108155051D01*
X136774859Y-108106342D01*
X136879786Y-108030109D01*
X136879788Y-108030106D01*
X136879792Y-108030104D01*
X137030104Y-107879792D01*
X137030106Y-107879788D01*
X137030109Y-107879786D01*
X137155048Y-107707820D01*
X137155047Y-107707820D01*
X137155051Y-107707816D01*
X137251557Y-107518412D01*
X137317246Y-107316243D01*
X137350500Y-107106287D01*
X137350500Y-106893713D01*
X137317246Y-106683757D01*
X137251557Y-106481588D01*
X137155051Y-106292184D01*
X137155049Y-106292181D01*
X137155048Y-106292179D01*
X137030109Y-106120213D01*
X136879786Y-105969890D01*
X136707820Y-105844951D01*
X136518414Y-105748444D01*
X136518413Y-105748443D01*
X136518412Y-105748443D01*
X136316243Y-105682754D01*
X136316241Y-105682753D01*
X136316240Y-105682753D01*
X136154957Y-105657208D01*
X136106287Y-105649500D01*
X135893713Y-105649500D01*
X135845042Y-105657208D01*
X135683760Y-105682753D01*
X135481585Y-105748444D01*
X135292179Y-105844951D01*
X135120213Y-105969890D01*
X134969890Y-106120213D01*
X134844951Y-106292179D01*
X134748444Y-106481585D01*
X134682753Y-106683760D01*
X134649500Y-106893713D01*
X123600500Y-106893713D01*
X123600500Y-104351200D01*
X123620185Y-104284161D01*
X123672989Y-104238406D01*
X123724500Y-104227200D01*
X129771631Y-104227200D01*
X129771647Y-104227201D01*
X129779243Y-104227201D01*
X129937354Y-104227201D01*
X129937357Y-104227201D01*
X130090085Y-104186277D01*
X130167677Y-104141479D01*
X130227016Y-104107220D01*
X130338820Y-103995416D01*
X130338820Y-103995414D01*
X130349020Y-103985215D01*
X130349023Y-103985210D01*
X130477417Y-103856817D01*
X130538740Y-103823334D01*
X130565097Y-103820500D01*
X130697932Y-103820500D01*
X130697940Y-103820500D01*
X130734675Y-103817609D01*
X130734677Y-103817608D01*
X130734679Y-103817608D01*
X130891892Y-103771933D01*
X130891893Y-103771932D01*
X130891897Y-103771931D01*
X131032820Y-103688590D01*
X131148590Y-103572820D01*
X131231931Y-103431897D01*
X131231932Y-103431893D01*
X131231933Y-103431892D01*
X131277608Y-103274679D01*
X131277609Y-103274673D01*
X131280500Y-103237940D01*
X131280500Y-102762060D01*
X131277609Y-102725325D01*
X131277608Y-102725320D01*
X131231933Y-102568107D01*
X131231931Y-102568104D01*
X131231931Y-102568103D01*
X131148590Y-102427180D01*
X131148588Y-102427178D01*
X131148585Y-102427174D01*
X131032825Y-102311414D01*
X131032817Y-102311408D01*
X130891895Y-102228068D01*
X130891892Y-102228066D01*
X130734679Y-102182391D01*
X130734673Y-102182390D01*
X130697947Y-102179500D01*
X130697940Y-102179500D01*
X130272060Y-102179500D01*
X130272052Y-102179500D01*
X130235326Y-102182390D01*
X130235320Y-102182391D01*
X130078105Y-102228067D01*
X130063117Y-102236931D01*
X129995392Y-102254110D01*
X129936883Y-102236931D01*
X129921894Y-102228067D01*
X129764679Y-102182391D01*
X129764673Y-102182390D01*
X129727947Y-102179500D01*
X129727940Y-102179500D01*
X129595097Y-102179500D01*
X129528058Y-102159815D01*
X129507416Y-102143181D01*
X128117689Y-100753454D01*
X128110620Y-100746385D01*
X128110620Y-100746384D01*
X128076416Y-100712180D01*
X128042931Y-100650857D01*
X128045602Y-100613519D01*
X128047916Y-100581166D01*
X128089788Y-100525233D01*
X128089788Y-100525232D01*
X128089789Y-100525232D01*
X128130836Y-100509922D01*
X128155252Y-100500816D01*
X128164098Y-100500500D01*
X139375500Y-100500500D01*
X139442539Y-100520185D01*
X139488294Y-100572989D01*
X139499500Y-100624500D01*
X139499500Y-113375500D01*
X139479815Y-113442539D01*
X139427011Y-113488294D01*
X139375500Y-113499500D01*
X100624500Y-113499500D01*
X100557461Y-113479815D01*
X100511706Y-113427011D01*
X100500500Y-113375500D01*
X100500500Y-106893713D01*
X102649500Y-106893713D01*
X102649500Y-107106287D01*
X102682754Y-107316243D01*
X102726045Y-107449479D01*
X102748444Y-107518414D01*
X102844951Y-107707820D01*
X102969890Y-107879786D01*
X103120213Y-108030109D01*
X103292179Y-108155048D01*
X103292181Y-108155049D01*
X103292184Y-108155051D01*
X103481588Y-108251557D01*
X103683757Y-108317246D01*
X103893713Y-108350500D01*
X103893714Y-108350500D01*
X104106286Y-108350500D01*
X104106287Y-108350500D01*
X104316243Y-108317246D01*
X104518412Y-108251557D01*
X104707816Y-108155051D01*
X104774859Y-108106342D01*
X104879786Y-108030109D01*
X104879788Y-108030106D01*
X104879792Y-108030104D01*
X105030104Y-107879792D01*
X105030106Y-107879788D01*
X105030109Y-107879786D01*
X105155048Y-107707820D01*
X105155047Y-107707820D01*
X105155051Y-107707816D01*
X105251557Y-107518412D01*
X105317246Y-107316243D01*
X105350500Y-107106287D01*
X105350500Y-106893713D01*
X105317246Y-106683757D01*
X105251557Y-106481588D01*
X105155051Y-106292184D01*
X105155049Y-106292181D01*
X105155048Y-106292179D01*
X105030109Y-106120213D01*
X104879786Y-105969890D01*
X104707820Y-105844951D01*
X104518414Y-105748444D01*
X104518413Y-105748443D01*
X104518412Y-105748443D01*
X104316243Y-105682754D01*
X104316241Y-105682753D01*
X104316240Y-105682753D01*
X104154957Y-105657208D01*
X104106287Y-105649500D01*
X103893713Y-105649500D01*
X103845042Y-105657208D01*
X103683760Y-105682753D01*
X103481585Y-105748444D01*
X103292179Y-105844951D01*
X103120213Y-105969890D01*
X102969890Y-106120213D01*
X102844951Y-106292179D01*
X102748444Y-106481585D01*
X102682753Y-106683760D01*
X102649500Y-106893713D01*
X100500500Y-106893713D01*
X100500500Y-100624500D01*
X100520185Y-100557461D01*
X100572989Y-100511706D01*
X100624500Y-100500500D01*
X116215921Y-100500500D01*
X116282960Y-100520185D01*
G37*
%TD.AperFunction*%
M02*
