%TF.GenerationSoftware,KiCad,Pcbnew,9.0.7*%
%TF.CreationDate,2026-07-29T00:26:31-07:00*%
%TF.ProjectId,FN32ROV-XEBook-LED-KiCad,464e3332-524f-4562-9d58-45426f6f6b2d,rev?*%
%TF.SameCoordinates,Original*%
%TF.FileFunction,Drillmap*%
%TF.FilePolarity,Positive*%
%FSLAX45Y45*%
G04 Gerber Fmt 4.5, Leading zero omitted, Abs format (unit mm)*
G04 Created by KiCad (PCBNEW 9.0.7) date 2026-07-29 00:26:31*
%MOMM*%
%LPD*%
G01*
G04 APERTURE LIST*
%ADD10C,0.100000*%
%ADD11C,0.200000*%
%ADD12C,0.220000*%
G04 APERTURE END LIST*
D10*
X10000000Y-10000000D02*
X14000000Y-10000000D01*
X14000000Y-11400000D01*
X10000000Y-11400000D01*
X10000000Y-10000000D01*
D11*
D12*
X10290000Y-10590000D02*
X10510000Y-10810000D01*
X10510000Y-10590000D02*
X10290000Y-10810000D01*
X13490000Y-10590000D02*
X13710000Y-10810000D01*
X13710000Y-10590000D02*
X13490000Y-10810000D01*
D11*
X10255777Y-11716484D02*
X10255777Y-11516484D01*
X10255777Y-11516484D02*
X10303396Y-11516484D01*
X10303396Y-11516484D02*
X10331967Y-11526008D01*
X10331967Y-11526008D02*
X10351015Y-11545055D01*
X10351015Y-11545055D02*
X10360539Y-11564103D01*
X10360539Y-11564103D02*
X10370063Y-11602198D01*
X10370063Y-11602198D02*
X10370063Y-11630769D01*
X10370063Y-11630769D02*
X10360539Y-11668865D01*
X10360539Y-11668865D02*
X10351015Y-11687912D01*
X10351015Y-11687912D02*
X10331967Y-11706960D01*
X10331967Y-11706960D02*
X10303396Y-11716484D01*
X10303396Y-11716484D02*
X10255777Y-11716484D01*
X10455777Y-11716484D02*
X10455777Y-11583150D01*
X10455777Y-11621246D02*
X10465301Y-11602198D01*
X10465301Y-11602198D02*
X10474824Y-11592674D01*
X10474824Y-11592674D02*
X10493872Y-11583150D01*
X10493872Y-11583150D02*
X10512920Y-11583150D01*
X10579586Y-11716484D02*
X10579586Y-11583150D01*
X10579586Y-11516484D02*
X10570063Y-11526008D01*
X10570063Y-11526008D02*
X10579586Y-11535531D01*
X10579586Y-11535531D02*
X10589110Y-11526008D01*
X10589110Y-11526008D02*
X10579586Y-11516484D01*
X10579586Y-11516484D02*
X10579586Y-11535531D01*
X10703396Y-11716484D02*
X10684348Y-11706960D01*
X10684348Y-11706960D02*
X10674824Y-11687912D01*
X10674824Y-11687912D02*
X10674824Y-11516484D01*
X10808158Y-11716484D02*
X10789110Y-11706960D01*
X10789110Y-11706960D02*
X10779586Y-11687912D01*
X10779586Y-11687912D02*
X10779586Y-11516484D01*
X11036729Y-11716484D02*
X11036729Y-11516484D01*
X11036729Y-11516484D02*
X11103396Y-11659341D01*
X11103396Y-11659341D02*
X11170063Y-11516484D01*
X11170063Y-11516484D02*
X11170063Y-11716484D01*
X11351015Y-11716484D02*
X11351015Y-11611722D01*
X11351015Y-11611722D02*
X11341491Y-11592674D01*
X11341491Y-11592674D02*
X11322443Y-11583150D01*
X11322443Y-11583150D02*
X11284348Y-11583150D01*
X11284348Y-11583150D02*
X11265301Y-11592674D01*
X11351015Y-11706960D02*
X11331967Y-11716484D01*
X11331967Y-11716484D02*
X11284348Y-11716484D01*
X11284348Y-11716484D02*
X11265301Y-11706960D01*
X11265301Y-11706960D02*
X11255777Y-11687912D01*
X11255777Y-11687912D02*
X11255777Y-11668865D01*
X11255777Y-11668865D02*
X11265301Y-11649817D01*
X11265301Y-11649817D02*
X11284348Y-11640293D01*
X11284348Y-11640293D02*
X11331967Y-11640293D01*
X11331967Y-11640293D02*
X11351015Y-11630769D01*
X11446253Y-11583150D02*
X11446253Y-11783150D01*
X11446253Y-11592674D02*
X11465301Y-11583150D01*
X11465301Y-11583150D02*
X11503396Y-11583150D01*
X11503396Y-11583150D02*
X11522443Y-11592674D01*
X11522443Y-11592674D02*
X11531967Y-11602198D01*
X11531967Y-11602198D02*
X11541491Y-11621246D01*
X11541491Y-11621246D02*
X11541491Y-11678388D01*
X11541491Y-11678388D02*
X11531967Y-11697436D01*
X11531967Y-11697436D02*
X11522443Y-11706960D01*
X11522443Y-11706960D02*
X11503396Y-11716484D01*
X11503396Y-11716484D02*
X11465301Y-11716484D01*
X11465301Y-11716484D02*
X11446253Y-11706960D01*
X11627205Y-11697436D02*
X11636729Y-11706960D01*
X11636729Y-11706960D02*
X11627205Y-11716484D01*
X11627205Y-11716484D02*
X11617682Y-11706960D01*
X11617682Y-11706960D02*
X11627205Y-11697436D01*
X11627205Y-11697436D02*
X11627205Y-11716484D01*
X11627205Y-11592674D02*
X11636729Y-11602198D01*
X11636729Y-11602198D02*
X11627205Y-11611722D01*
X11627205Y-11611722D02*
X11617682Y-11602198D01*
X11617682Y-11602198D02*
X11627205Y-11592674D01*
X11627205Y-11592674D02*
X11627205Y-11611722D01*
X9795000Y-11945000D02*
X9995000Y-12145000D01*
X9995000Y-11945000D02*
X9795000Y-12145000D01*
X10246253Y-11955531D02*
X10255777Y-11946008D01*
X10255777Y-11946008D02*
X10274824Y-11936484D01*
X10274824Y-11936484D02*
X10322444Y-11936484D01*
X10322444Y-11936484D02*
X10341491Y-11946008D01*
X10341491Y-11946008D02*
X10351015Y-11955531D01*
X10351015Y-11955531D02*
X10360539Y-11974579D01*
X10360539Y-11974579D02*
X10360539Y-11993627D01*
X10360539Y-11993627D02*
X10351015Y-12022198D01*
X10351015Y-12022198D02*
X10236729Y-12136484D01*
X10236729Y-12136484D02*
X10360539Y-12136484D01*
X10446253Y-12117436D02*
X10455777Y-12126960D01*
X10455777Y-12126960D02*
X10446253Y-12136484D01*
X10446253Y-12136484D02*
X10436729Y-12126960D01*
X10436729Y-12126960D02*
X10446253Y-12117436D01*
X10446253Y-12117436D02*
X10446253Y-12136484D01*
X10531967Y-11955531D02*
X10541491Y-11946008D01*
X10541491Y-11946008D02*
X10560539Y-11936484D01*
X10560539Y-11936484D02*
X10608158Y-11936484D01*
X10608158Y-11936484D02*
X10627205Y-11946008D01*
X10627205Y-11946008D02*
X10636729Y-11955531D01*
X10636729Y-11955531D02*
X10646253Y-11974579D01*
X10646253Y-11974579D02*
X10646253Y-11993627D01*
X10646253Y-11993627D02*
X10636729Y-12022198D01*
X10636729Y-12022198D02*
X10522444Y-12136484D01*
X10522444Y-12136484D02*
X10646253Y-12136484D01*
X10770063Y-11936484D02*
X10789110Y-11936484D01*
X10789110Y-11936484D02*
X10808158Y-11946008D01*
X10808158Y-11946008D02*
X10817682Y-11955531D01*
X10817682Y-11955531D02*
X10827205Y-11974579D01*
X10827205Y-11974579D02*
X10836729Y-12012674D01*
X10836729Y-12012674D02*
X10836729Y-12060293D01*
X10836729Y-12060293D02*
X10827205Y-12098388D01*
X10827205Y-12098388D02*
X10817682Y-12117436D01*
X10817682Y-12117436D02*
X10808158Y-12126960D01*
X10808158Y-12126960D02*
X10789110Y-12136484D01*
X10789110Y-12136484D02*
X10770063Y-12136484D01*
X10770063Y-12136484D02*
X10751015Y-12126960D01*
X10751015Y-12126960D02*
X10741491Y-12117436D01*
X10741491Y-12117436D02*
X10731967Y-12098388D01*
X10731967Y-12098388D02*
X10722444Y-12060293D01*
X10722444Y-12060293D02*
X10722444Y-12012674D01*
X10722444Y-12012674D02*
X10731967Y-11974579D01*
X10731967Y-11974579D02*
X10741491Y-11955531D01*
X10741491Y-11955531D02*
X10751015Y-11946008D01*
X10751015Y-11946008D02*
X10770063Y-11936484D01*
X10960539Y-11936484D02*
X10979586Y-11936484D01*
X10979586Y-11936484D02*
X10998634Y-11946008D01*
X10998634Y-11946008D02*
X11008158Y-11955531D01*
X11008158Y-11955531D02*
X11017682Y-11974579D01*
X11017682Y-11974579D02*
X11027205Y-12012674D01*
X11027205Y-12012674D02*
X11027205Y-12060293D01*
X11027205Y-12060293D02*
X11017682Y-12098388D01*
X11017682Y-12098388D02*
X11008158Y-12117436D01*
X11008158Y-12117436D02*
X10998634Y-12126960D01*
X10998634Y-12126960D02*
X10979586Y-12136484D01*
X10979586Y-12136484D02*
X10960539Y-12136484D01*
X10960539Y-12136484D02*
X10941491Y-12126960D01*
X10941491Y-12126960D02*
X10931967Y-12117436D01*
X10931967Y-12117436D02*
X10922444Y-12098388D01*
X10922444Y-12098388D02*
X10912920Y-12060293D01*
X10912920Y-12060293D02*
X10912920Y-12012674D01*
X10912920Y-12012674D02*
X10922444Y-11974579D01*
X10922444Y-11974579D02*
X10931967Y-11955531D01*
X10931967Y-11955531D02*
X10941491Y-11946008D01*
X10941491Y-11946008D02*
X10960539Y-11936484D01*
X11112920Y-12136484D02*
X11112920Y-12003150D01*
X11112920Y-12022198D02*
X11122444Y-12012674D01*
X11122444Y-12012674D02*
X11141491Y-12003150D01*
X11141491Y-12003150D02*
X11170063Y-12003150D01*
X11170063Y-12003150D02*
X11189110Y-12012674D01*
X11189110Y-12012674D02*
X11198634Y-12031722D01*
X11198634Y-12031722D02*
X11198634Y-12136484D01*
X11198634Y-12031722D02*
X11208158Y-12012674D01*
X11208158Y-12012674D02*
X11227205Y-12003150D01*
X11227205Y-12003150D02*
X11255777Y-12003150D01*
X11255777Y-12003150D02*
X11274824Y-12012674D01*
X11274824Y-12012674D02*
X11284348Y-12031722D01*
X11284348Y-12031722D02*
X11284348Y-12136484D01*
X11379586Y-12136484D02*
X11379586Y-12003150D01*
X11379586Y-12022198D02*
X11389110Y-12012674D01*
X11389110Y-12012674D02*
X11408158Y-12003150D01*
X11408158Y-12003150D02*
X11436729Y-12003150D01*
X11436729Y-12003150D02*
X11455777Y-12012674D01*
X11455777Y-12012674D02*
X11465301Y-12031722D01*
X11465301Y-12031722D02*
X11465301Y-12136484D01*
X11465301Y-12031722D02*
X11474824Y-12012674D01*
X11474824Y-12012674D02*
X11493872Y-12003150D01*
X11493872Y-12003150D02*
X11522443Y-12003150D01*
X11522443Y-12003150D02*
X11541491Y-12012674D01*
X11541491Y-12012674D02*
X11551015Y-12031722D01*
X11551015Y-12031722D02*
X11551015Y-12136484D01*
X11941491Y-11926960D02*
X11770063Y-12184103D01*
X12198634Y-11936484D02*
X12217682Y-11936484D01*
X12217682Y-11936484D02*
X12236729Y-11946008D01*
X12236729Y-11946008D02*
X12246253Y-11955531D01*
X12246253Y-11955531D02*
X12255777Y-11974579D01*
X12255777Y-11974579D02*
X12265301Y-12012674D01*
X12265301Y-12012674D02*
X12265301Y-12060293D01*
X12265301Y-12060293D02*
X12255777Y-12098388D01*
X12255777Y-12098388D02*
X12246253Y-12117436D01*
X12246253Y-12117436D02*
X12236729Y-12126960D01*
X12236729Y-12126960D02*
X12217682Y-12136484D01*
X12217682Y-12136484D02*
X12198634Y-12136484D01*
X12198634Y-12136484D02*
X12179586Y-12126960D01*
X12179586Y-12126960D02*
X12170063Y-12117436D01*
X12170063Y-12117436D02*
X12160539Y-12098388D01*
X12160539Y-12098388D02*
X12151015Y-12060293D01*
X12151015Y-12060293D02*
X12151015Y-12012674D01*
X12151015Y-12012674D02*
X12160539Y-11974579D01*
X12160539Y-11974579D02*
X12170063Y-11955531D01*
X12170063Y-11955531D02*
X12179586Y-11946008D01*
X12179586Y-11946008D02*
X12198634Y-11936484D01*
X12351015Y-12117436D02*
X12360539Y-12126960D01*
X12360539Y-12126960D02*
X12351015Y-12136484D01*
X12351015Y-12136484D02*
X12341491Y-12126960D01*
X12341491Y-12126960D02*
X12351015Y-12117436D01*
X12351015Y-12117436D02*
X12351015Y-12136484D01*
X12484348Y-11936484D02*
X12503396Y-11936484D01*
X12503396Y-11936484D02*
X12522444Y-11946008D01*
X12522444Y-11946008D02*
X12531967Y-11955531D01*
X12531967Y-11955531D02*
X12541491Y-11974579D01*
X12541491Y-11974579D02*
X12551015Y-12012674D01*
X12551015Y-12012674D02*
X12551015Y-12060293D01*
X12551015Y-12060293D02*
X12541491Y-12098388D01*
X12541491Y-12098388D02*
X12531967Y-12117436D01*
X12531967Y-12117436D02*
X12522444Y-12126960D01*
X12522444Y-12126960D02*
X12503396Y-12136484D01*
X12503396Y-12136484D02*
X12484348Y-12136484D01*
X12484348Y-12136484D02*
X12465301Y-12126960D01*
X12465301Y-12126960D02*
X12455777Y-12117436D01*
X12455777Y-12117436D02*
X12446253Y-12098388D01*
X12446253Y-12098388D02*
X12436729Y-12060293D01*
X12436729Y-12060293D02*
X12436729Y-12012674D01*
X12436729Y-12012674D02*
X12446253Y-11974579D01*
X12446253Y-11974579D02*
X12455777Y-11955531D01*
X12455777Y-11955531D02*
X12465301Y-11946008D01*
X12465301Y-11946008D02*
X12484348Y-11936484D01*
X12665301Y-12022198D02*
X12646253Y-12012674D01*
X12646253Y-12012674D02*
X12636729Y-12003150D01*
X12636729Y-12003150D02*
X12627206Y-11984103D01*
X12627206Y-11984103D02*
X12627206Y-11974579D01*
X12627206Y-11974579D02*
X12636729Y-11955531D01*
X12636729Y-11955531D02*
X12646253Y-11946008D01*
X12646253Y-11946008D02*
X12665301Y-11936484D01*
X12665301Y-11936484D02*
X12703396Y-11936484D01*
X12703396Y-11936484D02*
X12722444Y-11946008D01*
X12722444Y-11946008D02*
X12731967Y-11955531D01*
X12731967Y-11955531D02*
X12741491Y-11974579D01*
X12741491Y-11974579D02*
X12741491Y-11984103D01*
X12741491Y-11984103D02*
X12731967Y-12003150D01*
X12731967Y-12003150D02*
X12722444Y-12012674D01*
X12722444Y-12012674D02*
X12703396Y-12022198D01*
X12703396Y-12022198D02*
X12665301Y-12022198D01*
X12665301Y-12022198D02*
X12646253Y-12031722D01*
X12646253Y-12031722D02*
X12636729Y-12041246D01*
X12636729Y-12041246D02*
X12627206Y-12060293D01*
X12627206Y-12060293D02*
X12627206Y-12098388D01*
X12627206Y-12098388D02*
X12636729Y-12117436D01*
X12636729Y-12117436D02*
X12646253Y-12126960D01*
X12646253Y-12126960D02*
X12665301Y-12136484D01*
X12665301Y-12136484D02*
X12703396Y-12136484D01*
X12703396Y-12136484D02*
X12722444Y-12126960D01*
X12722444Y-12126960D02*
X12731967Y-12117436D01*
X12731967Y-12117436D02*
X12741491Y-12098388D01*
X12741491Y-12098388D02*
X12741491Y-12060293D01*
X12741491Y-12060293D02*
X12731967Y-12041246D01*
X12731967Y-12041246D02*
X12722444Y-12031722D01*
X12722444Y-12031722D02*
X12703396Y-12022198D01*
X12912920Y-11936484D02*
X12874825Y-11936484D01*
X12874825Y-11936484D02*
X12855777Y-11946008D01*
X12855777Y-11946008D02*
X12846253Y-11955531D01*
X12846253Y-11955531D02*
X12827206Y-11984103D01*
X12827206Y-11984103D02*
X12817682Y-12022198D01*
X12817682Y-12022198D02*
X12817682Y-12098388D01*
X12817682Y-12098388D02*
X12827206Y-12117436D01*
X12827206Y-12117436D02*
X12836729Y-12126960D01*
X12836729Y-12126960D02*
X12855777Y-12136484D01*
X12855777Y-12136484D02*
X12893872Y-12136484D01*
X12893872Y-12136484D02*
X12912920Y-12126960D01*
X12912920Y-12126960D02*
X12922444Y-12117436D01*
X12922444Y-12117436D02*
X12931967Y-12098388D01*
X12931967Y-12098388D02*
X12931967Y-12050769D01*
X12931967Y-12050769D02*
X12922444Y-12031722D01*
X12922444Y-12031722D02*
X12912920Y-12022198D01*
X12912920Y-12022198D02*
X12893872Y-12012674D01*
X12893872Y-12012674D02*
X12855777Y-12012674D01*
X12855777Y-12012674D02*
X12836729Y-12022198D01*
X12836729Y-12022198D02*
X12827206Y-12031722D01*
X12827206Y-12031722D02*
X12817682Y-12050769D01*
X13103396Y-11936484D02*
X13065301Y-11936484D01*
X13065301Y-11936484D02*
X13046253Y-11946008D01*
X13046253Y-11946008D02*
X13036729Y-11955531D01*
X13036729Y-11955531D02*
X13017682Y-11984103D01*
X13017682Y-11984103D02*
X13008158Y-12022198D01*
X13008158Y-12022198D02*
X13008158Y-12098388D01*
X13008158Y-12098388D02*
X13017682Y-12117436D01*
X13017682Y-12117436D02*
X13027206Y-12126960D01*
X13027206Y-12126960D02*
X13046253Y-12136484D01*
X13046253Y-12136484D02*
X13084348Y-12136484D01*
X13084348Y-12136484D02*
X13103396Y-12126960D01*
X13103396Y-12126960D02*
X13112920Y-12117436D01*
X13112920Y-12117436D02*
X13122444Y-12098388D01*
X13122444Y-12098388D02*
X13122444Y-12050769D01*
X13122444Y-12050769D02*
X13112920Y-12031722D01*
X13112920Y-12031722D02*
X13103396Y-12022198D01*
X13103396Y-12022198D02*
X13084348Y-12012674D01*
X13084348Y-12012674D02*
X13046253Y-12012674D01*
X13046253Y-12012674D02*
X13027206Y-12022198D01*
X13027206Y-12022198D02*
X13017682Y-12031722D01*
X13017682Y-12031722D02*
X13008158Y-12050769D01*
X13198634Y-11936484D02*
X13198634Y-11974579D01*
X13274825Y-11936484D02*
X13274825Y-11974579D01*
X13570063Y-12212674D02*
X13560539Y-12203150D01*
X13560539Y-12203150D02*
X13541491Y-12174579D01*
X13541491Y-12174579D02*
X13531968Y-12155531D01*
X13531968Y-12155531D02*
X13522444Y-12126960D01*
X13522444Y-12126960D02*
X13512920Y-12079341D01*
X13512920Y-12079341D02*
X13512920Y-12041246D01*
X13512920Y-12041246D02*
X13522444Y-11993627D01*
X13522444Y-11993627D02*
X13531968Y-11965055D01*
X13531968Y-11965055D02*
X13541491Y-11946008D01*
X13541491Y-11946008D02*
X13560539Y-11917436D01*
X13560539Y-11917436D02*
X13570063Y-11907912D01*
X13636729Y-11955531D02*
X13646253Y-11946008D01*
X13646253Y-11946008D02*
X13665301Y-11936484D01*
X13665301Y-11936484D02*
X13712920Y-11936484D01*
X13712920Y-11936484D02*
X13731968Y-11946008D01*
X13731968Y-11946008D02*
X13741491Y-11955531D01*
X13741491Y-11955531D02*
X13751015Y-11974579D01*
X13751015Y-11974579D02*
X13751015Y-11993627D01*
X13751015Y-11993627D02*
X13741491Y-12022198D01*
X13741491Y-12022198D02*
X13627206Y-12136484D01*
X13627206Y-12136484D02*
X13751015Y-12136484D01*
X13989110Y-12136484D02*
X13989110Y-11936484D01*
X14074825Y-12136484D02*
X14074825Y-12031722D01*
X14074825Y-12031722D02*
X14065301Y-12012674D01*
X14065301Y-12012674D02*
X14046253Y-12003150D01*
X14046253Y-12003150D02*
X14017682Y-12003150D01*
X14017682Y-12003150D02*
X13998634Y-12012674D01*
X13998634Y-12012674D02*
X13989110Y-12022198D01*
X14198634Y-12136484D02*
X14179587Y-12126960D01*
X14179587Y-12126960D02*
X14170063Y-12117436D01*
X14170063Y-12117436D02*
X14160539Y-12098388D01*
X14160539Y-12098388D02*
X14160539Y-12041246D01*
X14160539Y-12041246D02*
X14170063Y-12022198D01*
X14170063Y-12022198D02*
X14179587Y-12012674D01*
X14179587Y-12012674D02*
X14198634Y-12003150D01*
X14198634Y-12003150D02*
X14227206Y-12003150D01*
X14227206Y-12003150D02*
X14246253Y-12012674D01*
X14246253Y-12012674D02*
X14255777Y-12022198D01*
X14255777Y-12022198D02*
X14265301Y-12041246D01*
X14265301Y-12041246D02*
X14265301Y-12098388D01*
X14265301Y-12098388D02*
X14255777Y-12117436D01*
X14255777Y-12117436D02*
X14246253Y-12126960D01*
X14246253Y-12126960D02*
X14227206Y-12136484D01*
X14227206Y-12136484D02*
X14198634Y-12136484D01*
X14379587Y-12136484D02*
X14360539Y-12126960D01*
X14360539Y-12126960D02*
X14351015Y-12107912D01*
X14351015Y-12107912D02*
X14351015Y-11936484D01*
X14531968Y-12126960D02*
X14512920Y-12136484D01*
X14512920Y-12136484D02*
X14474825Y-12136484D01*
X14474825Y-12136484D02*
X14455777Y-12126960D01*
X14455777Y-12126960D02*
X14446253Y-12107912D01*
X14446253Y-12107912D02*
X14446253Y-12031722D01*
X14446253Y-12031722D02*
X14455777Y-12012674D01*
X14455777Y-12012674D02*
X14474825Y-12003150D01*
X14474825Y-12003150D02*
X14512920Y-12003150D01*
X14512920Y-12003150D02*
X14531968Y-12012674D01*
X14531968Y-12012674D02*
X14541491Y-12031722D01*
X14541491Y-12031722D02*
X14541491Y-12050769D01*
X14541491Y-12050769D02*
X14446253Y-12069817D01*
X14617682Y-12126960D02*
X14636730Y-12136484D01*
X14636730Y-12136484D02*
X14674825Y-12136484D01*
X14674825Y-12136484D02*
X14693872Y-12126960D01*
X14693872Y-12126960D02*
X14703396Y-12107912D01*
X14703396Y-12107912D02*
X14703396Y-12098388D01*
X14703396Y-12098388D02*
X14693872Y-12079341D01*
X14693872Y-12079341D02*
X14674825Y-12069817D01*
X14674825Y-12069817D02*
X14646253Y-12069817D01*
X14646253Y-12069817D02*
X14627206Y-12060293D01*
X14627206Y-12060293D02*
X14617682Y-12041246D01*
X14617682Y-12041246D02*
X14617682Y-12031722D01*
X14617682Y-12031722D02*
X14627206Y-12012674D01*
X14627206Y-12012674D02*
X14646253Y-12003150D01*
X14646253Y-12003150D02*
X14674825Y-12003150D01*
X14674825Y-12003150D02*
X14693872Y-12012674D01*
X14770063Y-12212674D02*
X14779587Y-12203150D01*
X14779587Y-12203150D02*
X14798634Y-12174579D01*
X14798634Y-12174579D02*
X14808158Y-12155531D01*
X14808158Y-12155531D02*
X14817682Y-12126960D01*
X14817682Y-12126960D02*
X14827206Y-12079341D01*
X14827206Y-12079341D02*
X14827206Y-12041246D01*
X14827206Y-12041246D02*
X14817682Y-11993627D01*
X14817682Y-11993627D02*
X14808158Y-11965055D01*
X14808158Y-11965055D02*
X14798634Y-11946008D01*
X14798634Y-11946008D02*
X14779587Y-11917436D01*
X14779587Y-11917436D02*
X14770063Y-11907912D01*
X15131968Y-12212674D02*
X15122444Y-12203150D01*
X15122444Y-12203150D02*
X15103396Y-12174579D01*
X15103396Y-12174579D02*
X15093872Y-12155531D01*
X15093872Y-12155531D02*
X15084349Y-12126960D01*
X15084349Y-12126960D02*
X15074825Y-12079341D01*
X15074825Y-12079341D02*
X15074825Y-12041246D01*
X15074825Y-12041246D02*
X15084349Y-11993627D01*
X15084349Y-11993627D02*
X15093872Y-11965055D01*
X15093872Y-11965055D02*
X15103396Y-11946008D01*
X15103396Y-11946008D02*
X15122444Y-11917436D01*
X15122444Y-11917436D02*
X15131968Y-11907912D01*
X15208158Y-12003150D02*
X15208158Y-12136484D01*
X15208158Y-12022198D02*
X15217682Y-12012674D01*
X15217682Y-12012674D02*
X15236730Y-12003150D01*
X15236730Y-12003150D02*
X15265301Y-12003150D01*
X15265301Y-12003150D02*
X15284349Y-12012674D01*
X15284349Y-12012674D02*
X15293872Y-12031722D01*
X15293872Y-12031722D02*
X15293872Y-12136484D01*
X15417682Y-12136484D02*
X15398634Y-12126960D01*
X15398634Y-12126960D02*
X15389111Y-12117436D01*
X15389111Y-12117436D02*
X15379587Y-12098388D01*
X15379587Y-12098388D02*
X15379587Y-12041246D01*
X15379587Y-12041246D02*
X15389111Y-12022198D01*
X15389111Y-12022198D02*
X15398634Y-12012674D01*
X15398634Y-12012674D02*
X15417682Y-12003150D01*
X15417682Y-12003150D02*
X15446253Y-12003150D01*
X15446253Y-12003150D02*
X15465301Y-12012674D01*
X15465301Y-12012674D02*
X15474825Y-12022198D01*
X15474825Y-12022198D02*
X15484349Y-12041246D01*
X15484349Y-12041246D02*
X15484349Y-12098388D01*
X15484349Y-12098388D02*
X15474825Y-12117436D01*
X15474825Y-12117436D02*
X15465301Y-12126960D01*
X15465301Y-12126960D02*
X15446253Y-12136484D01*
X15446253Y-12136484D02*
X15417682Y-12136484D01*
X15541492Y-12003150D02*
X15617682Y-12003150D01*
X15570063Y-11936484D02*
X15570063Y-12107912D01*
X15570063Y-12107912D02*
X15579587Y-12126960D01*
X15579587Y-12126960D02*
X15598634Y-12136484D01*
X15598634Y-12136484D02*
X15617682Y-12136484D01*
X15836730Y-12003150D02*
X15836730Y-12203150D01*
X15836730Y-12012674D02*
X15855777Y-12003150D01*
X15855777Y-12003150D02*
X15893873Y-12003150D01*
X15893873Y-12003150D02*
X15912920Y-12012674D01*
X15912920Y-12012674D02*
X15922444Y-12022198D01*
X15922444Y-12022198D02*
X15931968Y-12041246D01*
X15931968Y-12041246D02*
X15931968Y-12098388D01*
X15931968Y-12098388D02*
X15922444Y-12117436D01*
X15922444Y-12117436D02*
X15912920Y-12126960D01*
X15912920Y-12126960D02*
X15893873Y-12136484D01*
X15893873Y-12136484D02*
X15855777Y-12136484D01*
X15855777Y-12136484D02*
X15836730Y-12126960D01*
X16046253Y-12136484D02*
X16027206Y-12126960D01*
X16027206Y-12126960D02*
X16017682Y-12107912D01*
X16017682Y-12107912D02*
X16017682Y-11936484D01*
X16208158Y-12136484D02*
X16208158Y-12031722D01*
X16208158Y-12031722D02*
X16198634Y-12012674D01*
X16198634Y-12012674D02*
X16179587Y-12003150D01*
X16179587Y-12003150D02*
X16141492Y-12003150D01*
X16141492Y-12003150D02*
X16122444Y-12012674D01*
X16208158Y-12126960D02*
X16189111Y-12136484D01*
X16189111Y-12136484D02*
X16141492Y-12136484D01*
X16141492Y-12136484D02*
X16122444Y-12126960D01*
X16122444Y-12126960D02*
X16112920Y-12107912D01*
X16112920Y-12107912D02*
X16112920Y-12088865D01*
X16112920Y-12088865D02*
X16122444Y-12069817D01*
X16122444Y-12069817D02*
X16141492Y-12060293D01*
X16141492Y-12060293D02*
X16189111Y-12060293D01*
X16189111Y-12060293D02*
X16208158Y-12050769D01*
X16274825Y-12003150D02*
X16351015Y-12003150D01*
X16303396Y-11936484D02*
X16303396Y-12107912D01*
X16303396Y-12107912D02*
X16312920Y-12126960D01*
X16312920Y-12126960D02*
X16331968Y-12136484D01*
X16331968Y-12136484D02*
X16351015Y-12136484D01*
X16493873Y-12126960D02*
X16474825Y-12136484D01*
X16474825Y-12136484D02*
X16436730Y-12136484D01*
X16436730Y-12136484D02*
X16417682Y-12126960D01*
X16417682Y-12126960D02*
X16408158Y-12107912D01*
X16408158Y-12107912D02*
X16408158Y-12031722D01*
X16408158Y-12031722D02*
X16417682Y-12012674D01*
X16417682Y-12012674D02*
X16436730Y-12003150D01*
X16436730Y-12003150D02*
X16474825Y-12003150D01*
X16474825Y-12003150D02*
X16493873Y-12012674D01*
X16493873Y-12012674D02*
X16503396Y-12031722D01*
X16503396Y-12031722D02*
X16503396Y-12050769D01*
X16503396Y-12050769D02*
X16408158Y-12069817D01*
X16674825Y-12136484D02*
X16674825Y-11936484D01*
X16674825Y-12126960D02*
X16655777Y-12136484D01*
X16655777Y-12136484D02*
X16617682Y-12136484D01*
X16617682Y-12136484D02*
X16598634Y-12126960D01*
X16598634Y-12126960D02*
X16589111Y-12117436D01*
X16589111Y-12117436D02*
X16579587Y-12098388D01*
X16579587Y-12098388D02*
X16579587Y-12041246D01*
X16579587Y-12041246D02*
X16589111Y-12022198D01*
X16589111Y-12022198D02*
X16598634Y-12012674D01*
X16598634Y-12012674D02*
X16617682Y-12003150D01*
X16617682Y-12003150D02*
X16655777Y-12003150D01*
X16655777Y-12003150D02*
X16674825Y-12012674D01*
X16751015Y-12212674D02*
X16760539Y-12203150D01*
X16760539Y-12203150D02*
X16779587Y-12174579D01*
X16779587Y-12174579D02*
X16789111Y-12155531D01*
X16789111Y-12155531D02*
X16798635Y-12126960D01*
X16798635Y-12126960D02*
X16808158Y-12079341D01*
X16808158Y-12079341D02*
X16808158Y-12041246D01*
X16808158Y-12041246D02*
X16798635Y-11993627D01*
X16798635Y-11993627D02*
X16789111Y-11965055D01*
X16789111Y-11965055D02*
X16779587Y-11946008D01*
X16779587Y-11946008D02*
X16760539Y-11917436D01*
X16760539Y-11917436D02*
X16751015Y-11907912D01*
M02*
